<svg width="1440" height="847" viewBox="0 0 1440 847" fill="none" xmlns="http://www.w3.org/2000/svg">
<rect width="1440" height="847" fill="white"/>
<mask id="mask0" mask-type="alpha" maskUnits="userSpaceOnUse" x="0" y="0" width="1440" height="847">
<rect width="1440" height="847" fill="white"/>
</mask>
<g mask="url(#mask0)">
<g opacity="0.04">
<path fill-rule="evenodd" clip-rule="evenodd" d="M-11.5567 590.707L344.112 235.038C351.128 228.023 362.541 228.063 369.606 235.127L523.096 388.617C544.289 409.81 544.407 444.051 523.361 465.097L167.692 820.766C160.677 827.782 149.263 827.742 142.199 820.678L-11.2914 667.187C-32.4841 645.995 -32.6028 611.753 -11.5567 590.707Z" fill="url(#paint0_linear)"/>
<path fill-rule="evenodd" clip-rule="evenodd" d="M306.827 578.89L-12.4756 259.587C-33.6371 238.425 -33.7464 204.225 -12.7198 183.199L139.569 30.9101C146.578 23.9012 157.978 23.9376 165.032 30.9915L522.651 388.611C543.812 409.772 543.922 443.973 522.895 464.999L370.607 617.288L319.844 668.05C340.87 647.024 340.761 612.824 319.599 591.662L306.827 578.89Z" fill="url(#paint1_linear)"/>
</g>
</g>
<defs>
<linearGradient id="paint0_linear" x1="128.342" y1="806.82" x2="428.964" y2="506.198" gradientUnits="userSpaceOnUse">
<stop stop-color="#00749B"/>
<stop offset="1" stop-color="#005077"/>
</linearGradient>
<linearGradient id="paint1_linear" x1="-88.864" y1="259.343" x2="319.844" y2="668.05" gradientUnits="userSpaceOnUse">
<stop stop-color="#00CAF2"/>
<stop offset="1" stop-color="#009AE0"/>
</linearGradient>
</defs>
</svg>
