<svg width="1440" height="624" viewBox="0 0 1440 624" fill="none" xmlns="http://www.w3.org/2000/svg">
<rect width="1440" height="624" fill="white"/>
<mask id="mask0" mask-type="alpha" maskUnits="userSpaceOnUse" x="0" y="0" width="1440" height="624">
<rect width="1440" height="624" fill="white"/>
</mask>
<g mask="url(#mask0)">
<g opacity="0.34">
<path fill-rule="evenodd" clip-rule="evenodd" d="M971.673 552.478L1474.38 49.7673C1484.3 39.8516 1500.43 39.9075 1510.42 49.8923L1727.36 266.839C1757.32 296.793 1757.49 345.191 1727.74 374.938L1225.03 877.649C1215.11 887.565 1198.98 887.509 1188.99 877.524L972.048 660.577C942.094 630.623 941.926 582.225 971.673 552.478Z" fill="url(#paint0_linear)"/>
<path fill-rule="evenodd" clip-rule="evenodd" d="M1421.68 535.775L970.374 84.4651C940.463 54.5549 940.309 6.21538 970.028 -23.5042L1185.28 -238.752C1195.18 -248.659 1211.3 -248.607 1221.27 -238.637L1726.73 266.83C1756.64 296.74 1756.8 345.08 1727.08 374.8L1511.83 590.048L1440.08 661.797C1469.8 632.077 1469.65 583.738 1439.74 553.828L1421.68 535.775Z" fill="url(#paint1_linear)"/>
</g>
<g clip-path="url(#clip0)">
<path d="M690.167 307C686.949 307 684.022 304.989 682.852 302.002L624.525 152.206C623.764 150.253 623.822 148.125 624.661 146.211C625.5 144.298 627.041 142.814 628.972 142.053L738.019 99.5272C738.917 99.1757 739.872 99 740.828 99C744.047 99 746.973 101.011 748.144 103.998L806.471 253.794C807.232 255.747 807.173 257.875 806.335 259.789C805.496 261.702 803.955 263.186 802.004 263.947L692.976 306.492C692.079 306.805 691.123 307 690.167 307ZM740.828 100.953C740.107 100.953 739.385 101.089 738.722 101.343L629.694 143.888C628.231 144.454 627.08 145.567 626.456 147.012C625.832 148.457 625.793 150.058 626.358 151.503L684.686 301.299C685.564 303.544 687.768 305.048 690.187 305.048C690.909 305.048 691.63 304.911 692.294 304.657L801.321 262.112C802.784 261.546 803.935 260.433 804.559 258.988C805.203 257.543 805.223 255.942 804.657 254.497L746.329 104.701C745.452 102.456 743.247 100.953 740.828 100.953Z" fill="#5E8ABE" fill-opacity="0.24"/>
<path d="M651.854 185.379C648.636 185.379 645.71 183.368 644.539 180.38L636.053 158.532C635.293 156.579 635.351 154.451 636.19 152.538C637.029 150.624 638.57 149.14 640.501 148.379L733.142 112.336C734.04 111.984 734.995 111.808 735.971 111.808C739.19 111.808 742.116 113.82 743.286 116.807L751.772 138.655C752.533 140.608 752.474 142.736 751.635 144.65C750.797 146.563 749.255 148.047 747.324 148.808L654.683 184.832C653.766 185.203 652.83 185.379 651.854 185.379ZM735.951 113.761C735.23 113.761 734.508 113.898 733.845 114.151L641.223 150.214C639.76 150.78 638.609 151.893 637.985 153.338C637.341 154.783 637.321 156.384 637.887 157.829L646.373 179.677C647.251 181.923 649.455 183.426 651.874 183.426C652.596 183.426 653.317 183.29 653.981 183.036L746.602 146.973C748.065 146.407 749.216 145.294 749.841 143.849C750.484 142.404 750.504 140.803 749.938 139.358L741.452 117.51C740.575 115.264 738.37 113.761 735.951 113.761Z" fill="#5E8ABE" fill-opacity="0.24"/>
<path d="M734.957 190.221L741.823 187.546L739.151 180.654L743.813 178.838L746.485 185.73L753.391 183.036L755.205 187.702L748.3 190.397L750.953 197.25L746.29 199.066L743.637 192.212L736.771 194.887L734.957 190.221Z" fill="#5E8ABE" fill-opacity="0.24"/>
<path d="M695.844 258.793L702.594 261.761L705.559 254.985L710.143 256.996L707.178 263.772L713.967 266.759L711.957 271.347L705.169 268.36L702.204 275.096L697.619 273.085L700.585 266.349L693.835 263.381L695.844 258.793Z" fill="#5E8ABE" fill-opacity="0.24"/>
<path d="M691.864 205.626L693.932 210.956L673.859 218.766L671.791 213.436L691.864 205.626Z" fill="#5E8ABE" fill-opacity="0.24"/>
<path d="M673.859 242.099C670.621 242.099 667.772 240.146 666.582 237.12L654.371 205.685C652.81 201.682 654.8 197.152 658.818 195.59L690.226 183.368C691.142 183.016 692.079 182.84 693.054 182.84C696.292 182.84 699.141 184.793 700.33 187.819L712.542 219.255C714.103 223.257 712.113 227.787 708.094 229.349L676.668 241.552C675.771 241.904 674.815 242.099 673.859 242.099ZM693.035 184.773C692.313 184.773 691.591 184.91 690.908 185.164L659.501 197.387C656.497 198.558 655.015 201.955 656.165 204.962L668.377 236.398C669.255 238.662 671.401 240.127 673.82 240.127C674.542 240.127 675.263 239.99 675.927 239.736L707.334 227.514C710.338 226.342 711.84 222.945 710.669 219.938L698.458 188.503C697.619 186.238 695.473 184.773 693.035 184.773Z" fill="#5E8ABE" fill-opacity="0.24"/>
<path d="M734.976 218.298C731.738 218.298 728.89 216.345 727.7 213.319L715.488 181.884C713.927 177.881 715.917 173.351 719.936 171.789L751.343 159.567C752.26 159.215 753.196 159.039 754.171 159.039C757.41 159.039 760.258 160.992 761.428 164.018L773.64 195.454C775.2 199.456 773.211 203.986 769.192 205.548L737.785 217.771C736.888 218.122 735.932 218.298 734.976 218.298ZM754.152 160.992C753.43 160.992 752.708 161.129 752.026 161.382L720.618 173.605C717.614 174.777 716.112 178.174 717.283 181.181L729.494 212.616C730.372 214.881 732.518 216.345 734.937 216.345C735.659 216.345 736.38 216.209 737.044 215.955L768.451 203.732C771.455 202.561 772.938 199.163 771.787 196.156L759.575 164.721C758.717 162.456 756.59 160.992 754.152 160.992Z" fill="#5E8ABE" fill-opacity="0.24"/>
<path d="M694.303 294.699C691.064 294.699 688.216 292.747 687.026 289.72L674.815 258.285C673.254 254.282 675.244 249.753 679.262 248.191L710.669 235.968C711.586 235.617 712.523 235.441 713.498 235.441C716.736 235.441 719.584 237.393 720.755 240.42L732.967 271.855C734.527 275.858 732.537 280.387 728.519 281.949L697.112 294.172C696.214 294.524 695.258 294.699 694.303 294.699ZM713.479 237.393C712.757 237.393 712.035 237.53 711.372 237.784L679.965 250.006C676.96 251.178 675.458 254.575 676.629 257.582L688.841 289.017C689.718 291.282 691.864 292.747 694.283 292.747C695.005 292.747 695.727 292.61 696.39 292.356L727.797 280.134C730.801 278.962 732.284 275.565 731.133 272.558L718.921 241.123C718.063 238.858 715.917 237.393 713.479 237.393Z" fill="#5E8ABE" fill-opacity="0.24"/>
<path d="M755.42 270.918C752.182 270.918 749.333 268.965 748.143 265.939L735.932 234.504C735.171 232.571 735.229 230.442 736.068 228.529C736.907 226.615 738.429 225.151 740.379 224.409L771.787 212.186C772.703 211.835 773.64 211.659 774.615 211.659C777.853 211.659 780.702 213.612 781.891 216.638L794.103 248.073C795.664 252.076 793.674 256.606 789.655 258.168L758.248 270.391C757.332 270.742 756.376 270.918 755.42 270.918ZM774.596 213.592C773.874 213.592 773.152 213.729 772.489 213.983L741.082 226.205C739.619 226.772 738.487 227.865 737.843 229.31C737.219 230.735 737.18 232.336 737.746 233.781L749.958 265.216C750.836 267.481 752.981 268.946 755.4 268.946C756.122 268.946 756.844 268.809 757.507 268.555L788.914 256.333C791.918 255.161 793.42 251.764 792.25 248.757L780.038 217.322C779.16 215.057 777.034 213.592 774.596 213.592Z" fill="#5E8ABE" fill-opacity="0.24"/>
<path d="M753.489 238.877L771.884 231.712L773.699 236.378L755.303 243.544L753.489 238.877ZM756.317 246.18L774.713 239.014L776.527 243.68L758.132 250.846L756.317 246.18Z" fill="#5E8ABE" fill-opacity="0.24"/>
</g>
<g clip-path="url(#clip1)">
<path d="M141.305 473.979C132.088 464.762 129.529 450.595 134.959 438.735C140.901 425.737 154.769 418.436 168.798 420.857L180.765 394.701C180.887 394.426 181.216 394.312 181.475 394.434L195.115 400.665C195.244 400.719 195.344 400.833 195.397 400.963C195.443 401.101 195.435 401.246 195.382 401.376L183.415 427.532C184.202 428.181 184.965 428.868 185.683 429.586C194.901 438.804 197.451 452.963 192.029 464.83C184.835 480.562 166.179 487.504 150.447 480.31C147.018 478.745 143.94 476.614 141.305 473.979ZM181.521 395.64L169.608 421.682C169.508 421.903 169.256 422.033 169.012 421.988C155.342 419.437 141.733 426.509 135.944 439.186C130.698 450.633 133.164 464.311 142.069 473.216C144.62 475.766 147.59 477.821 150.89 479.333C166.087 486.282 184.095 479.577 191.044 464.38C196.283 452.924 193.824 439.254 184.919 430.35C184.133 429.563 183.285 428.807 182.415 428.105C182.231 427.952 182.162 427.685 182.262 427.463L194.168 401.429L181.521 395.64Z" fill="#5E8ABE" fill-opacity="0.24"/>
<path d="M178.673 393.999C177.589 392.915 177.436 390.822 178.314 388.921C179.368 386.599 181.583 385.331 183.24 386.087L200.377 393.923C200.637 394.045 200.881 394.213 201.087 394.419C202.172 395.504 202.325 397.596 201.446 399.498C200.95 400.59 200.186 401.476 199.293 402.018C198.33 402.598 197.345 402.713 196.513 402.323L179.399 394.495C179.124 394.373 178.887 394.213 178.673 393.999ZM200.324 395.183C200.201 395.061 200.064 394.969 199.919 394.9L182.789 387.072C181.69 386.568 180.094 387.615 179.292 389.364C178.513 391.074 178.742 393.014 179.842 393.518L196.979 401.353C197.483 401.582 198.109 401.491 198.75 401.109C199.453 400.681 200.072 399.956 200.476 399.062C201.148 397.566 201.087 395.946 200.324 395.183Z" fill="#5E8ABE" fill-opacity="0.24"/>
<path d="M191.632 457.957C191.693 457.728 191.579 457.491 191.365 457.384L141.023 434.367C140.801 434.268 140.549 434.336 140.412 434.535C139.465 435.909 138.648 437.353 137.976 438.834C134.585 446.242 134.646 454.368 137.472 461.394C137.869 462.386 138.312 463.349 138.823 464.288L138.839 464.319C141.687 469.596 146.216 474.033 152.073 476.713C166.408 483.273 183.407 476.935 189.96 462.608C190.655 461.134 191.212 459.568 191.632 457.957Z" fill="#5E8ABE" fill-opacity="0.24"/>
</g>
<g clip-path="url(#clip2)">
<path d="M464.492 422.626C462.604 422.626 460.824 421.881 459.122 421.166C457.93 420.669 456.816 420.203 455.701 420.001C455.021 419.877 454.262 419.815 453.225 419.815C452.807 419.815 452.374 419.83 451.941 419.83C451.508 419.846 451.074 419.846 450.641 419.846C449.202 419.846 447.53 419.752 446.06 419.038C444.218 418.152 442.949 416.49 441.727 414.875C440.922 413.834 440.179 412.84 439.297 412.078C438.415 411.317 437.332 410.727 436.171 410.09C434.407 409.111 432.565 408.117 431.42 406.424C430.29 404.762 430.012 402.696 429.749 400.707C429.578 399.387 429.408 398.144 429.021 397.01C428.65 395.938 428.015 394.898 427.35 393.795C426.298 392.055 425.199 390.253 425.029 388.156C424.874 386.059 425.679 384.117 426.452 382.222C426.948 381.025 427.412 379.907 427.613 378.789C427.83 377.623 427.799 376.365 427.783 375.029C427.737 373.01 427.69 370.928 428.572 369.111C429.455 367.262 431.111 365.988 432.72 364.761C433.757 363.953 434.747 363.208 435.506 362.322C436.264 361.437 436.852 360.349 437.487 359.184C438.461 357.413 439.452 355.565 441.139 354.415C442.795 353.281 444.853 353.002 446.834 352.738C448.149 352.567 449.387 352.396 450.517 352.008C451.585 351.635 452.622 350.998 453.721 350.33C455.454 349.274 457.249 348.171 459.338 348C461.412 347.844 463.377 348.652 465.25 349.429C466.442 349.926 467.556 350.392 468.67 350.594C469.351 350.718 470.109 350.78 471.131 350.78C471.549 350.78 471.982 350.765 472.415 350.765C472.849 350.749 473.297 350.749 473.715 350.749C475.154 350.749 476.826 350.842 478.296 351.557C480.138 352.442 481.407 354.105 482.629 355.72C483.434 356.761 484.177 357.755 485.059 358.516C485.941 359.278 487.024 359.868 488.185 360.505C489.949 361.483 491.791 362.478 492.936 364.171C494.066 365.833 494.344 367.899 494.607 369.887C494.778 371.208 494.948 372.451 495.335 373.585C495.706 374.656 496.341 375.697 497.006 376.8C498.059 378.54 499.157 380.342 499.328 382.439C499.482 384.536 498.678 386.478 497.904 388.373C497.409 389.569 496.944 390.688 496.743 391.806C496.526 392.971 496.557 394.23 496.573 395.566C496.619 397.585 496.666 399.667 495.784 401.484C494.902 403.333 493.246 404.606 491.636 405.834C490.599 406.641 489.609 407.387 488.85 408.273C488.092 409.158 487.504 410.245 486.87 411.41C485.895 413.181 484.904 415.03 483.217 416.179C481.561 417.313 479.503 417.593 477.522 417.857C476.207 418.028 474.969 418.199 473.839 418.587C472.771 418.96 471.734 419.597 470.636 420.265C468.902 421.321 467.107 422.424 465.018 422.595C464.848 422.626 464.662 422.626 464.492 422.626ZM453.225 418.261C454.355 418.261 455.206 418.323 455.98 418.479C457.249 418.712 458.503 419.24 459.71 419.737C461.427 420.451 463.176 421.197 464.91 421.057C466.627 420.933 468.19 419.97 469.846 418.96C470.961 418.277 472.121 417.562 473.328 417.143C474.597 416.692 475.975 416.506 477.321 416.335C479.209 416.086 481.004 415.838 482.351 414.921C483.728 413.974 484.595 412.374 485.523 410.68C486.158 409.5 486.823 408.288 487.69 407.278C488.556 406.269 489.64 405.43 490.708 404.606C492.224 403.441 493.679 402.323 494.391 400.816C495.103 399.34 495.056 397.523 495.025 395.612C494.994 394.261 494.963 392.863 495.211 391.527C495.443 390.253 495.969 388.995 496.465 387.783C497.207 385.981 497.919 384.288 497.78 382.563C497.656 380.839 496.697 379.27 495.691 377.608C495.01 376.489 494.298 375.324 493.88 374.097C493.431 372.823 493.246 371.441 493.075 370.089C492.828 368.194 492.58 366.392 491.652 365.041C490.708 363.658 489.114 362.788 487.427 361.856C486.251 361.219 485.043 360.551 484.038 359.681C483.032 358.812 482.196 357.724 481.376 356.652C480.215 355.145 479.116 353.701 477.615 352.986C476.052 352.225 474.195 352.318 472.431 352.349C471.997 352.365 471.549 352.365 471.115 352.365C469.986 352.365 469.134 352.303 468.361 352.163C467.092 351.93 465.838 351.402 464.631 350.905C462.913 350.19 461.164 349.46 459.431 349.584C457.713 349.708 456.15 350.672 454.494 351.681C453.38 352.365 452.219 353.079 450.997 353.499C449.728 353.949 448.35 354.136 447.004 354.307C445.116 354.555 443.321 354.804 441.974 355.736C440.613 356.668 439.746 358.268 438.833 359.961C438.198 361.142 437.533 362.353 436.666 363.363C435.8 364.373 434.716 365.212 433.649 366.035C432.132 367.2 430.693 368.318 429.965 369.825C429.253 371.301 429.284 373.103 429.331 375.014C429.362 376.365 429.393 377.763 429.145 379.099C428.913 380.373 428.387 381.631 427.892 382.843C427.149 384.645 426.437 386.338 426.576 388.063C426.715 389.787 427.659 391.356 428.665 393.018C429.346 394.136 430.058 395.301 430.476 396.529C430.925 397.802 431.111 399.185 431.281 400.537C431.528 402.432 431.776 404.234 432.705 405.585C433.649 406.968 435.243 407.838 436.929 408.77C438.106 409.407 439.313 410.075 440.319 410.944C441.325 411.814 442.16 412.917 442.98 413.974C444.141 415.496 445.255 416.941 446.756 417.671C448.32 418.432 450.177 418.339 451.941 418.308C452.359 418.277 452.792 418.261 453.225 418.261Z" fill="#5E8ABE" fill-opacity="0.24"/>
<path d="M462.139 412.063C448.319 412.063 436.65 401.205 435.598 387.364C435.056 380.234 437.3 373.321 441.943 367.899C446.57 362.478 453.039 359.185 460.142 358.641C474.844 357.523 487.643 368.723 488.757 383.263C489.299 390.393 487.055 397.306 482.412 402.727C477.785 408.149 471.316 411.442 464.213 411.986C463.516 412.032 462.82 412.063 462.139 412.063ZM462.201 360.117C461.551 360.117 460.901 360.148 460.251 360.194C453.565 360.707 447.483 363.814 443.119 368.909C438.755 374.02 436.635 380.529 437.145 387.24C438.198 400.941 450.238 411.504 464.104 410.432C470.79 409.92 476.872 406.813 481.236 401.702C485.6 396.591 487.72 390.082 487.209 383.372C486.204 370.338 475.216 360.117 462.201 360.117Z" fill="#5E8ABE" fill-opacity="0.24"/>
<path d="M457.249 463C456.97 463 456.707 462.845 456.568 462.596L447.793 446.565L431.977 457.516C431.714 457.703 431.373 457.703 431.11 457.532C430.863 457.361 430.723 457.05 430.785 456.74L439.436 411.753C439.483 411.473 439.684 411.24 439.962 411.162C440.241 411.085 440.535 411.147 440.736 411.349C441.541 412.125 442.253 413.057 442.949 413.958C444.125 415.481 445.224 416.925 446.741 417.656C448.304 418.401 450.161 418.324 451.925 418.292C452.358 418.277 452.807 418.277 453.24 418.277C454.37 418.277 455.221 418.339 455.995 418.494C457.264 418.727 458.518 419.256 459.725 419.753C461.443 420.467 463.191 421.213 464.925 421.073C465.157 421.042 465.42 421.151 465.59 421.322C465.745 421.508 465.838 421.741 465.807 421.99L458.038 462.379C457.976 462.705 457.713 462.953 457.403 463C457.326 462.984 457.295 463 457.249 463ZM448.056 444.654C448.118 444.654 448.18 444.654 448.226 444.67C448.443 444.716 448.629 444.856 448.722 445.058L456.877 459.955L464.058 422.611C462.325 422.518 460.684 421.834 459.09 421.166C457.899 420.669 456.784 420.203 455.67 420.001C454.989 419.877 454.231 419.815 453.194 419.815C452.776 419.815 452.343 419.83 451.91 419.83C451.476 419.846 451.043 419.846 450.61 419.846C449.17 419.846 447.499 419.753 446.029 419.038C444.187 418.153 442.918 416.49 441.68 414.89C441.324 414.424 440.984 413.974 440.628 413.555L432.658 455.171L447.623 444.809C447.762 444.701 447.901 444.654 448.056 444.654Z" fill="#5E8ABE" fill-opacity="0.24"/>
<path d="M480.617 461.198C480.292 461.198 479.998 460.996 479.889 460.685L465.977 421.694C465.915 421.493 465.915 421.291 466.008 421.104C466.101 420.918 466.255 420.778 466.456 420.7C467.602 420.296 468.747 419.613 469.83 418.945C470.944 418.261 472.105 417.562 473.312 417.143C474.581 416.692 475.959 416.506 477.305 416.335C479.193 416.087 480.988 415.838 482.335 414.922C483.712 413.974 484.579 412.374 485.507 410.681C486.142 409.5 486.807 408.288 487.674 407.279C488.061 406.828 488.494 406.424 488.819 406.129C489.005 405.958 489.268 405.896 489.531 405.958C489.778 406.02 489.98 406.207 490.072 406.455L505.951 450.961C506.059 451.256 505.966 451.598 505.734 451.8C505.502 452.002 505.161 452.048 504.883 451.924L487.581 443.52L481.344 460.701C481.236 460.981 480.942 461.198 480.617 461.198ZM467.695 421.881L480.617 458.122L486.42 442.153C486.498 441.951 486.652 441.78 486.854 441.703C487.055 441.609 487.287 441.625 487.488 441.718L503.861 449.672L489.02 408.086C488.958 408.149 488.912 408.211 488.85 408.273C488.092 409.158 487.503 410.246 486.869 411.411C485.894 413.182 484.904 415.03 483.217 416.18C481.561 417.314 479.503 417.593 477.522 417.858C476.206 418.028 474.968 418.199 473.838 418.588C472.771 418.96 471.734 419.597 470.635 420.265C469.691 420.84 468.731 421.43 467.695 421.881Z" fill="#5E8ABE" fill-opacity="0.24"/>
</g>
<g clip-path="url(#clip3)">
<path d="M277.168 548.916C277.112 548.897 277.071 548.871 277.018 548.841C276.887 548.746 276.794 548.615 276.772 548.457L271.74 521.661C271.684 521.341 271.891 521.023 272.21 520.967L285.539 518.472C285.858 518.416 286.177 518.624 286.232 518.943L287.237 524.299C287.259 524.457 287.233 524.61 287.139 524.741C287.045 524.873 286.913 524.966 286.755 524.988L282 525.882L282.738 529.797L287.144 528.974C287.463 528.918 287.782 529.125 287.837 529.444L288.79 534.545C288.812 534.703 288.786 534.857 288.692 534.988C288.598 535.119 288.466 535.213 288.308 535.235L283.902 536.058L284.792 540.787L290.069 539.794C290.227 539.771 290.381 539.798 290.512 539.892C290.643 539.986 290.736 540.118 290.758 540.275L291.763 545.632C291.819 545.951 291.612 546.269 291.293 546.325L277.438 548.932C277.367 548.958 277.258 548.946 277.168 548.916Z" fill="#5E8ABE" fill-opacity="0.24"/>
<path d="M295.805 536.914C295.602 536.846 295.445 536.68 295.408 536.455L294.648 532.42C294.626 532.262 294.653 532.108 294.747 531.977C294.841 531.846 294.972 531.753 295.13 531.731L311.053 528.742C311.21 528.72 311.364 528.746 311.495 528.84C311.626 528.935 311.72 529.066 311.742 529.224L312.502 533.259C312.558 533.578 312.351 533.896 312.031 533.952L296.109 536.94C296.004 536.955 295.906 536.948 295.805 536.914ZM294.622 530.596C294.566 530.577 294.525 530.551 294.472 530.521C294.341 530.427 294.248 530.295 294.225 530.138L293.465 526.103C293.41 525.784 293.617 525.465 293.936 525.409L309.859 522.421C310.178 522.365 310.496 522.572 310.552 522.891L311.312 526.927C311.334 527.084 311.307 527.238 311.213 527.369C311.119 527.5 310.988 527.594 310.83 527.616L294.907 530.604C294.821 530.638 294.712 530.627 294.622 530.596Z" fill="#5E8ABE" fill-opacity="0.24"/>
<path d="M321.119 540.658C320.917 540.59 320.759 540.425 320.722 540.2L315.687 513.414C315.665 513.256 315.691 513.103 315.785 512.972C315.88 512.84 316.011 512.747 316.169 512.725L326.51 510.778C326.791 510.722 327.065 510.877 327.173 511.151C327.778 512.706 328.467 514.564 329.206 516.69L330.313 519.728L329.954 510.658C329.94 510.365 330.151 510.111 330.432 510.055L340.826 508.101C341.145 508.045 341.463 508.252 341.519 508.572L346.551 535.368C346.573 535.526 346.546 535.68 346.452 535.811C346.358 535.942 346.227 536.035 346.069 536.058L339.084 537.366C338.765 537.422 338.446 537.215 338.391 536.896L336.418 526.408L336.78 537.294C336.794 537.587 336.584 537.841 336.302 537.897L331.347 538.824C331.066 538.879 330.781 538.721 330.684 538.451L326.892 528.053L328.883 538.672C328.938 538.991 328.731 539.309 328.412 539.365L321.427 540.674C321.318 540.7 321.209 540.688 321.119 540.658Z" fill="#5E8ABE" fill-opacity="0.24"/>
<path d="M354.25 533.648C352.697 533.127 351.54 532.25 350.8 531.025C350.019 529.737 349.385 527.784 348.873 525.059L347.398 517.229C347.027 515.277 346.831 513.772 346.8 512.748C346.768 511.649 347.071 510.524 347.711 509.4C348.348 508.287 349.329 507.302 350.656 506.483C351.948 505.691 353.522 505.105 355.312 504.768C357.744 504.308 359.883 504.35 361.645 504.879L361.971 504.989C363.614 505.54 364.816 506.395 365.549 507.53C366.308 508.698 366.904 510.538 367.397 513.132L367.868 515.68C367.924 515.999 367.717 516.318 367.398 516.373L359.41 517.871C359.249 517.905 359.099 517.867 358.968 517.773C358.836 517.679 358.743 517.547 358.721 517.39L357.846 512.728C357.519 510.978 357.291 510.577 357.22 510.49C357.175 510.437 357.089 510.321 356.579 510.425C356.177 510.503 355.959 510.63 355.906 510.825C355.861 511.035 355.83 511.613 356.145 513.283L358.485 525.734C358.789 527.325 359.016 527.84 359.136 528.005C359.237 528.151 359.323 528.23 359.845 528.13C360.367 528.03 360.42 527.835 360.435 527.753C360.476 527.591 360.526 527.033 360.17 525.148L359.536 521.781C359.481 521.462 359.688 521.144 360.007 521.088L367.995 519.59C368.152 519.568 368.306 519.595 368.437 519.689C368.568 519.783 368.662 519.914 368.684 520.072L368.884 521.115C369.422 523.987 369.564 526.025 369.317 527.356C369.055 528.732 368.181 530.066 366.711 531.312C365.26 532.54 363.338 533.383 360.999 533.825C358.582 534.277 356.469 534.269 354.741 533.788C354.58 533.747 354.418 533.705 354.25 533.648Z" fill="#5E8ABE" fill-opacity="0.24"/>
<path d="M368.199 508.845C368.143 508.826 368.102 508.8 368.049 508.77C367.918 508.675 367.824 508.544 367.802 508.386L367.265 505.515C367.25 505.41 367.25 505.297 367.295 505.2C369.552 499.262 370.885 495.554 371.252 494.2C371.6 492.903 371.726 491.931 371.611 491.304C371.511 490.745 371.347 490.527 371.264 490.437C371.159 490.339 371.051 490.328 370.863 490.365C370.649 490.406 370.585 490.484 370.532 490.604C370.506 490.683 370.415 491.028 370.615 492.109L370.971 494.031C371.008 494.181 370.978 494.346 370.884 494.477C370.79 494.608 370.658 494.702 370.5 494.724L365.985 495.573C365.824 495.606 365.674 495.568 365.542 495.474C365.411 495.38 365.318 495.249 365.296 495.091L365.155 494.355C364.936 493.181 364.822 492.254 364.82 491.552C364.814 490.786 365.003 489.999 365.369 489.208C365.753 488.399 366.329 487.728 367.08 487.205C367.813 486.7 368.748 486.338 369.844 486.13C371.995 485.726 373.765 485.97 375.095 486.855C376.437 487.743 377.289 489.043 377.601 490.725C377.838 491.956 377.767 493.322 377.423 494.795C377.101 496.127 376.067 498.833 374.271 503.024L378.693 502.194C379.012 502.138 379.319 502.341 379.386 502.664L380.035 506.099C380.057 506.256 380.031 506.41 379.937 506.541C379.843 506.672 379.711 506.766 379.553 506.788L368.48 508.864C368.398 508.887 368.289 508.875 368.199 508.845Z" fill="#5E8ABE" fill-opacity="0.24"/>
</g>
<g clip-path="url(#clip4)">
<path d="M475.409 67.4389C475.361 67.4389 475.313 67.4389 475.265 67.4147C475.108 67.3784 474.976 67.2694 474.891 67.1363L473.577 64.9213C472.059 62.3552 471.613 59.3414 472.348 56.4485C473.071 53.5436 474.891 51.1107 477.446 49.5735C479.17 48.5447 481.135 48 483.135 48C487.053 48 490.717 50.094 492.718 53.471L494.031 55.686C494.116 55.8191 494.14 55.9886 494.104 56.1459C494.068 56.3033 493.959 56.4364 493.826 56.5211L475.711 67.3541C475.614 67.4026 475.518 67.4389 475.409 67.4389ZM483.135 49.2104C481.364 49.2104 479.604 49.6945 478.061 50.6144C475.783 51.9822 474.168 54.1609 473.517 56.739C472.866 59.3293 473.252 62.0042 474.614 64.304L475.614 65.9985L492.693 55.7828L491.693 54.0883C489.909 51.0744 486.631 49.2104 483.135 49.2104Z" fill="#5E8ABE" fill-opacity="0.24"/>
<path d="M479.061 73.5998C479.013 73.5998 478.965 73.5998 478.916 73.5756C478.76 73.5392 478.627 73.4424 478.543 73.2972L474.891 67.1363C474.722 66.8458 474.818 66.4827 475.096 66.3011L493.211 55.4681C493.344 55.3834 493.512 55.3592 493.669 55.3955C493.826 55.4318 493.958 55.5407 494.043 55.6739L497.695 61.8348C497.779 61.9679 497.803 62.1374 497.767 62.2947C497.731 62.4521 497.623 62.5852 497.49 62.6699L479.374 73.515C479.278 73.5634 479.169 73.5998 479.061 73.5998ZM476.228 67.0394L479.266 72.1594L496.345 61.9437L493.308 56.8238L476.228 67.0394Z" fill="#5E8ABE" fill-opacity="0.24"/>
<path d="M511.206 115.044C511.001 115.044 510.796 114.935 510.688 114.753L484.123 69.9686C483.954 69.6781 484.051 69.315 484.328 69.1334C484.617 68.9639 484.979 69.0608 485.16 69.3392L511.724 114.124C511.893 114.414 511.797 114.777 511.519 114.959C511.411 115.019 511.303 115.044 511.206 115.044Z" fill="#5E8ABE" fill-opacity="0.24"/>
<path d="M517.835 110.48C517.631 110.48 517.426 110.371 517.317 110.19L491.018 65.8411C490.849 65.5506 490.945 65.1875 491.222 65.006C491.512 64.8365 491.873 64.9333 492.054 65.2117L518.354 109.56C518.522 109.851 518.426 110.214 518.149 110.396C518.052 110.456 517.944 110.48 517.835 110.48Z" fill="#5E8ABE" fill-opacity="0.24"/>
<path d="M526.598 132.001C526.489 132.001 526.381 131.977 526.284 131.916L506.409 119.837C506.264 119.752 506.168 119.619 506.132 119.461C506.096 119.304 506.12 119.135 506.216 119.001C506.493 118.578 513.038 108.532 524.585 108.023C524.91 107.999 525.187 108.253 525.212 108.58L527.176 131.19C527.2 131.263 527.212 131.335 527.212 131.408C527.224 131.735 526.947 132.025 526.598 132.001C526.61 132.001 526.61 132.001 526.598 132.001ZM507.602 119.135L525.911 130.258L524.067 109.258C514.942 109.936 509.061 117.137 507.602 119.135Z" fill="#5E8ABE" fill-opacity="0.24"/>
<path d="M525.778 122.875C525.778 122.875 521.222 122.185 519.246 127.002L526.526 131.444L525.778 122.875Z" fill="#5E8ABE" fill-opacity="0.24"/>
<path d="M506.976 120.067C506.94 120.067 506.916 120.067 506.88 120.055L506.494 119.994C506.313 119.97 506.169 119.861 506.072 119.704L473.577 64.9213C472.059 62.3552 471.613 59.3414 472.348 56.4485C473.071 53.5436 474.891 51.1107 477.446 49.5735C479.17 48.5447 481.135 48 483.135 48C487.053 48 490.717 50.094 492.718 53.471L525.188 108.217C525.273 108.35 525.297 108.507 525.261 108.665L525.212 108.895C525.152 109.185 524.863 109.379 524.586 109.367C524.465 109.355 524.369 109.318 524.272 109.258C514.895 109.851 508.905 117.319 507.531 119.219C507.567 119.292 507.591 119.389 507.591 119.474C507.591 119.812 507.278 120.055 506.976 120.079C506.988 120.067 506.976 120.067 506.976 120.067ZM483.135 49.2104C481.364 49.2104 479.604 49.6945 478.061 50.6144C475.783 51.9822 474.168 54.1609 473.517 56.739C472.866 59.3293 473.252 62.0042 474.614 64.304L506.675 118.348C508.29 116.121 514.232 108.895 523.718 108.072L491.693 54.0883C489.909 51.0744 486.631 49.2104 483.135 49.2104Z" fill="#5E8ABE" fill-opacity="0.24"/>
<path d="M518.064 137C517.859 137 517.654 136.891 517.546 136.71C517.377 136.419 517.474 136.056 517.751 135.874C523.078 132.679 528.864 130.464 534.95 129.29C535.975 129.096 537.156 128.927 538.193 129.471C538.819 129.798 539.265 130.331 539.687 130.839C540.109 131.348 540.507 131.82 541.013 131.977C541.519 132.134 542.134 131.977 542.821 131.771L556.525 127.607C556.694 127.559 556.887 127.583 557.043 127.692C557.188 127.801 557.285 127.958 557.309 128.152C557.369 128.987 558.309 129.592 559.141 129.677C560.141 129.774 561.238 129.375 562.19 129.011C562.504 128.89 562.853 129.048 562.974 129.362C563.094 129.677 562.937 130.028 562.624 130.137C561.551 130.549 560.334 131.009 559.02 130.888C557.911 130.779 556.706 130.077 556.272 128.963L543.183 132.945C542.508 133.151 541.58 133.441 540.664 133.151C539.82 132.885 539.253 132.219 538.771 131.638C538.41 131.202 538.06 130.791 537.638 130.573C536.951 130.21 536.047 130.343 535.191 130.512C529.237 131.662 523.584 133.829 518.378 136.952C518.269 136.976 518.173 137 518.064 137Z" fill="#5E8ABE" fill-opacity="0.24"/>
</g>
<g opacity="0.24" clip-path="url(#clip5)">
<path d="M764.167 399C764.037 399 763.917 398.99 763.787 398.97L746.427 396.23C745.627 396.1 744.937 395.59 744.497 394.79C744.077 394.03 743.927 393.1 744.077 392.17C744.387 390.21 745.937 388.77 747.567 389.04L764.927 391.79C765.727 391.92 766.417 392.43 766.857 393.22C767.277 393.98 767.427 394.91 767.277 395.85C766.987 397.64 765.647 399 764.167 399ZM747.187 390C746.197 390 745.267 391.02 745.057 392.32C744.947 393.04 745.057 393.74 745.367 394.3C745.657 394.82 746.087 395.15 746.577 395.23L763.937 397.98C764.997 398.15 766.057 397.08 766.287 395.68C766.397 394.96 766.287 394.26 765.977 393.7C765.687 393.18 765.257 392.85 764.767 392.77L747.407 390.02C747.337 390.01 747.257 390 747.187 390Z" fill="#5E8ABE"/>
<path d="M744.257 474.42C743.827 474.42 743.387 474.39 742.957 474.32C740.777 473.98 738.867 472.8 737.577 471.02C736.277 469.24 735.757 467.06 736.107 464.88L747.037 395.82C747.077 395.55 747.337 395.36 747.607 395.4L762.917 397.82C763.047 397.84 763.167 397.91 763.247 398.02C763.327 398.13 763.357 398.26 763.337 398.39L752.397 467.46C751.757 471.5 748.337 474.42 744.257 474.42ZM747.947 396.47L737.087 465.04C736.467 468.99 739.167 472.71 743.117 473.33C743.497 473.39 743.877 473.42 744.257 473.42C747.837 473.42 750.847 470.85 751.407 467.3L762.267 398.73L747.947 396.47Z" fill="#5E8ABE"/>
<path d="M744.287 471.48C743.997 471.48 743.707 471.46 743.417 471.41C740.397 470.93 738.337 468.09 738.817 465.08L745.927 420.19C745.967 419.92 746.227 419.73 746.497 419.77L756.447 421.35C756.577 421.37 756.697 421.44 756.777 421.55C756.857 421.66 756.887 421.79 756.867 421.92L749.757 466.81C749.327 469.52 747.027 471.48 744.287 471.48Z" fill="#5E8ABE"/>
</g>
<g clip-path="url(#clip6)">
<path d="M666.818 371.15C666.648 371.15 666.478 371.06 666.388 370.9C666.248 370.66 666.328 370.36 666.568 370.22C666.638 370.18 673.458 366.09 678.568 354.31C678.678 354.06 678.968 353.94 679.228 354.05C679.478 354.16 679.598 354.45 679.488 354.71C674.238 366.82 667.368 370.92 667.078 371.09C666.988 371.13 666.898 371.15 666.818 371.15Z" fill="#5E8ABE" fill-opacity="0.24"/>
<path d="M679.847 373.36C676.497 373.36 673.457 371.59 670.827 368.1C670.697 367.93 670.687 367.69 670.817 367.51C673.417 363.82 676.497 361.94 679.977 361.94C685.657 361.94 690.267 366.93 690.457 367.14C690.627 367.33 690.627 367.61 690.467 367.8C690.277 368.03 685.677 373.36 679.847 373.36ZM671.847 367.79C674.227 370.82 676.917 372.36 679.847 372.36C684.397 372.36 688.297 368.64 689.397 367.49C688.287 366.4 684.407 362.94 679.977 362.94C676.937 362.95 674.197 364.57 671.847 367.79Z" fill="#5E8ABE" fill-opacity="0.24"/>
<path d="M671.227 368.3C670.957 368.3 670.727 368.08 670.727 367.81C670.727 367.53 670.947 367.31 671.217 367.3L680.177 367.15C680.467 367.14 680.677 367.37 680.687 367.64C680.687 367.92 680.467 368.14 680.197 368.15L671.227 368.3Z" fill="#5E8ABE" fill-opacity="0.24"/>
<path d="M660.717 409.96C659.797 409.96 658.887 409.88 658.017 409.74C656.357 409.46 654.807 408.79 653.397 407.77C652.857 407.38 652.377 406.88 651.907 406.39C651.317 405.77 650.747 405.19 650.117 404.85C649.477 404.51 648.687 404.37 647.837 404.21C647.177 404.09 646.487 403.97 645.867 403.74C644.217 403.14 642.807 402.22 641.647 401C637.227 396.35 636.147 389.21 636.017 384.03C635.837 377.08 637.047 371.65 639.597 367.91C642.437 363.74 647.327 361.25 652.657 361.25C654.237 361.25 655.797 361.47 657.297 361.91C660.567 362.86 663.427 365.11 665.357 368.24C666.537 370.16 667.107 370.6 667.287 370.7C667.467 370.8 667.997 370.96 669.477 370.96C669.777 370.96 670.097 370.95 670.407 370.94C677.577 370.66 685.087 376.51 686.987 383.75C687.817 386.91 687.647 390.01 686.497 392.96C684.817 397.27 681.037 401.31 675.257 404.97C670.017 408.28 665.137 409.96 660.717 409.96ZM652.647 362.26C647.647 362.26 643.067 364.59 640.417 368.48C637.987 372.04 636.837 377.27 637.017 384.01C637.147 389.01 638.177 395.9 642.377 400.32C643.427 401.43 644.717 402.27 646.207 402.82C646.747 403.02 647.357 403.13 648.007 403.25C648.887 403.41 649.797 403.57 650.577 403.99C651.357 404.41 651.997 405.07 652.617 405.72C653.077 406.19 653.507 406.64 653.977 406.98C655.267 407.91 656.677 408.51 658.187 408.77C662.987 409.59 668.617 408.01 674.717 404.15C680.317 400.61 683.957 396.73 685.567 392.62C686.637 389.87 686.797 386.98 686.017 384.02C684.237 377.21 677.197 371.73 670.447 371.96C670.117 371.97 669.797 371.98 669.477 371.98C668.147 371.98 667.297 371.86 666.817 371.6C666.237 371.29 665.477 370.37 664.507 368.79C662.707 365.87 660.047 363.78 657.017 362.89C655.597 362.47 654.137 362.26 652.647 362.26Z" fill="#5E8ABE" fill-opacity="0.24"/>
</g>
<g opacity="0.24" clip-path="url(#clip7)">
<path d="M183.849 137.931C183.731 137.984 183.6 138.008 183.477 138.011L74.9416 133.39C74.5807 133.376 74.2869 133.119 74.1992 132.768C74.1114 132.418 74.2843 132.056 74.5947 131.88L154.467 87.9371C154.6 87.8771 154.724 87.8385 154.847 87.836L262.254 87.7728C262.608 87.7719 262.931 88.0157 263.034 88.3593C263.136 88.703 262.984 89.0731 262.681 89.2638L183.952 137.884C183.922 137.898 183.893 137.911 183.849 137.931ZM77.8978 131.891L183.301 136.37L259.408 89.3985L155.067 89.4565L77.8978 131.891Z" fill="#5E8ABE"/>
<path d="M178.239 111.02C178.592 112.739 174.893 114.946 169.998 115.922C165.095 116.92 160.838 116.33 160.499 114.604C160.146 112.884 163.845 110.677 168.74 109.701C173.635 108.725 177.892 109.315 178.239 111.02Z" fill="#5E8ABE"/>
<path d="M215.371 157.024C206.779 160.916 194.569 164.691 179.087 168.21L176.02 168.837C129.011 177.131 123.056 169.58 122.541 168.678C122.486 168.596 122.468 168.516 122.449 168.436L115.59 134.501C115.534 134.261 115.609 133.996 115.761 133.821C115.92 133.625 116.162 133.533 116.415 133.543L183.324 136.378L220.389 113.49C220.611 113.354 220.886 113.336 221.128 113.439C221.37 113.542 221.542 113.766 221.605 114.021L228.29 147.024C228.308 147.104 228.319 147.206 228.301 147.285C228.227 147.708 227.377 151.586 215.371 157.024ZM123.994 167.931C124.689 168.645 132.204 174.94 175.727 167.249L178.75 166.643C194.109 163.126 206.215 159.398 214.705 155.553C224.725 151.015 226.41 147.769 226.644 147.149L220.241 115.473L183.952 137.884C183.812 137.965 183.658 138.017 183.492 138.004L117.356 135.191L123.994 167.931Z" fill="#5E8ABE"/>
<path d="M239.563 125.445C239.504 125.472 239.46 125.492 239.395 125.504C238.958 125.595 238.527 125.311 238.436 124.874L234.638 106.114L178.324 111.832C177.881 111.873 177.488 111.555 177.448 111.112C177.407 110.67 177.725 110.277 178.168 110.236L235.215 104.452C235.621 104.41 236.015 104.693 236.094 105.1L240.024 124.545C240.089 124.923 239.902 125.292 239.563 125.445Z" fill="#5E8ABE"/>
<path d="M238.566 122.226C237.102 122.517 236.166 123.934 236.457 125.398L237.558 130.804C237.848 132.268 239.265 133.205 240.73 132.914C242.194 132.623 243.13 131.206 242.839 129.742L241.738 124.336C241.447 122.872 240.03 121.935 238.566 122.226Z" fill="#5E8ABE"/>
</g>
<path d="M387.869 173.246C387.839 173.246 387.809 173.246 387.779 173.236L372.829 170.596C372.699 170.576 372.579 170.496 372.509 170.386C372.429 170.276 372.399 170.146 372.429 170.016C373.029 166.616 372.239 161.926 372.229 161.876C371.679 159.866 370.729 157.966 369.809 156.126C368.919 154.356 368.009 152.526 367.419 150.516C366.129 146.136 366.159 141.536 367.499 137.536C369.879 130.436 376.689 125.846 384.829 125.846C390.549 125.846 395.869 128.136 399.419 132.126C402.559 135.646 404.229 139.866 404.119 144.006C404.009 148.216 402.459 152.556 399.749 156.226C398.509 157.906 397.019 159.316 395.579 160.676C394.089 162.086 392.539 163.546 391.309 165.286C391.309 165.286 388.959 169.426 388.359 172.826C388.339 172.956 388.259 173.076 388.149 173.146C388.069 173.216 387.969 173.246 387.869 173.246ZM373.479 169.696L387.469 172.166C388.209 168.716 390.369 164.926 390.469 164.756C391.779 162.896 393.359 161.396 394.889 159.956C396.299 158.626 397.749 157.256 398.939 155.646C401.529 152.136 403.009 148.006 403.109 143.996C403.209 140.106 401.629 136.136 398.659 132.806C395.289 129.026 390.249 126.866 384.809 126.866C377.109 126.866 370.679 131.186 368.429 137.876C367.149 141.676 367.129 146.066 368.359 150.246C368.919 152.166 369.819 153.956 370.689 155.686C371.629 157.566 372.609 159.506 373.189 161.666C373.239 161.896 373.969 166.196 373.479 169.696Z" fill="#5E8ABE" fill-opacity="0.24"/>
<path d="M387.459 177.976C387.289 177.976 387.119 177.966 386.949 177.936L372.219 175.336C371.459 175.206 370.789 174.776 370.349 174.146C369.909 173.516 369.739 172.746 369.869 171.976C370.139 170.426 371.629 169.336 373.229 169.626L387.959 172.226C388.719 172.356 389.389 172.786 389.829 173.416C390.269 174.046 390.439 174.816 390.309 175.586C390.069 176.966 388.869 177.976 387.459 177.976ZM372.719 170.576C371.799 170.576 371.009 171.236 370.849 172.146C370.759 172.646 370.869 173.146 371.159 173.566C371.449 173.986 371.889 174.256 372.389 174.346L387.119 176.946C388.169 177.136 389.139 176.426 389.319 175.406C389.409 174.906 389.299 174.406 389.009 173.986C388.719 173.566 388.279 173.296 387.779 173.206L373.049 170.606C372.949 170.586 372.839 170.576 372.719 170.576Z" fill="#5E8ABE" fill-opacity="0.24"/>
<path d="M384.859 182.396C384.689 182.396 384.519 182.386 384.349 182.346L373.149 180.366C371.579 180.086 370.519 178.576 370.799 177.006C371.069 175.456 372.559 174.376 374.159 174.656L385.359 176.636C386.929 176.916 387.989 178.426 387.709 179.996C387.469 181.386 386.269 182.396 384.859 182.396ZM373.649 175.616C372.729 175.616 371.939 176.276 371.779 177.186C371.599 178.216 372.289 179.206 373.319 179.386L384.519 181.366C385.569 181.546 386.539 180.846 386.719 179.826C386.899 178.796 386.209 177.806 385.179 177.626L373.979 175.646C373.879 175.626 373.759 175.616 373.649 175.616Z" fill="#5E8ABE" fill-opacity="0.24"/>
<path d="M378.829 185.666C378.549 185.666 378.269 185.646 377.989 185.596C375.459 185.146 373.739 182.806 374.089 180.256C374.109 180.126 374.179 179.996 374.289 179.916C374.399 179.836 374.539 179.806 374.669 179.826L383.089 181.316C383.219 181.336 383.339 181.416 383.419 181.526C383.499 181.636 383.519 181.776 383.489 181.916C383.019 184.086 381.059 185.666 378.829 185.666ZM375.049 180.906C375.049 182.716 376.339 184.286 378.169 184.606C380.009 184.926 381.749 183.856 382.369 182.196L375.049 180.906Z" fill="#5E8ABE" fill-opacity="0.24"/>
<path d="M376.289 171.196C376.019 171.196 375.799 170.986 375.789 170.706L375.259 151.816C375.249 151.536 375.469 151.306 375.749 151.306C376.029 151.296 376.259 151.516 376.259 151.796L376.789 170.686C376.799 170.966 376.579 171.196 376.299 171.196H376.289Z" fill="#5E8ABE" fill-opacity="0.24"/>
<path d="M384.349 172.626C384.289 172.626 384.229 172.616 384.169 172.586C383.909 172.486 383.789 172.196 383.889 171.936L390.859 154.366C390.959 154.106 391.249 153.986 391.509 154.086C391.769 154.186 391.889 154.476 391.789 154.736L384.809 172.306C384.739 172.506 384.549 172.626 384.349 172.626Z" fill="#5E8ABE" fill-opacity="0.24"/>
<path d="M380.349 162.256C380.309 162.256 380.259 162.246 380.219 162.236C379.989 162.176 379.829 161.946 379.849 161.706L380.779 151.016L378.509 155.856C378.409 156.066 378.199 156.176 377.969 156.136L375.769 155.746C375.499 155.696 375.319 155.436 375.359 155.166C375.409 154.896 375.669 154.706 375.939 154.756L377.769 155.076L381.069 148.026C381.169 147.806 381.419 147.696 381.649 147.756C381.879 147.816 382.039 148.036 382.019 148.286L381.079 159.006L382.869 155.206C382.959 155.016 383.169 154.906 383.379 154.926C383.589 154.946 383.769 155.106 383.809 155.316L384.399 158.026L387.409 151.946C387.509 151.736 387.749 151.626 387.979 151.686C388.209 151.746 388.369 151.946 388.359 152.186L388.279 157.006L390.129 157.336C390.399 157.386 390.579 157.646 390.539 157.916C390.489 158.186 390.229 158.366 389.959 158.326L387.689 157.926C387.449 157.886 387.269 157.666 387.279 157.426L387.339 154.406L384.689 159.766C384.599 159.956 384.389 160.066 384.179 160.036C383.969 160.006 383.799 159.856 383.749 159.646L383.169 156.986L380.809 161.986C380.709 162.146 380.539 162.256 380.349 162.256Z" fill="#5E8ABE" fill-opacity="0.24"/>
<path d="M389.559 120.016C389.529 120.016 389.499 120.016 389.469 120.006C389.199 119.956 389.019 119.696 389.059 119.426L390.469 111.416C390.519 111.146 390.779 110.966 391.049 111.006C391.319 111.056 391.499 111.316 391.459 111.586L390.049 119.596C390.009 119.846 389.799 120.016 389.559 120.016Z" fill="#5E8ABE" fill-opacity="0.24"/>
<path d="M374.989 121.286C374.799 121.286 374.619 121.176 374.529 120.996L371.139 113.606C371.019 113.356 371.139 113.056 371.389 112.946C371.639 112.836 371.939 112.946 372.049 113.196L375.439 120.586C375.559 120.836 375.439 121.136 375.189 121.246C375.129 121.266 375.059 121.286 374.989 121.286Z" fill="#5E8ABE" fill-opacity="0.24"/>
<path d="M364.549 129.606C364.459 129.606 364.379 129.586 364.299 129.536L357.309 125.386C357.069 125.246 356.989 124.936 357.139 124.706C357.279 124.466 357.589 124.386 357.819 124.536L364.809 128.686C365.049 128.826 365.129 129.136 364.979 129.366C364.889 129.516 364.729 129.606 364.549 129.606Z" fill="#5E8ABE" fill-opacity="0.24"/>
<path d="M353.499 142.526C353.239 142.526 353.019 142.326 352.999 142.056C352.979 141.776 353.189 141.546 353.459 141.526L361.569 140.966C361.839 140.956 362.079 141.156 362.099 141.426C362.119 141.706 361.909 141.936 361.639 141.956L353.529 142.516C353.519 142.516 353.509 142.526 353.499 142.526Z" fill="#5E8ABE" fill-opacity="0.24"/>
<path d="M402.569 126.156C402.439 126.156 402.319 126.106 402.219 126.016C402.019 125.826 402.019 125.506 402.219 125.306L407.939 119.526C408.129 119.326 408.449 119.326 408.649 119.526C408.849 119.716 408.849 120.036 408.649 120.236L402.929 126.006C402.829 126.106 402.699 126.156 402.569 126.156Z" fill="#5E8ABE" fill-opacity="0.24"/>
<path d="M409.519 137.546C409.279 137.546 409.069 137.376 409.029 137.136C408.979 136.866 409.159 136.606 409.429 136.556L417.419 135.046C417.689 134.996 417.949 135.176 417.999 135.446C418.049 135.716 417.869 135.976 417.599 136.026L409.609 137.536C409.579 137.546 409.549 137.546 409.519 137.546Z" fill="#5E8ABE" fill-opacity="0.24"/>
<path d="M415.479 153.466C415.409 153.466 415.339 153.456 415.279 153.426L407.849 150.126C407.599 150.016 407.479 149.716 407.599 149.466C407.709 149.216 408.009 149.096 408.259 149.216L415.689 152.516C415.939 152.626 416.059 152.926 415.939 153.176C415.859 153.356 415.669 153.466 415.479 153.466Z" fill="#5E8ABE" fill-opacity="0.24"/>
<g clip-path="url(#clip8)">
<path d="M300.941 414.641C300.778 414.735 300.581 414.747 300.397 414.679C300.155 414.587 299.995 414.36 300.002 414.095L299.996 390.731L300.239 282.852C300.241 282.604 300.391 282.386 300.615 282.272C300.845 282.168 301.108 282.219 301.292 282.389L366.527 342.057C366.777 342.29 366.801 342.683 366.563 342.951L301.092 414.525C301.05 414.578 300.996 414.61 300.941 414.641ZM301.496 284.274L301.253 390.745L301.262 412.482L365.222 342.564L301.496 284.274ZM316.468 373.281C316.305 373.375 316.097 373.394 315.924 373.319C315.682 373.227 315.526 372.983 315.522 372.724L316.349 318.951C316.351 318.703 316.495 318.475 316.732 318.381C316.962 318.278 317.224 318.329 317.409 318.499L343.734 342.575C343.859 342.692 343.93 342.839 343.94 343.008C343.95 343.176 343.887 343.343 343.781 343.462L316.612 373.154C316.57 373.207 316.522 373.25 316.468 373.281ZM317.589 320.369L316.809 371.081L342.423 343.071L317.589 320.369Z" fill="#5E8ABE" fill-opacity="0.24"/>
<path d="M338.54 371.438C338.311 371.57 338.005 371.544 337.797 371.359L335.086 368.875C334.835 368.642 334.812 368.249 335.049 367.982C335.282 367.731 335.675 367.708 335.942 367.945L338.654 370.429C338.904 370.662 338.928 371.055 338.69 371.322C338.642 371.365 338.594 371.407 338.54 371.438Z" fill="#5E8ABE" fill-opacity="0.24"/>
<path d="M345.15 364.211C344.922 364.343 344.616 364.316 344.408 364.131L341.697 361.647C341.446 361.414 341.423 361.022 341.66 360.754C341.904 360.497 342.285 360.48 342.553 360.717L345.264 363.201C345.515 363.434 345.539 363.827 345.301 364.095C345.253 364.137 345.205 364.179 345.15 364.211Z" fill="#5E8ABE" fill-opacity="0.24"/>
<path d="M351.751 356.989C351.522 357.121 351.217 357.094 351.009 356.91L348.297 354.426C348.047 354.193 348.023 353.8 348.26 353.533C348.498 353.265 348.886 353.259 349.154 353.496L351.865 355.98C352.115 356.213 352.139 356.605 351.902 356.873C351.854 356.915 351.805 356.958 351.751 356.989Z" fill="#5E8ABE" fill-opacity="0.24"/>
<path d="M358.362 349.761C358.133 349.893 357.828 349.867 357.619 349.682L354.908 347.198C354.658 346.965 354.634 346.573 354.871 346.305C355.115 346.048 355.497 346.031 355.765 346.268L358.476 348.752C358.726 348.985 358.75 349.378 358.513 349.645C358.471 349.699 358.416 349.73 358.362 349.761Z" fill="#5E8ABE" fill-opacity="0.24"/>
<path d="M312.076 400.114C311.847 400.246 311.541 400.219 311.333 400.035L308.622 397.551C308.371 397.318 308.348 396.925 308.585 396.657C308.829 396.401 309.211 396.383 309.478 396.621L312.19 399.105C312.44 399.337 312.464 399.73 312.226 399.998C312.185 400.051 312.13 400.083 312.076 400.114Z" fill="#5E8ABE" fill-opacity="0.24"/>
<path d="M318.693 392.897C318.464 393.029 318.159 393.002 317.95 392.818L315.239 390.334C314.989 390.101 314.965 389.708 315.202 389.441C315.435 389.19 315.828 389.166 316.096 389.404L318.807 391.888C319.057 392.121 319.081 392.513 318.844 392.781C318.796 392.823 318.747 392.866 318.693 392.897Z" fill="#5E8ABE" fill-opacity="0.24"/>
<path d="M325.293 385.676C325.064 385.808 324.759 385.781 324.551 385.596L321.839 383.112C321.589 382.88 321.565 382.487 321.802 382.219C322.046 381.962 322.428 381.945 322.696 382.182L325.407 384.666C325.658 384.899 325.681 385.292 325.444 385.56C325.407 385.596 325.347 385.644 325.293 385.676Z" fill="#5E8ABE" fill-opacity="0.24"/>
<path d="M331.904 378.448C331.676 378.58 331.37 378.553 331.162 378.369L328.451 375.885C328.2 375.652 328.176 375.259 328.414 374.991C328.647 374.741 329.039 374.717 329.307 374.955L332.018 377.439C332.269 377.671 332.292 378.064 332.055 378.332C332.007 378.374 331.959 378.416 331.904 378.448Z" fill="#5E8ABE" fill-opacity="0.24"/>
<path d="M334.857 320.791C334.629 320.923 334.323 320.896 334.115 320.711C333.864 320.479 333.841 320.086 334.078 319.818L336.562 317.107C336.806 316.85 337.188 316.833 337.455 317.07C337.706 317.303 337.729 317.696 337.492 317.963L335.008 320.675C334.96 320.717 334.912 320.759 334.857 320.791Z" fill="#5E8ABE" fill-opacity="0.24"/>
<path d="M342.085 327.402C341.856 327.534 341.551 327.507 341.342 327.322C341.092 327.09 341.068 326.697 341.306 326.429L343.79 323.718C344.033 323.461 344.415 323.444 344.683 323.681C344.933 323.914 344.957 324.307 344.72 324.574L342.236 327.286C342.187 327.328 342.139 327.37 342.085 327.402Z" fill="#5E8ABE" fill-opacity="0.24"/>
<path d="M349.307 334.002C349.078 334.134 348.772 334.107 348.564 333.923C348.314 333.69 348.29 333.297 348.527 333.029L351.011 330.318C351.244 330.068 351.637 330.044 351.905 330.281C352.155 330.514 352.179 330.907 351.941 331.174L349.457 333.886C349.409 333.928 349.35 333.977 349.307 334.002Z" fill="#5E8ABE" fill-opacity="0.24"/>
<path d="M356.523 340.619C356.295 340.751 355.989 340.725 355.781 340.54C355.53 340.307 355.507 339.914 355.744 339.647L358.228 336.935C358.465 336.668 358.854 336.661 359.121 336.899C359.372 337.131 359.395 337.524 359.158 337.792L356.674 340.503C356.626 340.546 356.578 340.588 356.523 340.619Z" fill="#5E8ABE" fill-opacity="0.24"/>
<path d="M306.171 294.333C305.942 294.465 305.637 294.438 305.428 294.254C305.178 294.021 305.154 293.628 305.392 293.36L307.876 290.649C308.119 290.392 308.501 290.375 308.769 290.612C309.019 290.845 309.043 291.238 308.806 291.505L306.322 294.217C306.273 294.259 306.225 294.301 306.171 294.333Z" fill="#5E8ABE" fill-opacity="0.24"/>
<path d="M313.398 300.944C313.17 301.076 312.864 301.049 312.656 300.865C312.405 300.632 312.382 300.239 312.619 299.971L315.103 297.26C315.347 297.003 315.729 296.986 315.996 297.223C316.247 297.456 316.27 297.849 316.033 298.116L313.549 300.828C313.501 300.87 313.453 300.913 313.398 300.944Z" fill="#5E8ABE" fill-opacity="0.24"/>
<path d="M320.62 307.544C320.391 307.676 320.086 307.649 319.878 307.465C319.627 307.232 319.604 306.839 319.841 306.572L322.325 303.86C322.569 303.603 322.95 303.586 323.218 303.824C323.469 304.056 323.492 304.449 323.255 304.717L320.771 307.428C320.729 307.481 320.674 307.513 320.62 307.544Z" fill="#5E8ABE" fill-opacity="0.24"/>
<path d="M327.837 314.161C327.608 314.293 327.303 314.267 327.094 314.082C326.844 313.849 326.82 313.457 327.058 313.189L329.542 310.478C329.785 310.221 330.167 310.203 330.435 310.441C330.685 310.674 330.709 311.066 330.472 311.334L327.988 314.045C327.95 314.081 327.891 314.13 327.837 314.161Z" fill="#5E8ABE" fill-opacity="0.24"/>
</g>
<g opacity="0.24" clip-path="url(#clip9)">
<path d="M600.204 576.087L535.025 547.067C531.774 545.62 530.311 541.807 531.758 538.557L574.393 442.801C575.84 439.55 579.652 438.086 582.903 439.534L648.083 468.554C651.333 470.002 652.797 473.814 651.349 477.065L608.715 572.821C607.262 576.083 603.455 577.535 600.204 576.087Z" fill="#5E8ABE"/>
<path d="M609.948 573.383L546.545 540.372C543.294 538.924 541.831 535.112 543.279 531.861L575.821 440.775C577.269 437.524 590.383 437.555 593.634 439.002L657.284 462.74C660.535 464.187 664.31 467.102 662.863 470.353L620.229 566.109C618.793 569.365 613.198 574.831 609.948 573.383Z" stroke="#5E8ABE" stroke-miterlimit="10"/>
</g>
</g>
<defs>
<linearGradient id="paint0_linear" x1="1169.41" y1="857.937" x2="1594.32" y2="433.031" gradientUnits="userSpaceOnUse">
<stop stop-color="#00749B"/>
<stop offset="1" stop-color="#005077"/>
</linearGradient>
<linearGradient id="paint1_linear" x1="862.404" y1="84.1199" x2="1440.08" y2="661.797" gradientUnits="userSpaceOnUse">
<stop stop-color="#00CAF2"/>
<stop offset="1" stop-color="#009AE0"/>
</linearGradient>
<clipPath id="clip0">
<rect width="183" height="208" fill="white" transform="translate(623.998 99)"/>
</clipPath>
<clipPath id="clip1">
<rect width="65.7513" height="98.5297" fill="white" transform="translate(186.668 380) rotate(45)"/>
</clipPath>
<clipPath id="clip2">
<rect width="81" height="115" fill="white" transform="translate(424.998 348)"/>
</clipPath>
<clipPath id="clip3">
<rect width="97.8613" height="90.1847" fill="white" transform="translate(292.707 459) rotate(18.5627)"/>
</clipPath>
<clipPath id="clip4">
<rect width="91" height="89" fill="white" transform="translate(471.998 48)"/>
</clipPath>
<clipPath id="clip5">
<rect width="31.33" height="85.42" fill="white" transform="translate(735.998 389)"/>
</clipPath>
<clipPath id="clip6">
<rect width="54.59" height="55.96" fill="white" transform="translate(635.998 354)"/>
</clipPath>
<clipPath id="clip7">
<rect width="190.368" height="88.0609" fill="white" transform="translate(71 125.742) rotate(-24.3672)"/>
</clipPath>
<clipPath id="clip8">
<rect width="93.7443" height="114.798" fill="white" transform="translate(242.998 314.872) rotate(-30)"/>
</clipPath>
<clipPath id="clip9">
<rect width="92.8258" height="127.398" fill="white" transform="translate(580.816 428) rotate(24.0006)"/>
</clipPath>
</defs>
</svg>
