<svg width="415" height="180" viewBox="0 0 415 180" fill="none" xmlns="http://www.w3.org/2000/svg">
<g opacity="0.4">
<mask id="mask0" mask-type="alpha" maskUnits="userSpaceOnUse" x="0" y="0" width="415" height="180">
<rect y="0.587646" width="414.028" height="179.412" fill="white"/>
</mask>
<g mask="url(#mask0)">
<g opacity="0.34">
<path fill-rule="evenodd" clip-rule="evenodd" d="M279.375 159.436L423.914 14.8967C426.765 12.0457 431.404 12.0618 434.275 14.9326L496.651 77.3092C505.263 85.9216 505.312 99.8368 496.759 108.39L352.22 252.929C349.369 255.78 344.73 255.764 341.859 252.893L279.483 190.517C270.87 181.904 270.822 167.989 279.375 159.436Z" fill="url(#paint0_linear)"/>
<path fill-rule="evenodd" clip-rule="evenodd" d="M408.763 154.634L279.002 24.8732C270.403 16.2734 270.358 2.37484 278.903 -6.17012L340.791 -68.0582C343.639 -70.9065 348.272 -70.8917 351.139 -68.0251L496.471 77.3068C505.071 85.9065 505.115 99.8051 496.57 108.35L434.682 170.238L414.053 190.868C422.598 182.323 422.553 168.424 413.953 159.824L408.763 154.634Z" fill="url(#paint1_linear)"/>
</g>
<g clip-path="url(#clip0)">
<path d="M198.437 88.8561C197.512 88.8561 196.67 88.2779 196.334 87.419L179.564 44.3497C179.345 43.7883 179.362 43.1764 179.603 42.6262C179.844 42.0761 180.287 41.6494 180.842 41.4305L212.196 29.2036C212.454 29.1025 212.728 29.052 213.003 29.052C213.929 29.052 214.77 29.6302 215.107 30.4891L231.877 73.5584C232.096 74.1198 232.079 74.7317 231.838 75.2819C231.596 75.832 231.153 76.2587 230.592 76.4776L199.245 88.7101C198.987 88.8 198.712 88.8561 198.437 88.8561ZM213.003 29.6134C212.796 29.6134 212.588 29.6527 212.398 29.7257L181.05 41.9582C180.629 42.121 180.298 42.441 180.119 42.8564C179.939 43.2718 179.928 43.7322 180.091 44.1476L196.861 87.2169C197.114 87.8625 197.747 88.2947 198.443 88.2947C198.65 88.2947 198.858 88.2554 199.049 88.1824L230.396 75.9499C230.817 75.7871 231.148 75.4671 231.327 75.0517C231.512 74.6363 231.518 74.1759 231.355 73.7605L214.585 30.6912C214.333 30.0456 213.699 29.6134 213.003 29.6134Z" fill="#5E8ABE" fill-opacity="0.24"/>
<path d="M187.421 53.8875C186.496 53.8875 185.654 53.3093 185.318 52.4504L182.878 46.1685C182.659 45.6071 182.676 44.9952 182.917 44.4451C183.159 43.8949 183.602 43.4683 184.157 43.2493L210.793 32.8862C211.051 32.7851 211.326 32.7346 211.606 32.7346C212.532 32.7346 213.373 33.3128 213.71 34.1718L216.149 40.4536C216.368 41.015 216.351 41.6269 216.11 42.1771C215.869 42.7272 215.426 43.1539 214.871 43.3728L188.234 53.7303C187.971 53.837 187.702 53.8875 187.421 53.8875ZM211.601 33.296C211.393 33.296 211.186 33.3353 210.995 33.4083L184.364 43.777C183.944 43.9398 183.613 44.2598 183.433 44.6752C183.248 45.0907 183.243 45.551 183.405 45.9664L185.845 52.2483C186.098 52.8939 186.731 53.3261 187.427 53.3261C187.634 53.3261 187.842 53.2868 188.033 53.2139L214.663 42.8451C215.084 42.6823 215.415 42.3623 215.594 41.9469C215.779 41.5315 215.785 41.0712 215.622 40.6557L213.182 34.3739C212.93 33.7283 212.296 33.296 211.601 33.296Z" fill="#5E8ABE" fill-opacity="0.24"/>
<path d="M211.315 55.2797L213.29 54.5106L212.521 52.5289L213.862 52.0068L214.63 53.9885L216.616 53.2138L217.137 54.5555L215.152 55.3302L215.915 57.3007L214.574 57.8228L213.811 55.8523L211.837 56.6214L211.315 55.2797Z" fill="#5E8ABE" fill-opacity="0.24"/>
<path d="M200.07 74.9956L202.011 75.8489L202.863 73.9009L204.181 74.4791L203.329 76.4271L205.28 77.286L204.703 78.6053L202.751 77.7464L201.898 79.6831L200.58 79.1049L201.433 77.1681L199.492 76.3148L200.07 74.9956Z" fill="#5E8ABE" fill-opacity="0.24"/>
<path d="M198.926 59.709L199.52 61.2416L193.749 63.4871L193.154 61.9545L198.926 59.709Z" fill="#5E8ABE" fill-opacity="0.24"/>
<path d="M193.748 70.1959C192.817 70.1959 191.998 69.6345 191.656 68.7644L188.145 59.7261C187.696 58.5753 188.269 57.2729 189.424 56.8238L198.454 53.3095C198.718 53.2085 198.987 53.158 199.267 53.158C200.198 53.158 201.017 53.7193 201.359 54.5895L204.871 63.6277C205.319 64.7786 204.747 66.081 203.592 66.5301L194.556 70.0387C194.298 70.1398 194.023 70.1959 193.748 70.1959ZM199.262 53.7137C199.054 53.7137 198.847 53.753 198.65 53.826L189.62 57.3403C188.756 57.6771 188.33 58.6539 188.661 59.5184L192.172 68.5567C192.425 69.2079 193.042 69.6289 193.737 69.6289C193.945 69.6289 194.152 69.5896 194.343 69.5167L203.373 66.0024C204.237 65.6656 204.669 64.6888 204.332 63.8242L200.821 54.786C200.58 54.1348 199.963 53.7137 199.262 53.7137Z" fill="#5E8ABE" fill-opacity="0.24"/>
<path d="M211.322 63.3527C210.39 63.3527 209.572 62.7913 209.229 61.9211L205.718 52.8829C205.27 51.732 205.842 50.4296 206.997 49.9805L216.027 46.4663C216.291 46.3652 216.56 46.3147 216.841 46.3147C217.772 46.3147 218.591 46.8761 218.927 47.7462L222.438 56.7845C222.887 57.9353 222.315 59.2377 221.159 59.6868L212.129 63.2011C211.871 63.3021 211.596 63.3527 211.322 63.3527ZM216.835 46.8761C216.627 46.8761 216.42 46.9154 216.224 46.9884L207.193 50.5026C206.33 50.8394 205.898 51.8162 206.234 52.6808L209.745 61.719C209.998 62.3702 210.615 62.7913 211.31 62.7913C211.518 62.7913 211.725 62.752 211.916 62.679L220.946 59.1647C221.81 58.8279 222.236 57.8511 221.905 56.9866L218.394 47.9483C218.147 47.2971 217.536 46.8761 216.835 46.8761Z" fill="#5E8ABE" fill-opacity="0.24"/>
<path d="M199.626 85.3192C198.695 85.3192 197.876 84.7578 197.534 83.8877L194.023 74.8494C193.574 73.6986 194.146 72.3962 195.302 71.9471L204.332 68.4328C204.596 68.3318 204.865 68.2812 205.145 68.2812C206.076 68.2812 206.895 68.8426 207.232 69.7128L210.743 78.751C211.192 79.9019 210.619 81.2043 209.464 81.6534L200.434 85.1677C200.176 85.2687 199.901 85.3192 199.626 85.3192ZM205.14 68.8426C204.932 68.8426 204.725 68.8819 204.534 68.9549L195.504 72.4692C194.64 72.806 194.208 73.7828 194.545 74.6473L198.056 83.6856C198.308 84.3368 198.925 84.7578 199.621 84.7578C199.828 84.7578 200.036 84.7185 200.226 84.6456L209.257 81.1313C210.12 80.7945 210.547 79.8177 210.216 78.9531L206.705 69.9149C206.458 69.2637 205.841 68.8426 205.14 68.8426Z" fill="#5E8ABE" fill-opacity="0.24"/>
<path d="M217.199 78.4818C216.268 78.4818 215.449 77.9204 215.107 77.0503L211.596 68.012C211.377 67.4563 211.394 66.8443 211.635 66.2942C211.876 65.744 212.314 65.323 212.875 65.1097L221.905 61.5954C222.168 61.4944 222.438 61.4438 222.718 61.4438C223.649 61.4438 224.468 62.0052 224.81 62.8754L228.321 71.9136C228.77 73.0645 228.198 74.3669 227.042 74.816L218.012 78.3302C217.749 78.4313 217.474 78.4818 217.199 78.4818ZM222.712 61.9996C222.505 61.9996 222.297 62.0389 222.107 62.1119L213.077 65.6261C212.656 65.7889 212.331 66.1033 212.146 66.5187C211.966 66.9286 211.955 67.3889 212.117 67.8043L215.629 76.8426C215.881 77.4938 216.498 77.9148 217.193 77.9148C217.401 77.9148 217.608 77.8755 217.799 77.8025L226.829 74.2883C227.693 73.9514 228.125 72.9746 227.788 72.1101L224.277 63.0719C224.025 62.4207 223.414 61.9996 222.712 61.9996Z" fill="#5E8ABE" fill-opacity="0.24"/>
<path d="M216.644 69.2695L221.933 67.2092L222.454 68.5509L217.165 70.6112L216.644 69.2695ZM217.457 71.3691L222.746 69.3088L223.268 70.6505L217.978 72.7108L217.457 71.3691Z" fill="#5E8ABE" fill-opacity="0.24"/>
</g>
<g clip-path="url(#clip1)">
<path d="M40.6279 136.866C37.9776 134.216 37.2421 130.143 38.8032 126.733C40.5115 122.996 44.499 120.896 48.5326 121.592L51.9733 114.072C52.0084 113.993 52.1029 113.96 52.1775 113.995L56.0991 115.787C56.1364 115.802 56.165 115.835 56.1804 115.873C56.1935 115.912 56.1913 115.954 56.176 115.991L52.7352 123.512C52.9614 123.698 53.181 123.896 53.3874 124.102C56.0376 126.752 56.771 130.823 55.212 134.236C53.1436 138.759 47.7794 140.755 43.2562 138.686C42.2703 138.236 41.3854 137.624 40.6279 136.866ZM52.1907 114.342L48.7653 121.83C48.7368 121.893 48.6643 121.931 48.5941 121.917C44.6637 121.184 40.7509 123.217 39.0865 126.862C37.578 130.154 38.2872 134.086 40.8475 136.646C41.5808 137.38 42.435 137.971 43.3836 138.405C47.7531 140.403 52.9307 138.476 54.9288 134.106C56.4351 130.812 55.728 126.882 53.1678 124.322C52.9416 124.096 52.6979 123.878 52.4476 123.676C52.3949 123.632 52.3751 123.555 52.4037 123.492L55.8268 116.006L52.1907 114.342Z" fill="#5E8ABE" fill-opacity="0.24"/>
<path d="M51.3727 113.87C51.0609 113.559 51.0169 112.957 51.2695 112.41C51.5725 111.743 52.2092 111.378 52.6857 111.596L57.613 113.849C57.6876 113.884 57.7579 113.932 57.8172 113.991C58.129 114.303 58.1729 114.905 57.9204 115.451C57.7776 115.765 57.5581 116.02 57.3012 116.176C57.0245 116.343 56.7413 116.376 56.5019 116.264L51.5812 114.013C51.5022 113.978 51.4341 113.932 51.3727 113.87ZM57.5976 114.211C57.5625 114.176 57.5229 114.149 57.4812 114.13L52.5562 111.879C52.24 111.734 51.7811 112.035 51.5505 112.538C51.3265 113.03 51.3924 113.587 51.7086 113.732L56.6359 115.985C56.7808 116.051 56.9608 116.024 57.1453 115.915C57.3473 115.792 57.5251 115.583 57.6415 115.326C57.8347 114.896 57.8172 114.43 57.5976 114.211Z" fill="#5E8ABE" fill-opacity="0.24"/>
<path d="M55.0989 132.259C55.1165 132.193 55.0835 132.125 55.022 132.095L40.5477 125.477C40.484 125.448 40.4116 125.468 40.372 125.525C40.0998 125.92 39.8648 126.335 39.6716 126.761C38.6967 128.891 38.7142 131.227 39.5267 133.247C39.6408 133.533 39.7682 133.809 39.9153 134.08L39.9197 134.088C40.7387 135.606 42.0408 136.881 43.7249 137.652C47.8463 139.538 52.7341 137.716 54.618 133.596C54.8178 133.173 54.9781 132.723 55.0989 132.259Z" fill="#5E8ABE" fill-opacity="0.24"/>
</g>
<g clip-path="url(#clip2)">
<path d="M133.551 122.101C133.008 122.101 132.497 121.886 132.007 121.681C131.665 121.538 131.344 121.404 131.024 121.346C130.828 121.31 130.61 121.292 130.312 121.292C130.192 121.292 130.067 121.297 129.943 121.297C129.818 121.301 129.693 121.301 129.569 121.301C129.155 121.301 128.674 121.275 128.252 121.069C127.722 120.815 127.357 120.337 127.006 119.872C126.774 119.573 126.561 119.287 126.307 119.068C126.054 118.849 125.742 118.68 125.408 118.496C124.901 118.215 124.372 117.929 124.042 117.442C123.718 116.964 123.638 116.37 123.562 115.799C123.513 115.419 123.464 115.062 123.353 114.736C123.246 114.428 123.064 114.128 122.872 113.811C122.57 113.311 122.254 112.793 122.205 112.19C122.16 111.587 122.392 111.029 122.614 110.484C122.757 110.14 122.89 109.818 122.948 109.497C123.01 109.162 123.001 108.8 122.997 108.416C122.983 107.835 122.97 107.237 123.224 106.714C123.477 106.183 123.953 105.816 124.416 105.463C124.714 105.231 124.999 105.017 125.217 104.762C125.435 104.508 125.604 104.195 125.787 103.86C126.067 103.351 126.352 102.819 126.837 102.489C127.313 102.163 127.905 102.082 128.474 102.006C128.852 101.957 129.208 101.908 129.533 101.797C129.84 101.689 130.138 101.506 130.454 101.314C130.953 101.01 131.469 100.693 132.069 100.644C132.666 100.6 133.231 100.832 133.769 101.055C134.112 101.198 134.432 101.332 134.753 101.39C134.948 101.426 135.166 101.444 135.46 101.444C135.58 101.444 135.705 101.439 135.829 101.439C135.954 101.435 136.083 101.435 136.203 101.435C136.617 101.435 137.098 101.462 137.52 101.667C138.05 101.922 138.415 102.4 138.766 102.864C138.997 103.163 139.211 103.449 139.465 103.668C139.718 103.887 140.03 104.057 140.363 104.24C140.871 104.521 141.4 104.807 141.73 105.294C142.054 105.772 142.134 106.366 142.21 106.937C142.259 107.317 142.308 107.674 142.419 108C142.526 108.309 142.708 108.608 142.9 108.925C143.202 109.425 143.518 109.943 143.567 110.546C143.612 111.149 143.38 111.708 143.158 112.252C143.015 112.596 142.882 112.918 142.824 113.239C142.762 113.574 142.771 113.936 142.775 114.32C142.789 114.901 142.802 115.499 142.548 116.022C142.295 116.554 141.819 116.92 141.356 117.273C141.058 117.505 140.773 117.719 140.555 117.974C140.337 118.228 140.168 118.541 139.985 118.876C139.705 119.385 139.42 119.917 138.935 120.247C138.459 120.573 137.867 120.654 137.298 120.73C136.92 120.779 136.564 120.828 136.239 120.94C135.932 121.047 135.634 121.23 135.318 121.422C134.819 121.726 134.303 122.043 133.702 122.092C133.654 122.101 133.6 122.101 133.551 122.101ZM130.312 120.846C130.637 120.846 130.881 120.864 131.104 120.908C131.469 120.975 131.829 121.127 132.176 121.27C132.67 121.476 133.173 121.69 133.671 121.65C134.165 121.614 134.615 121.337 135.091 121.047C135.411 120.85 135.745 120.645 136.092 120.524C136.457 120.395 136.853 120.341 137.24 120.292C137.783 120.22 138.299 120.149 138.686 119.885C139.082 119.613 139.331 119.153 139.598 118.666C139.781 118.327 139.972 117.978 140.221 117.688C140.47 117.398 140.782 117.157 141.089 116.92C141.525 116.585 141.943 116.263 142.148 115.83C142.352 115.406 142.339 114.883 142.33 114.334C142.321 113.945 142.312 113.543 142.384 113.159C142.45 112.793 142.602 112.431 142.744 112.083C142.958 111.565 143.162 111.078 143.122 110.582C143.087 110.086 142.811 109.635 142.522 109.157C142.326 108.836 142.121 108.501 142.001 108.148C141.872 107.782 141.819 107.384 141.77 106.995C141.698 106.451 141.627 105.932 141.36 105.544C141.089 105.146 140.63 104.896 140.145 104.628C139.807 104.445 139.46 104.253 139.171 104.003C138.882 103.753 138.642 103.44 138.406 103.132C138.072 102.699 137.756 102.283 137.324 102.078C136.875 101.859 136.341 101.886 135.834 101.895C135.709 101.899 135.58 101.899 135.456 101.899C135.131 101.899 134.886 101.881 134.664 101.841C134.299 101.774 133.938 101.622 133.591 101.479C133.097 101.274 132.595 101.064 132.096 101.1C131.602 101.136 131.153 101.412 130.677 101.703C130.356 101.899 130.023 102.105 129.671 102.225C129.306 102.355 128.91 102.408 128.523 102.458C127.98 102.529 127.464 102.601 127.077 102.869C126.685 103.136 126.436 103.597 126.174 104.083C125.991 104.423 125.8 104.771 125.551 105.062C125.302 105.352 124.99 105.593 124.683 105.83C124.247 106.165 123.833 106.486 123.624 106.92C123.419 107.344 123.428 107.862 123.442 108.411C123.451 108.8 123.46 109.202 123.388 109.586C123.322 109.952 123.17 110.314 123.028 110.662C122.814 111.18 122.61 111.667 122.65 112.163C122.69 112.659 122.961 113.11 123.25 113.588C123.446 113.909 123.651 114.244 123.771 114.597C123.9 114.964 123.953 115.361 124.002 115.75C124.074 116.295 124.145 116.813 124.412 117.201C124.683 117.599 125.141 117.849 125.626 118.117C125.965 118.3 126.312 118.492 126.601 118.742C126.89 118.992 127.13 119.309 127.366 119.613C127.7 120.051 128.02 120.466 128.452 120.676C128.901 120.895 129.435 120.868 129.943 120.859C130.063 120.85 130.187 120.846 130.312 120.846Z" fill="#5E8ABE" fill-opacity="0.24"/>
<path d="M132.875 119.064C128.901 119.064 125.546 115.942 125.244 111.963C125.088 109.913 125.733 107.925 127.068 106.366C128.398 104.807 130.258 103.861 132.301 103.704C136.528 103.383 140.207 106.603 140.528 110.784C140.684 112.834 140.038 114.821 138.703 116.38C137.373 117.939 135.513 118.886 133.471 119.042C133.271 119.055 133.07 119.064 132.875 119.064ZM132.892 104.129C132.705 104.129 132.519 104.138 132.332 104.151C130.409 104.298 128.661 105.192 127.406 106.657C126.151 108.126 125.542 109.997 125.688 111.927C125.991 115.866 129.453 118.903 133.44 118.595C135.362 118.448 137.111 117.555 138.365 116.085C139.62 114.616 140.23 112.744 140.083 110.815C139.794 107.067 136.634 104.129 132.892 104.129Z" fill="#5E8ABE" fill-opacity="0.24"/>
<path d="M131.468 133.709C131.388 133.709 131.313 133.665 131.273 133.593L128.75 128.984L124.202 132.133C124.127 132.186 124.029 132.186 123.953 132.137C123.882 132.088 123.842 131.999 123.86 131.909L126.347 118.975C126.36 118.894 126.418 118.827 126.498 118.805C126.578 118.783 126.663 118.8 126.721 118.859C126.952 119.082 127.157 119.35 127.357 119.609C127.695 120.047 128.011 120.462 128.447 120.672C128.897 120.886 129.431 120.864 129.938 120.855C130.062 120.851 130.191 120.851 130.316 120.851C130.641 120.851 130.886 120.868 131.108 120.913C131.473 120.98 131.833 121.132 132.18 121.275C132.674 121.48 133.177 121.695 133.675 121.655C133.742 121.646 133.818 121.677 133.867 121.726C133.911 121.78 133.938 121.847 133.929 121.918L131.695 133.531C131.678 133.624 131.602 133.696 131.513 133.709C131.491 133.705 131.482 133.709 131.468 133.709ZM128.825 128.435C128.843 128.435 128.861 128.435 128.874 128.439C128.937 128.452 128.99 128.493 129.017 128.551L131.362 132.834L133.426 122.097C132.928 122.07 132.456 121.873 131.998 121.681C131.655 121.538 131.335 121.404 131.015 121.346C130.819 121.311 130.601 121.293 130.303 121.293C130.183 121.293 130.058 121.297 129.933 121.297C129.809 121.302 129.684 121.302 129.56 121.302C129.146 121.302 128.665 121.275 128.243 121.069C127.713 120.815 127.348 120.337 126.992 119.877C126.89 119.743 126.792 119.613 126.69 119.493L124.398 131.458L128.701 128.479C128.741 128.448 128.781 128.435 128.825 128.435Z" fill="#5E8ABE" fill-opacity="0.24"/>
<path d="M138.188 133.191C138.094 133.191 138.01 133.133 137.978 133.044L133.978 121.833C133.96 121.775 133.96 121.717 133.987 121.664C134.014 121.61 134.058 121.57 134.116 121.547C134.445 121.431 134.775 121.235 135.086 121.043C135.407 120.846 135.74 120.645 136.087 120.525C136.452 120.395 136.848 120.341 137.235 120.292C137.778 120.221 138.294 120.149 138.681 119.886C139.077 119.613 139.327 119.153 139.594 118.667C139.776 118.327 139.967 117.979 140.217 117.688C140.328 117.559 140.452 117.443 140.546 117.358C140.599 117.309 140.675 117.291 140.75 117.309C140.822 117.327 140.88 117.38 140.906 117.452L145.471 130.248C145.503 130.333 145.476 130.431 145.409 130.489C145.342 130.547 145.245 130.561 145.164 130.525L140.19 128.109L138.397 133.048C138.366 133.129 138.281 133.191 138.188 133.191ZM134.472 121.887L138.188 132.307L139.856 127.715C139.878 127.657 139.923 127.608 139.981 127.586C140.039 127.559 140.105 127.564 140.163 127.59L144.871 129.877L140.604 117.921C140.586 117.939 140.572 117.956 140.555 117.974C140.337 118.229 140.168 118.541 139.985 118.876C139.705 119.386 139.42 119.917 138.935 120.248C138.459 120.574 137.867 120.654 137.298 120.73C136.919 120.779 136.563 120.828 136.239 120.94C135.932 121.047 135.633 121.23 135.318 121.422C135.046 121.588 134.77 121.757 134.472 121.887Z" fill="#5E8ABE" fill-opacity="0.24"/>
</g>
<g clip-path="url(#clip3)">
<path d="M79.6912 158.412C79.6751 158.406 79.6632 158.399 79.6481 158.39C79.6104 158.363 79.5836 158.325 79.5772 158.28L78.1305 150.575C78.1145 150.484 78.174 150.392 78.2658 150.376L82.0981 149.659C82.1898 149.643 82.2814 149.702 82.2974 149.794L82.5863 151.334C82.5926 151.379 82.585 151.423 82.5579 151.461C82.5309 151.499 82.4931 151.526 82.4477 151.532L81.0804 151.789L81.2925 152.915L82.5595 152.678C82.6513 152.662 82.7428 152.722 82.7588 152.813L83.0328 154.28C83.0392 154.325 83.0315 154.369 83.0045 154.407C82.9774 154.445 82.9396 154.472 82.8943 154.478L81.6272 154.715L81.8831 156.075L83.4005 155.789C83.4458 155.783 83.4901 155.79 83.5278 155.817C83.5654 155.844 83.5923 155.882 83.5987 155.927L83.8876 157.467C83.9036 157.559 83.8441 157.651 83.7523 157.667L79.7689 158.416C79.7484 158.424 79.7171 158.42 79.6912 158.412Z" fill="#5E8ABE" fill-opacity="0.24"/>
<path d="M85.05 154.961C84.9918 154.941 84.9466 154.894 84.936 154.829L84.7174 153.669C84.711 153.623 84.7187 153.579 84.7457 153.541C84.7728 153.504 84.8106 153.477 84.8559 153.47L89.434 152.611C89.4793 152.605 89.5235 152.612 89.5612 152.64C89.5989 152.667 89.6258 152.704 89.6322 152.75L89.8508 153.91C89.8667 154.002 89.8072 154.093 89.7155 154.109L85.1374 154.968C85.1072 154.973 85.0791 154.97 85.05 154.961ZM84.7099 153.144C84.6938 153.139 84.6819 153.131 84.6668 153.123C84.6291 153.096 84.6023 153.058 84.5959 153.013L84.3773 151.852C84.3613 151.761 84.4209 151.669 84.5126 151.653L89.0907 150.794C89.1824 150.778 89.274 150.837 89.29 150.929L89.5085 152.089C89.5149 152.135 89.5073 152.179 89.4802 152.216C89.4531 152.254 89.4153 152.281 89.37 152.287L84.7919 153.147C84.7671 153.156 84.7358 153.153 84.7099 153.144Z" fill="#5E8ABE" fill-opacity="0.24"/>
<path d="M92.3286 156.037C92.2704 156.018 92.2252 155.97 92.2145 155.906L90.7667 148.204C90.7603 148.159 90.768 148.115 90.795 148.077C90.8221 148.039 90.8599 148.012 90.9052 148.006L93.8785 147.446C93.9595 147.43 94.0381 147.475 94.0692 147.554C94.243 148.001 94.4414 148.535 94.6536 149.146L94.972 150.019L94.8689 147.412C94.8648 147.328 94.9253 147.254 95.0063 147.238L97.9947 146.677C98.0864 146.661 98.178 146.72 98.1939 146.812L99.6407 154.517C99.647 154.562 99.6394 154.606 99.6123 154.644C99.5853 154.681 99.5475 154.708 99.5021 154.715L97.4937 155.091C97.402 155.107 97.3104 155.047 97.2944 154.956L96.7272 151.94L96.8314 155.07C96.8355 155.154 96.7749 155.228 96.694 155.244L95.2694 155.51C95.1885 155.526 95.1066 155.481 95.0787 155.403L93.9883 152.413L94.5608 155.466C94.5767 155.558 94.5172 155.65 94.4255 155.666L92.417 156.042C92.3857 156.049 92.3544 156.046 92.3286 156.037Z" fill="#5E8ABE" fill-opacity="0.24"/>
<path d="M101.854 154.022C101.408 153.872 101.075 153.62 100.862 153.268C100.637 152.897 100.455 152.336 100.308 151.552L99.8838 149.301C99.7772 148.74 99.7209 148.307 99.7119 148.013C99.7029 147.697 99.7899 147.373 99.974 147.05C100.157 146.73 100.439 146.447 100.821 146.211C101.192 145.984 101.645 145.815 102.159 145.718C102.859 145.586 103.474 145.598 103.98 145.75L104.074 145.782C104.546 145.94 104.892 146.186 105.103 146.512C105.321 146.848 105.492 147.377 105.634 148.123L105.769 148.856C105.785 148.948 105.726 149.039 105.634 149.055L103.338 149.486C103.291 149.495 103.248 149.485 103.21 149.457C103.173 149.43 103.146 149.393 103.139 149.347L102.888 148.007C102.794 147.504 102.728 147.388 102.708 147.364C102.695 147.348 102.67 147.315 102.524 147.345C102.408 147.367 102.345 147.404 102.33 147.46C102.317 147.52 102.308 147.686 102.399 148.167L103.072 151.746C103.159 152.204 103.224 152.352 103.259 152.399C103.288 152.442 103.313 152.464 103.463 152.435C103.613 152.407 103.628 152.351 103.632 152.327C103.644 152.28 103.659 152.12 103.556 151.578L103.374 150.61C103.358 150.518 103.418 150.427 103.509 150.411L105.806 149.98C105.851 149.974 105.895 149.981 105.933 150.008C105.971 150.035 105.998 150.073 106.004 150.118L106.062 150.419C106.216 151.244 106.257 151.83 106.186 152.213C106.111 152.609 105.86 152.992 105.437 153.35C105.02 153.703 104.467 153.946 103.794 154.073C103.099 154.203 102.492 154.2 101.995 154.062C101.949 154.05 101.902 154.038 101.854 154.022Z" fill="#5E8ABE" fill-opacity="0.24"/>
<path d="M105.865 146.891C105.849 146.885 105.837 146.878 105.822 146.869C105.784 146.842 105.758 146.804 105.751 146.759L105.597 145.933C105.592 145.903 105.592 145.871 105.605 145.843C106.254 144.135 106.638 143.069 106.743 142.68C106.843 142.307 106.879 142.028 106.846 141.847C106.818 141.687 106.77 141.624 106.747 141.598C106.716 141.57 106.685 141.567 106.631 141.577C106.57 141.589 106.551 141.612 106.536 141.646C106.528 141.669 106.502 141.768 106.56 142.079L106.662 142.631C106.673 142.674 106.664 142.722 106.637 142.76C106.61 142.797 106.572 142.824 106.527 142.831L105.229 143.075C105.182 143.084 105.139 143.073 105.101 143.046C105.064 143.019 105.037 142.981 105.03 142.936L104.99 142.725C104.927 142.387 104.894 142.12 104.894 141.919C104.892 141.698 104.946 141.472 105.051 141.245C105.162 141.012 105.328 140.819 105.544 140.669C105.754 140.523 106.023 140.419 106.338 140.36C106.957 140.243 107.466 140.314 107.848 140.568C108.234 140.823 108.479 141.197 108.568 141.681C108.637 142.035 108.616 142.427 108.517 142.851C108.425 143.234 108.127 144.012 107.611 145.217L108.883 144.978C108.974 144.962 109.063 145.021 109.082 145.113L109.268 146.101C109.275 146.146 109.267 146.191 109.24 146.228C109.213 146.266 109.175 146.293 109.13 146.299L105.946 146.896C105.922 146.903 105.891 146.899 105.865 146.891Z" fill="#5E8ABE" fill-opacity="0.24"/>
</g>
<g clip-path="url(#clip4)">
<path d="M136.689 19.9775C136.675 19.9775 136.661 19.9775 136.647 19.9705C136.602 19.9601 136.564 19.9288 136.54 19.8905L136.162 19.2536C135.725 18.5158 135.597 17.6493 135.809 16.8175C136.017 15.9823 136.54 15.2828 137.275 14.8408C137.77 14.545 138.335 14.3884 138.91 14.3884C140.037 14.3884 141.09 14.9905 141.665 15.9614L142.043 16.5983C142.067 16.6366 142.074 16.6853 142.064 16.7305C142.053 16.7758 142.022 16.8141 141.984 16.8384L136.775 19.9531C136.748 19.967 136.72 19.9775 136.689 19.9775ZM138.91 14.7364C138.401 14.7364 137.895 14.8756 137.451 15.1401C136.796 15.5334 136.332 16.1598 136.145 16.9011C135.958 17.6458 136.069 18.4149 136.46 19.0761L136.748 19.5634L141.658 16.6261L141.371 16.1389C140.858 15.2724 139.915 14.7364 138.91 14.7364Z" fill="#5E8ABE" fill-opacity="0.24"/>
<path d="M137.739 21.7488C137.725 21.7488 137.711 21.7488 137.697 21.7418C137.652 21.7314 137.614 21.7036 137.59 21.6618L136.54 19.8904C136.491 19.8069 136.519 19.7025 136.599 19.6503L141.807 16.5356C141.845 16.5112 141.894 16.5043 141.939 16.5147C141.984 16.5251 142.022 16.5565 142.046 16.5948L143.096 18.3661C143.121 18.4044 143.127 18.4531 143.117 18.4984C143.107 18.5436 143.076 18.5819 143.037 18.6063L137.829 21.7244C137.801 21.7384 137.77 21.7488 137.739 21.7488ZM136.924 19.8626L137.798 21.3347L142.708 18.3974L141.835 16.9254L136.924 19.8626Z" fill="#5E8ABE" fill-opacity="0.24"/>
<path d="M146.982 33.6648C146.923 33.6648 146.864 33.6335 146.833 33.5813L139.195 20.7049C139.146 20.6214 139.174 20.517 139.254 20.4648C139.337 20.4161 139.441 20.4439 139.493 20.5239L147.131 33.4004C147.179 33.4839 147.152 33.5883 147.072 33.6405C147.041 33.6579 147.01 33.6648 146.982 33.6648Z" fill="#5E8ABE" fill-opacity="0.24"/>
<path d="M148.888 32.3528C148.829 32.3528 148.77 32.3215 148.739 32.2693L141.177 19.5181C141.129 19.4346 141.157 19.3302 141.236 19.278C141.319 19.2293 141.423 19.2571 141.475 19.3372L149.037 32.0883C149.086 32.1718 149.058 32.2762 148.978 32.3284C148.95 32.3458 148.919 32.3528 148.888 32.3528Z" fill="#5E8ABE" fill-opacity="0.24"/>
<path d="M151.408 38.5403C151.376 38.5403 151.345 38.5333 151.317 38.5159L145.603 35.0428C145.561 35.0184 145.534 34.9802 145.523 34.9349C145.513 34.8897 145.52 34.841 145.547 34.8027C145.627 34.6809 147.509 31.7924 150.829 31.6462C150.922 31.6393 151.002 31.7123 151.009 31.8063L151.574 38.3071C151.581 38.328 151.584 38.3489 151.584 38.3698C151.588 38.4637 151.508 38.5473 151.408 38.5403C151.411 38.5403 151.411 38.5403 151.408 38.5403ZM145.946 34.841L151.21 38.0392L150.68 32.0012C148.056 32.1961 146.365 34.2667 145.946 34.841Z" fill="#5E8ABE" fill-opacity="0.24"/>
<path d="M151.171 35.9163C151.171 35.9163 149.861 35.718 149.293 37.103L151.386 38.3803L151.171 35.9163Z" fill="#5E8ABE" fill-opacity="0.24"/>
<path d="M145.765 35.109C145.755 35.109 145.748 35.109 145.737 35.1055L145.626 35.0881C145.574 35.0812 145.533 35.0498 145.505 35.0046L136.162 19.2536C135.725 18.5158 135.597 17.6493 135.809 16.8175C136.017 15.9823 136.54 15.2828 137.275 14.8408C137.77 14.545 138.335 14.3884 138.91 14.3884C140.037 14.3884 141.09 14.9905 141.665 15.9614L151.001 31.702C151.026 31.7403 151.032 31.7855 151.022 31.8307L151.008 31.8969C150.991 31.9804 150.908 32.0361 150.828 32.0326C150.793 32.0291 150.766 32.0187 150.738 32.0013C148.042 32.1718 146.319 34.319 145.924 34.8654C145.935 34.8863 145.942 34.9141 145.942 34.9385C145.942 35.0359 145.852 35.1055 145.765 35.1125C145.768 35.109 145.765 35.109 145.765 35.109ZM138.91 14.7364C138.401 14.7364 137.895 14.8756 137.451 15.1401C136.796 15.5334 136.332 16.1598 136.145 16.9011C135.958 17.6458 136.069 18.4149 136.46 19.0761L145.678 34.6148C146.143 33.9745 147.851 31.8969 150.578 31.6602L141.371 16.1389C140.858 15.2724 139.915 14.7364 138.91 14.7364Z" fill="#5E8ABE" fill-opacity="0.24"/>
<path d="M148.953 39.9777C148.894 39.9777 148.835 39.9463 148.804 39.8941C148.756 39.8106 148.783 39.7062 148.863 39.654C150.395 38.7353 152.058 38.0984 153.808 37.7608C154.103 37.7052 154.443 37.6564 154.741 37.813C154.921 37.907 155.049 38.0601 155.17 38.2063C155.292 38.3525 155.406 38.4882 155.552 38.5334C155.697 38.5787 155.874 38.5334 156.071 38.4743L160.012 37.2771C160.06 37.2632 160.116 37.2701 160.161 37.3015C160.202 37.3328 160.23 37.378 160.237 37.4337C160.254 37.6738 160.524 37.8478 160.764 37.8722C161.051 37.9 161.367 37.7852 161.64 37.6808C161.73 37.646 161.831 37.6912 161.866 37.7817C161.9 37.8722 161.855 37.9731 161.765 38.0044C161.457 38.1228 161.107 38.255 160.729 38.2202C160.41 38.1889 160.064 37.987 159.939 37.6669L156.175 38.8118C155.981 38.871 155.714 38.9545 155.451 38.871C155.208 38.7944 155.046 38.603 154.907 38.436C154.803 38.3107 154.703 38.1924 154.581 38.1297C154.384 38.0253 154.124 38.0636 153.878 38.1123C152.166 38.4429 150.54 39.0659 149.043 39.9637C149.012 39.9707 148.984 39.9777 148.953 39.9777Z" fill="#5E8ABE" fill-opacity="0.24"/>
</g>
<g opacity="0.24" clip-path="url(#clip5)">
<path d="M219.713 115.308C219.676 115.308 219.642 115.305 219.604 115.299L214.613 114.512C214.383 114.474 214.184 114.328 214.058 114.098C213.937 113.879 213.894 113.612 213.937 113.344C214.026 112.781 214.472 112.367 214.941 112.444L219.932 113.235C220.162 113.272 220.36 113.419 220.487 113.646C220.608 113.865 220.651 114.132 220.608 114.402C220.524 114.917 220.139 115.308 219.713 115.308ZM214.831 112.72C214.547 112.72 214.279 113.014 214.219 113.387C214.187 113.595 214.219 113.796 214.308 113.957C214.391 114.106 214.515 114.201 214.656 114.224L219.647 115.015C219.952 115.064 220.257 114.756 220.323 114.354C220.355 114.147 220.323 113.945 220.234 113.784C220.151 113.635 220.027 113.54 219.886 113.517L214.895 112.726C214.875 112.723 214.852 112.72 214.831 112.72Z" fill="#5E8ABE"/>
<path d="M213.989 136.993C213.865 136.993 213.739 136.984 213.615 136.964C212.989 136.866 212.439 136.527 212.068 136.015C211.695 135.503 211.545 134.877 211.646 134.25L214.788 114.394C214.8 114.316 214.875 114.262 214.952 114.273L219.354 114.969C219.392 114.975 219.426 114.995 219.449 115.026C219.472 115.058 219.481 115.095 219.475 115.133L216.33 134.992C216.145 136.153 215.162 136.993 213.989 136.993ZM215.05 114.581L211.928 134.296C211.749 135.432 212.526 136.501 213.661 136.679C213.771 136.697 213.88 136.705 213.989 136.705C215.018 136.705 215.884 135.966 216.045 134.946L219.167 115.23L215.05 114.581Z" fill="#5E8ABE"/>
<path d="M213.998 136.147C213.915 136.147 213.831 136.142 213.748 136.127C212.88 135.989 212.287 135.173 212.425 134.307L214.47 121.401C214.481 121.323 214.556 121.268 214.633 121.28L217.494 121.734C217.532 121.74 217.566 121.76 217.589 121.792C217.612 121.823 217.621 121.861 217.615 121.898L215.571 134.805C215.447 135.584 214.786 136.147 213.998 136.147Z" fill="#5E8ABE"/>
</g>
<g clip-path="url(#clip6)">
<path d="M191.724 107.3C191.675 107.3 191.626 107.275 191.6 107.229C191.56 107.16 191.583 107.073 191.652 107.033C191.672 107.022 193.633 105.846 195.102 102.459C195.133 102.387 195.217 102.352 195.292 102.384C195.364 102.415 195.398 102.499 195.366 102.574C193.857 106.055 191.882 107.234 191.798 107.283C191.772 107.295 191.747 107.3 191.724 107.3Z" fill="#5E8ABE" fill-opacity="0.24"/>
<path d="M195.47 107.936C194.506 107.936 193.632 107.427 192.876 106.424C192.839 106.375 192.836 106.306 192.873 106.254C193.621 105.193 194.506 104.653 195.507 104.653C197.14 104.653 198.466 106.087 198.52 106.148C198.569 106.202 198.569 106.283 198.523 106.337C198.468 106.404 197.146 107.936 195.47 107.936ZM193.169 106.335C193.854 107.206 194.627 107.649 195.47 107.649C196.778 107.649 197.899 106.579 198.215 106.248C197.896 105.935 196.781 104.94 195.507 104.94C194.633 104.943 193.845 105.409 193.169 106.335Z" fill="#5E8ABE" fill-opacity="0.24"/>
<path d="M192.991 106.481C192.914 106.481 192.848 106.418 192.848 106.34C192.848 106.26 192.911 106.196 192.989 106.194L195.565 106.15C195.648 106.148 195.708 106.214 195.711 106.291C195.711 106.372 195.648 106.435 195.57 106.438L192.991 106.481Z" fill="#5E8ABE" fill-opacity="0.24"/>
<path d="M189.969 118.459C189.705 118.459 189.443 118.436 189.193 118.396C188.715 118.315 188.27 118.123 187.864 117.83C187.709 117.717 187.571 117.574 187.436 117.433C187.266 117.254 187.103 117.088 186.921 116.99C186.737 116.892 186.51 116.852 186.266 116.806C186.076 116.771 185.878 116.737 185.699 116.671C185.225 116.498 184.82 116.234 184.486 115.883C183.215 114.546 182.905 112.493 182.867 111.004C182.816 109.006 183.163 107.444 183.897 106.369C184.713 105.17 186.119 104.454 187.652 104.454C188.106 104.454 188.554 104.517 188.986 104.644C189.926 104.917 190.748 105.564 191.303 106.464C191.642 107.016 191.806 107.142 191.858 107.171C191.91 107.2 192.062 107.246 192.488 107.246C192.574 107.246 192.666 107.243 192.755 107.24C194.817 107.16 196.976 108.842 197.522 110.923C197.761 111.832 197.712 112.723 197.381 113.571C196.898 114.811 195.811 115.972 194.15 117.024C192.643 117.976 191.24 118.459 189.969 118.459ZM187.649 104.744C186.211 104.744 184.894 105.414 184.132 106.533C183.434 107.556 183.103 109.06 183.155 110.998C183.192 112.436 183.488 114.417 184.696 115.687C184.998 116.007 185.369 116.248 185.797 116.406C185.952 116.464 186.128 116.495 186.315 116.53C186.568 116.576 186.829 116.622 187.054 116.743C187.278 116.863 187.462 117.053 187.64 117.24C187.772 117.375 187.896 117.505 188.031 117.602C188.402 117.87 188.807 118.042 189.242 118.117C190.622 118.353 192.24 117.899 193.994 116.789C195.604 115.771 196.651 114.655 197.114 113.474C197.422 112.683 197.468 111.852 197.243 111.001C196.732 109.043 194.707 107.467 192.767 107.533C192.672 107.536 192.58 107.539 192.488 107.539C192.105 107.539 191.861 107.505 191.723 107.43C191.556 107.341 191.338 107.076 191.059 106.622C190.541 105.782 189.776 105.182 188.905 104.926C188.497 104.805 188.077 104.744 187.649 104.744Z" fill="#5E8ABE" fill-opacity="0.24"/>
</g>
<g opacity="0.24" clip-path="url(#clip7)">
<path d="M52.861 40.2452C52.8272 40.2606 52.7895 40.2674 52.7541 40.2681L21.548 38.9395C21.4443 38.9356 21.3598 38.8616 21.3346 38.7609C21.3094 38.6602 21.3591 38.5561 21.4483 38.5055L44.4132 25.871C44.4513 25.8538 44.487 25.8427 44.5224 25.842L75.404 25.8238C75.5058 25.8235 75.5987 25.8936 75.6282 25.9924C75.6577 26.0912 75.6141 26.1976 75.5268 26.2525L52.8906 40.2318C52.8822 40.2356 52.8737 40.2395 52.861 40.2452ZM22.398 38.5087L52.7036 39.7965L74.5859 26.2912L44.5856 26.3079L22.398 38.5087Z" fill="#5E8ABE"/>
<path d="M51.2479 32.508C51.3495 33.0024 50.2859 33.637 48.8785 33.9176C47.4687 34.2044 46.2448 34.0348 46.1474 33.5385C46.0459 33.0441 47.1094 32.4094 48.5169 32.1288C49.9243 31.8482 51.1482 32.0178 51.2479 32.508Z" fill="#5E8ABE"/>
<path d="M61.9239 45.7353C59.4534 46.8542 55.9429 47.9395 51.4916 48.9513L50.6097 49.1315C37.0938 51.5163 35.3814 49.3452 35.2333 49.0859C35.2176 49.0625 35.2123 49.0394 35.2069 49.0163L33.2349 39.2595C33.2188 39.1902 33.2404 39.1142 33.2839 39.0639C33.3298 39.0074 33.3994 38.981 33.472 38.9838L52.7096 39.799L63.3666 33.2184C63.4305 33.1793 63.5096 33.174 63.5792 33.2037C63.6487 33.2334 63.6982 33.2976 63.7161 33.3711L65.6382 42.86C65.6436 42.883 65.6466 42.9123 65.6416 42.9349C65.6203 43.0567 65.3759 44.1718 61.9239 45.7353ZM35.651 48.8713C35.851 49.0764 38.0117 50.8865 50.5254 48.6752L51.3946 48.5007C55.8105 47.4897 59.2914 46.4178 61.7323 45.3122C64.6132 44.0074 65.0979 43.0741 65.165 42.8959L63.3239 33.7883L52.8904 40.2321C52.85 40.2554 52.8058 40.2704 52.7581 40.2665L33.7427 39.4577L35.651 48.8713Z" fill="#5E8ABE"/>
<path d="M68.879 36.6557C68.8621 36.6634 68.8494 36.6691 68.8306 36.6726C68.7049 36.6989 68.5812 36.6173 68.5549 36.4915L67.4629 31.0978L51.2714 32.7418C51.1442 32.7535 51.0313 32.6619 51.0195 32.5347C51.0078 32.4074 51.0994 32.2946 51.2267 32.2828L67.6288 30.6199C67.7456 30.6077 67.8589 30.689 67.8814 30.8062L69.0116 36.3968C69.0303 36.5056 68.9763 36.6116 68.879 36.6557Z" fill="#5E8ABE"/>
<path d="M68.5931 35.7302C68.1722 35.8138 67.903 36.2212 67.9866 36.6422L68.3031 38.1965C68.3867 38.6175 68.7941 38.8867 69.2151 38.803C69.6361 38.7194 69.9053 38.312 69.8217 37.891L69.5051 36.3367C69.4215 35.9158 69.0141 35.6465 68.5931 35.7302Z" fill="#5E8ABE"/>
</g>
<path d="M111.52 50.3989C111.512 50.3989 111.503 50.3989 111.494 50.3961L107.196 49.637C107.158 49.6313 107.124 49.6083 107.104 49.5766C107.081 49.545 107.072 49.5076 107.081 49.4703C107.253 48.4927 107.026 47.1442 107.023 47.1298C106.865 46.5519 106.592 46.0056 106.328 45.4766C106.072 44.9677 105.81 44.4415 105.64 43.8636C105.269 42.6043 105.278 41.2817 105.663 40.1316C106.348 38.0902 108.306 36.7705 110.646 36.7705C112.291 36.7705 113.82 37.4289 114.841 38.5761C115.744 39.5882 116.224 40.8015 116.192 41.9919C116.161 43.2023 115.715 44.4502 114.936 45.5054C114.579 45.9884 114.151 46.3938 113.737 46.7848C113.309 47.1902 112.863 47.61 112.509 48.1103C112.509 48.1103 111.834 49.3006 111.661 50.2782C111.655 50.3156 111.632 50.3501 111.601 50.3702C111.578 50.3903 111.549 50.3989 111.52 50.3989ZM107.383 49.3782L111.405 50.0884C111.618 49.0965 112.239 48.0068 112.268 47.9579C112.644 47.4231 113.099 46.9918 113.539 46.5778C113.944 46.1954 114.361 45.8015 114.703 45.3386C115.448 44.3294 115.873 43.1419 115.902 41.989C115.931 40.8705 115.476 39.7291 114.622 38.7716C113.654 37.6848 112.204 37.0638 110.64 37.0638C108.426 37.0638 106.578 38.3059 105.931 40.2294C105.563 41.3219 105.557 42.5842 105.911 43.786C106.072 44.338 106.33 44.8527 106.581 45.3501C106.851 45.8906 107.133 46.4484 107.299 47.0695C107.314 47.1356 107.524 48.3719 107.383 49.3782Z" fill="#5E8ABE" fill-opacity="0.24"/>
<path d="M111.403 51.759C111.354 51.759 111.305 51.7561 111.256 51.7475L107.021 50.9999C106.802 50.9626 106.61 50.8389 106.483 50.6578C106.357 50.4766 106.308 50.2553 106.345 50.0339C106.423 49.5882 106.851 49.2748 107.311 49.3582L111.546 50.1057C111.765 50.1431 111.958 50.2668 112.084 50.4479C112.211 50.629 112.26 50.8504 112.222 51.0718C112.153 51.4686 111.808 51.759 111.403 51.759ZM107.165 49.6313C106.9 49.6313 106.673 49.8211 106.627 50.0827C106.601 50.2265 106.633 50.3703 106.716 50.491C106.8 50.6118 106.926 50.6894 107.07 50.7153L111.305 51.4628C111.607 51.5175 111.886 51.3133 111.938 51.0201C111.963 50.8763 111.932 50.7325 111.848 50.6118C111.765 50.491 111.638 50.4134 111.495 50.3875L107.26 49.64C107.231 49.6342 107.199 49.6313 107.165 49.6313Z" fill="#5E8ABE" fill-opacity="0.24"/>
<path d="M110.655 53.0299C110.606 53.0299 110.557 53.027 110.508 53.0155L107.288 52.4462C106.837 52.3657 106.532 51.9316 106.613 51.4801C106.69 51.0345 107.119 50.724 107.579 50.8045L110.799 51.3738C111.25 51.4543 111.555 51.8884 111.474 52.3398C111.405 52.7395 111.06 53.0299 110.655 53.0299ZM107.432 51.0805C107.167 51.0805 106.94 51.2703 106.894 51.5319C106.843 51.828 107.041 52.1127 107.337 52.1644L110.557 52.7337C110.859 52.7855 111.138 52.5842 111.19 52.291C111.242 51.9948 111.043 51.7102 110.747 51.6584L107.527 51.0891C107.498 51.0834 107.464 51.0805 107.432 51.0805Z" fill="#5E8ABE" fill-opacity="0.24"/>
<path d="M108.921 53.9699C108.84 53.9699 108.76 53.9642 108.679 53.9498C107.952 53.8204 107.457 53.1476 107.558 52.4144C107.564 52.377 107.584 52.3397 107.615 52.3167C107.647 52.2937 107.687 52.285 107.725 52.2908L110.146 52.7192C110.183 52.7249 110.217 52.7479 110.24 52.7796C110.263 52.8112 110.269 52.8515 110.261 52.8917C110.125 53.5156 109.562 53.9699 108.921 53.9699ZM107.834 52.6013C107.834 53.1217 108.205 53.5731 108.731 53.6651C109.26 53.7571 109.76 53.4495 109.939 52.9722L107.834 52.6013Z" fill="#5E8ABE" fill-opacity="0.24"/>
<path d="M108.191 49.8097C108.113 49.8097 108.05 49.7493 108.047 49.6688L107.895 44.2376C107.892 44.157 107.955 44.0909 108.036 44.0909C108.116 44.088 108.182 44.1513 108.182 44.2318L108.335 49.663C108.337 49.7436 108.274 49.8097 108.194 49.8097H108.191Z" fill="#5E8ABE" fill-opacity="0.24"/>
<path d="M110.508 50.2208C110.49 50.2208 110.473 50.218 110.456 50.2093C110.381 50.1806 110.347 50.0972 110.375 50.0224L112.379 44.9707C112.408 44.896 112.491 44.8615 112.566 44.8902C112.641 44.919 112.675 45.0023 112.647 45.0771L110.64 50.1288C110.62 50.1863 110.565 50.2208 110.508 50.2208Z" fill="#5E8ABE" fill-opacity="0.24"/>
<path d="M109.357 47.2391C109.346 47.2391 109.331 47.2363 109.32 47.2334C109.254 47.2161 109.208 47.15 109.213 47.081L109.481 44.0074L108.828 45.399C108.799 45.4594 108.739 45.491 108.673 45.4795L108.04 45.3674C107.963 45.353 107.911 45.2782 107.922 45.2006C107.937 45.123 108.012 45.0684 108.089 45.0827L108.615 45.1747L109.564 43.1477C109.593 43.0845 109.665 43.0528 109.731 43.0701C109.797 43.0873 109.843 43.1506 109.837 43.2225L109.567 46.3047L110.082 45.2121C110.108 45.1575 110.168 45.1259 110.228 45.1316C110.289 45.1374 110.341 45.1834 110.352 45.2437L110.522 46.0229L111.387 44.2748C111.416 44.2144 111.485 44.1828 111.551 44.2C111.617 44.2173 111.663 44.2748 111.66 44.3438L111.637 45.7297L112.169 45.8245C112.247 45.8389 112.299 45.9137 112.287 45.9913C112.273 46.0689 112.198 46.1207 112.12 46.1092L111.468 45.9942C111.399 45.9827 111.347 45.9194 111.35 45.8504L111.367 44.9821L110.605 46.5232C110.579 46.5778 110.519 46.6095 110.458 46.6008C110.398 46.5922 110.349 46.5491 110.335 46.4887L110.168 45.7239L109.489 47.1615C109.461 47.2075 109.412 47.2391 109.357 47.2391Z" fill="#5E8ABE" fill-opacity="0.24"/>
<path d="M112.007 35.0943C111.998 35.0943 111.989 35.0943 111.981 35.0915C111.903 35.0771 111.851 35.0023 111.863 34.9247L112.268 32.6217C112.283 32.544 112.357 32.4923 112.435 32.5038C112.513 32.5182 112.564 32.5929 112.553 32.6706L112.148 34.9736C112.136 35.0455 112.076 35.0943 112.007 35.0943Z" fill="#5E8ABE" fill-opacity="0.24"/>
<path d="M107.817 35.4595C107.762 35.4595 107.71 35.4279 107.684 35.3761L106.71 33.2513C106.675 33.1794 106.71 33.0932 106.782 33.0616C106.854 33.0299 106.94 33.0616 106.971 33.1334L107.946 35.2582C107.981 35.3301 107.946 35.4163 107.874 35.448C107.857 35.4537 107.837 35.4595 107.817 35.4595Z" fill="#5E8ABE" fill-opacity="0.24"/>
<path d="M104.815 37.8516C104.79 37.8516 104.767 37.8459 104.744 37.8315L102.734 36.6383C102.665 36.5981 102.642 36.5089 102.685 36.4428C102.725 36.3738 102.814 36.3508 102.88 36.3939L104.89 37.5871C104.959 37.6274 104.982 37.7165 104.939 37.7826C104.913 37.8258 104.867 37.8516 104.815 37.8516Z" fill="#5E8ABE" fill-opacity="0.24"/>
<path d="M101.638 41.5663C101.564 41.5663 101.5 41.5088 101.495 41.4312C101.489 41.3507 101.549 41.2845 101.627 41.2788L103.959 41.1178C104.036 41.1149 104.105 41.1724 104.111 41.25C104.117 41.3305 104.056 41.3967 103.979 41.4024L101.647 41.5634C101.644 41.5634 101.641 41.5663 101.638 41.5663Z" fill="#5E8ABE" fill-opacity="0.24"/>
<path d="M115.746 36.8595C115.709 36.8595 115.674 36.8452 115.646 36.8193C115.588 36.7647 115.588 36.6727 115.646 36.6151L117.29 34.9533C117.345 34.8958 117.437 34.8958 117.494 34.9533C117.552 35.0079 117.552 35.0999 117.494 35.1574L115.85 36.8164C115.821 36.8452 115.784 36.8595 115.746 36.8595Z" fill="#5E8ABE" fill-opacity="0.24"/>
<path d="M117.745 40.1345C117.676 40.1345 117.615 40.0856 117.604 40.0166C117.59 39.939 117.641 39.8643 117.719 39.8499L120.016 39.4157C120.094 39.4014 120.169 39.4531 120.183 39.5307C120.197 39.6084 120.146 39.6831 120.068 39.6975L117.771 40.1317C117.762 40.1345 117.753 40.1345 117.745 40.1345Z" fill="#5E8ABE" fill-opacity="0.24"/>
<path d="M119.459 44.7118C119.439 44.7118 119.419 44.7089 119.401 44.7003L117.265 43.7514C117.193 43.7198 117.159 43.6336 117.193 43.5617C117.225 43.4898 117.311 43.4553 117.383 43.4898L119.519 44.4386C119.591 44.4702 119.626 44.5565 119.591 44.6284C119.568 44.6801 119.513 44.7118 119.459 44.7118Z" fill="#5E8ABE" fill-opacity="0.24"/>
<g clip-path="url(#clip8)">
<path d="M86.5277 119.804C86.4807 119.831 86.4242 119.835 86.3713 119.815C86.3017 119.789 86.2557 119.723 86.2576 119.647L86.2559 112.929L86.3258 81.9121C86.3264 81.8408 86.3696 81.7783 86.434 81.7453C86.5002 81.7154 86.5755 81.7303 86.6287 81.7789L105.385 98.9349C105.457 99.0018 105.464 99.1148 105.395 99.1917L86.571 119.771C86.559 119.786 86.5433 119.795 86.5277 119.804ZM86.6871 82.3211L86.6172 112.934L86.6199 119.183L105.01 99.0805L86.6871 82.3211ZM90.9919 107.912C90.945 107.939 90.8854 107.945 90.8355 107.923C90.7659 107.897 90.7212 107.827 90.72 107.752L90.9578 92.2913C90.9583 92.22 90.9997 92.1544 91.0678 92.1276C91.134 92.0977 91.2093 92.1126 91.2625 92.1613L98.8314 99.0838C98.8674 99.1173 98.8877 99.1597 98.8906 99.2081C98.8935 99.2566 98.8754 99.3046 98.8451 99.3388L91.0334 107.876C91.0214 107.891 91.0076 107.903 90.9919 107.912ZM91.3142 92.699L91.09 107.28L98.4546 99.2262L91.3142 92.699Z" fill="#5E8ABE" fill-opacity="0.24"/>
<path d="M97.3377 107.384C97.272 107.422 97.1841 107.414 97.1242 107.361L96.3446 106.647C96.2726 106.58 96.2658 106.467 96.3341 106.39C96.401 106.318 96.5139 106.311 96.5909 106.379L97.3705 107.094C97.4425 107.16 97.4493 107.273 97.381 107.35C97.3672 107.362 97.3533 107.375 97.3377 107.384Z" fill="#5E8ABE" fill-opacity="0.24"/>
<path d="M99.239 105.306C99.1733 105.344 99.0854 105.336 99.0256 105.283L98.246 104.569C98.174 104.502 98.1672 104.389 98.2354 104.312C98.3055 104.238 98.4153 104.233 98.4922 104.301L99.2718 105.015C99.3438 105.082 99.3506 105.195 99.2824 105.272C99.2685 105.284 99.2547 105.297 99.239 105.306Z" fill="#5E8ABE" fill-opacity="0.24"/>
<path d="M101.136 103.229C101.07 103.267 100.983 103.259 100.923 103.206L100.143 102.492C100.071 102.425 100.064 102.312 100.133 102.235C100.201 102.158 100.312 102.156 100.389 102.225L101.169 102.939C101.241 103.006 101.248 103.119 101.18 103.196C101.166 103.208 101.152 103.22 101.136 103.229Z" fill="#5E8ABE" fill-opacity="0.24"/>
<path d="M103.037 101.151C102.971 101.189 102.883 101.181 102.823 101.128L102.044 100.414C101.972 100.347 101.965 100.234 102.033 100.157C102.103 100.083 102.213 100.078 102.29 100.147L103.07 100.861C103.142 100.928 103.148 101.041 103.08 101.118C103.068 101.133 103.053 101.142 103.037 101.151Z" fill="#5E8ABE" fill-opacity="0.24"/>
<path d="M89.7293 115.629C89.6636 115.667 89.5757 115.659 89.5158 115.606L88.7362 114.892C88.6642 114.825 88.6574 114.712 88.7257 114.635C88.7957 114.561 88.9055 114.556 88.9825 114.624L89.7621 115.338C89.8341 115.405 89.8409 115.518 89.7726 115.595C89.7606 115.61 89.7449 115.62 89.7293 115.629Z" fill="#5E8ABE" fill-opacity="0.24"/>
<path d="M91.6316 113.553C91.5659 113.591 91.478 113.584 91.4182 113.531L90.6386 112.816C90.5665 112.749 90.5598 112.636 90.628 112.56C90.6949 112.488 90.8079 112.481 90.8848 112.549L91.6644 113.263C91.7364 113.33 91.7432 113.443 91.675 113.52C91.6611 113.532 91.6473 113.544 91.6316 113.553Z" fill="#5E8ABE" fill-opacity="0.24"/>
<path d="M93.5291 111.477C93.4634 111.515 93.3755 111.507 93.3156 111.454L92.536 110.74C92.464 110.673 92.4572 110.56 92.5255 110.483C92.5955 110.41 92.7053 110.405 92.7823 110.473L93.5619 111.187C93.6339 111.254 93.6407 111.367 93.5724 111.444C93.5617 111.454 93.5447 111.468 93.5291 111.477Z" fill="#5E8ABE" fill-opacity="0.24"/>
<path d="M95.4295 109.399C95.3637 109.437 95.2759 109.429 95.216 109.376L94.4364 108.662C94.3644 108.595 94.3576 108.482 94.4259 108.405C94.4928 108.333 94.6057 108.326 94.6827 108.395L95.4622 109.109C95.5343 109.176 95.541 109.289 95.4728 109.366C95.459 109.378 95.4451 109.39 95.4295 109.399Z" fill="#5E8ABE" fill-opacity="0.24"/>
<path d="M96.2796 92.8214C96.2139 92.8593 96.126 92.8516 96.0661 92.7986C95.9941 92.7316 95.9873 92.6187 96.0556 92.5418L96.7698 91.7622C96.8398 91.6883 96.9496 91.6834 97.0266 91.7516C97.0986 91.8185 97.1054 91.9315 97.0371 92.0084L96.3229 92.788C96.3091 92.8002 96.2953 92.8123 96.2796 92.8214Z" fill="#5E8ABE" fill-opacity="0.24"/>
<path d="M98.3577 94.7222C98.292 94.7602 98.2041 94.7525 98.1443 94.6994C98.0722 94.6325 98.0655 94.5196 98.1337 94.4426L98.8479 93.6631C98.918 93.5892 99.0278 93.5843 99.1047 93.6525C99.1767 93.7194 99.1835 93.8323 99.1153 93.9093L98.4011 94.6889C98.3872 94.701 98.3734 94.7132 98.3577 94.7222Z" fill="#5E8ABE" fill-opacity="0.24"/>
<path d="M100.434 96.6197C100.368 96.6577 100.28 96.65 100.22 96.5969C100.148 96.53 100.142 96.4171 100.21 96.3401L100.924 95.5605C100.991 95.4885 101.104 95.4817 101.181 95.55C101.253 95.6169 101.26 95.7298 101.191 95.8068L100.477 96.5863C100.463 96.5985 100.446 96.6125 100.434 96.6197Z" fill="#5E8ABE" fill-opacity="0.24"/>
<path d="M102.509 98.5225C102.443 98.5604 102.355 98.5528 102.295 98.4997C102.223 98.4328 102.217 98.3198 102.285 98.2429L102.999 97.4633C103.067 97.3863 103.179 97.3845 103.256 97.4527C103.328 97.5197 103.335 97.6326 103.266 97.7096L102.552 98.4891C102.538 98.5013 102.524 98.5135 102.509 98.5225Z" fill="#5E8ABE" fill-opacity="0.24"/>
<path d="M88.0316 85.2142C87.9658 85.2521 87.8779 85.2445 87.8181 85.1914C87.7461 85.1245 87.7393 85.0115 87.8075 84.9346L88.5217 84.155C88.5918 84.0812 88.7016 84.0762 88.7786 84.1444C88.8506 84.2114 88.8574 84.3243 88.7891 84.4012L88.0749 85.1808C88.0611 85.193 88.0472 85.2052 88.0316 85.2142Z" fill="#5E8ABE" fill-opacity="0.24"/>
<path d="M90.1097 87.1151C90.044 87.153 89.9561 87.1453 89.8962 87.0923C89.8242 87.0253 89.8174 86.9124 89.8857 86.8355L90.5999 86.0559C90.6699 85.982 90.7797 85.9771 90.8567 86.0453C90.9287 86.1122 90.9355 86.2252 90.8672 86.3021L90.153 87.0817C90.1392 87.0939 90.1253 87.106 90.1097 87.1151Z" fill="#5E8ABE" fill-opacity="0.24"/>
<path d="M92.1859 89.0128C92.1201 89.0507 92.0322 89.0431 91.9724 88.99C91.9004 88.9231 91.8936 88.8101 91.9618 88.7332L92.676 87.9536C92.7461 87.8798 92.8559 87.8748 92.9328 87.943C93.0049 88.0099 93.0116 88.1229 92.9434 88.1998L92.2292 88.9794C92.2172 88.9947 92.2015 89.0037 92.1859 89.0128Z" fill="#5E8ABE" fill-opacity="0.24"/>
<path d="M94.2611 90.9154C94.1953 90.9533 94.1074 90.9456 94.0476 90.8926C93.9756 90.8256 93.9688 90.7127 94.037 90.6357L94.7512 89.8562C94.8213 89.7823 94.9311 89.7774 95.008 89.8456C95.0801 89.9125 95.0868 90.0255 95.0186 90.1024L94.3044 90.882C94.2937 90.8924 94.2767 90.9063 94.2611 90.9154Z" fill="#5E8ABE" fill-opacity="0.24"/>
</g>
<g opacity="0.24" clip-path="url(#clip9)">
<path d="M172.571 166.224L153.83 157.88C152.896 157.464 152.475 156.368 152.891 155.433L165.149 127.901C165.566 126.967 166.662 126.546 167.596 126.962L186.337 135.306C187.271 135.722 187.692 136.818 187.276 137.753L175.018 165.285C174.6 166.223 173.506 166.64 172.571 166.224Z" fill="#5E8ABE"/>
<path d="M175.371 165.447L157.142 155.955C156.207 155.539 155.787 154.443 156.203 153.508L165.559 127.319C165.976 126.385 169.746 126.393 170.681 126.809L188.982 133.634C189.916 134.051 191.002 134.889 190.586 135.823L178.327 163.355C177.915 164.291 176.306 165.863 175.371 165.447Z" stroke="#5E8ABE" stroke-miterlimit="10"/>
</g>
</g>
</g>
<defs>
<linearGradient id="paint0_linear" x1="336.228" y1="247.262" x2="458.397" y2="125.093" gradientUnits="userSpaceOnUse">
<stop stop-color="#00749B"/>
<stop offset="1" stop-color="#005077"/>
</linearGradient>
<linearGradient id="paint1_linear" x1="247.959" y1="24.7739" x2="414.053" y2="190.868" gradientUnits="userSpaceOnUse">
<stop stop-color="#00CAF2"/>
<stop offset="1" stop-color="#009AE0"/>
</linearGradient>
<clipPath id="clip0">
<rect width="52.6161" height="59.8041" fill="white" transform="translate(179.412 29.052)"/>
</clipPath>
<clipPath id="clip1">
<rect width="18.9048" height="28.3292" fill="white" transform="translate(53.6709 109.845) rotate(45)"/>
</clipPath>
<clipPath id="clip2">
<rect width="23.2891" height="33.0648" fill="white" transform="translate(122.195 100.645)"/>
</clipPath>
<clipPath id="clip3">
<rect width="28.1371" height="25.9299" fill="white" transform="translate(84.1592 132.559) rotate(18.5627)"/>
</clipPath>
<clipPath id="clip4">
<rect width="26.1643" height="25.5893" fill="white" transform="translate(135.709 14.3884)"/>
</clipPath>
<clipPath id="clip5">
<rect width="9.00799" height="24.5599" fill="white" transform="translate(211.614 112.433)"/>
</clipPath>
<clipPath id="clip6">
<rect width="15.6957" height="16.0896" fill="white" transform="translate(182.862 102.37)"/>
</clipPath>
<clipPath id="clip7">
<rect width="54.7345" height="25.3192" fill="white" transform="translate(20.4141 36.741) rotate(-24.3672)"/>
</clipPath>
<clipPath id="clip8">
<rect width="26.9533" height="33.0068" fill="white" transform="translate(69.8672 91.1196) rotate(-30)"/>
</clipPath>
<clipPath id="clip9">
<rect width="26.6892" height="36.6294" fill="white" transform="translate(166.996 123.646) rotate(24.0006)"/>
</clipPath>
</defs>
</svg>
