<svg width="60" height="60" viewBox="0 0 60 60" fill="none" xmlns="http://www.w3.org/2000/svg">
<g clip-path="url(#clip0)">
<path d="M40 17.4998H20.0001C19.3097 17.4998 18.7501 16.9402 18.7501 16.2498C18.7501 15.5594 19.3097 14.9999 20.0001 14.9999H40.0001C40.6905 14.9999 41.2502 15.5596 41.2502 16.2499C41.2502 16.9403 40.6904 17.4998 40 17.4998Z" fill="#EDC49F"/>
<path d="M30 59.9999C16.905 59.9999 6.25 51.5899 6.25 41.2499C6.25 34.0849 22.2725 17.2748 24.1025 15.3799C24.3379 15.137 24.6617 14.9999 25 14.9999H35C35.3382 14.9999 35.6621 15.137 35.8975 15.3799C37.7275 17.2748 53.7501 34.0849 53.7501 41.2499C53.7501 51.5899 43.095 59.9999 30 59.9999ZM25.5325 17.4998C20.5326 22.7498 8.75008 36.1624 8.75008 41.2499C8.75008 50.2099 18.2826 57.4999 30 57.4999C41.7175 57.4999 51.25 50.2099 51.25 41.2499C51.25 36.1598 39.4725 22.7498 34.4675 17.4998H25.5325Z" fill="black"/>
<path d="M40 17.4998H20.0001C19.3097 17.4998 18.7501 16.9402 18.7501 16.2498C18.7501 15.5594 19.3097 14.9999 20.0001 14.9999H40.0001C40.6905 14.9999 41.2502 15.5596 41.2502 16.2499C41.2502 16.9403 40.6904 17.4998 40 17.4998Z" fill="black"/>
<path d="M35.0001 17.4998H25.0001C24.7168 17.5001 24.4417 17.404 24.2201 17.2274C23.1476 16.3699 13.7201 8.72742 13.3226 4.08984C13.223 3.21457 13.4951 2.33753 14.0726 1.67238C16.1501 -0.680161 21.5726 2.40492 24.6826 4.49988C26.095 2.47488 28.2051 -0.00012207 30 -0.00012207C31.795 -0.00012207 33.9051 2.47488 35.3275 4.49988C38.43 2.40492 43.86 -0.682622 45.9375 1.67238C46.515 2.33765 46.7871 3.21457 46.6875 4.08984C46.285 8.71734 36.8601 16.3698 35.79 17.2274C35.5657 17.4062 35.2868 17.5024 35.0001 17.4998ZM25.4425 14.9999H34.5575C38.3075 11.9524 43.9625 6.47988 44.1899 3.87234C44.2224 3.5073 44.1124 3.3723 44.0624 3.3273C43.2849 2.8548 39.2174 4.76226 35.7275 7.2648C35.1662 7.66675 34.3853 7.53761 33.9834 6.9764C33.9719 6.96035 33.9607 6.94394 33.95 6.9273C32.9642 5.17652 31.6044 3.6648 29.9675 2.49984C28.3705 3.68999 27.0367 5.19738 26.05 6.9273C25.6751 7.50703 24.9013 7.67308 24.3216 7.2982C24.305 7.28742 24.2885 7.27628 24.2725 7.2648C20.4425 4.51476 16.6525 2.9148 15.92 3.33984C15.8093 3.49371 15.7694 3.6873 15.8099 3.87234C16.0375 6.47988 21.6975 11.9524 25.4425 14.9999Z" fill="black"/>
<rect x="29.2944" y="16" width="2" height="6" rx="1" transform="rotate(35 29.2944 16)" fill="black"/>
<rect x="29.0001" y="17.5736" width="2" height="6" rx="1" transform="rotate(-35 29.0001 17.5736)" fill="black"/>
</g>
<defs>
<clipPath id="clip0">
<rect width="60" height="60" fill="white" transform="translate(6.10352e-05 -0.00012207)"/>
</clipPath>
</defs>
</svg>
