<svg width="202" height="48" viewBox="0 0 202 48" fill="none" xmlns="http://www.w3.org/2000/svg">
<path fill-rule="evenodd" clip-rule="evenodd" d="M67.8614 19.0188C67.3239 18.3606 66.6636 17.8551 65.8806 17.5024C65.0976 17.1498 64.1919 16.9735 63.1636 16.9735C62.1352 16.9735 61.1827 17.1733 60.3063 17.573C59.4298 17.9726 58.6702 18.531 58.0274 19.2481C57.3847 19.9651 56.8822 20.8174 56.5199 21.8048C56.1576 22.7922 55.9765 23.8619 55.9765 25.0139C55.9765 26.1895 56.1576 27.265 56.5199 28.2407C56.8822 29.2164 57.3789 30.0628 58.0099 30.7798C58.641 31.4969 59.383 32.0553 60.2361 32.4549C61.0892 32.8546 62.0066 33.0544 62.9883 33.0544C64.1101 33.0544 65.1035 32.8193 65.9683 32.3491C66.833 31.8789 67.5459 31.2206 68.1068 30.3743L72.6645 33.795C71.6127 35.2762 70.2805 36.3694 68.6678 37.0747C67.0551 37.78 65.3956 38.1326 63.6894 38.1326C61.7495 38.1326 59.9615 37.827 58.3254 37.2157C56.6894 36.6045 55.2753 35.7287 54.0833 34.5885C52.8913 33.4482 51.9623 32.067 51.2962 30.4448C50.6301 28.8226 50.297 27.0123 50.297 25.0139C50.297 23.0156 50.6301 21.2053 51.2962 19.5831C51.9623 17.9609 52.8913 16.5797 54.0833 15.4394C55.2753 14.2992 56.6894 13.4234 58.3254 12.8122C59.9615 12.2009 61.7495 11.8953 63.6894 11.8953C64.3906 11.8953 65.121 11.9599 65.8806 12.0892C66.6402 12.2185 67.3881 12.4242 68.1244 12.7064C68.8606 12.9885 69.5676 13.3646 70.2454 13.8348C70.9232 14.3051 71.5309 14.881 72.0685 15.5628L67.8614 19.0188ZM75.0485 10.8373H80.3073V37.4979H75.0485V10.8373ZM94.7865 35.3467H94.7164C94.1321 36.2636 93.355 36.9219 92.385 37.3215C91.415 37.7212 90.3925 37.9211 89.3174 37.9211C88.5227 37.9211 87.7573 37.8094 87.021 37.586C86.2848 37.3627 85.6362 37.0277 85.0753 36.581C84.5143 36.1343 84.0702 35.5818 83.743 34.9235C83.4158 34.2652 83.2522 33.5011 83.2522 32.6313C83.2522 31.6438 83.4333 30.8092 83.7956 30.1274C84.1579 29.4456 84.6487 28.8814 85.2681 28.4347C85.8875 27.988 86.5945 27.6412 87.3891 27.3944C88.1838 27.1475 89.0077 26.9653 89.8608 26.8477C90.7139 26.7302 91.567 26.6597 92.4201 26.6362C93.2732 26.6126 94.062 26.6009 94.7865 26.6009C94.7865 25.6605 94.4535 24.914 93.7874 24.3615C93.1212 23.809 92.3324 23.5328 91.4209 23.5328C90.5561 23.5328 89.7673 23.715 89.0544 24.0794C88.3416 24.4438 87.7047 24.9434 87.1437 25.5782L84.339 22.6864C85.3207 21.7695 86.4659 21.0819 87.7748 20.6234C89.0836 20.165 90.4392 19.9357 91.8416 19.9357C93.3842 19.9357 94.6521 20.1297 95.6455 20.5176C96.6388 20.9055 97.4335 21.4757 98.0295 22.228C98.6255 22.9803 99.0403 23.9031 99.274 24.9963C99.5078 26.0895 99.6246 27.3532 99.6246 28.7873V37.4979H94.7865V35.3467ZM93.4894 29.9864C93.092 29.9864 92.5954 30.004 91.9994 30.0393C91.4034 30.0745 90.8307 30.1744 90.2815 30.339C89.7322 30.5036 89.2648 30.7504 88.8791 31.0796C88.4935 31.4087 88.3007 31.8672 88.3007 32.4549C88.3007 33.0897 88.5694 33.5599 89.107 33.8655C89.6446 34.1712 90.2055 34.324 90.7898 34.324C91.304 34.324 91.8007 34.2535 92.2798 34.1124C92.759 33.9713 93.1855 33.7715 93.5595 33.5129C93.9334 33.2543 94.2314 32.9251 94.4535 32.5255C94.6755 32.1258 94.7865 31.6556 94.7865 31.1148V29.9864H93.4894ZM112.561 25.4019C111.79 24.4379 110.773 23.956 109.511 23.956C109.067 23.956 108.635 24.0618 108.214 24.2734C107.793 24.485 107.583 24.8494 107.583 25.3666C107.583 25.7898 107.799 26.1013 108.232 26.3011C108.664 26.501 109.213 26.6773 109.879 26.8301C110.545 26.9829 111.258 27.1475 112.018 27.3238C112.778 27.5002 113.49 27.7764 114.156 28.1526C114.823 28.5287 115.372 29.0401 115.804 29.6866C116.237 30.3331 116.453 31.1971 116.453 32.2786C116.453 33.3836 116.213 34.2946 115.734 35.0117C115.255 35.7287 114.641 36.3047 113.894 36.7397C113.146 37.1746 112.304 37.4802 111.369 37.6566C110.434 37.8329 109.511 37.9211 108.6 37.9211C107.408 37.9211 106.204 37.7506 104.989 37.4097C103.773 37.0688 102.745 36.4634 101.903 35.5935L105.094 32.0317C105.585 32.643 106.128 33.1073 106.724 33.4247C107.32 33.7421 108.015 33.9008 108.81 33.9008C109.418 33.9008 109.967 33.8126 110.458 33.6363C110.949 33.46 111.194 33.1367 111.194 32.6665C111.194 32.2198 110.978 31.8848 110.545 31.6615C110.113 31.4381 109.564 31.25 108.898 31.0972C108.232 30.9444 107.519 30.7798 106.759 30.6035C105.999 30.4272 105.287 30.1627 104.621 29.81C103.954 29.4574 103.405 28.9578 102.973 28.3113C102.54 27.6647 102.324 26.8007 102.324 25.7193C102.324 24.7083 102.529 23.8384 102.938 23.1096C103.347 22.3808 103.884 21.7813 104.55 21.3111C105.217 20.8409 105.982 20.4941 106.847 20.2708C107.712 20.0474 108.588 19.9357 109.476 19.9357C110.598 19.9357 111.732 20.1003 112.877 20.4295C114.022 20.7586 114.992 21.3464 115.787 22.1927L112.561 25.4019ZM128.793 25.4019C128.022 24.4379 127.006 23.956 125.743 23.956C125.299 23.956 124.867 24.0618 124.446 24.2734C124.026 24.485 123.815 24.8494 123.815 25.3666C123.815 25.7898 124.031 26.1013 124.464 26.3011C124.896 26.501 125.445 26.6773 126.112 26.8301C126.778 26.9829 127.49 27.1475 128.25 27.3238C129.01 27.5002 129.723 27.7764 130.389 28.1526C131.055 28.5287 131.604 29.0401 132.036 29.6866C132.469 30.3331 132.685 31.1971 132.685 32.2786C132.685 33.3836 132.445 34.2946 131.966 35.0117C131.487 35.7287 130.874 36.3047 130.126 36.7397C129.378 37.1746 128.536 37.4802 127.602 37.6566C126.667 37.8329 125.743 37.9211 124.832 37.9211C123.64 37.9211 122.436 37.7506 121.221 37.4097C120.005 37.0688 118.977 36.4634 118.136 35.5935L121.326 32.0317C121.817 32.643 122.36 33.1073 122.956 33.4247C123.552 33.7421 124.248 33.9008 125.042 33.9008C125.65 33.9008 126.199 33.8126 126.69 33.6363C127.181 33.46 127.426 33.1367 127.426 32.6665C127.426 32.2198 127.21 31.8848 126.778 31.6615C126.345 31.4381 125.796 31.25 125.13 31.0972C124.464 30.9444 123.751 30.7798 122.991 30.6035C122.232 30.4272 121.519 30.1627 120.853 29.81C120.187 29.4574 119.637 28.9578 119.205 28.3113C118.773 27.6647 118.556 26.8007 118.556 25.7193C118.556 24.7083 118.761 23.8384 119.17 23.1096C119.579 22.3808 120.116 21.7813 120.783 21.3111C121.449 20.8409 122.214 20.4941 123.079 20.2708C123.944 20.0474 124.82 19.9357 125.708 19.9357C126.83 19.9357 127.964 20.1003 129.109 20.4295C130.254 20.7586 131.224 21.3464 132.019 22.1927L128.793 25.4019ZM135.875 20.3589H140.713V22.6159H140.784C140.994 22.3103 141.269 21.9988 141.607 21.6814C141.946 21.364 142.344 21.076 142.799 20.8174C143.255 20.5588 143.752 20.3472 144.289 20.1826C144.827 20.018 145.4 19.9357 146.007 19.9357C147.269 19.9357 148.415 20.1532 149.443 20.5882C150.471 21.0231 151.354 21.6344 152.09 22.4219C152.826 23.2095 153.393 24.1441 153.79 25.2255C154.188 26.307 154.386 27.4943 154.386 28.7873C154.386 29.9864 154.205 31.1325 153.843 32.2257C153.481 33.3189 152.966 34.2887 152.3 35.1351C151.634 35.9815 150.822 36.6574 149.864 37.1628C148.906 37.6683 147.819 37.9211 146.603 37.9211C145.505 37.9211 144.482 37.7506 143.536 37.4097C142.589 37.0688 141.812 36.4869 141.204 35.6641H141.134V45.5384H135.875V20.3589ZM140.713 28.9284C140.713 30.2215 141.082 31.2677 141.818 32.067C142.554 32.8664 143.588 33.266 144.921 33.266C146.253 33.266 147.287 32.8664 148.023 32.067C148.759 31.2677 149.128 30.2215 149.128 28.9284C149.128 27.6353 148.759 26.5891 148.023 25.7898C147.287 24.9904 146.253 24.5908 144.921 24.5908C143.588 24.5908 142.554 24.9904 141.818 25.7898C141.082 26.5891 140.713 27.6353 140.713 28.9284ZM157.542 10.8373H162.8V37.4979H157.542V10.8373ZM182.994 37.4979H177.946V35.1704H177.876C177.689 35.4995 177.449 35.8286 177.157 36.1578C176.865 36.4869 176.508 36.7808 176.088 37.0394C175.667 37.298 175.188 37.5096 174.65 37.6742C174.113 37.8388 173.528 37.9211 172.897 37.9211C171.565 37.9211 170.484 37.7153 169.654 37.3039C168.825 36.8925 168.182 36.3224 167.726 35.5935C167.27 34.8647 166.967 34.0066 166.815 33.0192C166.663 32.0317 166.587 30.962 166.587 29.81V20.3589H171.846V28.7521C171.846 29.2458 171.863 29.7571 171.898 30.2861C171.933 30.8151 172.038 31.3029 172.214 31.7496C172.389 32.1963 172.658 32.5607 173.02 32.8428C173.382 33.125 173.902 33.266 174.58 33.266C175.258 33.266 175.807 33.1426 176.228 32.8957C176.649 32.6489 176.97 32.3197 177.192 31.9083C177.414 31.4969 177.56 31.0326 177.63 30.5153C177.7 29.9981 177.735 29.4574 177.735 28.8931V20.3589H182.994V37.4979ZM196.352 25.4019C195.58 24.4379 194.564 23.956 193.302 23.956C192.857 23.956 192.425 24.0618 192.004 24.2734C191.584 24.485 191.373 24.8494 191.373 25.3666C191.373 25.7898 191.59 26.1013 192.022 26.3011C192.454 26.501 193.004 26.6773 193.67 26.8301C194.336 26.9829 195.049 27.1475 195.808 27.3238C196.568 27.5002 197.281 27.7764 197.947 28.1526C198.613 28.5287 199.162 29.0401 199.595 29.6866C200.027 30.3331 200.243 31.1971 200.243 32.2786C200.243 33.3836 200.004 34.2946 199.524 35.0117C199.045 35.7287 198.432 36.3047 197.684 36.7397C196.936 37.1746 196.095 37.4802 195.16 37.6566C194.225 37.8329 193.302 37.9211 192.39 37.9211C191.198 37.9211 189.994 37.7506 188.779 37.4097C187.564 37.0688 186.535 36.4634 185.694 35.5935L188.884 32.0317C189.375 32.643 189.918 33.1073 190.514 33.4247C191.11 33.7421 191.806 33.9008 192.6 33.9008C193.208 33.9008 193.757 33.8126 194.248 33.6363C194.739 33.46 194.984 33.1367 194.984 32.6665C194.984 32.2198 194.768 31.8848 194.336 31.6615C193.903 31.4381 193.354 31.25 192.688 31.0972C192.022 30.9444 191.309 30.7798 190.549 30.6035C189.79 30.4272 189.077 30.1627 188.411 29.81C187.745 29.4574 187.195 28.9578 186.763 28.3113C186.331 27.6647 186.115 26.8007 186.115 25.7193C186.115 24.7083 186.319 23.8384 186.728 23.1096C187.137 22.3808 187.675 21.7813 188.341 21.3111C189.007 20.8409 189.772 20.4941 190.637 20.2708C191.502 20.0474 192.378 19.9357 193.267 19.9357C194.388 19.9357 195.522 20.1003 196.667 20.4295C197.812 20.7586 198.782 21.3464 199.577 22.1927L196.352 25.4019Z" fill="black"/>
<path fill-rule="evenodd" clip-rule="evenodd" d="M67.8614 19.0188C67.3239 18.3606 66.6636 17.8551 65.8806 17.5024C65.0976 17.1498 64.1919 16.9735 63.1636 16.9735C62.1352 16.9735 61.1827 17.1733 60.3063 17.573C59.4298 17.9726 58.6702 18.531 58.0274 19.2481C57.3847 19.9651 56.8822 20.8174 56.5199 21.8048C56.1576 22.7922 55.9765 23.8619 55.9765 25.0139C55.9765 26.1895 56.1576 27.265 56.5199 28.2407C56.8822 29.2164 57.3789 30.0628 58.0099 30.7798C58.641 31.4969 59.383 32.0553 60.2361 32.4549C61.0892 32.8546 62.0066 33.0544 62.9883 33.0544C64.1101 33.0544 65.1035 32.8193 65.9683 32.3491C66.833 31.8789 67.5459 31.2206 68.1068 30.3743L72.6645 33.795C71.6127 35.2762 70.2805 36.3694 68.6678 37.0747C67.0551 37.78 65.3956 38.1326 63.6894 38.1326C61.7495 38.1326 59.9615 37.827 58.3254 37.2157C56.6894 36.6045 55.2753 35.7287 54.0833 34.5885C52.8913 33.4482 51.9623 32.067 51.2962 30.4448C50.6301 28.8226 50.297 27.0123 50.297 25.0139C50.297 23.0156 50.6301 21.2053 51.2962 19.5831C51.9623 17.9609 52.8913 16.5797 54.0833 15.4394C55.2753 14.2992 56.6894 13.4234 58.3254 12.8122C59.9615 12.2009 61.7495 11.8953 63.6894 11.8953C64.3906 11.8953 65.121 11.9599 65.8806 12.0892C66.6402 12.2185 67.3881 12.4242 68.1244 12.7064C68.8606 12.9885 69.5676 13.3646 70.2454 13.8348C70.9232 14.3051 71.5309 14.881 72.0685 15.5628L67.8614 19.0188ZM75.0485 10.8373H80.3073V37.4979H75.0485V10.8373ZM94.7865 35.3467H94.7164C94.1321 36.2636 93.355 36.9219 92.385 37.3215C91.415 37.7212 90.3925 37.9211 89.3174 37.9211C88.5227 37.9211 87.7573 37.8094 87.021 37.586C86.2848 37.3627 85.6362 37.0277 85.0753 36.581C84.5143 36.1343 84.0702 35.5818 83.743 34.9235C83.4158 34.2652 83.2522 33.5011 83.2522 32.6313C83.2522 31.6438 83.4333 30.8092 83.7956 30.1274C84.1579 29.4456 84.6487 28.8814 85.2681 28.4347C85.8875 27.988 86.5945 27.6412 87.3891 27.3944C88.1838 27.1475 89.0077 26.9653 89.8608 26.8477C90.7139 26.7302 91.567 26.6597 92.4201 26.6362C93.2732 26.6126 94.062 26.6009 94.7865 26.6009C94.7865 25.6605 94.4535 24.914 93.7874 24.3615C93.1212 23.809 92.3324 23.5328 91.4209 23.5328C90.5561 23.5328 89.7673 23.715 89.0544 24.0794C88.3416 24.4438 87.7047 24.9434 87.1437 25.5782L84.339 22.6864C85.3207 21.7695 86.4659 21.0819 87.7748 20.6234C89.0836 20.165 90.4392 19.9357 91.8416 19.9357C93.3842 19.9357 94.6521 20.1297 95.6455 20.5176C96.6388 20.9055 97.4335 21.4757 98.0295 22.228C98.6255 22.9803 99.0403 23.9031 99.274 24.9963C99.5078 26.0895 99.6246 27.3532 99.6246 28.7873V37.4979H94.7865V35.3467ZM93.4894 29.9864C93.092 29.9864 92.5954 30.004 91.9994 30.0393C91.4034 30.0745 90.8307 30.1744 90.2815 30.339C89.7322 30.5036 89.2648 30.7504 88.8791 31.0796C88.4935 31.4087 88.3007 31.8672 88.3007 32.4549C88.3007 33.0897 88.5694 33.5599 89.107 33.8655C89.6446 34.1712 90.2055 34.324 90.7898 34.324C91.304 34.324 91.8007 34.2535 92.2798 34.1124C92.759 33.9713 93.1855 33.7715 93.5595 33.5129C93.9334 33.2543 94.2314 32.9251 94.4535 32.5255C94.6755 32.1258 94.7865 31.6556 94.7865 31.1148V29.9864H93.4894ZM112.561 25.4019C111.79 24.4379 110.773 23.956 109.511 23.956C109.067 23.956 108.635 24.0618 108.214 24.2734C107.793 24.485 107.583 24.8494 107.583 25.3666C107.583 25.7898 107.799 26.1013 108.232 26.3011C108.664 26.501 109.213 26.6773 109.879 26.8301C110.545 26.9829 111.258 27.1475 112.018 27.3238C112.778 27.5002 113.49 27.7764 114.156 28.1526C114.823 28.5287 115.372 29.0401 115.804 29.6866C116.237 30.3331 116.453 31.1971 116.453 32.2786C116.453 33.3836 116.213 34.2946 115.734 35.0117C115.255 35.7287 114.641 36.3047 113.894 36.7397C113.146 37.1746 112.304 37.4802 111.369 37.6566C110.434 37.8329 109.511 37.9211 108.6 37.9211C107.408 37.9211 106.204 37.7506 104.989 37.4097C103.773 37.0688 102.745 36.4634 101.903 35.5935L105.094 32.0317C105.585 32.643 106.128 33.1073 106.724 33.4247C107.32 33.7421 108.015 33.9008 108.81 33.9008C109.418 33.9008 109.967 33.8126 110.458 33.6363C110.949 33.46 111.194 33.1367 111.194 32.6665C111.194 32.2198 110.978 31.8848 110.545 31.6615C110.113 31.4381 109.564 31.25 108.898 31.0972C108.232 30.9444 107.519 30.7798 106.759 30.6035C105.999 30.4272 105.287 30.1627 104.621 29.81C103.954 29.4574 103.405 28.9578 102.973 28.3113C102.54 27.6647 102.324 26.8007 102.324 25.7193C102.324 24.7083 102.529 23.8384 102.938 23.1096C103.347 22.3808 103.884 21.7813 104.55 21.3111C105.217 20.8409 105.982 20.4941 106.847 20.2708C107.712 20.0474 108.588 19.9357 109.476 19.9357C110.598 19.9357 111.732 20.1003 112.877 20.4295C114.022 20.7586 114.992 21.3464 115.787 22.1927L112.561 25.4019ZM128.793 25.4019C128.022 24.4379 127.006 23.956 125.743 23.956C125.299 23.956 124.867 24.0618 124.446 24.2734C124.026 24.485 123.815 24.8494 123.815 25.3666C123.815 25.7898 124.031 26.1013 124.464 26.3011C124.896 26.501 125.445 26.6773 126.112 26.8301C126.778 26.9829 127.49 27.1475 128.25 27.3238C129.01 27.5002 129.723 27.7764 130.389 28.1526C131.055 28.5287 131.604 29.0401 132.036 29.6866C132.469 30.3331 132.685 31.1971 132.685 32.2786C132.685 33.3836 132.445 34.2946 131.966 35.0117C131.487 35.7287 130.874 36.3047 130.126 36.7397C129.378 37.1746 128.536 37.4802 127.602 37.6566C126.667 37.8329 125.743 37.9211 124.832 37.9211C123.64 37.9211 122.436 37.7506 121.221 37.4097C120.005 37.0688 118.977 36.4634 118.136 35.5935L121.326 32.0317C121.817 32.643 122.36 33.1073 122.956 33.4247C123.552 33.7421 124.248 33.9008 125.042 33.9008C125.65 33.9008 126.199 33.8126 126.69 33.6363C127.181 33.46 127.426 33.1367 127.426 32.6665C127.426 32.2198 127.21 31.8848 126.778 31.6615C126.345 31.4381 125.796 31.25 125.13 31.0972C124.464 30.9444 123.751 30.7798 122.991 30.6035C122.232 30.4272 121.519 30.1627 120.853 29.81C120.187 29.4574 119.637 28.9578 119.205 28.3113C118.773 27.6647 118.556 26.8007 118.556 25.7193C118.556 24.7083 118.761 23.8384 119.17 23.1096C119.579 22.3808 120.116 21.7813 120.783 21.3111C121.449 20.8409 122.214 20.4941 123.079 20.2708C123.944 20.0474 124.82 19.9357 125.708 19.9357C126.83 19.9357 127.964 20.1003 129.109 20.4295C130.254 20.7586 131.224 21.3464 132.019 22.1927L128.793 25.4019ZM135.875 20.3589H140.713V22.6159H140.784C140.994 22.3103 141.269 21.9988 141.607 21.6814C141.946 21.364 142.344 21.076 142.799 20.8174C143.255 20.5588 143.752 20.3472 144.289 20.1826C144.827 20.018 145.4 19.9357 146.007 19.9357C147.269 19.9357 148.415 20.1532 149.443 20.5882C150.471 21.0231 151.354 21.6344 152.09 22.4219C152.826 23.2095 153.393 24.1441 153.79 25.2255C154.188 26.307 154.386 27.4943 154.386 28.7873C154.386 29.9864 154.205 31.1325 153.843 32.2257C153.481 33.3189 152.966 34.2887 152.3 35.1351C151.634 35.9815 150.822 36.6574 149.864 37.1628C148.906 37.6683 147.819 37.9211 146.603 37.9211C145.505 37.9211 144.482 37.7506 143.536 37.4097C142.589 37.0688 141.812 36.4869 141.204 35.6641H141.134V45.5384H135.875V20.3589ZM140.713 28.9284C140.713 30.2215 141.082 31.2677 141.818 32.067C142.554 32.8664 143.588 33.266 144.921 33.266C146.253 33.266 147.287 32.8664 148.023 32.067C148.759 31.2677 149.128 30.2215 149.128 28.9284C149.128 27.6353 148.759 26.5891 148.023 25.7898C147.287 24.9904 146.253 24.5908 144.921 24.5908C143.588 24.5908 142.554 24.9904 141.818 25.7898C141.082 26.5891 140.713 27.6353 140.713 28.9284ZM157.542 10.8373H162.8V37.4979H157.542V10.8373ZM182.994 37.4979H177.946V35.1704H177.876C177.689 35.4995 177.449 35.8286 177.157 36.1578C176.865 36.4869 176.508 36.7808 176.088 37.0394C175.667 37.298 175.188 37.5096 174.65 37.6742C174.113 37.8388 173.528 37.9211 172.897 37.9211C171.565 37.9211 170.484 37.7153 169.654 37.3039C168.825 36.8925 168.182 36.3224 167.726 35.5935C167.27 34.8647 166.967 34.0066 166.815 33.0192C166.663 32.0317 166.587 30.962 166.587 29.81V20.3589H171.846V28.7521C171.846 29.2458 171.863 29.7571 171.898 30.2861C171.933 30.8151 172.038 31.3029 172.214 31.7496C172.389 32.1963 172.658 32.5607 173.02 32.8428C173.382 33.125 173.902 33.266 174.58 33.266C175.258 33.266 175.807 33.1426 176.228 32.8957C176.649 32.6489 176.97 32.3197 177.192 31.9083C177.414 31.4969 177.56 31.0326 177.63 30.5153C177.7 29.9981 177.735 29.4574 177.735 28.8931V20.3589H182.994V37.4979ZM196.352 25.4019C195.58 24.4379 194.564 23.956 193.302 23.956C192.857 23.956 192.425 24.0618 192.004 24.2734C191.584 24.485 191.373 24.8494 191.373 25.3666C191.373 25.7898 191.59 26.1013 192.022 26.3011C192.454 26.501 193.004 26.6773 193.67 26.8301C194.336 26.9829 195.049 27.1475 195.808 27.3238C196.568 27.5002 197.281 27.7764 197.947 28.1526C198.613 28.5287 199.162 29.0401 199.595 29.6866C200.027 30.3331 200.243 31.1971 200.243 32.2786C200.243 33.3836 200.004 34.2946 199.524 35.0117C199.045 35.7287 198.432 36.3047 197.684 36.7397C196.936 37.1746 196.095 37.4802 195.16 37.6566C194.225 37.8329 193.302 37.9211 192.39 37.9211C191.198 37.9211 189.994 37.7506 188.779 37.4097C187.564 37.0688 186.535 36.4634 185.694 35.5935L188.884 32.0317C189.375 32.643 189.918 33.1073 190.514 33.4247C191.11 33.7421 191.806 33.9008 192.6 33.9008C193.208 33.9008 193.757 33.8126 194.248 33.6363C194.739 33.46 194.984 33.1367 194.984 32.6665C194.984 32.2198 194.768 31.8848 194.336 31.6615C193.903 31.4381 193.354 31.25 192.688 31.0972C192.022 30.9444 191.309 30.7798 190.549 30.6035C189.79 30.4272 189.077 30.1627 188.411 29.81C187.745 29.4574 187.195 28.9578 186.763 28.3113C186.331 27.6647 186.115 26.8007 186.115 25.7193C186.115 24.7083 186.319 23.8384 186.728 23.1096C187.137 22.3808 187.675 21.7813 188.341 21.3111C189.007 20.8409 189.772 20.4941 190.637 20.2708C191.502 20.0474 192.378 19.9357 193.267 19.9357C194.388 19.9357 195.522 20.1003 196.667 20.4295C197.812 20.7586 198.782 21.3464 199.577 22.1927L196.352 25.4019Z" fill="#2D2D45"/>
<path fill-rule="evenodd" clip-rule="evenodd" d="M13.7855 33.1706L33.1063 13.8498C33.4874 13.4688 34.1073 13.4708 34.4909 13.8544L42.8262 22.1897C43.9771 23.3406 43.9833 25.2004 42.84 26.3436L23.5192 45.6644C23.1381 46.0455 22.5182 46.0434 22.1346 45.6598L13.7993 37.3245C12.6484 36.1736 12.6423 34.3139 13.7855 33.1706Z" fill="url(#paint0_linear)"/>
<path fill-rule="evenodd" clip-rule="evenodd" d="M31.0912 32.5355L13.726 15.1703C12.5751 14.0195 12.5689 12.1597 13.7122 11.0164L21.9925 2.73609C22.3736 2.355 22.9935 2.35705 23.3772 2.74067L42.8262 22.1897C43.9771 23.3406 43.9832 25.2004 42.84 26.3436L34.5596 34.624L31.7995 37.3841C32.9428 36.2408 32.9367 34.381 31.7858 33.2302L31.0912 32.5355Z" fill="url(#paint1_linear)"/>
<defs>
<linearGradient id="paint0_linear" x1="21.3821" y1="44.9073" x2="37.7125" y2="28.5768" gradientUnits="userSpaceOnUse">
<stop stop-color="#00749B"/>
<stop offset="1" stop-color="#005077"/>
</linearGradient>
<linearGradient id="paint1_linear" x1="9.57205" y1="15.1566" x2="31.7995" y2="37.3841" gradientUnits="userSpaceOnUse">
<stop stop-color="#00CAF2"/>
<stop offset="1" stop-color="#009AE0"/>
</linearGradient>
</defs>
</svg>
