<svg width="76" height="95" viewBox="0 0 76 95" fill="none" xmlns="http://www.w3.org/2000/svg">
<g clip-path="url(#clip0)">
<path d="M36.0941 12.4121C36.0941 12.4121 27.8112 12.7182 22.6292 19.6084C17.4471 26.4986 17.5345 36.018 17.3977 43.7238C17.261 51.4297 21.9602 57.3256 28.6559 58.1854C35.3515 59.0452 37.0039 53.1504 44.4074 49.9233C51.8109 46.6962 54.3147 46.9665 58.6271 40.1876C62.9395 33.4087 59.5465 22.8519 51.2917 17.3461C43.0369 11.8403 36.0941 12.4121 36.0941 12.4121Z" fill="#009AE0"/>
<path opacity="0.7" d="M36.0941 12.4121C36.0941 12.4121 27.8112 12.7182 22.6292 19.6084C17.4471 26.4986 17.5345 36.018 17.3977 43.7238C17.261 51.4297 21.9602 57.3256 28.6559 58.1854C35.3515 59.0452 37.0039 53.1504 44.4074 49.9233C51.8109 46.6962 54.3147 46.9665 58.6271 40.1876C62.9395 33.4087 59.5465 22.8519 51.2917 17.3461C43.0369 11.8403 36.0941 12.4121 36.0941 12.4121Z" fill="white"/>
</g>
<path d="M41.8202 30.5C41.1299 30.5 40.5702 29.9403 40.5702 29.25V19.25C40.5703 18.5597 41.1299 18 41.8202 18C42.5106 18 43.0703 18.5597 43.0703 19.25V29.25C43.0703 29.9403 42.5106 30.5 41.8202 30.5Z" fill="black"/>
<path d="M31.8203 40.5H21.8203C21.13 40.5 20.5703 39.9403 20.5703 39.2499C20.5703 38.5596 21.13 37.9999 21.8203 37.9999H31.8203C32.5106 37.9999 33.0703 38.5596 33.0703 39.2499C33.0703 39.9403 32.5106 40.5 31.8203 40.5Z" fill="black"/>
<path d="M61.8202 40.5H51.8202C51.1299 40.5 50.5702 39.9403 50.5702 39.2499C50.5702 38.5596 51.1299 37.9999 51.8202 37.9999H61.8202C62.5105 37.9999 63.0702 38.5596 63.0702 39.2499C63.0702 39.9403 62.5105 40.5 61.8202 40.5Z" fill="black"/>
<path d="M34.7503 33.4299C34.4186 33.4305 34.1002 33.2993 33.8653 33.0649L26.7929 26C26.302 25.5091 26.302 24.7134 26.7929 24.2225C27.2838 23.7316 28.0795 23.7316 28.5704 24.2225L35.6329 31.295C36.1217 31.7825 36.1226 32.574 35.6351 33.0628C35.4 33.2985 35.0807 33.4306 34.7479 33.4301H34.7503V33.4299Z" fill="black"/>
<path d="M27.6778 54.6425C26.9875 54.6438 26.4268 54.085 26.4255 53.3947C26.425 53.0619 26.5571 52.7425 26.7928 52.5075L33.8653 45.435C34.3618 44.9554 35.1532 44.9691 35.6328 45.4657C36.1006 45.9501 36.1006 46.718 35.6328 47.2024L28.5703 54.2773C28.3336 54.5136 28.0121 54.6451 27.6778 54.6425Z" fill="black"/>
<path d="M48.8902 33.4299C48.1999 33.4312 47.6392 32.8724 47.6379 32.1821C47.6374 31.8493 47.7695 31.5299 48.0052 31.2948L55.0702 24.2224C55.5667 23.7427 56.3581 23.7565 56.8377 24.2531C57.3055 24.7375 57.3055 25.5054 56.8377 25.9898L49.7752 33.0623C49.5407 33.2976 49.2223 33.4299 48.8902 33.4299Z" fill="black"/>
<g clip-path="url(#clip1)">
<path d="M47.2502 49.1311V63.1561C47.2502 63.8464 46.6905 64.4061 46.0002 64.4061V51.9061C45.9952 50.8438 46.4513 49.8314 47.2502 49.1311Z" fill="#FFB74D"/>
<path d="M54.7502 51.6311V63.1561C54.7502 63.8465 54.1905 64.4061 53.5002 64.4061V54.4062C53.4952 53.3437 53.9513 52.3313 54.7502 51.6311Z" fill="#FFB74D"/>
<path d="M62.2502 54.1311V63.156C62.2502 63.8464 61.6905 64.4061 61.0002 64.4061V56.9061C60.9952 55.8437 61.4513 54.8314 62.2502 54.1311Z" fill="#FFB74D"/>
<path d="M53.5002 94.4061C48.3647 94.4207 43.4369 92.3798 39.8152 88.7386L23.6503 72.5737C21.7822 70.7044 21.783 67.6748 23.6523 65.8067C24.5472 64.9123 25.76 64.4088 27.0253 64.4062C28.1888 64.4071 29.3362 64.6776 30.3778 65.1962L37.2502 68.6336V39.4063C37.2503 36.6449 39.4888 34.4062 42.2502 34.4062C45.0116 34.4062 47.2503 36.6449 47.2503 39.4063V47.5788C49.6412 46.1973 52.6995 47.0155 54.081 49.4065C54.2369 49.6762 54.3672 49.9598 54.4702 50.2538C56.7648 48.7175 59.8703 49.3323 61.4066 51.6268C61.6412 51.9772 61.8306 52.3559 61.9702 52.7538C64.2654 51.2184 67.3707 51.8345 68.906 54.1297C69.4557 54.9514 69.7494 55.9176 69.7501 56.9063V78.1562C69.7392 87.1262 62.4703 94.3951 53.5002 94.4061ZM27.0253 66.9062C25.7633 66.9097 24.7432 67.9356 24.7468 69.1976C24.7485 69.801 24.9888 70.3792 25.4153 70.8061L41.5803 86.9711C44.7353 90.1417 49.0274 91.9186 53.5002 91.9061C61.0901 91.8965 67.2405 85.746 67.2502 78.1561V56.9062C67.2502 55.5255 66.1309 54.4063 64.7502 54.4063C63.3695 54.4063 62.2502 55.5255 62.2502 56.9062V63.1562C62.2502 63.8465 61.6906 64.4062 61.0002 64.4062C60.3099 64.4062 59.7502 63.8465 59.7502 63.1562V54.4061C59.7502 53.0254 58.6309 51.9062 57.2502 51.9062C55.8695 51.9062 54.7503 53.0254 54.7503 54.4061V63.1562C54.7503 63.8465 54.1906 64.4062 53.5002 64.4062C52.8099 64.4062 52.2502 63.8465 52.2502 63.1562V51.9062C52.2502 50.5255 51.1309 49.4062 49.7502 49.4062C48.3695 49.4062 47.2503 50.5255 47.2503 51.9062V63.1562C47.2503 63.8465 46.6906 64.4062 46.0002 64.4062C45.3099 64.4062 44.7502 63.8465 44.7502 63.1562V39.4063C44.7502 38.0256 43.6309 36.9063 42.2502 36.9063C40.8695 36.9063 39.7503 38.0256 39.7503 39.4063V70.6563C39.7503 71.3466 39.1906 71.9063 38.5002 71.9062C38.3058 71.9062 38.1141 71.8608 37.9403 71.7738L29.2503 67.4337C28.5591 67.0891 27.7976 66.9086 27.0253 66.9062Z" fill="black"/>
</g>
<defs>
<clipPath id="clip0">
<rect width="60" height="49.2433" fill="white" transform="translate(0 23.4438) rotate(-23)"/>
</clipPath>
<clipPath id="clip1">
<rect width="60" height="60" fill="white" transform="translate(16 34.4062)"/>
</clipPath>
</defs>
</svg>
