<svg width="77" height="79" viewBox="0 0 77 79" fill="none" xmlns="http://www.w3.org/2000/svg">
<g clip-path="url(#clip0)">
<path d="M50.4752 58.3721C50.4752 58.3721 57.5711 54.0888 58.763 45.5502C59.9549 37.0116 55.2634 28.7281 51.6471 21.9221C48.0309 15.1162 41.0624 12.2377 34.7894 14.7318C28.5164 17.226 29.9291 23.1827 25.0184 29.5945C20.1077 36.0063 17.7868 36.9838 17.3015 45.0034C16.8163 53.023 24.9019 60.6112 34.791 61.4247C44.6801 62.2382 50.4752 58.3721 50.4752 58.3721Z" fill="#009AE0"/>
<path opacity="0.7" d="M50.4752 58.3721C50.4752 58.3721 57.5711 54.0888 58.763 45.5502C59.9549 37.0116 55.2634 28.7281 51.6471 21.9221C48.0309 15.1162 41.0624 12.2377 34.7894 14.7318C28.5164 17.226 29.9291 23.1827 25.0184 29.5945C20.1077 36.0063 17.7868 36.9838 17.3015 45.0034C16.8163 53.023 24.9019 60.6112 34.791 61.4247C44.6801 62.2382 50.4752 58.3721 50.4752 58.3721Z" fill="white"/>
</g>
<g clip-path="url(#clip1)">
<path d="M50 23.4998H30.0001C29.3097 23.4998 28.7501 22.9402 28.7501 22.2498C28.7501 21.5594 29.3097 20.9999 30.0001 20.9999H50.0001C50.6905 20.9999 51.2502 21.5596 51.2502 22.2499C51.2502 22.9403 50.6904 23.4998 50 23.4998Z" fill="#EDC49F"/>
<path d="M40 65.9999C26.905 65.9999 16.25 57.5899 16.25 47.2499C16.25 40.0849 32.2725 23.2748 34.1025 21.3799C34.3379 21.137 34.6617 20.9999 35 20.9999H45C45.3382 20.9999 45.6621 21.137 45.8975 21.3799C47.7275 23.2748 63.7501 40.0849 63.7501 47.2499C63.7501 57.5899 53.095 65.9999 40 65.9999ZM35.5325 23.4998C30.5326 28.7498 18.7501 42.1624 18.7501 47.2499C18.7501 56.2099 28.2826 63.4999 40 63.4999C51.7175 63.4999 61.25 56.2099 61.25 47.2499C61.25 42.1598 49.4725 28.7498 44.4675 23.4998H35.5325Z" fill="black"/>
<path d="M50 23.4998H30.0001C29.3097 23.4998 28.7501 22.9402 28.7501 22.2498C28.7501 21.5594 29.3097 20.9999 30.0001 20.9999H50.0001C50.6905 20.9999 51.2502 21.5596 51.2502 22.2499C51.2502 22.9403 50.6904 23.4998 50 23.4998Z" fill="black"/>
<path d="M45.0001 23.4998H35.0001C34.7168 23.5001 34.4417 23.404 34.2201 23.2274C33.1476 22.3699 23.7201 14.7274 23.3226 10.0898C23.223 9.21457 23.4951 8.33753 24.0726 7.67238C26.1501 5.31984 31.5726 8.40492 34.6826 10.4999C36.095 8.47488 38.2051 5.99988 40 5.99988C41.795 5.99988 43.9051 8.47488 45.3275 10.4999C48.43 8.40492 53.86 5.31738 55.9375 7.67238C56.515 8.33765 56.7871 9.21457 56.6875 10.0898C56.285 14.7173 46.8601 22.3698 45.79 23.2274C45.5657 23.4062 45.2868 23.5024 45.0001 23.4998ZM35.4425 20.9999H44.5575C48.3075 17.9524 53.9625 12.4799 54.1899 9.87234C54.2224 9.5073 54.1124 9.3723 54.0624 9.3273C53.2849 8.8548 49.2174 10.7623 45.7275 13.2648C45.1662 13.6668 44.3853 13.5376 43.9834 12.9764C43.9719 12.9603 43.9607 12.9439 43.95 12.9273C42.9642 11.1765 41.6044 9.6648 39.9675 8.49984C38.3705 9.68999 37.0367 11.1974 36.05 12.9273C35.6751 13.507 34.9013 13.6731 34.3216 13.2982C34.305 13.2874 34.2885 13.2763 34.2725 13.2648C30.4425 10.5148 26.6525 8.9148 25.92 9.33984C25.8093 9.49371 25.7694 9.6873 25.8099 9.87234C26.0375 12.4799 31.6975 17.9524 35.4425 20.9999Z" fill="black"/>
<rect x="39.2944" y="22" width="2" height="6" rx="1" transform="rotate(35 39.2944 22)" fill="black"/>
<rect x="39.0001" y="23.5736" width="2" height="6" rx="1" transform="rotate(-35 39.0001 23.5736)" fill="black"/>
</g>
<g clip-path="url(#clip2)">
<path d="M59.0756 59.9812V61.3963C59.0756 63.3505 62.5595 64.934 66.8586 64.934C71.1576 64.934 74.6416 63.3505 74.6416 61.3963V59.9812H59.0756Z" fill="white"/>
<path d="M66.8586 63.519C71.157 63.519 74.6416 61.9351 74.6416 59.9812C74.6416 58.0274 71.157 56.4435 66.8586 56.4435C62.5601 56.4435 59.0756 58.0274 59.0756 59.9812C59.0756 61.9351 62.5601 63.519 66.8586 63.519Z" fill="white"/>
<path d="M59.0756 57.151V58.5661C59.0756 60.5203 62.5595 62.1038 66.8586 62.1038C71.1576 62.1038 74.6416 60.5203 74.6416 58.5661V57.151H59.0756Z" fill="white"/>
<path d="M66.8586 60.6888C71.157 60.6888 74.6416 59.1049 74.6416 57.151C74.6416 55.1972 71.157 53.6133 66.8586 53.6133C62.5601 53.6133 59.0756 55.1972 59.0756 57.151C59.0756 59.1049 62.5601 60.6888 66.8586 60.6888Z" fill="white"/>
<path d="M59.0756 54.3208V55.7359C59.0756 57.6901 62.5595 59.2736 66.8586 59.2736C71.1576 59.2736 74.6416 57.6901 74.6416 55.7359V54.3208H59.0756Z" fill="white"/>
<path d="M66.8586 57.8586C71.157 57.8586 74.6416 56.2747 74.6416 54.3208C74.6416 52.367 71.157 50.7831 66.8586 50.7831C62.5601 50.7831 59.0756 52.367 59.0756 54.3208C59.0756 56.2747 62.5601 57.8586 66.8586 57.8586Z" fill="white"/>
<path d="M59.0756 51.4906V52.9057C59.0756 54.8599 62.5595 56.4434 66.8586 56.4434C71.1576 56.4434 74.6416 54.8599 74.6416 52.9057V51.4906H59.0756Z" fill="white"/>
<path d="M66.8586 55.0284C71.157 55.0284 74.6416 53.4445 74.6416 51.4906C74.6416 49.5368 71.157 47.9529 66.8586 47.9529C62.5601 47.9529 59.0756 49.5368 59.0756 51.4906C59.0756 53.4445 62.5601 55.0284 66.8586 55.0284Z" fill="white"/>
<path d="M59.0756 48.6604V50.0755C59.0756 52.0297 62.5595 53.6132 66.8586 53.6132C71.1576 53.6132 74.6416 52.0297 74.6416 50.0755V48.6604H59.0756Z" fill="white"/>
<path d="M66.8586 52.1982C71.157 52.1982 74.6416 50.6143 74.6416 48.6604C74.6416 46.7066 71.157 45.1227 66.8586 45.1227C62.5601 45.1227 59.0756 46.7066 59.0756 48.6604C59.0756 50.6143 62.5601 52.1982 66.8586 52.1982Z" fill="white"/>
<path d="M67.5661 57.151C67.5661 55.1968 64.0821 53.6133 59.7831 53.6133C55.484 53.6133 52.0001 55.1968 52.0001 57.151V58.5661C52.0014 58.8103 52.0545 59.0514 52.1557 59.2737C52.0545 59.4959 52.0014 59.737 52.0001 59.9812V61.3963C52.0001 63.3505 55.484 64.934 59.7831 64.934C60.4929 64.9326 61.202 64.8853 61.9057 64.7925C62.8716 64.6777 63.8212 64.4526 64.7359 64.1218C64.985 64.0284 65.2156 63.9251 65.4435 63.8189L65.5595 63.7609C66.8005 63.1369 67.5661 62.309 67.5661 61.3963V59.9812C67.5647 59.737 67.5117 59.4959 67.4104 59.2737C67.5117 59.0514 67.5647 58.8103 67.5661 58.5661V57.151Z" fill="white"/>
<path d="M66.8586 50.783C63.0859 50.783 59.0756 49.5434 59.0756 47.2453C59.0756 44.9471 63.0859 43.7075 66.8586 43.7075C70.6312 43.7075 74.6416 44.9471 74.6416 47.2453C74.6416 49.5434 70.6312 50.783 66.8586 50.783ZM66.8586 45.1226C62.9713 45.1226 60.4907 46.3806 60.4907 47.2453C60.4907 48.1099 62.9713 49.3679 66.8586 49.3679C70.7458 49.3679 73.2265 48.1099 73.2265 47.2453C73.2265 46.3806 70.7458 45.1226 66.8586 45.1226Z" fill="black"/>
<path d="M68.2737 53.5566C67.8829 53.5726 67.5531 53.2688 67.5371 52.8781C67.5211 52.4873 67.8249 52.1575 68.2156 52.1415C71.4859 51.8712 73.2265 50.7674 73.2265 50.0755C73.2265 49.6847 73.5433 49.3679 73.934 49.3679C74.3248 49.3679 74.6416 49.6847 74.6416 50.0755C74.6416 52.1146 71.4732 53.2906 68.3331 53.5538L68.2737 53.5566Z" fill="black"/>
<path d="M69.6887 56.2028C69.298 56.2004 68.9831 55.8818 68.9855 55.491C68.9876 55.1504 69.2319 54.8597 69.567 54.7991C71.9444 54.3788 73.2265 53.5099 73.2265 52.9057C73.2265 52.5149 73.5432 52.1981 73.934 52.1981C74.3248 52.1981 74.6416 52.5149 74.6416 52.9057C74.6416 54.4297 72.8359 55.658 69.8119 56.1915C69.7713 56.1994 69.73 56.2032 69.6887 56.2028Z" fill="black"/>
<path d="M69.6887 59.033C69.298 59.0306 68.9831 58.712 68.9855 58.3212C68.9876 57.9806 69.2319 57.6899 69.567 57.6293C71.9444 57.209 73.2265 56.3401 73.2265 55.7359C73.2265 55.3451 73.5432 55.0283 73.934 55.0283C74.3248 55.0283 74.6416 55.3451 74.6416 55.7359C74.6416 57.2599 72.8359 58.4882 69.8119 59.0217C69.7713 59.0296 69.73 59.0334 69.6887 59.033Z" fill="black"/>
<path d="M69.6887 61.8632C69.298 61.8609 68.9831 61.5422 68.9855 61.1514C68.9876 60.8109 69.2319 60.5201 69.567 60.4595C71.9444 60.0392 73.2265 59.1703 73.2265 58.5661C73.2265 58.1753 73.5432 57.8585 73.934 57.8585C74.3248 57.8585 74.6416 58.1753 74.6416 58.5661C74.6416 60.0901 72.8359 61.3184 69.8119 61.8519C69.7713 61.8598 69.73 61.8636 69.6887 61.8632Z" fill="black"/>
<path d="M68.2737 64.8774C67.8829 64.8934 67.5531 64.5897 67.5371 64.1989C67.5211 63.8081 67.8249 63.4783 68.2156 63.4623C71.4859 63.192 73.2265 62.0883 73.2265 61.3963C73.2265 61.0055 73.5433 60.6887 73.934 60.6887C74.3248 60.6887 74.6416 61.0055 74.6416 61.3963C74.6416 63.4354 71.4732 64.6114 68.3331 64.8746L68.2737 64.8774Z" fill="black"/>
<path d="M73.934 62.1038C73.5433 62.1038 73.2265 61.787 73.2265 61.3962V47.2453C73.2265 46.8545 73.5433 46.5377 73.934 46.5377C74.3248 46.5377 74.6416 46.8545 74.6416 47.2453V61.3962C74.6416 61.787 74.3248 62.1038 73.934 62.1038Z" fill="black"/>
<path d="M59.7831 50.783C59.3923 50.783 59.0756 50.4662 59.0756 50.0755V47.2453C59.0756 46.8545 59.3923 46.5377 59.7831 46.5377C60.1739 46.5377 60.4907 46.8545 60.4907 47.2453V50.0755C60.4907 50.4662 60.1739 50.783 59.7831 50.783Z" fill="black"/>
<path d="M59.7831 59.2736C56.0104 59.2736 52.0001 58.034 52.0001 55.7359C52.0001 53.4377 56.0104 52.1981 59.7831 52.1981C63.5557 52.1981 67.5661 53.4377 67.5661 55.7359C67.5661 58.034 63.5557 59.2736 59.7831 59.2736ZM59.7831 53.6132C55.8958 53.6132 53.4152 54.8712 53.4152 55.7359C53.4152 56.6005 55.8958 57.8585 59.7831 57.8585C63.6703 57.8585 66.151 56.6005 66.151 55.7359C66.151 54.8712 63.6703 53.6132 59.7831 53.6132Z" fill="black"/>
<path d="M59.7831 62.1038C56.0104 62.1038 52.0001 60.8642 52.0001 58.5661C52.0001 58.1753 52.3168 57.8585 52.7076 57.8585C53.0984 57.8585 53.4152 58.1753 53.4152 58.5661C53.4152 59.4307 55.8958 60.6887 59.7831 60.6887C63.6703 60.6887 66.151 59.4307 66.151 58.5661C66.151 58.1753 66.4678 57.8585 66.8586 57.8585C67.2493 57.8585 67.5661 58.1753 67.5661 58.5661C67.5661 60.8642 63.5557 62.1038 59.7831 62.1038Z" fill="black"/>
<path d="M59.7831 64.934C56.0104 64.934 52.0001 63.6944 52.0001 61.3963C52.0001 61.0055 52.3168 60.6887 52.7076 60.6887C53.0984 60.6887 53.4152 61.0055 53.4152 61.3963C53.4152 62.2609 55.8958 63.5189 59.7831 63.5189C63.6703 63.5189 66.151 62.2609 66.151 61.3963C66.151 61.0055 66.4678 60.6887 66.8586 60.6887C67.2493 60.6887 67.5661 61.0055 67.5661 61.3963C67.5661 63.6944 63.5557 64.934 59.7831 64.934Z" fill="black"/>
<path d="M66.8585 62.1038C66.4678 62.1038 66.151 61.787 66.151 61.3962V55.7359C66.151 55.3451 66.4678 55.0283 66.8585 55.0283C67.2493 55.0283 67.5661 55.3451 67.5661 55.7359V61.3962C67.5661 61.787 67.2493 62.1038 66.8585 62.1038Z" fill="black"/>
<path d="M52.7076 62.1038C52.3168 62.1038 52.0001 61.787 52.0001 61.3962V55.7359C52.0001 55.3451 52.3168 55.0283 52.7076 55.0283C53.0984 55.0283 53.4152 55.3451 53.4152 55.7359V61.3962C53.4152 61.787 53.0984 62.1038 52.7076 62.1038Z" fill="black"/>
</g>
<defs>
<clipPath id="clip0">
<rect width="60" height="49.2433" fill="white" transform="translate(76.6955 31.2249) rotate(128)"/>
</clipPath>
<clipPath id="clip1">
<rect width="60" height="60" fill="white" transform="translate(10.0001 5.99988)"/>
</clipPath>
<clipPath id="clip2">
<rect width="22.6415" height="22.6415" fill="white" transform="translate(52.0001 43)"/>
</clipPath>
</defs>
</svg>
