<svg width="96" height="102" viewBox="0 0 96 102" fill="none" xmlns="http://www.w3.org/2000/svg">
<g clip-path="url(#clip0)">
<path d="M28.3788 29.0168C28.3788 29.0168 20.053 36.284 20.4649 47.7719C20.8768 59.2597 28.955 69.0503 35.2792 77.1498C41.6034 85.2493 51.42 87.4156 59.0795 82.6882C66.7389 77.9608 63.5048 70.4662 68.4684 60.91C73.432 51.3539 76.2533 49.533 75.0336 38.8902C73.814 28.2475 61.4401 20.1557 48.2666 21.3771C35.0931 22.5986 28.3788 29.0168 28.3788 29.0168Z" fill="#009AE0"/>
<path opacity="0.7" d="M28.3788 29.0168C28.3788 29.0168 20.053 36.284 20.4649 47.7719C20.8768 59.2597 28.955 69.0503 35.2792 77.1498C41.6034 85.2493 51.42 87.4156 59.0795 82.6882C66.7389 77.9608 63.5048 70.4662 68.4684 60.91C73.432 51.3539 76.2533 49.533 75.0336 38.8902C73.814 28.2475 61.4401 20.1557 48.2666 21.3771C35.0931 22.5986 28.3788 29.0168 28.3788 29.0168Z" fill="white"/>
</g>
<path d="M70.25 36H57.75C57.06 36 56.5 35.4375 56.5 34.75V22.25C56.5 21.56 55.94 21 55.25 21H30.25C28.1825 21 26.5 22.6825 26.5 24.75V77.25C26.5 79.3175 28.1825 81 30.25 81H67.75C69.8175 81 71.5 79.3175 71.5 77.25V37.25C71.5 36.56 70.94 36 70.25 36ZM69 77.25C69 77.9375 68.44 78.5 67.75 78.5H30.25C29.56 78.5 29 77.9375 29 77.25V24.75C29 24.0625 29.56 23.5 30.25 23.5H54V34.75C54 36.8175 55.6825 38.5 57.75 38.5H69V77.25Z" fill="black"/>
<path d="M71.1324 36.3675L56.1324 21.3675C55.6449 20.88 54.8523 20.88 54.3648 21.3675C53.8773 21.855 53.8773 22.6475 54.3648 23.135L69.3648 38.135C69.6099 38.3775 69.9298 38.5 70.2498 38.5C70.5699 38.5 70.8898 38.3776 71.1324 38.135C71.6199 37.6475 71.6199 36.855 71.1324 36.3675Z" fill="black"/>
<path d="M60.25 43.5H37.75C37.06 43.5 36.4999 44.06 36.4999 44.75C36.4999 45.44 37.06 46.0001 37.75 46.0001H60.25C60.94 46.0001 61.5 45.44 61.5 44.75C61.5 44.06 60.94 43.5 60.25 43.5Z" fill="black"/>
<path d="M60.25 53.5H37.75C37.06 53.5 36.4999 54.06 36.4999 54.75C36.4999 55.44 37.06 56.0001 37.75 56.0001H60.25C60.94 56.0001 61.5 55.44 61.5 54.75C61.5 54.06 60.94 53.5 60.25 53.5Z" fill="black"/>
<path d="M60.25 63.5H37.75C37.06 63.5 36.4999 64.06 36.4999 64.75C36.4999 65.44 37.06 66.0001 37.75 66.0001H60.25C60.94 66.0001 61.5 65.44 61.5 64.75C61.5 64.0599 60.94 63.5 60.25 63.5Z" fill="black"/>
<defs>
<clipPath id="clip0">
<rect width="80" height="65.6577" fill="white" transform="translate(0.234985 70.7341) rotate(-62)"/>
</clipPath>
</defs>
</svg>
