<?xml version="1.0" encoding="utf-8"?>
<!-- Generator: Adobe Illustrator 23.0.3, SVG Export Plug-In . SVG Version: 6.00 Build 0)  -->
<svg version="1.1" id="f2059cf3-5beb-4c16-b86e-a491cbb2d73f"
	 xmlns="http://www.w3.org/2000/svg" xmlns:xlink="http://www.w3.org/1999/xlink" x="0px" y="0px" viewBox="0 0 1096.5 806"
	 style="enable-background:new 0 0 1096.5 806;" xml:space="preserve">
<style type="text/css">
	.st0{fill:none;}
	.st1{opacity:0.2;fill:#009AE0;enable-background:new    ;}
	.st2{opacity:0.9;}
	.st3{fill:#00688F;}
	.st4{opacity:0.1;fill:#4285F4;enable-background:new    ;}
	.st5{fill:#FFFFFF;}
	.st6{fill:#C4C4C4;}
	.st7{fill:#FFFFFF;stroke:#C4C4C4;stroke-width:1.7577;stroke-miterlimit:10;}
	.st8{display:none;fill:#4285F4;}
	.st9{display:none;opacity:0.1;enable-background:new    ;}
	.st10{display:none;fill:#FFD037;}
	.st11{display:none;fill:#A8A8A8;}
	.st12{display:none;opacity:0.2;enable-background:new    ;}
	.st13{opacity:0.3;fill:#3A3768;enable-background:new    ;}
	.st14{fill:#FFFFFF;stroke:#C4C4C4;stroke-width:1.7577;stroke-miterlimit:10;enable-background:new    ;}
	.st15{fill:#4285F4;}
	.st16{fill:#514E7F;}
	.st17{fill:#464353;}
	.st18{fill:#A1616A;}
	.st19{opacity:0.1;enable-background:new    ;}
	.st20{fill:#FBBEBE;}
	.st21{opacity:5.000000e-02;enable-background:new    ;}
	.st22{fill:#3F3D56;}
	.st23{fill:#FFFFFF;stroke:#C4C4C4;stroke-width:2.6365;stroke-miterlimit:10;}
	.st24{fill:url(#SVGID_1_);}
	.st25{fill:#2D293D;}
	.st26{opacity:5.000000e-02;}
	.st27{fill:#FFCDD3;}
	.st28{fill:#DCE6F2;}
	.st29{fill:#575988;}
	.st30{opacity:0.1;}
	.st31{fill:#FFFFFF;stroke:#231F20;stroke-width:2.375601e-02;stroke-miterlimit:10;}
	.st32{fill:#C4C3C3;}
	.st33{font-family:'Avenir-Black';}
	.st34{font-size:18.0777px;}
	.st35{font-size:5.9727px;}
	.st36{fill:#FFFFFF;stroke:#00688F;stroke-width:0.8088;stroke-miterlimit:10;}
	.st37{font-size:10.0931px;}
</style>
<title>mobile marketing</title>
<image style="display:none;overflow:visible;" width="1080" height="1080" xlink:href="../Png files/icon background.png"  transform="matrix(0.7279 0 0 0.7279 194.7033 14.6874)">
</image>
<rect x="82.5" y="6.3" class="st0" width="786.2" height="786.2"/>
<path class="st1" d="M663.1,143.1c-56.9-2-111.1-20.3-162.8-40.4s-103-42.4-158.5-53c-35.7-6.8-76.5-7.8-105.3,11.3
	c-27.7,18.5-36.6,50.2-41.4,79.7c-3.6,22.2-5.7,45.6,4.2,66.4c6.9,14.4,19.1,26.6,27.6,40.4c29.4,48.1,8.6,107.4-23.2,154.4
	c-14.9,22-32.3,43.1-43.8,66.5c-11.5,23.4-16.9,50.3-6.8,74.2c10,23.7,33.8,41.5,59.7,54c52.5,25.4,114.2,32.7,174.5,36.8
	c133.4,9.1,267.6,5.2,401.4,1.2c49.5-1.5,99.2-3,147.9-10.6c27.1-4.3,55-11,74.6-27.2c24.9-20.7,31.1-55.7,14.4-81.6
	c-28-43.5-105.5-54.3-125.1-101c-10.8-25.7,0.3-54.3,16-78.1c33.6-51.1,89.9-96,92.9-154.4c2-40.1-25-80.3-66.9-99.3
	C898.4,62.5,837.6,65,805.2,98C771.9,131.8,713.3,144.9,663.1,143.1z"/>
<g class="st2">
	<path class="st3" d="M723.5,263.9h3.8c1.1,0,2,0.9,2,2V326c0,1.1-0.9,2-2,2h-3.8c-1.1,0-2-0.9-2-2v-60.1
		C721.5,264.8,722.4,263.9,723.5,263.9z"/>
	<path class="st3" d="M464.8,213.6h0.3c1.1,0,2,0.9,2,2v17.1c0,1.1-0.9,2-2,2h-0.3c-1.1,0-2-0.9-2-2v-17.1
		C462.8,214.5,463.7,213.6,464.8,213.6z"/>
	<path class="st3" d="M464.6,252.3h0.9c1.1,0,2,0.9,2,2V287c0,1.1-0.9,2-2,2h-0.9c-1.1,0-2-0.9-2-2v-32.7
		C462.6,253.2,463.5,252.3,464.6,252.3z"/>
	<path class="st3" d="M464.7,301.9h0.7c1.1,0,2,0.9,2,2V337c0,1.1-0.9,2-2,2h-0.7c-1.1,0-2-0.9-2-2v-33.1
		C462.7,302.8,463.6,301.9,464.7,301.9z"/>
	<path class="st3" d="M499.5,143.8h192c18.9,0,34.3,15.3,34.3,34.3v460.9c0,18.9-15.3,34.3-34.3,34.3h-192
		c-18.9,0-34.3-15.3-34.3-34.3V178.1C465.2,159.1,480.6,143.8,499.5,143.8z"/>
	<path class="st3" d="M573.7,159.6h29.6c1.9,0,3.4,1.5,3.4,3.4v0.6c0,1.9-1.5,3.4-3.4,3.4h-29.6c-1.9,0-3.4-1.5-3.4-3.4V163
		C570.3,161.1,571.9,159.6,573.7,159.6z"/>
	<circle class="st3" cx="616.4" cy="163.3" r="4.2"/>
</g>
<ellipse class="st4" cx="308.2" cy="685.4" rx="175.7" ry="17.9"/>
<ellipse class="st4" cx="699" cy="745.2" rx="82.3" ry="8.4"/>
<ellipse class="st4" cx="868.1" cy="694.5" rx="82.3" ry="8.4"/>
<path class="st5" d="M688.9,157.6h-29.8v3.6c0,9.4-7.6,17-17,17l0,0H547c-9.4,0-17-7.6-17-17c0,0,0,0,0,0v-3.6h-28
	c-11.4,0-20.7,9.3-20.7,20.7c0,0,0,0,0,0v460.5c0,11.4,9.2,20.7,20.7,20.7c0,0,0,0,0,0h186.9c11.4,0,20.7-9.3,20.7-20.7V178.3
	C709.6,166.8,700.3,157.6,688.9,157.6z"/>
<rect x="508.8" y="430.4" class="st6" width="68.6" height="68.6"/>
<rect x="502.8" y="215.1" class="st7" width="68.6" height="68.6"/>
<path class="st8" d="M815.9,120.6c0,0-74-4.5-65.3,47.4c0,0-1.8,9.2,6.6,13.3c0,0,0.1-3.8,7.6-2.5c2.7,0.4,5.4,0.6,8,0.4
	c3.6-0.2,7.1-1.7,9.8-4.1l0,0c0,0,20.8-8.6,28.9-42.6c0,0,6-7.4,5.7-9.3l-12.5,5.3c0,0,4.3,9,0.9,16.5c0,0-0.4-16.2-2.8-15.8
	c-0.5,0.1-6.5,3.1-6.5,3.1s7.3,15.7,1.8,27.1c0,0,2.1-19.3-4.1-26l-8.8,5.1c0,0,8.6,16.2,2.8,29.4c0,0,1.5-20.3-4.6-28.2l-8,6.2
	c0,0,8.1,16,3.1,26.9c0,0-0.7-23.6-4.9-25.4c0,0-7,6.2-8,8.7c0,0,5.5,11.6,2.1,17.7c0,0-2.1-15.7-3.8-15.8c0,0-6.9,10.4-7.7,17.6
	c0,0,0.3-10.6,6-18.6c0,0-6.7,1.2-10.6,5.5c0,0,1.1-7.4,12.3-8c0,0,5.7-7.9,7.3-8.4c0,0-11.2-0.9-18,2.1c0,0,6-7,20.1-3.8l7.9-6.4
	c0,0-14.7-2-21,0.2c0,0,7.2-6.2,23.1-1.7l8.6-5.1c0,0-12.6-2.7-20.1-1.8c0,0,7.9-4.3,22.6,0.4l6.2-2.8c0,0-9.2-1.8-11.9-2.1
	c-2.7-0.3-2.8-1-2.8-1c5.9-1,11.9-0.3,17.4,2C803.2,126.2,816.1,121.4,815.9,120.6z"/>
<path class="st8" d="M740,97.5c0,0-33.4-2-29.5,21.4c0,0-0.8,4.1,3,6c0,0,0.1-1.8,3.4-1.2c1.2,0.2,2.4,0.3,3.6,0.2
	c1.6-0.1,3.2-0.8,4.4-1.8l0,0c0,0,9.4-3.9,13.1-19.2c0,0,2.7-3.3,2.6-4.2l-5.6,2.4c0,0,1.9,4.1,0.4,7.5c0,0-0.2-7.3-1.3-7.1
	c-0.2,0-2.9,1.4-2.9,1.4s3.3,7.1,0.8,12.2c0,0,0.9-8.7-1.8-11.7l-4,2.3c0,0,3.9,7.3,1.2,13.3c0,0,0.7-9.2-2.1-12.7l-3.6,2.8
	c0,0,3.6,7.2,1.4,12.2c0,0-0.3-10.7-2.2-11.5c0,0-3.2,2.8-3.6,3.9c0,0,2.5,5.3,0.9,8c0,0-0.9-7.1-1.8-7.1c0,0-3.1,4.7-3.5,7.9
	c0.2-3,1.1-5.9,2.7-8.4c-1.8,0.3-3.5,1.2-4.8,2.5c0,0,0.5-3.3,5.6-3.6c0,0,2.6-3.6,3.3-3.8c0,0-5.1-0.4-8.1,0.9c0,0,2.7-3.1,9.1-1.8
	l3.5-2.9c0,0-6.7-0.9-9.5,0.1c0,0,3.3-2.8,10.4-0.8l3.9-2.3c0,0-5.7-1.2-9.1-0.8c0,0,3.6-1.9,10.2,0.2l2.8-1.2c0,0-4.2-0.8-5.4-0.9
	c-1.2-0.1-1.3-0.5-1.3-0.5c2.6-0.4,5.3-0.1,7.8,0.9C734.2,100,740.1,97.9,740,97.5z"/>
<ellipse class="st8" cx="134.3" cy="641.6" rx="35.3" ry="6"/>
<path class="st8" d="M149,631.8c1.6-1.3,2.8-3.1,3.4-5.1c0.4-2-0.4-4.4-2.4-5.2c-2.2-0.8-4.5,0.7-6.2,2.2c-1.7,1.5-3.8,3.2-6.1,2.9
	c2.4-2.2,3.5-5.5,2.8-8.6c-0.1-0.6-0.4-1.3-0.8-1.8c-1.2-1.3-3.4-0.7-4.8,0.3c-4.6,3.2-5.8,9.4-5.9,15c-0.5-2-0.1-4.1-0.1-6.2
	c0-2-0.6-4.4-2.3-5.5c-1.1-0.6-2.3-0.9-3.5-0.8c-2.1-0.1-4.3,0.1-5.7,1.6c-1.8,1.9-1.3,5,0.2,7c1.5,2,3.8,3.3,5.9,4.8
	c1.7,1,3.2,2.4,4.3,4.1c0.1,0.2,0.2,0.5,0.3,0.7H141C143.9,635.8,146.6,634,149,631.8z"/>
<path class="st8" d="M829,558.1c0,0,7.6,9.9-3.5,25s-20.3,27.7-16.6,37c0,0,16.8-27.9,30.4-28.3S844,574.8,829,558.1z"/>
<path class="st9" d="M829,558.1c0.7,1,1.2,2,1.6,3.1c13.3,15.6,20.4,30.2,7.6,30.6c-11.9,0.3-26.2,21.7-29.6,27
	c0.1,0.4,0.2,0.8,0.4,1.2c0,0,16.8-27.9,30.4-28.3S844,574.8,829,558.1z"/>
<path class="st10" d="M843.1,570.8c0,3.5-0.4,6.3-0.9,6.3c-0.5,0-0.9-2.8-0.9-6.3c0-3.5,0.5-1.8,1-1.8S843.1,567.3,843.1,570.8z"/>
<path class="st10" d="M847.9,574.9c-3.1,1.7-5.7,2.7-6,2.3c-0.2-0.4,2.1-2.1,5.2-3.8c3.1-1.7,1.9-0.4,2.1,0
	C849.4,573.8,851,573.2,847.9,574.9z"/>
<path class="st8" d="M788.8,558.1c0,0-7.6,9.9,3.5,25s20.3,27.7,16.6,37c0,0-16.8-27.9-30.4-28.3S773.8,574.8,788.8,558.1z"/>
<path class="st9" d="M788.8,558.1c-0.7,1-1.2,2-1.6,3.1c-13.3,15.6-20.4,30.2-7.6,30.6c11.9,0.3,26.2,21.7,29.7,27
	c-0.1,0.4-0.2,0.8-0.4,1.2c0,0-16.8-27.9-30.4-28.3C764.8,591.4,773.8,574.8,788.8,558.1z"/>
<path class="st10" d="M774.6,570.8c0,3.5,0.4,6.3,0.9,6.3s0.9-2.8,0.9-6.3c0-3.5-0.5-1.8-1-1.8S774.6,567.3,774.6,570.8z"/>
<path class="st10" d="M769.8,574.9c3.1,1.7,5.7,2.7,6,2.3c0.2-0.4-2.1-2.1-5.1-3.8c-3.1-1.7-1.9-0.4-2.1,0
	C768.3,573.8,766.7,573.2,769.8,574.9z"/>
<path class="st11" d="M777.1,618.8c0,0,21.3-0.7,27.7-5.2c6.4-4.6,32.7-10,34.3-2.7c1.6,7.3,31.9,36.4,7.9,36.6
	c-24,0.2-55.8-3.7-62.2-7.6C778.4,635.9,777.1,618.8,777.1,618.8z"/>
<path class="st12" d="M847.4,644.9c-24,0.2-55.8-3.7-62.2-7.6c-4.9-3-6.8-13.6-7.5-18.5h-0.7c0,0,1.3,17.1,7.7,21
	c6.4,3.9,38.2,7.8,62.2,7.6c6.9-0.1,9.3-2.5,9.2-6.2C855.2,643.5,852.6,644.8,847.4,644.9z"/>
<rect x="612.7" y="474" class="st13" width="68.6" height="68.6"/>
<rect x="512.4" y="558" class="st14" width="78.8" height="78.8"/>
<path class="st15" d="M550.5,237.5l-2.4,2.4c3.4,3.3,3.4,8.8,0,12.1c0,0,0,0,0,0l2.4,2.4C555.2,249.8,555.2,242.2,550.5,237.5z"/>
<rect x="630.8" y="463.4" transform="matrix(0.7415 -0.6709 0.6709 0.7415 -162.0013 574.9196)" class="st5" width="68.6" height="68.6"/>
<rect x="611.6" y="297.7" class="st5" width="68.6" height="68.6"/>
<rect x="518.2" y="418.8" class="st7" width="68.6" height="68.6"/>
<path class="st15" d="M840.9,680.7c4,0.5,8.1,0.9,12-0.4c0.6-0.2,1.3-0.6,1.2-1.2c0-0.2-0.1-0.4-0.3-0.6c-1.4-2.2-2.7-4.5-3.6-6.9
	c0-0.1-0.1-0.2-0.2-0.3c-0.1,0-0.3,0-0.4,0c-1.8,0.5-3.3,1.6-5,2.1c-0.9,0.2-1.8,0.3-2.7,0.2c-0.8-0.1-1.9-0.7-2.6-0.7
	C839.6,675.6,840.6,678,840.9,680.7z"/>
<path class="st15" d="M916.4,674c2.6-1.8,5.4-3.7,6.9-6.5c0.1-0.2,0.2-0.4,0.2-0.6c0-0.2-0.1-0.4-0.2-0.5c-1.5-2.4-3.4-4.4-5.6-6.1
	c-1.2,0.8-2.2,1.8-3.1,2.9c-0.7,0.7-2.5,1.8-2.5,2.9c0,0.6,0.7,1.3,1,1.8c0.4,0.7,0.9,1.3,1.3,2C914.5,670.3,916.6,673.9,916.4,674z
	"/>
<path class="st16" d="M856.5,688.8c0.1,0.6-0.1,1.2-0.5,1.8c-0.3,0.3-0.6,0.5-1,0.6c-5.6,2-12-0.5-17.6,1.5c-1.2,0.4-2.2,1-3.4,1.4
	c-1.4,0.4-2.8,0.7-4.2,0.7c-2,0.2-4,0.3-5.9,0.4c-1.5,0.1-3,0-4.5-0.4c-1.5-0.4-2.7-1.4-3.4-2.7c-0.3-0.6-0.4-1.3-0.2-1.9
	c0.1-0.2,0.2-0.4,0.4-0.6c0.4-0.4,0.8-0.8,1.3-1.1l2.1-1.3c1-0.7,2-1.2,3.1-1.7c0.8-0.3,1.7-0.4,2.5-0.6c2.9-0.9,5.1-3.1,7.1-5.3
	l2.8-3c0.3-0.3,0.6-0.6,1-0.8c0.4-0.1,0.8-0.2,1.2-0.1c2.7,0.2,5.3,1.1,7.6,2.6c0.6,0.4,1.2,0.8,1.9,1.1c1.8,0.5,3.7,0.3,5.3-0.7
	c0.7-0.4,0.6-0.6,0.9-1.3c0.3-0.7,1-1.1,1.7-0.5c0.2,0.2,0.3,0.5,0.4,0.8c0.6,2,0.4,4.1,0.4,6.2c0,0.3,0,0.7,0.1,1
	c0.2,0.3,0.3,0.6,0.5,0.9c0,0.1,0.1,0.1,0.1,0.2C856.5,686.7,856.7,687.8,856.5,688.8z"/>
<path class="st17" d="M856.5,688.8c0.1,0.6-0.1,1.2-0.5,1.8c-0.3,0.3-0.6,0.5-1,0.6c-5.6,2-12-0.5-17.6,1.5c-1.2,0.4-2.2,1-3.4,1.4
	c-1.4,0.4-2.8,0.7-4.2,0.7c-2,0.2-4,0.3-5.9,0.4c-1.5,0.1-3,0-4.5-0.4c-1.5-0.4-2.7-1.4-3.4-2.7c-0.3-0.6-0.4-1.3-0.2-1.9
	c0.1-0.2,0.2-0.4,0.4-0.6c0.3,0.7,0.6,1.6,0.8,1.9c0.6,1,1.5,1.7,2.6,1.9c0.8,0,1.6-0.1,2.4-0.3c5.1-1.3,10.4-1.3,15.3-3.2
	c1.6-0.8,3.3-1.4,5-1.9c1.8-0.3,3.6-0.4,5.4-0.4c2.9-0.2,5.6-1.1,8.4-1.5C856.5,686.8,856.7,687.8,856.5,688.8z"/>
<path class="st16" d="M929.2,673.7c-0.3,2.1-1.6,3.9-3.1,5.5c-1.6,1.4-3,3-4.3,4.7c-1.5,2.2-2.1,4.9-4,6.8c-0.7,0.7-1.5,1.3-2.4,1.8
	c-1,0.6-2,1.1-3.1,1.4c-2.8,0.9-5.8,0.7-8.8,0.5c-1,0-1.9-0.2-2.8-0.5c-0.4-0.2-0.8-0.4-1.2-0.7c-0.7-0.5-1.3-1.1-1.8-1.8
	c-0.2-0.4-0.3-0.9-0.2-1.3c0.2-0.5,0.5-0.9,0.9-1.3c0.7-0.7,1.4-1.3,2.1-1.9c1-0.7,2-1.5,2.8-2.4c0.5-0.7,0.8-1.6,1.1-2.4
	c0.4-1.5,0.7-3.1,0.8-4.6c0-1,0.1-2.1,0.3-3.1c0.4-1.6,1.6-3,1.5-4.7c-0.1-0.2,0-0.5,0.1-0.7c0.1-0.2,0.3-0.3,0.6-0.3
	c0.9-0.4,1.9-0.6,2.9-0.7c1-0.1,2,0.3,2.6,1c0.4,0.5,0.7,1.2,1.3,1.4c0.3,0.1,0.6,0.1,0.9,0c1.5-0.1,3-0.3,4.2-1.3
	c1.1-1,1.7-2.4,1.8-3.8c0-0.5-0.2-1.1,0.6-1.2c0.6-0.1,1.1,0.6,1.5,1c1.3,1.5,2.2,3.3,2.8,5.1c0.2-0.1,0.4-0.1,0.5-0.1
	c0.8,0,1.5,0.4,1.9,1C929.1,671.8,929.3,672.7,929.2,673.7z"/>
<path class="st17" d="M929.2,673.7c-0.3,2.1-1.6,3.9-3.1,5.5c-1.6,1.4-3,3-4.3,4.7c-1.5,2.2-2.1,4.9-4,6.8c-0.7,0.7-1.5,1.3-2.4,1.8
	c-1,0.6-2,1.1-3.1,1.4c-2.8,0.9-5.8,0.7-8.8,0.5c-1,0-1.9-0.2-2.8-0.5c-0.4-0.2-0.8-0.4-1.2-0.7c-0.7-0.5-1.3-1.1-1.8-1.8
	c0.6-0.3,1.2-0.4,1.8-0.4c1.3,0.1,2.3,1.3,3.5,1.7c1.8,0.5,3.5-0.7,5.4-1.2c1.2-0.3,2.4-0.2,3.6-0.6c1-0.4,1.9-0.9,2.6-1.6
	c1.1-0.8,2-1.7,2.8-2.7c0.7-1,1.2-2.1,1.7-3.3c1-2.2,2.1-4.4,3.3-6.4c0.2-0.3,0.4-0.6,0.7-0.9c0.3-0.3,0.6-0.4,0.9-0.7
	c1.2-0.9,1.7-2.4,2.1-3.9c0.1-0.4,0.3-0.9,0.5-1.3c0.8,0,1.5,0.4,1.9,1C929.1,671.8,929.3,672.7,929.2,673.7z"/>
<path class="st18" d="M802.9,485.9c1.5,1.1,2.7,2.6,3.6,4.2c0.9,1.7,5.7,14.5,5.4,16.3c1.6-1.6,7.9-1.9,9.4-3.5
	c0.7-0.7,4.3-4,4.8-4.8c0.5-0.8,4.6-2.4,5-3.2c1.6-2.9-11.7-14.1-10-17c0.1-0.1,0.1-0.3,0.1-0.5c0-0.1-0.1-0.3-0.2-0.4
	c-1.2-1-2.5-1.9-3.8-2.6c-1.4-0.8-2.4-2-2.9-3.5c-1.3,0.6-2.4,1.4-3.4,2.3c-2.4,2.1-4.8,4.2-7.2,6.4c-0.9,0.9-2.7,2-3.1,3.2
	C800.2,484.1,802,485.2,802.9,485.9z"/>
<path class="st16" d="M824.4,481.2c-2,1.4-3.9,2.9-5.7,4.7c-1.7,1.6-3.2,3.5-3.6,5.8c-0.2,0.9-0.1,1.8-0.3,2.7
	c-0.6,3.9-4,6.8-5.5,10.5c-0.4,1.1-0.8,2.3-1,3.5c-0.4,2.3-0.7,4.6-0.7,6.9c0,2.2,2.2,3.8,3,5.9c0.7,2.1,1.2,4.2,1.4,6.4
	c0.9,4,2.1,8,3.6,11.9c3,8.2,12.6,30.9,15.6,39.1c9.1-2.3,33.3-7.5,41.4-12.3c2.7-1.6-18.6-19.7-15.8-20.9c0.3-0.1,0.6-0.3,0.8-0.6
	c0.1-0.3,0.1-0.6,0-0.9c-2.9-12.6-11.9-22.8-15.9-35.2c-1.4-4.2-4-7.9-5.9-11.9c-1.8-3.7-2.7-7.7-4.8-11.2c-0.4-0.7-0.9-1.4-1.5-1.9
	c-0.5-0.4-1.1-0.7-1.7-1C826.7,482.1,825.6,481.8,824.4,481.2z"/>
<circle class="st18" cx="803.4" cy="470.3" r="14.2"/>
<path class="st17" d="M817.9,476.9c1.5-1.3,3.6-1.6,5.4-0.8c1,0.4,1.7,1.5,1.6,2.6l7,0.1c1.1,0,2.2,0.1,3.3,0.3
	c1.1,0.2,2.1,0.9,2.8,1.8c0.1,0.1,0.2,0.2,0.3,0.3c0.1,0,0.2,0,0.3-0.1c1.1-0.6,2.3-0.8,3.5-0.6c3.8,0.2,7.3,2.2,10.3,4.5
	c0.5,0.4,1,0.9,1.2,1.5c0.2,0.8,0,1.8,0.6,2.4c0,6.6,2.3,12.8,3.8,19.3c0.3,1.2,1.4,2.2,2.1,3.1c0.9,1,1.7,2.2,2.3,3.4
	c1.3,3.3-0.5,7.3,0.8,10.6c0.6,1.4,1.5,2.7,2.4,3.8c1.1,1.4,1.8,3.1,2.1,4.9c0.1,0.8-0.1,1.6,0,2.4c0.1,1.1,0.3,2.2,0.6,3.2
	c0.5,1.9,1.1,3.9,1.6,5.8c0.9,3.1,2.1,6.5,4.9,8.2c-6.8,1.2-13.9,2.3-20.4-0.1c-0.9-0.3-1.8-0.7-2.5-1.3c-2.3-1.7-3.5-4.5-4.5-7.2
	c-1.1-3-2.3-6.1-2.5-9.3c0-1-0.1-2-0.4-3c-0.7-1.8-2.4-2.8-4-3.8c-1.8-1-3.4-2.2-4.8-3.7c-1.4-1.5-2.1-3.6-2-5.6c0.1-1,0.5-2,0.6-3
	c0.1-1-0.4-2-1.4-2.4c-4.9-1.5-7.3-7.3-8.4-12.4c-0.5-2.6-0.7-5.3-0.6-7.9l-0.1-5.1c-1.4-1.2-2.2-3-2.2-4.9c0.1-0.5,0.1-1.1,0-1.6
	c-0.2-0.7-0.6-1.3-1.1-1.8C819.5,479.6,818.6,478.3,817.9,476.9z"/>
<path class="st17" d="M802.7,493.2c-0.2,1.6,0.2,3.2-0.2,4.8c-0.1,0.6-0.4,1.2-0.6,1.8c-0.5,2.2-0.3,4.6,0.7,6.7
	c1,2.1,2.1,4.1,3.4,5.9c0.5,0.6,0.8,1.3,1.1,2c0.2,0.8,0.4,1.6,0.4,2.3c0.3,3.2,0.9,6.3,1.7,9.4c0.7,2.7,1.5,5.4,3.3,7.6
	c0.3,0.5,0.8,0.8,1.4,0.9c0.4,0,0.8-0.1,1.2-0.2l3.6-1.4c0.3-0.1,0.6-0.2,0.9-0.5c0.3-0.4,0.5-0.9,0.5-1.4c0.3-2.9-0.6-5.8-1.6-8.6
	c-3-8.4-6.9-16.5-8.8-25.1c-0.5-2.4-0.8-6.2-2.6-8c-0.7-0.8-0.5-0.5-1.4,0c-0.4,0.2-0.9,0.4-1.3,0.7
	C803.5,490.8,802.8,492,802.7,493.2z"/>
<path class="st17" d="M872.2,545.4"/>
<path class="st15" d="M813.7,509.1c1,5.1,2,10.2,3,15.4l14.1-3.7c0.1-1.5-0.7-2.8-1.2-4.2c-1.3-3.2-1.3-6.8-2.4-10.2
	c-0.8-2.5-2.2-4.9-2.9-7.4c-0.4-1.5-0.6-3-1.1-4.5c-0.5-1.5-1-2.9-1.7-4.3c-0.8-2-1.8-3.9-3.1-5.7c-1.8,0.7-3.7,1.5-4.8,3.1
	c-0.5,0.9-0.8,2-0.9,3c-0.2,3.2,0.9,6.4,0.5,9.5C813,503.1,813.1,506.2,813.7,509.1z"/>
<path class="st17" d="M831,577.3c0.8,3-0.4,6.2-1.3,9.2c-1.4,4.5-2.4,9.1-2.9,13.8c-0.1,1.2-0.3,2.4-0.7,3.5c-0.5,1-1.1,1.9-1.7,2.8
	c-1.4,2.5-1.4,5.6-1.1,8.5c0.2,1.9,0.5,3.8,0.9,5.7c0.5,2.3,1,4.7,0.4,6.9c1.1-0.2,1.9,1.2,1.8,2.3c0,1.2-0.4,2.4,0.1,3.4
	c1.4,0.5,1.4,2.4,1.4,3.9c0,2.6,0.3,5.1,1,7.6c2.1,10.1,4.3,20.1,6.7,30.1c5.1,1.6,11,3.2,15.9,1c1-0.3,1.7-1.1,2-2
	c0-0.5,0-1.1-0.2-1.6l-2.3-8.4c-0.7-2-1-4.1-0.8-6.2c0.2-1.6,0.9-3.2,0.1-4.6c-0.3-0.5-0.7-0.9-1-1.3c-1.2-1.8-0.6-4.1-0.5-6.3
	c0-0.5,0-1-0.1-1.4c-0.2-0.5-0.4-1.1-0.7-1.6c-1.9-3.7-2.8-7.8-2.6-12c0.1-0.5,0-1.1-0.2-1.6c-0.2-0.2-0.3-0.4-0.4-0.6
	c-0.1-0.4-0.1-0.8,0.1-1.2c-0.7-0.5-1.3-1.1-1.9-1.8c1.2-0.8,1.6-2.4,0.8-3.6c-0.1-0.1-0.2-0.3-0.3-0.4c0.7-0.1,1.2-0.9,1.1-1.6
	c-0.1-0.3-0.2-0.5-0.4-0.7c-0.3-0.2-0.7-0.3-0.9-0.6c-0.3-0.4-0.1-1.1,0.2-1.5l1.4-2.5c1-1.9,1.3-4.2,2.4-6c1.5-2.7,2.8-5.5,3.7-8.5
	l4-11.2l2.7,2.4c0.9,0.7,1.7,1.6,2.2,2.6c0.4,1,0.6,2,0.7,3.1c1,6.1,4.8,11.3,6.2,17.3c0.2,1.4,0.6,2.7,1.3,3.9
	c0.3,0.3,0.5,0.7,0.7,1.1c0.2,0.6,0.3,1.2,0.3,1.8c0.3,2.5,1.6,4.7,3.6,6.2c1.3,0.9,3,1.6,3.7,3c0.2,0.5,0.4,0.9,0.6,1.3
	c0.7,0.8,2.1,0.9,2.3,1.9c0.1,0.6-0.1,1.2,0.2,1.7c0.2,0.2,0.4,0.4,0.7,0.5l3.9,2c4.4,2.2,6.6,7.2,9.9,10.9c1.1,1.2,2.1,2.5,2.9,3.9
	c1.4,2.5,2,5.6,4.4,7.2c0.6,0.3,1.2,0.8,1.7,1.3c0.7,1,0.5,2.3,0.5,3.6c0.1,1.2,1,2.7,2.2,2.3c-0.4,1.5-0.4,3.1,0,4.5
	c5.1-0.3,10-2.2,13.9-5.6c1.1-1,2.2-2.3,2.3-3.8c0-0.3,0-0.5-0.2-0.8c-0.2-0.3-0.5-0.5-0.9-0.7c-3.7-2-4.8-6.6-6.6-10.3
	c-1.6-3.3-4-6.2-6-9.2c-4.4-6.6-7.3-14.6-13.9-18.9c-1.5-1-3.1-1.8-3.9-3.4c-0.3-0.9-0.6-1.9-0.8-2.8c-0.3-1-1.1-1.7-2.1-1.8
	c0.4-1.4,0.6-2.9,0.5-4.4c0-0.6,0-1.3-0.2-1.9c-0.2-0.7-0.6-1.3-1-1.9c-1.7-2.9-2.6-6.3-2.5-9.7c0.1-1.8,0.4-3.5-0.2-5.2
	c-0.3-0.9-0.7-1.6-1-2.4c-0.5-1.5-0.7-3-0.8-4.5l-0.4-5.8c0-1.9-0.3-3.8-0.7-5.7c-1.2-4.5-2.4-23.3-6.5-25.4
	c-4.1-2.1-11.2,12.4-15.8,12.6c-2.1,0.1-4.1,0.5-6,1.2c-3.1,1.2-5.7,3.3-8.2,5.4l-8.5,7.2C834.7,575,832.9,576.2,831,577.3z"/>
<path class="st17" d="M790,454.5c2-2.5,5.1-4,8.3-4c3.2,0,6.3,0.8,9.2,2.3c0.8,0.5,1.7,0.8,2.6,1.1c1.5,0.3,3.2-0.1,4.5,0.6
	c1.8,1,2.2,3.4,2,5.4c-0.2,2-0.5,4.3,0.5,6c0.4,0.5,0.7,1,1,1.6c0.3,1.1,0.3,2.3-0.1,3.3c-0.6-0.7-1.2-1.4-1.8-2.2
	c-0.6-0.7-1.7-1.2-2.5-0.7c-0.8,0.5-0.8,1.5-0.8,2.3s-0.3,1.9-1.1,2.2c-0.7,0.1-1.4-0.1-1.8-0.7c-1.4-1.7-0.8-4.4-2.2-6.1
	c-0.8-1-2.1-1.4-2.8-2.4c-0.6-0.8-0.7-1.8-1.2-2.6c-0.5-0.8-1.6-1.5-2.4-0.9c-0.3,0.3-0.5,0.6-0.6,0.9c-1,1.4-2.8,1.9-4.4,1.3
	c-0.6-0.4-1.2-0.6-1.9-0.8c-0.9-0.1-1.7,0.4-2.2,1.2c-0.4,0.8-0.6,1.6-0.6,2.5c0,1.2,0.2,2.5-0.5,3.5c-0.3,0.4-0.6,0.7-1,0.9
	c-1,0.6-2.4,1.1-3.3,0.3c-0.6-0.6-0.9-1.5-0.7-2.3c0.2-0.8,0.4-1.7,0.7-2.5c0.5-1.9-0.2-4,0.4-5.7C788.1,457.3,789,455.8,790,454.5z
	"/>
<path class="st15" d="M797.6,496.9c-0.1,0.4,0,0.9,0.1,1.3c0.2,0.3,0.4,0.5,0.7,0.7c2,1.3,4.3,2,6.7,2.2c0.3,0,0.6,0.1,0.9,0.2
	c0.5,0.5,0.7,1.2,0.4,1.9c-0.3,0.6-0.4,1.3-0.4,2c0.2,1.3,1.7,1.8,2.9,2c1.8,0.4,3.6,0,5.1-1c0.9-0.9,1.7-1.9,2.1-3.2
	c3.5-7.9,4.7-16.7,8.2-24.6c0.3-0.5,0.4-1.1,0.5-1.6c0.1-0.6-0.2-1.2-0.7-1.5c-0.7-0.4-1.7-0.2-2.1-0.8c-0.2-0.3-0.2-0.8-0.4-1.1
	c-0.4-0.7-1.5-0.6-2.2-1c-0.6-0.3-1-0.9-1.6-1c-0.6,0-1.2,0.2-1.7,0.7c-2,1.9-3.1,4.6-4.3,7.2c-1.8,3.9-3.8,7.7-6.2,11.3
	c0.3-0.4-1.3-3.6-1.9-3.8c-1.1-0.2-2.5,1.7-3,2.4C799.1,491.4,798,494.1,797.6,496.9z"/>
<rect x="804.8" y="508.2" class="st5" width="68.6" height="68.6"/>
<path class="st18" d="M872.9,545.9c-1.2,1-2.3,2.2-3.3,3.4c-1,1.2-1.5,2.8-1.5,4.4c0,0.5,0.2,0.9,0.4,1.3c0.3,0.4,0.8,0.5,1.2,0.4
	c0.2-0.1,0.4-0.3,0.6-0.5c0.6-0.8,1.3-1.5,2-2.2c0.3-0.3,0.6-0.5,0.9-0.4c0.2,0.1,0.3,0.1,0.4,0.3c0.4,0.3,0.7,0.8,0.9,1.3
	c0.1,0.9-0.2,1.9-0.9,2.6c-0.7,0.7-1.2,1.4-1.6,2.3c-0.1,0.2-0.1,0.5,0,0.7c0.1,0.2,0.3,0.3,0.5,0.4c1.7,1,3.8,1.1,5.7,0.4
	c1.2-0.5,2.3-1.3,3.5-1.8c0.5-0.1,1.1-0.3,1.6-0.6c0.7-0.5,1.2-1.2,1.4-2.1c0.2-0.8,0.2-1.7,0.1-2.5c-0.2-3.3-0.9-6.5-2.1-9.6
	c-0.1-0.2-0.2-0.4-0.3-0.5c-0.2-0.1-0.4-0.2-0.6-0.2c-1.5-0.2-4.1-0.9-5.6-0.4c-0.5,0.3-1,0.7-1.3,1.2
	C874.6,544.2,872.9,545.5,872.9,545.9z"/>
<path class="st17" d="M872.3,544.6c0-1.5-1.8-5,1.1-5.3c0-1.6-2.2-2.5-1.8-4.2c0.1-0.6,0.6-1,0.7-1.6c0.2-1.6-2.7-2.5-2.2-4
	c0.2-0.6,0.8-0.9,1-1.5c0.3-1.4-2.2-2-2.2-3.4c0-0.5,0.3-0.9,0.2-1.4c0-0.6-0.5-1.1-0.8-1.6c-0.7-1.3-0.4-3.4-1.8-4.1
	c0.9,0.1,1.2-1.3,0.8-2.1c-0.4-0.8-1.1-1.5-1.1-2.5c0-0.3,0-0.7,0-1c-0.3-0.9-1.7-0.9-1.9-1.8c0-0.3,0-0.7,0-1
	c-0.1-0.7-0.8-1.1-1.5-1.3c-0.7-0.1-1.3-0.3-1.9-0.7c-0.4-0.3-0.9-0.9-1.4-0.6c-0.2,0.1-0.3,0.3-0.4,0.4c-0.5,0.6-1.6,0.4-2.2-0.1
	c-2-1.4-3-3.8-3.4-6.2c-0.4-2.4-0.4-4.9-0.9-7.2c-0.2-0.7-0.4-1.5-0.6-2.2c-0.4-0.7-0.8-1.4-1-2.2c-0.1-1.4,2.8-0.4,3.8-0.3
	c1.1,0.1,2.1,0.3,3.1,0.6c1.1,0.4,2.2,0.9,3.2,1.4c4.4,1.9,9.6,2.2,13.1,5.4c1.2,1.1,2.1,2.5,3.6,2.9c0.7,0.1,1.4,0.3,2,0.5
	c1.7,0.8,1.9,3,2.8,4.6c0.3,0.4,0.5,0.9,0.7,1.3c0.2,0.5,0.3,1.1,0.2,1.7l0.1,4.2c0.2,7,0.4,14-0.3,21c-0.2,2.3-0.6,4.6,0.1,6.9
	c0.2,0.6,0.4,1.2,0.6,1.8c0.1,0.7,0.2,1.4,0.2,2.2l0.1,2.7c0,0.2,0,0.4-0.1,0.6c-0.2,0.2-0.5,0.2-0.7,0.2c-3.8-0.3-7.6-2.5-11.1-1.2
	"/>
<path class="st18" d="M802.2,533.6c-0.2,0.1-0.3,0.2-0.4,0.4c-0.8,1.1-0.8,2.5,0,3.6c0.1,0.1,0.2,0.2,0.2,0.4c0,0.2,0,0.4-0.1,0.6
	c-0.4,0.7-0.3,1.6,0.3,2.2c0.3,0.2,0.6,0.3,0.8,0.6c0.3,0.5-0.1,1.2-0.1,1.8c0.1,0.8,1,1.2,1.8,1.3c0.6,0.1,1.3,0,1.7-0.5
	c0.3-0.5,0.3-1.1,0-1.6c-0.3-0.5-0.7-0.9-1.2-1.2c0.9,0,1.6-0.7,1.7-1.6c0.1-0.9-0.3-1.7-1-2.2c-0.2-0.1-0.4-0.3-0.4-0.5
	c0-0.2,0.2-0.5,0.4-0.7c0.9-0.9,1.6-3-0.1-3.5c-0.6-0.1-1.2-0.1-1.8,0.1c-0.4,0.1-0.4,0.4-0.7,0.6
	C803,533.5,802.6,533.4,802.2,533.6z"/>
<path class="st19" d="M819.5,472.9c-0.9,0-1.7,0.4-2.2,1.1c-0.6,0.9-0.9,1.9-0.9,3c-0.5,3.4-1.7,6.6-3.5,9.5"/>
<path class="st19" d="M822.6,475.3c-1.2,0-2.3,0.7-2.9,1.8c-0.4,0.9-0.7,2-0.7,3c-0.5,2.3-1.5,4.4-2.9,6.2"/>
<path class="st20" d="M367.8,539.6c0.5,5.6-3.7,10.9-2.5,16.4c0.3,1.2,0.8,2.3,0.9,3.4c0.5,3.2-1.4,6.3-3.3,9l-15.8,23.1
	c-0.6,1-1.4,2-2.3,2.8c-3,2.6-7.5,2.4-11.5,3.2c-2.8,0.6-5.4,1.7-7.7,3.4c-0.2,0.2-0.3,0.5-0.1,0.7c1.3,1.8,3.5,2.8,5.7,2.7
	c0.4,0.5,0,1.3-0.6,1.8c-0.9,0.6-2,0.7-2.2,2.2c-0.1,0.5,0,1,0.3,1.4c0.6,1,1.6,1.7,2.8,1.9c5.5,1.7,11.4-1.3,15.4-5.3
	c4.1-4,7-9,11-13.1c2.2-2.2,4.7-4.2,7-6.4c4.6-4.3,8.1-9.7,11.5-14.9c1.1-1.5,2-3.3,2.5-5.1c0.4-1.8,0.2-3.7,0.7-5.5
	c0.6-2.3,2.4-4.2,3.8-6.2c2.8-3.8,4.7-8.6,4.3-13.3c-0.4-4.7-3.3-9.4-7.8-11c-1.4-0.6-2.9-0.7-4.4-0.3c-1.8,0.6-3.2,2.1-4.4,3.5
	l-3,3.5c-0.8,0.8-1.4,1.6-1.8,2.6c-0.4,1-0.2,2.2,0.6,2.9"/>
<path class="st21" d="M367.8,539.6c0.5,5.6-3.7,10.9-2.5,16.4c0.3,1.2,0.8,2.3,0.9,3.4c0.5,3.2-1.4,6.3-3.3,9l-15.8,23.1
	c-0.6,1-1.4,2-2.3,2.8c-3,2.6-7.5,2.4-11.5,3.2c-2.8,0.6-5.4,1.7-7.7,3.4c-0.2,0.2-0.3,0.5-0.1,0.7c1.3,1.8,3.5,2.8,5.7,2.7
	c0.4,0.5,0,1.3-0.6,1.8c-0.9,0.6-2,0.7-2.2,2.2c-0.1,0.5,0,1,0.3,1.4c0.6,1,1.6,1.7,2.8,1.9c5.5,1.7,11.4-1.3,15.4-5.3
	c4.1-4,7-9,11-13.1c2.2-2.2,4.7-4.2,7-6.4c4.6-4.3,8.1-9.7,11.5-14.9c1.1-1.5,2-3.3,2.5-5.1c0.4-1.8,0.2-3.7,0.7-5.5
	c0.6-2.3,2.4-4.2,3.8-6.2c2.8-3.8,4.7-8.6,4.3-13.3c-0.4-4.7-3.3-9.4-7.8-11c-1.4-0.6-2.9-0.7-4.4-0.3c-1.8,0.6-3.2,2.1-4.4,3.5
	l-3,3.5c-0.8,0.8-1.4,1.6-1.8,2.6c-0.4,1-0.2,2.2,0.6,2.9"/>
<path class="st18" d="M247.7,563.2c0.9,2.8,1.8,5.6,2.8,8.3c1.9,4.7,4.4,9.2,7.3,13.3c1.9,2.7,3.9,5.4,6,7.9
	c2.7,3.2,5.7,6.4,6.6,10.4c0.6,2.3,0.4,4.8,0.6,7.2c0.2,2.4,1,4.9,2.9,6.4c1.5,0.9,3.1,1.5,4.9,1.6c1.2,0.2,2.7,0.3,3.4-0.8
	c0.2-0.4,0.3-0.9,0.3-1.4l0.3-3.5c0.1-0.8,0.3-1.8,1.1-1.8c0.8,0,1.1,1,1.8,1.4c0.9,0.5,2.1,0.2,2.6-0.8c0,0,0-0.1,0.1-0.1
	c0.4-1,0.4-2.1,0.1-3.1c-1.1-4-3.8-7.4-7.5-9.3c-1.3-0.5-2.5-1.2-3.7-1.9c-1.2-1-2.2-2.2-2.9-3.6c-6.6-10.9-13.3-22-18-33.8
	c-0.9-2.1-1.5-4.4-1.9-6.7c-0.1-2.3,0-4.7,0.3-7c0.3-4.2-0.1-8.5-1.2-12.5c-0.2-1.1-0.6-2.1-1.2-3c-1.9-2.9-6.5-3.4-9.3-1.3
	c-2.1,1.6-3.5,4.1-3.7,6.8c-0.2,2.4,1.2,4.8,1.9,7C243.5,549.6,245.6,556.4,247.7,563.2z"/>
<path class="st21" d="M247.7,563.2c0.9,2.8,1.8,5.6,2.8,8.3c1.9,4.7,4.4,9.2,7.3,13.3c1.9,2.7,3.9,5.4,6,7.9
	c2.7,3.2,5.7,6.4,6.6,10.4c0.6,2.3,0.4,4.8,0.6,7.2c0.2,2.4,1,4.9,2.9,6.4c1.5,0.9,3.1,1.5,4.9,1.6c1.2,0.2,2.7,0.3,3.4-0.8
	c0.2-0.4,0.3-0.9,0.3-1.4l0.3-3.5c0.1-0.8,0.3-1.8,1.1-1.8c0.8,0,1.1,1,1.8,1.4c0.9,0.5,2.1,0.2,2.6-0.8c0,0,0-0.1,0.1-0.1
	c0.4-1,0.4-2.1,0.1-3.1c-1.1-4-3.8-7.4-7.5-9.3c-1.3-0.5-2.5-1.2-3.7-1.9c-1.2-1-2.2-2.2-2.9-3.6c-6.6-10.9-13.3-22-18-33.8
	c-0.9-2.1-1.5-4.4-1.9-6.7c-0.1-2.3,0-4.7,0.3-7c0.3-4.2-0.1-8.5-1.2-12.5c-0.2-1.1-0.6-2.1-1.2-3c-1.9-2.9-6.5-3.4-9.3-1.3
	c-2.1,1.6-3.5,4.1-3.7,6.8c-0.2,2.4,1.2,4.8,1.9,7C243.5,549.6,245.6,556.4,247.7,563.2z"/>
<path class="st22" d="M381.1,667.6c-3.4,2.1-7.7,2.2-11.7,1.8c-0.6-0.1-1.4-0.1-1.8,0.4c-0.6,0.7,0.1,1.8,0.8,2.4
	c2.4,1.8,5.1,2.9,8.1,3.3c2.6,0.4,5.3,0.5,7.9,0.5c7.2,0.1,14.4,0.2,21.6-0.8c0.4,0,0.8-0.1,1.2-0.3c0.5-0.3,0.8-0.8,0.9-1.4
	c0.4-1.9-0.4-3.9-1.9-5.1c-1.5-1.2-3.2-2.1-5-2.7l-6.3-2.4c-1.5-0.6-3.8-2.1-5.4-2C386.4,661.4,383.6,666.1,381.1,667.6z"/>
<path class="st22" d="M396.8,682.3c-2.9,2.6-6.6,4-10.5,3.9c-1,0-2.4,0.2-2.4,1.2c0,0.3,0.1,0.6,0.3,0.8c1.2,2,3.2,3.6,5.4,4.3
	c2.1,0.5,4.4,0.7,6.6,0.4l6.4-0.3c1.2-0.1,2.4-0.1,3.6-0.3c1.2-0.1,2.5-0.4,3.8-0.6c3.1-0.4,6.2-0.6,9.3-0.4
	c0.8,0.2,1.7-0.1,2.3-0.6c0.6-0.7,0.2-1.8,0.1-2.6c-0.4-1.9,0-3.8-0.4-5.7c-0.6-3.3-3.4-5.8-6.5-7c-2.9-1.1-8-2.4-10.7-0.5
	C401.2,676.8,399.4,680,396.8,682.3z"/>
<path class="st17" d="M384.2,599.3c-2.6,3.5-5.3,7.5-4.7,11.8c0.4,2.3,1.6,4.4,2.6,6.5c1.2,2.9,2.1,6,2.6,9.1c1,4.5,2,9.1,2.6,13.7
	c0.7,5.2,0.9,10.5,0.6,15.7c-0.1,1.3-0.2,2.6-1.1,3.5c-0.4,0.4-0.8,0.6-1,1.1c-0.1,0.4,0,0.9,0.2,1.3c1.6,3.3,4.4,5.9,7.8,7.2
	c3.4,1.3,7,2,10.6,2c0.5,0.1,1,0,1.4-0.2c0.5-0.3,0.9-0.7,1.1-1.3c2.6-5,1.2-11.1,1.2-16.7c0-4.7,1.1-9.4,0.9-14.1
	c-0.2-3.8-1.2-7.5-1.5-11.2c-0.6-6.2,0.5-12.4,1.7-18.5c0.9-4.7,1.8-9.4,2.9-14c0.6-2.9,1.6-5.6,3-8.1c1.2-1.9,2.9-3.6,4.3-5.4
	c3.9-5.1,5.6-11.5,4.8-17.9c-0.1-0.6-9.1,2.3-9.8,2.6c-3.2,1.4-6.2,3.3-8.8,5.6c-2.1,2-3.7,4.6-5.5,6.8c-2.6,3.1-5.1,6.3-7.6,9.4
	C389.7,592,386.9,595.6,384.2,599.3z"/>
<path class="st21" d="M384.2,599.3c-2.6,3.5-5.3,7.5-4.7,11.8c0.4,2.3,1.6,4.4,2.6,6.5c1.2,2.9,2.1,6,2.6,9.1c1,4.5,2,9.1,2.6,13.7
	c0.7,5.2,0.9,10.5,0.6,15.7c-0.1,1.3-0.2,2.6-1.1,3.5c-0.4,0.4-0.8,0.6-1,1.1c-0.1,0.4,0,0.9,0.2,1.3c1.6,3.3,4.4,5.9,7.8,7.2
	c3.4,1.3,7,2,10.6,2c0.5,0.1,1,0,1.4-0.2c0.5-0.3,0.9-0.7,1.1-1.3c2.6-5,1.2-11.1,1.2-16.7c0-4.7,1.1-9.4,0.9-14.1
	c-0.2-3.8-1.2-7.5-1.5-11.2c-0.6-6.2,0.5-12.4,1.7-18.5c0.9-4.7,1.8-9.4,2.9-14c0.6-2.9,1.6-5.6,3-8.1c1.2-1.9,2.9-3.6,4.3-5.4
	c3.9-5.1,5.6-11.5,4.8-17.9c-0.1-0.6-9.1,2.3-9.8,2.6c-3.2,1.4-6.2,3.3-8.8,5.6c-2.1,2-3.7,4.6-5.5,6.8c-2.6,3.1-5.1,6.3-7.6,9.4
	C389.7,592,386.9,595.6,384.2,599.3z"/>
<path class="st17" d="M403.2,572.6c0.6,2.7,3.2,4.7,3.2,7.5c0.1,2.2-1.5,4-2.6,5.9c-1.1,2-2,4-2.7,6.1c-2.1,5.5-4.8,10.7-7.9,15.7
	c-1.5,2.4-3.2,5-2.8,7.8c0.2,1.3,0.7,2.6,1.4,3.7l4.5,9c1,1.8,1.8,3.7,2.3,5.7c0.4,1.7,0.4,3.5,0.7,5.2c0.7,5.5,3.3,11,1.8,16.4
	c-0.1,0.5-0.6,1-1,0.7c1.5,2.8,2.7,5.6,2.6,8.8c-0.1,1.7-0.6,3.4,0.1,4.9c0.3,0.6,0.6,1.2,0.7,1.9c0,0.4-0.2,0.9-0.3,1.3
	c-0.1,1.3,1,2.3,2.2,2.7c1.2,0.4,2.5,0.4,3.8,0.7c2.4,0.7,4,2.7,6,4.1c2,1.4,4.5,2.2,6.9,2.3c0.4,0,0.7,0,1-0.2
	c0.4-0.3,0.6-0.8,0.6-1.2c0.2-2.3-0.7-4.5-2.5-6c-0.4-0.2-0.7-0.6-0.9-1c-0.1-0.3-0.1-0.7-0.1-1.1c0.4-4.9,0.3-9.9-0.3-14.8
	c-0.2-1.6-0.3-3.1-0.2-4.7c0.3-1.3,0.4-2.6,0.4-3.9c-0.3-1.3-0.7-2.5-1.2-3.8c-0.7-2.2-0.5-4.6-0.6-7c-0.3-4.1-0.9-8.1-2-12
	c-0.2-1.6-0.9-3.1-1.9-4.3c-0.9-1-2.5-1.9-2.1-3.2c0.2-0.5,0.5-0.9,0.9-1.3c0.9-1.1,1.3-2.5,1.1-3.9c0.8,0.2,1.7-0.2,2-0.9
	c7.5-3.7,13.2-10.2,15.9-18.1c0.2-0.6,0.4-1.1,0.7-1.6c0.7-0.9,1.9-1.4,2.9-1.9c3.3-1.7,5.6-4.8,7.6-7.8c1.3-1.7,2.3-3.6,3-5.7
	c0.3-1.3,0.4-2.7,0.4-4.1l0.2-7c0-0.5,0-0.9-0.1-1.4c-0.2-0.4-0.4-0.8-0.8-1.1c-2-2.1-4.6-3.5-7.5-4c-1.9-0.3-3.9-0.3-5.8-0.4
	c-3.8-0.3-7.5-1.5-11.3-1.2c-5.9,0.4-11.2,4.6-14.1,9.8C406.3,570.9,405.3,572.5,403.2,572.6z"/>
<path class="st16" d="M206,680.2c1.3,0.4,2.7,0.6,4,0.5c0.1-1.1,1.6-1.4,2.7-1.3c0.6,0,1.1,0.1,1.6,0.4c0.3,0.2,0.5,0.4,0.8,0.6
	c0.5,0.3,1,0.4,1.6,0.4l5.8,0.5c2.6,0.2,5.3,0.4,7.7-0.5c0.5-0.1,0.9-0.4,1.2-0.8c0.7-0.9,0-2.3-0.9-3c-0.9-0.7-2.1-1-3-1.7
	c-2-1.5-2.3-4.4-3.4-6.7c-0.8-1.5-1.7-2.8-2.8-4c-0.8-1.1-1.7-2-2.8-2.8c-2.3-1.7-5-1.7-7.8-1.9c-1.9-0.2-3.8-0.3-5.1,1.4
	c-1.7,2.1-1,6.4-0.9,9C205,673.5,205.4,676.9,206,680.2z"/>
<path class="st21" d="M206,680.2c1.3,0.4,2.7,0.6,4,0.5c0.1-1.1,1.6-1.4,2.7-1.3c0.6,0,1.1,0.1,1.6,0.4c0.3,0.2,0.5,0.4,0.8,0.6
	c0.5,0.3,1,0.4,1.6,0.4l5.8,0.5c2.6,0.2,5.3,0.4,7.7-0.5c0.5-0.1,0.9-0.4,1.2-0.8c0.7-0.9,0-2.3-0.9-3c-0.9-0.7-2.1-1-3-1.7
	c-2-1.5-2.3-4.4-3.4-6.7c-0.8-1.5-1.7-2.8-2.8-4c-0.8-1.1-1.7-2-2.8-2.8c-2.3-1.7-5-1.7-7.8-1.9c-1.9-0.2-3.8-0.3-5.1,1.4
	c-1.7,2.1-1,6.4-0.9,9C205,673.5,205.4,676.9,206,680.2z"/>
<path class="st17" d="M208.3,567.1c-1.8,0.6-2.5,2.8-2.2,4.6c0.3,1.8,1.4,3.4,2.3,5.1c2.6,4.6,3.7,9.9,5.9,14.8
	c1.6,3.6,3.8,7,5.4,10.5c1.6,3.6,2.6,7.7,1.6,11.5c-0.5,1.9-1.4,3.6-2,5.4c-0.6,2-1,4.1-1.2,6.2c-0.8,7.1-0.9,14.2-0.4,21.2
	c0,0.9,0.2,1.7,0.5,2.5c0.4,0.7,1,1.4,0.7,2.2c-0.1,0.3-0.4,0.5-0.5,0.8c-0.4,0.8,0.4,1.7,1.1,2.2c-0.2,0.4-0.7,0.8-1.1,0.9
	c1,0.6,1.5,1.9,1.2,3c-0.6,0.1-0.6,1-0.3,1.5c0.4,0.5,1,0.8,1.2,1.3c0.3,0.9-0.1,2-1,2.4c-0.9,0.3-1.9,0.4-2.8,0.2
	c-1.6-0.2-3.2-0.6-4.7-1c-0.5-0.1-1-0.4-1.4-0.7c-0.8-0.8-1.2-1.8-1.3-2.8c-0.4-2.9-0.5-5.9-0.3-8.8c0.3-14.2,0-28.4-0.6-42.6
	c-0.3-5.7-2-11.3-4.2-16.6c-1.2-2.7-2.6-5.3-4.1-7.9c-3.2-5.9-6-12.3-5.3-18.9c0.1-0.7,0.3-1.6,1-1.7c0.3,0,0.6,0,0.8,0.1
	c1.5,0.7,2.9,1.5,4.3,2.4C203.2,566.2,205.7,567,208.3,567.1z"/>
<path class="st21" d="M208.3,567.1c-1.8,0.6-2.5,2.8-2.2,4.6c0.3,1.8,1.4,3.4,2.3,5.1c2.6,4.6,3.7,9.9,5.9,14.8
	c1.6,3.6,3.8,7,5.4,10.5c1.6,3.6,2.6,7.7,1.6,11.5c-0.5,1.9-1.4,3.6-2,5.4c-0.6,2-1,4.1-1.2,6.2c-0.8,7.1-0.9,14.2-0.4,21.2
	c0,0.9,0.2,1.7,0.5,2.5c0.4,0.7,1,1.4,0.7,2.2c-0.1,0.3-0.4,0.5-0.5,0.8c-0.4,0.8,0.4,1.7,1.1,2.2c-0.2,0.4-0.7,0.8-1.1,0.9
	c1,0.6,1.5,1.9,1.2,3c-0.6,0.1-0.6,1-0.3,1.5c0.4,0.5,1,0.8,1.2,1.3c0.3,0.9-0.1,2-1,2.4c-0.9,0.3-1.9,0.4-2.8,0.2
	c-1.6-0.2-3.2-0.6-4.7-1c-0.5-0.1-1-0.4-1.4-0.7c-0.8-0.8-1.2-1.8-1.3-2.8c-0.4-2.9-0.5-5.9-0.3-8.8c0.3-14.2,0-28.4-0.6-42.6
	c-0.3-5.7-2-11.3-4.2-16.6c-1.2-2.7-2.6-5.3-4.1-7.9c-3.2-5.9-6-12.3-5.3-18.9c0.1-0.7,0.3-1.6,1-1.7c0.3,0,0.6,0,0.8,0.1
	c1.5,0.7,2.9,1.5,4.3,2.4C203.2,566.2,205.7,567,208.3,567.1z"/>
<path class="st17" d="M184.3,549.9c-0.9-0.6-2-0.9-3.1-1c-1.3,0.2-2.4,0.8-3.4,1.7c-1.2,0.9-2.3,1.9-3.3,2.9c-4.4,4.7-6,11.5-4,17.7
	c1.1,3.2,3,5.9,4.9,8.7l3.9,5.6c5.9,8.5,11.8,16.9,18,25.2c0,0.4,0.3,0.8,0.7,0.9c0.2,0.1,0.5,0.1,0.6,0.2c0.1,0.1,0.1,0.2,0.1,0.4
	c0,0.6-0.1,1.2-0.3,1.8c-0.1,0.2-0.1,0.4-0.1,0.6c0.2,0.5,1,0.2,1.3,0.6c0.2,0.3,0,0.7-0.3,0.9c-0.3,0.2-0.5,0.5-0.5,0.9
	c0,0.4,0.6,0.7,0.6,1.1c0,0.2-0.2,0.4-0.4,0.6c-0.4,0.6-0.4,1.5,0.2,2c0.4,4-1.8,7.9-2.2,11.9c-0.7,6.4,2.2,12.6,2.5,18.9
	c0,0.7,0.1,1.4,0.4,2.1c0.6,1.1,2.1,1.8,2.1,3c-0.1,0.5-0.3,1-0.4,1.5c0,0.7,0.1,1.5,0.2,2.2c0,0.7-0.6,1.6-1.3,1.3
	c0.5,1.7,1,3.4,1.4,5.1l13.5,1.1c0.1-1.2,0.1-2.5-0.1-3.7c-0.3-1.3-0.9-2.5-1.2-3.8c-0.4-1.3-0.2-2.7,0.5-3.8
	c-0.7,0-1.4-0.5-1.5-1.2c-0.1-0.7-0.1-1.4,0-2.1c0.4-3.5-1.1-7-1.1-10.5c0-2.8,1-5.5,1.5-8.2c1.1-5.9,0-12.2,2.6-17.6
	c1.6-3.2,3.8-6.8,2-9.9c-0.9-1.5-2.4-2.6-3.4-4.1c-0.8-1.4-1.4-2.8-1.8-4.4c-2.1-6.5-5.5-12.4-8.4-18.6c-0.8-1.5-1.4-3.2-1.8-4.9
	c-0.2-1.5-0.3-3-0.2-4.5c0-2.7-0.2-5.4-0.5-8.1c-0.1-1.2-0.4-2.3-1-3.3c-0.6-0.8-1.3-1.4-2.1-1.9
	C194.4,554.1,189.1,552.4,184.3,549.9z"/>
<path class="st16" d="M200.5,685.2c1.3,0.4,2.7,0.6,4,0.5c0.1-1.1,1.6-1.4,2.7-1.3c0.5,0,1.1,0.1,1.6,0.4c0.3,0.2,0.5,0.4,0.8,0.6
	c0.5,0.3,1,0.4,1.6,0.4l5.8,0.5c2.6,0.2,5.3,0.4,7.7-0.5c0.5-0.1,0.9-0.4,1.2-0.8c0.7-0.9,0-2.3-0.9-3c-0.9-0.7-2.1-1-3-1.7
	c-2-1.5-2.3-4.4-3.4-6.7c-0.8-1.5-1.7-2.8-2.8-4c-0.8-1.1-1.7-2-2.7-2.8c-2.3-1.7-5-1.7-7.8-1.9c-1.9-0.2-3.8-0.3-5.1,1.4
	c-1.8,2.1-1,6.4-0.9,9C199.5,678.5,199.9,681.9,200.5,685.2z"/>
<rect x="273.9" y="583.2" class="st23" width="68.6" height="68.6"/>
<path class="st3" d="M320.3,610.2l-9.2,14.1c0.7,0.9,1.1,2,1.1,3.2c-0.1,2.8-2.5,5-5.3,4.9c-2.6-0.1-4.7-2.2-4.9-4.9
	c0-0.3,0-0.6,0.1-0.9l-6.1-3.5c-1.6,1.5-4.1,1.8-6,0.8l-6.5,6.1v6c0,2.5,2,4.5,4.5,4.5h38.3c2.5,0,4.5-2,4.5-4.5v-22.4l-6.2-4.1
	c-0.9,0.7-2,1.1-3.1,1.1C321.3,610.4,320.8,610.4,320.3,610.2L320.3,610.2z"/>
<path class="st3" d="M292.6,614.3c2.8,0,5.1,2.3,5.1,5.1c0,0,0,0,0,0c0,0.2,0,0.4,0,0.7l6.3,3.5c0.9-0.7,2-1.2,3.2-1.1
	c0.4,0,0.7,0,1.1,0.1l9.2-14.3c-1.6-2.3-1.1-5.4,1.2-7.1c2.3-1.6,5.4-1.1,7.1,1.2c0.6,0.9,0.9,1.9,0.9,2.9c0,0.4,0,0.8-0.1,1.2
	l4.4,2.9V601c0-2.5-2-4.5-4.5-4.5h-38.3c-2.5,0-4.5,2-4.5,4.5v24.2l4.2-4c-0.2-0.6-0.3-1.2-0.3-1.8
	C287.6,616.6,289.9,614.3,292.6,614.3z"/>
<circle class="st18" cx="260.5" cy="513" r="13.4"/>
<path class="st18" d="M247.9,517c-1.9,1.7-4.7,1.8-7.2,2c-5.4,0.5-10.6,2.1-15.5,4.5c-0.7,0.3-1.3,0.7-1.8,1.2
	c-0.4,0.6-0.7,1.2-0.9,1.9c-0.5,1.5-0.6,3.1-0.5,4.7c0.2,1.5,0.6,3,1.3,4.4c1.9,3.9,4.7,7.1,8.3,9.5c0.6,0.4,1.3,0.8,2,1
	c1.8,0.4,3.5-0.7,5.2-1.1c1.6-0.4,3.3-0.4,4.8,0.2c1.5,0.5,3,1.4,4.4,0.8c0.9-0.5,1.6-1.3,2-2.3c1.4-2.6,2.6-5.3,3.7-8
	c0.4-1.1,0.8-2.1,1.3-3.1c1.6-3,4.2-5.3,5.6-8.3c0.3-0.5,0.3-1.1,0.1-1.6c-0.2-0.3-0.6-0.6-1-0.8c-2-1.1-3.8-2.5-5.4-4.2
	c-0.9-0.9-2.5-3.1-3.8-3.3C249.3,514.2,248.8,516.2,247.9,517z"/>
<path class="st16" d="M248.2,544.2c-1.6,0.7-3.4,0.4-5.1,0.1c-4.3-0.9-8.7-1.8-12.7-3.7c-1.3-0.5-2.3-1.3-3.1-2.4
	c-0.5-0.9-0.8-2-0.9-3l-0.7-5c-0.3-1.8,0.2-3.4,0.2-5.1c0.1-0.4,0-0.8-0.3-1.1c-0.2-0.2-0.6-0.3-0.9-0.3c-2,0-3.2,2.1-4.6,3.6
	c-0.8,0.8-1.8,1.5-2.8,1.9c-1.3,0.5-2.9,0.9-3.4,2.2c-0.2,0.5-0.2,1.2-0.4,1.7c-0.9,2.1-4.7,1.4-5.7,3.5c-0.3,0.6-0.3,1.4-0.7,1.8
	c-0.5,0.5-1.3,0.5-2,0.6c-2.8,0.5-4.2,3.7-6.5,5.2c-2,1.3-4.6,1.3-6.8,2.3c-1.1,0.7-2.3,1.3-3.5,1.8c-1.3,0.2-2.7,0.3-4.1,0.2
	c-0.3,0-0.6,0.1-0.8,0.3c-0.2,0.3-0.2,0.6-0.1,0.9c1.4,8.6,7.1,15.9,15.2,19.1c0.5,0.1,0.9,0.4,1.3,0.6c1.2,0.9,1.4,2.9,2.8,3.5
	c1,0.3,2.1,0.1,2.9-0.6c0.8-0.7,1.5-1.5,2.1-2.3c1.3-1.3,2.9-2.2,4.7-2.5c1.7-0.3,3.5-0.1,4.9-1.1c0.5-0.5,1.1-1.1,1.5-1.6
	c1-0.9,2.2-1.6,3.5-2.1c3.5-1.4,7.2-2.1,11-2.3c3.5-0.2,7.2,0.1,10.5-1c0.9-0.3,1.7-0.7,2.3-1.3c0.7-0.8,1.3-1.7,1.6-2.7
	C248.7,551.6,248.9,547.9,248.2,544.2z"/>
<path class="st16" d="M230.9,524.5c1-0.1,2,0,3,0c1.2,0,2.3-0.3,3.5-0.3c3.8,0.1,7.1,2.6,8.2,6.2c0.1,0.3,0.1,0.6,0.1,0.9
	c-0.1,0.3-0.4,0.5-0.7,0.5c-0.4-1.1-0.9-2.1-1.5-3c-1.1-1.5-2.7-2.6-4.5-3.1c-1.8-0.5-3.7-0.6-5.5-0.2c-0.8,0.1-1.5,0.3-2.2,0.6
	l-3.6,1c-0.7,0.2-1.3,0.4-2,0.6c-0.5,0.2-1.3,0.9-1.8,0.9c-0.7,0-0.1-0.6,0.2-1c0.6-0.8,1.4-1.4,2.3-1.7
	C227.7,525.2,229.3,524.7,230.9,524.5z"/>
<path class="st18" d="M240,564.7c0.9,2.8,1.8,5.6,2.8,8.3c1.9,4.7,4.4,9.2,7.3,13.3c1.9,2.7,3.9,5.4,6,7.9c2.7,3.2,5.7,6.4,6.6,10.4
	c0.6,2.3,0.4,4.8,0.6,7.2s1,4.9,2.9,6.4c1.5,0.9,3.1,1.5,4.9,1.6c1.2,0.2,2.7,0.3,3.4-0.8c0.2-0.4,0.3-0.9,0.3-1.4l0.3-3.5
	c0.1-0.8,0.3-1.8,1.1-1.8s1.1,1,1.8,1.4c0.9,0.5,2.1,0.2,2.6-0.8c0,0,0-0.1,0.1-0.1c0.4-1,0.4-2.1,0.1-3.1c-1.1-4-3.8-7.4-7.5-9.3
	c-1.3-0.5-2.5-1.2-3.7-1.9c-1.2-1-2.2-2.2-2.9-3.6c-6.7-10.9-13.3-22-18-33.8c-0.9-2.1-1.5-4.4-1.9-6.7c-0.1-2.3,0-4.7,0.3-7
	c0.3-4.2-0.1-8.5-1.1-12.6c-0.2-1.1-0.6-2.1-1.2-3c-1.9-2.9-6.5-3.4-9.3-1.3c-2.1,1.6-3.5,4.1-3.7,6.8c-0.2,2.4,1.2,4.8,1.9,7
	C235.7,551.1,237.8,557.9,240,564.7z"/>
<path class="st17" d="M280,503.6c0.1-1.1-0.9-2.1-2-2.8c-1.2-0.6-2.3-1.3-3.4-2.1c-1-0.9-1.6-2-2.6-2.9c-1.2-0.9-2.5-1.5-3.9-1.9
	c-3-1-6.1-1.6-9.2-1.7c-3.1-0.1-6.2,0.7-8.8,2.3c-0.6,0.4-1.1,0.8-1.5,1.4c-0.4,0.7-0.6,1.4-0.7,2.2c-0.6,2.4-1.3,4.8-2.3,7
	c-1,2.5-2.1,5.2-4.4,7.1c-2.5,2.1-6.3,3.3-8,5.8c-0.4,0.5-0.5,1.1-0.4,1.6c0.2,0.6,1,1.1,1.7,1.5c4.1,2.3,7.6,5.4,9.4,9
	c1.9,3.6,1.6,8-0.8,11.2c-0.9,1.2-2.2,2.7-1.3,3.9c1.4,1.9,6.2,0.8,7.3,2.8c0.2,0.7,0.3,1.4,0.1,2.1c0,2.1,2,3.9,4.5,4.9
	c2.6,0.9,5.3,1.3,8,1.3c0.7-1.6,0.8-3.5,0.2-5.2c-0.2-0.4-0.3-0.8-0.2-1.2c0.2-0.4,0.5-0.8,0.9-1.1c2.9-2.8,2.3-6.9,0.6-10.2
	c-1.8-3.3-4.5-6.3-5.5-9.8c-0.5-1.8-0.5-3.7,0.9-5.1c0.8-0.7,1.6-1.3,2.5-1.8c1.6-1.1,2.8-2.6,3.5-4.4c0.8-2.3,0.7-5,3.1-6.5
	c2.4-1.5,5.5-1,8.1-2C277.6,508.2,279.9,505.2,280,503.6z"/>
<circle class="st20" cx="355.2" cy="508.3" r="14.6"/>
<path class="st20" d="M368.3,507.7c2.7,4.4,7.1,7.4,12.1,8.5l-1.1,4c-1.9,6.9-4,14.1-9.4,18.9c0.5-2.4-0.1-4.9-1.5-6.8
	c-1.4-2-3.1-3.7-5-5.2l-8.4-7.3c-0.3-0.2-0.5-0.4-0.6-0.7c-0.2-0.5-0.2-1.1,0-1.6c1.1-3.3,4.1-5.4,6.6-7.7c1.2-1.2,2.4-2.5,3.3-3.9
	C366.2,503.5,367.3,505.9,368.3,507.7z"/>
<path class="st22" d="M370.2,526.6c0.1,1.1-0.1,2.2-0.4,3.2c-0.4,1-1.5,1.6-2.6,1.4c0.3-0.7-0.5-1.5-1.3-1.4
	c-0.8,0.2-1.4,0.7-1.7,1.4c-0.5,1-0.7,2.2-0.5,3.3c0.2,1.4,1,2.7,0.8,4.1c-0.2,1.2-1,2.3-0.6,3.4c0.3,0.5,0.7,0.9,1.1,1.3
	c1.2,1.5,1.1,3.7-0.4,5.1l11.4,0.2c-0.4,1.9,0.4,3.9,1.4,5.5c5.5,9.4,15.2,15.7,26,17c-1.1,0.6-1.4,2-0.8,3.1
	c0.1,0.1,0.2,0.2,0.3,0.4c0.9,0.9,2.5,0.8,3.7,0.2c1.1-0.7,2.1-1.5,3.1-2.3c1.9-1.3,4.1-2,6.4-1.8c1.4,0.1,2.8,0.6,4.2,0.7
	c4.2,0.2,7.8-2.8,11.9-4.1c3-0.9,6.3-0.9,8.8-2.8c1.1-0.8,2-2.1,1.6-3.4c-0.3-0.7-0.7-1.4-1.2-2c-1.4-1.9-2.3-4.1-3.3-6.2
	c-2-4.2-4.8-7.9-8.2-11c-2.6-2.3-5.3-4.3-8.2-6.2c-0.7-0.5-1.4-1-2.2-1.3c-1-0.3-2-0.7-3-1.2c-1.3-0.9-2.1-2.3-3.1-3.5
	c-2.3-2.6-5.7-3.8-8.5-5.9c-1.9-1.4-3.5-3.2-5.7-3.9c-1.1-0.3-2.2-0.4-3.3-0.7c-2.5-0.7-4.3-2.9-6.7-3.8c-1.9-0.7-4-0.5-6-0.8
	c-2.2-0.3-4.4-1.1-6.2-2.3c-0.6-0.5-1.3-0.9-2-1.2c-3-0.9-3.3,4.8-3.6,6.7C370.9,520.7,370.2,523.6,370.2,526.6z"/>
<path class="st20" d="M373.2,545.7c0.5,5.5-3.7,10.9-2.5,16.4c0.3,1.2,0.8,2.3,0.9,3.4c0.5,3.2-1.4,6.3-3.3,9l-15.8,23.1
	c-0.6,1-1.4,2-2.2,2.8c-3,2.7-7.5,2.4-11.5,3.2c-2.8,0.6-5.4,1.7-7.7,3.4c-0.2,0.2-0.3,0.5-0.1,0.7c1.3,1.8,3.5,2.8,5.7,2.7
	c0.4,0.5,0,1.4-0.6,1.8c-0.9,0.6-2,0.7-2.2,2.2c-0.1,0.5,0,1,0.3,1.5c0.6,1,1.6,1.7,2.8,1.9c5.5,1.7,11.4-1.3,15.4-5.3s7-9,11-13.1
	c2.2-2.2,4.7-4.2,7-6.4c4.6-4.4,8.1-9.7,11.5-14.9c1.1-1.5,2-3.3,2.5-5.1c0.4-1.8,0.2-3.7,0.7-5.5c0.6-2.3,2.3-4.2,3.8-6.2
	c2.8-3.9,4.7-8.6,4.3-13.3c-0.4-4.8-3.3-9.4-7.8-11c-1.4-0.6-2.9-0.7-4.4-0.3c-1.8,0.6-3.2,2.1-4.4,3.5l-3,3.5
	c-0.8,0.8-1.3,1.7-1.8,2.6c-0.4,1-0.2,2.2,0.6,2.9"/>
<path class="st22" d="M381.1,522.9c-2.1,0.1-4.4,0.3-5.8,1.8c-0.6,0.7-1.1,1.5-1.5,2.3c-1.4,2.9-2.8,5.9-2.9,9.1
	c-0.1,2.6,0.7,5.1,1.1,7.6c0.3,2.1-0.5,4.3-0.7,6.4c2.9-0.8,5.6-1.8,8.3-3.2c1.5-1,3.2-1.8,4.9-2.5c2.5-0.8,6.6,0.6,9,1.8
	c0.1-1.7-1.1-4.5-1-6.2c0-0.7,0.1-1.4,0.4-2c0.3-0.7,0.8-1.4,1.2-2c1.8-3,1.5-6.8-0.7-9.5c-2.1-2.3-5.4-3.2-8.5-3.6
	c-2-0.2-3.9-0.3-5.9-0.2"/>
<path class="st17" d="M335.9,493.6l-0.3-2.8c2.3,0.6,4.5-1.4,6-3.4s2.8-4.4,5.1-5.3c2.7-1,5.6,0.6,8.2,2c2.9,1.6,6.1,2.7,9.4,3.1
	c0.5,0,1.1,0.1,1.6,0.3c1.7,0.6,2.5,2.7,2.8,4.7s0.2,4,1,5.7c0.6,1.3,1.8,2.3,2.4,3.5c1.8,3.5,0.1,8.2,2,11.6l-4.7-4.3
	c-0.4-0.4-1-0.8-1.5-0.5c-0.5,0.3-0.4,0.9-0.6,1.3c-0.5,1.2-2,1.8-3.2,1.3c0,0-0.1,0-0.1,0c-1.2-0.7-2.2-1.6-3-2.7
	c-1.9-2.5-4.5-4.4-7.4-5.6c-2.6-1-5.4-0.8-7.9,0.5c-2.2,1.2-3.8,4.1-6.5,4.2c-3.7,0.1-5.2-6.7-6.9-9.4c1.3-1,1.7-2.7,1-4.1
	C333.5,493.4,335.9,493.2,335.9,493.6z"/>
<linearGradient id="SVGID_1_" gradientUnits="userSpaceOnUse" x1="719.921" y1="12.9241" x2="719.921" y2="277.0117" gradientTransform="matrix(1 0 0 -1 -51.77 760.98)">
	<stop  offset="0" style="stop-color:#808080;stop-opacity:0.25"/>
	<stop  offset="0.54" style="stop-color:#808080;stop-opacity:0.12"/>
	<stop  offset="1" style="stop-color:#808080;stop-opacity:0.1"/>
</linearGradient>
<path class="st24" d="M730.4,742.6c-0.7-3-1.1-5.7-1.1-5.7c0.1-2-0.4-4-1.3-5.7v-0.8l0,0v-6.1c0.4-1.1,0.9-2.2,1.5-3.2
	c1.1-1.9,0-8.9,0-8.9s-4-9.8-3.1-16.1c1-6.2-8.3-27.7-8.3-27.7c0.1-2.1,0.4-4.1,0.9-6.2c0.1-0.4,0.1-0.9,0.1-1.3c0-0.1,0-0.1,0-0.2
	v0.1c-0.1-4.1-3.4-11.8-3.4-11.8l0.4-14.7c0,0,2.1-8.7-1.3-20.3c-1.2-4.1-1.9-7.3-2.4-9.8c-0.1-0.3-0.1-0.6-0.1-0.8
	c7-1.1,12.3-2,12.3-2s-4-16.9-6.8-19.9c-2.7-3-4.9-12.3-4.9-12.3s-1.4-12,0.9-15.4c2.3-3.5,2.6-9.5,2.6-9.5s5.3-3.8,5.9-5.5
	c0.9-2.4,1.5-4.9,1.8-7.5c0-2-0.7-3.8-0.4-4.9c0.2-1.1-1.5-5.1-0.7-7c0.2-0.6,0.3-1.2,0.3-1.8c0,0,0,0,0-0.1l0,0
	c0-1.7-0.2-3.3-0.5-5c-1.5-1.3-3.3-2.2-5.2-2.8l-0.1-0.4l-0.3-1.2c-0.2-0.1-0.3-0.2-0.5-0.3v-0.4v-1.8l0.8-3.9
	c1.6-6.7-7.3-7.7-7.3-7.7c-0.5-1-1.4-1.8-2.5-2.2c-1.8-0.6-0.3,10.1,0.5,10.8c0.6,0.5,2.6,3.9,3.5,5.5l0,0l0.2,0.3
	c-0.1,0.1-0.3,0.3-0.4,0.4l0.3,2.3l0.1,0.4c-0.6,0.7-1.1,1.6-1.4,2.4c0,0,1.6,1.8,1.3,3.8c-0.1,1.6,0.1,3.2,0.5,4.6
	c-0.1-0.1-1.2-1.4-2.4-1.1s-4.4,1.3-4.4,1.3s-2.4,0.4-2.2,0.9s-1.6,2.9-1.6,2.9l-6.5-6.2c-0.1-0.2-0.1-0.4-0.2-0.6
	c-0.3-0.9-0.4-1.7-0.6-2.6c0.7-0.2,1.4-0.4,2.1-0.7c0.7-0.2,1.3-0.6,1.8-1.1c0.5-0.8,0.9-1.8,1-2.8c0.5-1.9,1.6-3.6,2.4-5.3
	c1.3-3,1.7-6.3,1.2-9.5c-0.1-1-0.4-2-1-2.8c-1.1-1.5-3-2-4.4-3.2c-1.4-1.2-2.3-2.9-3.9-3.8c-1.5-0.7-3.3-0.8-4.9-0.4
	c-3.2,0.5-6.3,1.7-9.1,3.3c-0.9,0.6-2,1.2-3.1,1c-0.9-0.3-1.7-0.8-2.2-1.6c0,0,0-0.1,0-0.1l-0.1-0.1c-0.7,1.5-1,3.2-1,4.8
	c0,0.3,0,0.5,0,0.8c0,0.1,0,0.2,0,0.3c0,0.1,0,0.2,0,0.2l0,0c0,0.1,0,0.2-0.1,0.3c-0.1,0.3-0.3,0.6-0.6,0.9
	c-0.2,0.2-0.4,0.5-0.5,0.7c0-0.1,0.1-0.2,0.1-0.3c-0.4,0.6-0.6,1.3-0.7,2c0,0.5,0.1,1.1,0.5,1.5c0.3,0.3,0.7,0.6,1,0.9
	c-0.1,0.7-0.2,1.4-0.2,2.1c0,4.4,2.3,8.4,6.1,10.7l0.2,0.6c0.9,2.2,1.3,4.6,1.2,7c0,0.2,0,0.3-0.1,0.5l-0.2,0.3l0,0
	c0,0-10.7,0.1-13.2-2.2c-2.5-2.3-6.3,5.6-6.3,5.6s-3.8,0.7-4.6,0s-5.3-0.1-5.3-0.1c-1.8-1.6-4.2-2.5-6.7-2.4
	c-1.5-1.1-3.1-2.1-4.9-2.7l0,0l-0.1,0l0,0c-0.8-0.3-1.6-0.4-2.4-0.3c0,0-5.3-4.3-6.8-6.7c-1.5-2.3-8.8-11-8.8-11v-0.4l-0.1-1.3
	c-0.2,0-0.4,0.1-0.7,0.1c0-0.1-0.1-0.3-0.1-0.4c-0.4-1.2-0.9-2.4-1.5-3.5c0,0,0-1.6,0.5-2s-0.2-6.2-0.2-6.2s-4.7-11-9-2.8
	c0,0-8,5.3-1.3,11.6c0,0,2.6,1.3,3.1,2.3c0.3,0.7,1.2,2.5,1.8,3.8l0.3,0.6l-0.1,0.1l0.1,1v0.4c-1.3,0.7-2.1,1.4-1.9,2
	c0.4,0.9,0.6,1.9,0.8,2.9c0,0,9.3,11.6,10.5,16.6c0,0,24.9,14.8,33.1,15.9l-1.4,7.4c-0.2,2-0.3,4-0.3,6c0.1,1.6-1,8.8-1,8.8
	s-1.4,10.5-2.6,12c-1.2,1.5-1,7.8-1,7.8c-0.3,3-0.8,6-1.6,9c-1.2,4-0.3,9-0.3,9s-4.2,9.5,5.8,3.1c0,0,4.9-0.3,10.5-0.5
	c0,0.2,0,0.4,0,0.6c0,0.7,0,1.5,0,2.3c-0.1,5.4-0.1,13,0.1,18.6c0.4,10,3.5,29.9,3.5,29.9v10c-0.2,0.9-0.3,1.9-0.3,2.9
	c-0.1,3.5,0.9,7,2.7,10l0.8,6.7c0,0,1.8,4.4,1.8,7c0,0.2,0,0.4-0.1,0.6c-0.1,0.3-0.1,0.7-0.1,1c-0.1,3,1.8,10.3,1.8,10.3
	s0.1,7.3,1.2,7.7c0.9,0.4-1.2,4.2-1.9,5.3c0-0.1,0-0.1,0-0.2c-0.1,0.1-0.1,0.2-0.1,0.2c-0.2,0.6-0.3,1.2-0.3,1.8
	c-0.1,1,0.3,2,1.2,2.6c2.1,1.3,3.2,2.3,1.4,2.8c-0.6,0.1-1.3,0.2-1.9,0.4c0-0.1-0.1-0.2-0.1-0.2c-0.5,0.2-0.8,0.7-0.7,1.2
	c0,0.9,0.2,1.7,0.7,2.5c0.8,1.9,1.8,3.7,3,5.4l0.9-0.1c-0.1,0.3-0.3,0.6-0.5,0.9c-0.3,0.5-0.7,0.8-1.2,1.1c-0.5,0.3-1,0.4-1.5,0.5
	c-1.2,0-2.3,0.6-3.1,1.5c-1.1,1.4-1.8,3.3,0.4,5l7.8,2.7c0,0,13.4,1.8,12.7-1.3s-1.1-5.7-1.1-5.7c0.1-1.8-0.3-3.7-1.1-5.4
	c-0.1-0.3-0.3-0.5-0.5-0.8l0.5-0.1c0,0,1-6.7,2.3-7.9c0.3-0.3,0.4-0.5,0.3-0.7c0.1-0.4-0.2-0.6-0.6-0.7l-0.1,0.3
	c-0.4-0.1-0.9-0.1-1.3-0.1c0,0-0.4-3.5,1-4.8c0.2-0.3,0.3-0.7,0.3-1c0-0.5,0-1-0.1-1.4l-0.1,0.1c-0.8-2.8-1.9-5.6-3.1-8.2
	c0,0-0.1-3.2,0.8-4.4c0.9-1.3-0.1-17.2-0.1-17.2s0.3-7.7-0.7-11.3c-1-3.6,1.2-7.8,1.2-7.8v-0.2v-0.1c0,0-0.1-0.5-0.1-1.2v0.1
	c-0.2-2-0.6-5.7-0.9-7.5c-0.4-2.4,0.1-14.1,0.1-14.1l2-5l3.5,8.6l3.7,11.4c1.1,1.4,1.7,3.1,1.9,4.9c0,0.1,0,0.2,0,0.4
	c0,0.3,0,0.5,0,0.8c-0.1,1.4,0.3,2.9,1.1,4.1c0,0,1,5.4,2.5,6.8s1.5,4,1.5,4s1.9,7.8,2.7,9.2c0.7,1.2,0.8,4.3,0.8,5.3l0,0v0.3
	c0,0,0.3,2.8,0.2,5.2c0,0.3,0,0.6,0,0.9v-0.1c0,0.6-0.1,1.3-0.2,1.9v0.1c0-0.1,0-0.3,0-0.4c-0.4,1.6-0.6,3.2-0.6,4.9
	c-0.1,2.8,0.4,6.2,2.1,8.1c3,3.4,4.8,3,4.8,3s-1.4,4.2-3.2,5.1c-0.1,0-0.1,0.1-0.2,0.1c0-0.1,0-0.2,0-0.2c-0.4,0.4-0.6,1-0.5,1.6
	c0.1,2.3,0.8,4.4,2.2,6.3c0.4,0.4,0.9,0.7,1.5,0.9l-0.3,0.2c-0.2,0.1-0.4,0.2-0.6,0.3c-0.3,0.1-0.6,0.2-0.9,0.2
	c-1.2,0-2.3,0.6-3.1,1.5c-1.1,1.4-1.8,3.3,0.4,5l7.8,2.7C717.8,743.9,731.1,745.7,730.4,742.6z"/>
<path class="st25" d="M679.1,747.6l-7.6-2.7c-2.1-1.7-1.4-3.6-0.4-5c0.7-0.9,1.8-1.5,3-1.5c0.5-0.1,1-0.2,1.5-0.5
	c0.5-0.3,0.9-0.6,1.2-1.1c0.6-0.9,0.9-1.9,0.9-2.9c0,0,8.3-2.4,10.5,0c0.4,0.4,0.7,0.9,1,1.5c0.7,1.7,1.1,3.5,1.1,5.4
	c0,0,0.4,2.6,1.1,5.7S679.1,747.6,679.1,747.6z"/>
<path class="st25" d="M716.1,743.9l-7.6-2.7c-2.1-1.7-1.4-3.6-0.4-5c0.7-0.9,1.8-1.5,3-1.5c0.3,0,0.6-0.1,0.9-0.2
	c0.2-0.1,0.4-0.2,0.6-0.3c2.1-1.2,2.1-4,2.1-4s8.3-2.4,10.5,0c0.3,0.3,0.6,0.7,0.8,1.1c0.9,1.8,1.3,3.8,1.3,5.7c0,0,0.4,2.6,1.1,5.7
	C729.1,745.6,716.1,743.9,716.1,743.9z"/>
<path class="st19" d="M688.2,733.8c0.4,0.4,0.7,0.9,1,1.5l0,0l-12.4,1.4c0.6-0.9,0.9-1.9,0.9-2.9C677.7,733.8,686,731.4,688.2,733.8
	z"/>
<path class="st19" d="M726,731.2v2.3c-1.9,3.2-11.3,2.5-14,0.9c0.2-0.1,0.4-0.2,0.6-0.3c2.1-1.2,2.1-4,2.1-4s8.3-2.4,10.5,0
	C725.5,730.4,725.8,730.8,726,731.2z"/>
<path class="st17" d="M727.5,721.2c-0.6,1-1.1,2.1-1.5,3.2v8.4c-2.1,3.5-13.1,2.3-14.6,0.4c-1.5-1.9-3.1-6.9-1.4-7.7
	s3.1-5.1,3.1-5.1s-1.8,0.4-4.6-3c-2.9-3.4-2-10.9-1.5-12.7c0.5-1.8,0-7.8,0-7.8s0.1-4.2-0.7-5.6c-0.8-1.4-2.6-9.2-2.6-9.2
	s0-2.6-1.5-4c-1.5-1.4-2.4-6.8-2.4-6.8c-0.9-1.3-1.2-3-1.1-4.5c0.3-2.6-1.8-5.5-1.8-5.5l-3.6-11.4l-3.4-8.6l-1.9,5
	c0,0-0.5,11.6-0.1,14.1c0.4,2.4,1.1,8.9,1.1,8.9s-2.1,4.2-1.2,7.8s0.6,11.3,0.6,11.3s0.9,16,0.1,17.2c-0.8,1.3-0.7,4.4-0.7,4.4
	s4.3,9.3,3,10.5c-1.4,1.2-0.9,4.8-0.9,4.8s3,0,1.7,1.3c-1.3,1.3-2.2,7.9-2.2,7.9l-12.8,1.6c-1.2-1.7-2.1-3.5-2.9-5.4
	c-1.7-3.9,0.3-3.5,2-3.9s0.6-1.5-1.4-2.8c-2-1.3-0.9-4.1-0.9-4.1s3.1-5.2,2-5.6s-1.2-7.7-1.2-7.7s-2.1-8.7-1.6-11
	c0.5-2.3-1.7-7.9-1.7-7.9l-0.7-6.7c-2.3-3.8-3.1-8.3-2.3-12.6V658c0,0-3-19.9-3.4-29.9c-0.3-6.4-0.2-15.2-0.1-20.7
	c0.1-3.1,0.1-5.1,0.1-5.1l45.7-4.8c0.1,2.3,0.4,4.6,0.8,6.8c0.5,2.5,1.2,5.8,2.3,9.8c3.3,11.6,1.3,20.3,1.3,20.3l-0.4,14.7
	c0,0,4,9.8,3.2,13.2c-0.5,2-0.8,4.1-0.9,6.2c0,0,9,21.5,8,27.7s3,16,3,16S728.6,719.3,727.5,721.2z"/>
<path class="st21" d="M701.4,666.1l13.9-1.9C715.3,664.2,707.4,672.2,701.4,666.1z"/>
<path class="st19" d="M713.3,650.6c0,0,0.5,4.9-2.5,6.8C710.8,657.4,716.2,656.6,713.3,650.6z"/>
<path class="st19" d="M712.5,635c0,0-11.6,9.6-15.8,8.8C692.4,643,712.5,635,712.5,635z"/>
<path class="st19" d="M684.2,670.6c0,0-8.8,2-9.1,5.6S684.2,670.6,684.2,670.6z"/>
<path class="st21" d="M686.1,714.7c0,0-12.5,2.3-8.9,3.9c3,1.2,6.2,2.2,9.4,2.8C686.5,721.4,690.6,721.6,686.1,714.7z"/>
<g class="st26">
	<path d="M674.7,721.1c-0.6-0.4-1.1-1.1-1.1-1.8l-0.1,0.2c0,0-1.2,2.8,0.9,4.1c0.2,0.1,0.4,0.3,0.7,0.4c0.4-0.1,0.8-0.1,1.2-0.2
		C677.7,723.4,676.7,722.4,674.7,721.1z"/>
	<path d="M690.7,720.2c0.3-0.3,0.3-1.1,0.1-2.2c-0.5,0.9-0.8,2-0.7,3.1C690.3,720.8,690.5,720.5,690.7,720.2z"/>
	<path d="M688.8,667.6c-0.5,1.2-0.8,2.6-0.9,3.9c0.2-0.9,0.6-1.8,1-2.6C688.9,668.9,688.9,668.4,688.8,667.6z"/>
	<path d="M717.4,662.1c0.1-0.4,0.1-0.8,0.1-1.2c-0.2,0.8-0.3,1.5-0.3,2.2C717.2,662.8,717.3,662.4,717.4,662.1z"/>
	<path d="M688.5,705.2c0.2-0.8,0.4-1.6,0.3-2.3c-0.4,0.9-0.6,1.9-0.6,3C688.3,705.6,688.4,705.4,688.5,705.2z"/>
	<path d="M691.1,725.2c-0.7,2.1-1.1,4.3-1.5,6.5l-12.8,1.5c-1.2-1.7-2.1-3.5-2.9-5.4c-0.1-0.3-0.3-0.6-0.4-0.9
		c-0.8,0.4-1.1,1.1-0.1,3.5c0.7,1.9,1.7,3.7,2.9,5.4l12.8-1.5c0,0,1-6.7,2.2-7.9C692.1,725.6,691.7,725.3,691.1,725.2z"/>
	<path d="M674.2,706.2c0,0,0.1,7.3,1.2,7.7l0,0c0.5-1.2,0.9-2.3,0.4-2.5c-1.1-0.4-1.2-7.7-1.2-7.7s-2.1-8.7-1.6-11
		c0.5-2.3-1.7-7.9-1.7-7.9l-0.7-6.7c-2.3-3.8-3.1-8.2-2.3-12.6v-10.3c0,0-3-19.9-3.4-29.9c-0.3-6.4-0.2-15.2-0.1-20.7
		c0-1,0-1.9,0-2.6h-0.4c0,0-0.1,2-0.1,5.1c-0.1,5.5-0.2,14.3,0.1,20.7c0.4,10,3.4,29.9,3.4,29.9v10.3c-0.8,4.4,0.1,8.9,2.4,12.7
		l0.7,6.7c0,0,2.2,5.6,1.7,7.9C672.1,697.5,674.2,706.2,674.2,706.2z"/>
	<path d="M711.9,730.3c-1-1.5-1.7-3.2-2-5c-1.3,1.2,0.2,5.8,1.6,7.6c1.4,1.8,12.5,3.1,14.6-0.4v-2
		C723.2,733.2,713.3,732.1,711.9,730.3z"/>
	<path d="M728,718.3c-0.6,1-1.1,2.1-1.5,3.2v1.5c0.2-0.5,0.6-1.3,1.1-2.1C727.9,720,728,719.1,728,718.3L728,718.3z"/>
	<path d="M712.5,720c0.4-0.8,0.8-1.7,1-2.5c0,0-1.8,0.4-4.7-3c-2.1-2.5-2.2-7.1-1.9-10.2c-0.5,1.8-1.4,9.3,1.5,12.7
		C710.4,719.3,711.8,719.9,712.5,720z"/>
	<path d="M707,696.6c0.2,2.1,0.3,4.2,0.2,6.3c0.1-0.4,0.1-0.7,0.2-1c0.5-1.8,0-7.8,0-7.8s0.1-4.2-0.7-5.6c-0.8-1.4-2.6-9.2-2.6-9.2
		s0-2.6-1.5-4c-1.5-1.4-2.4-6.8-2.4-6.8c-0.9-1.3-1.2-3-1.1-4.5c0.3-2.6-1.8-5.5-1.8-5.5l-3.6-11.4l-3.4-8.5l-1.9,5
		c0,0,0,0.6-0.1,1.6l1.5-4l3.4,8.6l3.6,11.4c0,0,2.1,2.9,1.8,5.5c-0.2,1.6,0.2,3.2,1.1,4.5c0,0,0.9,5.4,2.4,6.8c1.5,1.4,1.5,4,1.5,4
		s1.8,7.8,2.6,9.2C707.2,692.3,707,696.6,707,696.6z"/>
</g>
<path class="st27" d="M715.9,502l-0.8,3.9l0,1.8v1.3l-4.4,0.5l-0.5-0.9l0,0c-0.9-1.7-2.8-5-3.4-5.5c-0.8-0.7-2.3-11.4-0.5-10.8
	c1.1,0.4,1.9,1.2,2.5,2.2C708.8,494.4,717.5,495.3,715.9,502z"/>
<path class="st19" d="M715.2,508.8l-4.4,0.5l-0.5-0.9l0,0c1.2-1.4,3.3-1.7,4.9-0.8L715.2,508.8z"/>
<path class="st28" d="M716.3,510.9l-5.8,1.4l-0.1-0.9l-0.3-2.3c1.3-1.8,3.8-2.1,5.6-0.8c0,0,0,0,0,0l0.3,1.2L716.3,510.9z"/>
<path class="st27" d="M622,502.4l-6.2,3.3l-0.6-1.2c-0.6-1.2-1.5-3.1-1.8-3.8c-0.4-1-3-2.3-3-2.3c-6.5-6.2,1.2-11.5,1.2-11.5
	c4.1-8.3,8.7,2.8,8.7,2.8s0.6,5.8,0.2,6.2c-0.4,0.4-0.4,2-0.4,2c0.6,1.1,1.1,2.3,1.5,3.5C621.9,502.1,622,502.4,622,502.4z"/>
<path class="st19" d="M622,502.4l-6.2,3.3l-0.6-1.2c0.9-0.7,4-3.3,5-3.1c0.5,0.1,1,0.1,1.5,0C621.9,502.1,622,502.4,622,502.4z"/>
<path class="st28" d="M622.7,504.3l-7,3.4l-0.1-1.5l-0.1-1c0,0,4-3.5,5.3-3.3c0.6,0.1,1.2,0.1,1.8,0l0.1,1.3L622.7,504.3z"/>
<path class="st27" d="M699,527.6c0,0-30.4,3.4-24.7,1.6c4-1.3,5.5-3.8,5.9-6.6c0.2-2.4-0.2-4.8-1.1-7c-0.7-1.9-1.6-3.8-2.7-5.5
	c0,0,23.3-12.8,18.6-1.2c-0.7,1.8-1.2,3.6-1.3,5.5c-0.1,1.9,0.1,3.8,0.6,5.6C695,523,696.7,525.6,699,527.6z"/>
<path class="st19" d="M694.9,508.9c-0.7,1.8-1.2,3.6-1.3,5.5c-2.2,1.8-4.6,1.8-7.7,1.8c-2.4,0-5,0.6-6.9-0.6
	c-0.7-1.9-1.6-3.8-2.7-5.5C676.2,510.1,699.5,497.3,694.9,508.9z"/>
<circle class="st27" cx="685.4" cy="504.4" r="12.6"/>
<path class="st19" d="M699,527.6c0,0-30.4,3.4-24.7,1.6c4-1.3,5.5-3.8,5.9-6.6c1.5-1.6,4.6-2.8,6.5-3.5c1.8-0.6,3.7-0.6,5.5-0.1
	c0.7,0.2,1.4,0.5,2,0.9C695,522.9,696.7,525.6,699,527.6z"/>
<path class="st19" d="M716.3,510.9l-5.8,1.4l-0.1-0.9c1.3-1.8,3.5-2.5,5.6-1.9L716.3,510.9z"/>
<path class="st19" d="M622.7,504.3l-7,3.4l-0.1-1.5c2.3-1.2,4.6-2.3,7-3.1L622.7,504.3z"/>
<path class="st19" d="M711,604.3c-11.8,1.9-28.6,4.3-31.2,3.5c-2.2-0.7-9.3-0.6-15.4-0.4c0.1-3.1,0.1-5.1,0.1-5.1l45.7-4.8
	C710.3,599.8,710.5,602.1,711,604.3z"/>
<path class="st22" d="M722.8,601.5c0,0-38.8,6.7-43,5.4c-4.2-1.3-25.5,0.1-25.5,0.1c-9.6,6.4-5.6-3.1-5.6-3.1s-0.9-5,0.3-9
	c0.8-2.9,1.3-6,1.6-9c0,0-0.2-6.3,0.9-7.8c1.2-1.5,2.5-12.1,2.5-12.1s1.1-7.2,1-8.8s0.3-6,0.3-6l1.4-7.4c-7.9-1.1-32-15.9-32-15.9
	c-1.2-5-10.2-16.6-10.2-16.6c-0.1-1-0.4-1.9-0.7-2.9c-0.6-1.7,8.9-5.1,8.9-5.1s7.1,8.7,8.6,11c1.5,2.3,6.6,6.7,6.6,6.7
	c0.8-0.1,1.6,0,2.3,0.3h0.1l0,0c1.7,0.7,3.3,1.6,4.7,2.7c2.4-0.1,4.7,0.8,6.5,2.4c0,0,4.3-0.6,5.1,0.1c0.7,0.7,4.4,0,4.4,0
	s3.7-7.8,6.2-5.6c2.4,2.3,12.8,2.2,12.8,2.2c1.4-1.8,4.7-3.1,6.8-3.8c1.8-0.6,3.7-0.6,5.5-0.1c0.8,0.2,1.5,0.6,2.2,1.1l6.3,6.2
	c0,0,1.8-2.3,1.6-2.9c-0.2-0.5,2.1-0.9,2.1-0.9s3.1-0.9,4.2-1.3c1.2-0.3,2.2,0.9,2.3,1.1c-0.5-1.5-0.6-3.1-0.5-4.6
	c0.1-1.4-0.4-2.8-1.3-3.8c3.7-9,12.1-1.4,12.1-1.4s0.9,5,0.1,6.9c-0.8,1.9,0.9,5.9,0.6,7s0.4,2.9,0.4,4.9c-0.2,2.6-0.8,5.1-1.7,7.5
	c-0.6,1.7-5.7,5.5-5.7,5.5s-0.3,6-2.5,9.5c-2.2,3.5-0.9,15.4-0.9,15.4s2.1,9.3,4.8,12.3S722.8,601.5,722.8,601.5z"/>
<path class="st19" d="M666.2,532c0,0-1.2-3.5-2.2-3.8c-1.1-0.4-2.1-0.8-3.1-1.4l0.7-1.3c0,0,4,1.1,4.6,2.2
	C666.8,528.9,666.2,532,666.2,532z"/>
<path class="st19" d="M645,524.3c-0.2,1.1-9.6,2-9.6,2l4.8-4.8l0,0l0.1,0l0,0C641.9,522.2,643.5,523.1,645,524.3z"/>
<circle class="st29" cx="617.7" cy="509.8" r="0.8"/>
<circle class="st29" cx="618.8" cy="511.4" r="0.8"/>
<circle class="st29" cx="619.9" cy="513" r="0.8"/>
<circle class="st29" cx="621" cy="514.7" r="0.8"/>
<circle class="st29" cx="720.6" cy="514.6" r="0.7"/>
<circle class="st29" cx="720.7" cy="516.2" r="0.7"/>
<circle class="st29" cx="720.8" cy="517.7" r="0.7"/>
<path class="st19" d="M666.3,560.6c-0.1-0.1,23.7,30,42.2,12.6C708.5,573.2,679.2,577.2,666.3,560.6z"/>
<path class="st19" d="M652.6,576.3c0,0,14.3,0.4,15.8,4.5v4.3c-0.8,0.5-1.8,0.5-2.6,0c-1.4-0.8-10.1-5.2-13.1-3L652.6,576.3z"/>
<path class="st22" d="M652.8,576.3c0,0,13.6,0.4,15.1,4.3v4.1c-0.8,0.4-1.7,0.4-2.5,0c-1.4-0.7-9.7-4.9-12.5-2.9V576.3z"/>
<path class="st19" d="M660.3,545.3c1.5,3.4,3.3,6.6,5.5,9.5c2.4,3.2,5.3,6.1,8.7,8.4C674.5,563.1,660.6,547.3,660.3,545.3z"/>
<path class="st19" d="M655.7,528.7c0,0,2.4,10.3,8.5,13.8L655.7,528.7z"/>
<path class="st19" d="M652,529.8c-0.1-0.2-2.1,8.1,7.9,12.7C659.9,542.5,655.7,541.1,652,529.8z"/>
<path class="st19" d="M714.3,522.9c-0.2,0,4.9,3.3,6.3,4.8C720.6,527.6,717.3,522.7,714.3,522.9z"/>
<path class="st25" d="M682,515.8c0.1,0.7,0.4,1.3,1,1.7c0.4,0.2,0.8,0.3,1.2,0.3c3.8,0.2,7.8,0.4,11.4-1.1c0.7-0.2,1.3-0.6,1.8-1.2
	c0.5-0.8,0.8-1.8,0.9-2.8c0.5-1.9,1.6-3.5,2.3-5.3c1.3-3,1.7-6.3,1.2-9.6c-0.1-1-0.4-2-1-2.8c-1-1.5-2.9-2-4.2-3.2
	c-1.3-1.2-2.2-2.9-3.8-3.8c-1.5-0.7-3.2-0.8-4.7-0.4c-3.1,0.5-6.1,1.7-8.9,3.3c-0.9,0.6-1.9,1.2-3,1c-0.9-0.3-1.7-0.9-2.2-1.7
	c-0.7,1.7-1.1,3.6-0.9,5.5c0,0.3,0,0.6,0,0.8c-0.1,0.3-0.3,0.6-0.6,0.9c-0.9,1.1-1.5,2.8-0.6,3.9c0.4,0.5,1,0.7,1.4,1.2
	c0.7,0.9,0.5,2.2,0.4,3.3c0,0.4,0.1,0.8,0.3,1.1c0.4,0.4,1,0.5,1.6,0.4c0.5-0.2,1.1-0.2,1.7-0.2c0.6,0.2,1.1,0.6,1.4,1.1
	C680.6,510.6,681.3,513.1,682,515.8z"/>
<g class="st30">
	<path d="M697.7,514.6c-0.5,0.5-1.1,0.9-1.8,1.1c-3.5,1.5-7.5,1.3-11.4,1.1c-0.4,0-0.8-0.1-1.2-0.3c-0.5-0.4-0.9-1-1-1.7
		c-0.7-2.7-1.4-5.2-3.2-7.4c-0.3-0.5-0.8-0.9-1.4-1.1c-0.6-0.1-1.1,0-1.7,0.2c-0.5,0.2-1.1,0-1.6-0.4c-0.2-0.3-0.3-0.7-0.3-1.1
		c0-1.1,0.3-2.4-0.5-3.3c-0.4-0.5-1-0.8-1.4-1.2c-0.5-0.7-0.6-1.7-0.2-2.5c-0.7,1.1-1,2.4-0.2,3.4c0.4,0.5,1,0.7,1.4,1.2
		c0.7,0.9,0.5,2.2,0.4,3.3c0,0.4,0.1,0.8,0.3,1.1c0.4,0.4,1,0.5,1.6,0.4c0.5-0.2,1.1-0.2,1.7-0.2c0.6,0.2,1.1,0.6,1.4,1.1
		c1.8,2.3,2.5,4.7,3.2,7.4c0.1,0.7,0.4,1.3,1,1.7c0.4,0.2,0.8,0.3,1.2,0.3c3.8,0.2,7.8,0.4,11.4-1.1c0.7-0.2,1.3-0.6,1.8-1.2
		c0.2-0.3,0.4-0.7,0.5-1C697.8,514.5,697.8,514.5,697.7,514.6z"/>
	<path d="M673.3,496.2c0.2-0.2,0.3-0.4,0.4-0.6c0-0.3,0-0.6,0-0.8c-0.1-1.5,0.1-3.1,0.6-4.6l-0.1-0.1c-0.8,1.7-1.1,3.6-0.9,5.5
		C673.2,495.8,673.3,496,673.3,496.2z"/>
</g>
<path class="st19" d="M679.8,523.4c0,0,15.7,2.1,17.1-0.3"/>
<path class="st19" d="M710.4,516.9c0,0,8.7,0,10.7,3.3"/>
<path class="st3" d="M512.2,232.3c0,0,19.4-0.6,25,9.4c0,10.1,0,30.6,0,30.6s-11-9.5-25-9C512.2,243.8,512.2,232.3,512.2,232.3z"/>
<path class="st3" d="M562.2,232.3c0,0-19.4-0.6-25,9.4c0,10.1,0,30.6,0,30.6s11-9.5,25-9C562.2,243.8,562.2,232.3,562.2,232.3z"/>
<path class="st31" d="M516.4,242.3c0,0,11.3-0.1,16,5.9c0,5.9,0,3.3,0,3.3s-11.8-7.7-16-5.8C516.4,242.3,516.4,242.3,516.4,242.3z"
	/>
<path class="st31" d="M516.4,249.4c0,0,11.3-0.1,16,5.9c0,5.9,0,3.3,0,3.3s-11.8-7.7-16-5.8C516.4,249.4,516.4,249.4,516.4,249.4z"
	/>
<path class="st31" d="M541,244.7v9.6c0,0,4.2-4.7,9.8-4c0-8.7,0-8.7,0-8.7S546.2,240.5,541,244.7z"/>
<rect x="608.3" y="315.3" class="st3" width="60.9" height="60.9"/>
<path class="st32" d="M606.5,311.7c0,0,0.3,41.8-19.6,58.7c60.6,0,59.2,0,59.2,0s19.4-23.7,15.8-58.7
	C606.5,311.7,606.5,311.7,606.5,311.7z"/>
<rect x="619.6" y="308.2" class="st3" width="1.1" height="7.4"/>
<rect x="643.6" y="308.2" class="st3" width="1.1" height="7.4"/>
<text transform="matrix(1 0 0 1 611.3828 339.29)" class="st3 st33 st34">A</text>
<text transform="matrix(1 0 0 1 630.8193 355.124)" class="st3 st33 st34">P</text>
<path class="st3" d="M573.6,617.2h-44.3c-1.5,0-2.8-1.2-2.8-2.8V584c0-1.5,1.2-2.8,2.8-2.8h44.3c1.5,0,2.8,1.2,2.8,2.8v30.5
	C576.3,616,575.1,617.2,573.6,617.2z"/>
<polygon class="st5" points="561.1,599.2 541.7,610.4 541.7,588.1 "/>
<path class="st3" d="M567.8,466.9h-37c-1.8,0-3.2-1.4-3.2-3.2v-26.2c0-1.8,1.4-3.2,3.2-3.2h37c1.8,0,3.2,1.4,3.2,3.2v26.2
	C571,465.5,569.5,466.9,567.8,466.9z"/>
<text transform="matrix(1 0 0 1 531.1025 445.2246)" class="st5 st33 st35">Q</text>
<text transform="matrix(1 0 0 1 531.04 452.8506)" class="st5 st33 st35">Q</text>
<text transform="matrix(1 0 0 1 531.1025 459.9111)" class="st5 st33 st35">Q</text>
<path class="st5" d="M552.7,444.5h-13.3c-0.6,0-1.2-0.5-1.2-1.2l0,0c0-0.6,0.5-1.2,1.2-1.2h13.3c0.6,0,1.2,0.5,1.2,1.2l0,0
	C553.9,444,553.4,444.5,552.7,444.5z"/>
<path class="st5" d="M552.7,452.1h-13.3c-0.6,0-1.2-0.5-1.2-1.2v0c0-0.6,0.5-1.2,1.2-1.2h13.3c0.6,0,1.2,0.5,1.2,1.2v0
	C553.9,451.6,553.4,452.1,552.7,452.1z"/>
<path class="st5" d="M552.7,459h-13.3c-0.6,0-1.2-0.5-1.2-1.2l0,0c0-0.6,0.5-1.2,1.2-1.2h13.3c0.6,0,1.2,0.5,1.2,1.2l0,0
	C553.9,458.5,553.4,459,552.7,459z"/>
<circle class="st36" cx="568.5" cy="464.4" r="10.5"/>
<circle class="st32" cx="567.4" cy="463.8" r="10.5"/>
<text transform="matrix(1 0 0 1 560.4258 467.0166)" class="st3 st33 st37">A+</text>
<path class="st3" d="M863,528.1h-47.3c-1.8,0-3.2-1.4-3.2-3.2v-2.6c0-1.8,1.4-3.2,3.2-3.2H863c1.8,0,3.2,1.4,3.2,3.2v2.6
	C866.2,526.6,864.8,528.1,863,528.1z"/>
<path class="st3" d="M860.6,540.7h-42.6c-1.7,0-3.1-1.4-3.1-3.1v-2.9c0-1.7,1.4-3.1,3.1-3.1h42.6c1.7,0,3.1,1.4,3.1,3.1v2.9
	C863.7,539.4,862.3,540.7,860.6,540.7z"/>
<path class="st3" d="M839.6,523.6c0.3,7-0.1,22.3-10.2,26.4c-2.1,0.9-2.7,3.5-1.3,5.2l12,14.8c1.2,1.5,3.5,1.7,4.9,0.3l0.4-0.3
	c1.3-1.2,1.4-3.2,0.3-4.6l-6.7-8.1c-1.1-1.4-1-3.3,0.2-4.6c3.7-3.6,10.2-12.5,8.1-29.8c-0.2-1.7-1.6-3-3.3-3h-1
	C841.1,520.1,839.5,521.7,839.6,523.6z"/>
</svg>
