<?xml version="1.0" encoding="utf-8"?>
<!-- Generator: Adobe Illustrator 23.0.3, SVG Export Plug-In . SVG Version: 6.00 Build 0)  -->
<svg version="1.1" id="f2059cf3-5beb-4c16-b86e-a491cbb2d73f"
	 xmlns="http://www.w3.org/2000/svg" xmlns:xlink="http://www.w3.org/1999/xlink" x="0px" y="0px" viewBox="0 0 1096.5 806"
	 style="enable-background:new 0 0 1096.5 806;" xml:space="preserve">
<style type="text/css">
	.st0{fill:none;}
	.st1{opacity:0.2;fill:#009AE0;enable-background:new    ;}
	.st2{opacity:0.9;}
	.st3{fill:#00688F;}
	.st4{opacity:0.1;fill:#4285F4;enable-background:new    ;}
	.st5{fill:#FFFFFF;}
	.st6{fill:#C4C4C4;}
	.st7{fill:#FFFFFF;stroke:#C4C4C4;stroke-width:1.9406;stroke-miterlimit:10;}
	.st8{display:none;fill:#4285F4;}
	.st9{display:none;opacity:0.1;enable-background:new    ;}
	.st10{display:none;fill:#FFD037;}
	.st11{display:none;fill:#A8A8A8;}
	.st12{display:none;opacity:0.2;enable-background:new    ;}
	.st13{opacity:0.3;fill:#3A3768;enable-background:new    ;}
	.st14{fill:#FFFFFF;stroke:#C4C4C4;stroke-width:1.9406;stroke-miterlimit:10;enable-background:new    ;}
	.st15{fill:#4285F4;}
	.st16{fill:#514E7F;}
	.st17{fill:#464353;}
	.st18{fill:#A1616A;}
	.st19{opacity:0.1;enable-background:new    ;}
	.st20{fill:#FBBEBE;}
	.st21{opacity:5.000000e-02;enable-background:new    ;}
	.st22{fill:#3F3D56;}
	.st23{fill:#FFFFFF;stroke:#C4C4C4;stroke-width:2.9109;stroke-miterlimit:10;}
	.st24{fill:url(#SVGID_1_);}
	.st25{fill:#2D293D;}
	.st26{opacity:5.000000e-02;}
	.st27{fill:#FFCDD3;}
	.st28{fill:#DCE6F2;}
	.st29{fill:#575988;}
	.st30{opacity:0.1;}
	.st31{fill:#FFFFFF;stroke:#231F20;stroke-width:2.622821e-02;stroke-miterlimit:10;}
	.st32{fill:#C4C3C3;}
	.st33{font-family:'Avenir-Black';}
	.st34{font-size:19.959px;}
	.st35{font-size:6.5942px;}
	.st36{fill:#FFFFFF;stroke:#00688F;stroke-width:0.893;stroke-miterlimit:10;}
	.st37{font-size:11.1435px;}
</style>
<title>mobile marketing</title>
<image style="display:none;overflow:visible;" width="1080" height="1080" xlink:href="../Png files/icon background.png"  transform="matrix(0.8037 0 0 0.8037 134.8975 -20.7516)">
</image>
<rect x="11" y="-30" class="st0" width="868" height="868"/>
<path class="st1" d="M652,121.1c-62.8-2.2-122.6-22.5-179.7-44.6s-113.7-46.8-175-58.5c-39.4-7.6-84.5-8.6-116.2,12.5
	c-30.6,20.4-40.4,55.5-45.7,88c-4,24.5-6.3,50.3,4.6,73.3c7.6,15.9,21.1,29.3,30.4,44.6c32.5,53.1,9.5,118.6-25.7,170.4
	c-16.5,24.3-35.7,47.5-48.4,73.4c-12.7,25.9-18.6,55.5-7.5,82c11,26.2,37.4,45.8,65.9,59.7c57.9,28.1,126.1,36.1,192.7,40.7
	c147.3,10.1,295.4,5.7,443.1,1.3c54.7-1.6,109.6-3.3,163.3-11.7c29.9-4.7,60.7-12.1,82.4-30.1c27.5-22.8,34.3-61.5,15.9-90.1
	c-30.9-48-116.4-60-138.1-111.5c-11.9-28.4,0.3-60,17.6-86.3c37.1-56.4,99.3-105.9,102.6-170.5c2.3-44.3-27.6-88.7-73.9-109.6
	c-48.4-22-115.6-19.2-151.4,17.2C772.1,108.6,707.5,123,652,121.1z"/>
<g class="st2">
	<path class="st3" d="M718.8,254.4h4.2c1.2,0,2.2,1,2.2,2.2V323c0,1.2-1,2.2-2.2,2.2h-4.2c-1.2,0-2.2-1-2.2-2.2v-66.4
		C716.5,255.4,717.5,254.4,718.8,254.4z"/>
	<path class="st3" d="M433.1,198.9h0.4c1.2,0,2.2,1,2.2,2.2V220c0,1.2-1,2.2-2.2,2.2h-0.4c-1.2,0-2.2-1-2.2-2.2v-18.9
		C430.8,199.9,431.8,198.9,433.1,198.9z"/>
	<path class="st3" d="M432.9,241.6h1c1.2,0,2.2,1,2.2,2.2v36.2c0,1.2-1,2.2-2.2,2.2h-1c-1.2,0-2.2-1-2.2-2.2v-36.2
		C430.7,242.6,431.7,241.6,432.9,241.6z"/>
	<path class="st3" d="M433,296.4h0.7c1.2,0,2.2,1,2.2,2.2v36.5c0,1.2-1,2.2-2.2,2.2H433c-1.2,0-2.2-1-2.2-2.2v-36.5
		C430.8,297.4,431.8,296.4,433,296.4z"/>
	<path class="st3" d="M471.4,121.8h211.9c20.9,0,37.8,16.9,37.8,37.8v508.8c0,20.9-16.9,37.8-37.8,37.8H471.4
		c-20.9,0-37.8-16.9-37.8-37.8V159.6C433.6,138.7,450.5,121.8,471.4,121.8z"/>
	<path class="st3" d="M553.4,139.2H586c2.1,0,3.8,1.7,3.8,3.8v0.6c0,2.1-1.7,3.8-3.8,3.8h-32.7c-2.1,0-3.8-1.7-3.8-3.8V143
		C549.6,140.9,551.3,139.2,553.4,139.2z"/>
	<circle class="st3" cx="600.5" cy="143.3" r="4.6"/>
</g>
<ellipse class="st4" cx="260.2" cy="719.7" rx="194" ry="19.8"/>
<ellipse class="st4" cx="691.7" cy="785.7" rx="90.9" ry="9.3"/>
<ellipse class="st4" cx="878.3" cy="729.8" rx="90.9" ry="9.3"/>
<path class="st5" d="M680.5,137h-32.9v4c0,10.4-8.4,18.8-18.8,18.8l0,0h-105c-10.4,0-18.8-8.4-18.8-18.8c0,0,0,0,0,0v-4h-30.9
	c-12.6,0-22.8,10.2-22.8,22.8c0,0,0,0,0,0v508.4c0,12.6,10.2,22.8,22.8,22.8c0,0,0,0,0,0h206.4c12.6,0,22.8-10.2,22.8-22.8V159.8
	C703.4,147.2,693.2,137,680.5,137z"/>
<rect x="481.7" y="438.3" class="st6" width="75.7" height="75.7"/>
<rect x="475" y="200.6" class="st7" width="75.7" height="75.7"/>
<path class="st8" d="M820.7,96.1c0,0-81.7-4.9-72.1,52.3c0,0-1.9,10.1,7.3,14.7c0,0,0.1-4.2,8.4-2.8c2.9,0.5,5.9,0.6,8.9,0.4
	c4-0.3,7.8-1.8,10.9-4.5l0,0c0,0,23-9.5,31.9-47c0,0,6.6-8.2,6.3-10.3l-13.8,5.9c0,0,4.7,9.9,1,18.2c0,0-0.4-17.9-3.1-17.5
	c-0.5,0.1-7.2,3.4-7.2,3.4s8.1,17.3,1.9,29.9c0,0,2.3-21.3-4.5-28.7l-9.7,5.7c0,0,9.5,17.9,3.1,32.5c0,0,1.6-22.4-5.1-31.1l-8.8,6.9
	c0,0,8.9,17.6,3.5,29.7c0,0-0.7-26.1-5.4-28c0,0-7.7,6.8-8.9,9.6c0,0,6.1,12.8,2.3,19.6c0,0-2.3-17.4-4.2-17.5
	c0,0-7.7,11.5-8.5,19.4c0,0,0.3-11.7,6.6-20.5c0,0-7.4,1.3-11.7,6.1c0,0,1.2-8.1,13.6-8.8c0,0,6.3-8.7,8-9.3c0,0-12.4-1-19.9,2.3
	c0,0,6.6-7.7,22.1-4.2l8.7-7.1c0,0-16.3-2.2-23.2,0.2c0,0,8-6.8,25.5-1.8l9.5-5.6c0,0-13.9-3-22.2-1.9c0,0,8.7-4.7,24.9,0.4l6.8-3
	c0,0-10.2-2-13.2-2.3s-3.1-1.1-3.1-1.1c6.5-1.1,13.2-0.3,19.2,2.2C806.7,102.4,821,97,820.7,96.1z"/>
<path class="st8" d="M736.9,70.7c0,0-36.9-2.2-32.6,23.6c0,0-0.9,4.6,3.3,6.6c0,0,0.1-1.9,3.8-1.3c1.3,0.2,2.7,0.3,4,0.2
	c1.8-0.1,3.5-0.8,4.9-2l0,0c0,0,10.4-4.3,14.4-21.2c0,0,3-3.7,2.9-4.6l-6.2,2.7c0,0,2.1,4.5,0.4,8.2c0,0-0.2-8.1-1.4-7.9
	c-0.2,0-3.2,1.6-3.2,1.6s3.7,7.8,0.9,13.5c0,0,1-9.6-2-13l-4.4,2.6c0,0,4.3,8.1,1.4,14.7c0,0,0.7-10.1-2.3-14.1l-4,3.1
	c0,0,4,8,1.6,13.4c0,0-0.3-11.8-2.4-12.7c0,0-3.5,3.1-4,4.3c0,0,2.7,5.8,1,8.8c0,0-1-7.8-1.9-7.9c0,0-3.5,5.2-3.8,8.7
	c0.2-3.3,1.2-6.5,3-9.3c-2,0.4-3.8,1.3-5.3,2.7c0,0,0.5-3.7,6.2-4c0,0,2.9-3.9,3.6-4.2c0,0-5.6-0.5-9,1c0,0,3-3.5,10-1.9l3.9-3.2
	c0,0-7.4-1-10.5,0.1c0,0,3.6-3.1,11.5-0.8l4.3-2.6c0,0-6.3-1.3-10-0.9c0,0,3.9-2.1,11.3,0.2l3.1-1.4c0,0-4.6-0.9-5.9-1
	c-1.3-0.1-1.4-0.5-1.4-0.5c2.9-0.5,5.9-0.1,8.6,1C730.5,73.4,737.1,71.1,736.9,70.7z"/>
<ellipse class="st8" cx="68.3" cy="671.4" rx="39" ry="6.6"/>
<path class="st8" d="M84.4,660.6c1.8-1.4,3.1-3.4,3.7-5.6c0.5-2.2-0.5-4.9-2.6-5.7c-2.4-0.9-4.9,0.7-6.9,2.4
	c-1.9,1.7-4.2,3.6-6.7,3.2c2.6-2.4,3.8-6,3.1-9.5c-0.1-0.7-0.4-1.4-0.9-1.9c-1.3-1.4-3.7-0.8-5.3,0.3c-5,3.6-6.5,10.4-6.5,16.6
	c-0.5-2.2-0.1-4.6-0.1-6.8c0-2.2-0.6-4.9-2.6-6c-1.2-0.6-2.5-1-3.9-0.9c-2.3-0.1-4.8,0.1-6.3,1.8c-1.9,2.1-1.4,5.5,0.3,7.8
	c1.7,2.2,4.2,3.7,6.6,5.3c1.9,1.1,3.5,2.6,4.7,4.5c0.1,0.3,0.3,0.5,0.3,0.8h14.2C78.8,665.1,81.7,663,84.4,660.6z"/>
<path class="st8" d="M835.1,579.2c0,0,8.4,11-3.9,27.6c-12.3,16.6-22.4,30.6-18.3,40.9c0,0,18.5-30.8,33.6-31.2
	C861.6,616,851.7,597.7,835.1,579.2z"/>
<path class="st9" d="M835.1,579.2c0.7,1.1,1.3,2.2,1.7,3.4c14.7,17.3,22.5,33.4,8.4,33.8c-13.2,0.4-29,23.9-32.7,29.9
	c0.1,0.5,0.3,0.9,0.4,1.4c0,0,18.5-30.8,33.6-31.2C861.6,616,851.7,597.7,835.1,579.2z"/>
<path class="st10" d="M850.8,593.2c0,3.9-0.4,7-1,7s-1-3.1-1-7s0.5-2,1.1-2C850.4,591.2,850.8,589.3,850.8,593.2z"/>
<path class="st10" d="M856.1,597.8c-3.4,1.8-6.3,3-6.6,2.5c-0.3-0.5,2.3-2.3,5.7-4.2c3.4-1.9,2-0.5,2.3,0
	C857.8,596.6,859.5,595.9,856.1,597.8z"/>
<path class="st8" d="M790.8,579.2c0,0-8.4,11,3.9,27.6c12.3,16.6,22.4,30.6,18.3,40.9c0,0-18.5-30.8-33.6-31.2
	S774.2,597.7,790.8,579.2z"/>
<path class="st9" d="M790.8,579.2c-0.7,1.1-1.3,2.2-1.7,3.4c-14.7,17.3-22.5,33.4-8.4,33.8c13.2,0.4,29,23.9,32.7,29.9
	c-0.1,0.5-0.3,0.9-0.4,1.4c0,0-18.5-30.8-33.6-31.2S774.2,597.7,790.8,579.2z"/>
<path class="st10" d="M775.2,593.2c0,3.9,0.4,7,1,7s1-3.1,1-7s-0.5-2-1.1-2C775.5,591.2,775.2,589.3,775.2,593.2z"/>
<path class="st10" d="M769.8,597.8c3.4,1.8,6.3,3,6.6,2.5c0.3-0.5-2.3-2.3-5.7-4.2c-3.4-1.9-2.1-0.5-2.3,0
	C768.2,596.6,766.5,595.9,769.8,597.8z"/>
<path class="st11" d="M777.9,646.2c0,0,23.5-0.7,30.5-5.8c7.1-5,36.1-11.1,37.8-3c1.7,8.1,35.3,40.2,8.7,40.4s-61.6-4.1-68.6-8.4
	C779.3,665.1,777.9,646.2,777.9,646.2z"/>
<path class="st12" d="M855.5,675c-26.5,0.2-61.6-4.1-68.6-8.4c-5.4-3.3-7.5-15-8.2-20.4h-0.8c0,0,1.5,18.9,8.5,23.2
	c7.1,4.3,42.1,8.6,68.6,8.4c7.6-0.1,10.3-2.8,10.1-6.8C864.1,673.5,861.2,675,855.5,675z"/>
<rect x="596.4" y="486.4" class="st13" width="75.7" height="75.7"/>
<rect x="485.7" y="579.1" class="st14" width="87" height="87"/>
<path class="st15" d="M527.8,225.3l-2.7,2.7c3.7,3.7,3.7,9.7,0,13.4c0,0,0,0,0,0l2.7,2.7C533,238.9,533,230.4,527.8,225.3z"/>
<rect x="616.4" y="474.7" transform="matrix(0.7415 -0.6709 0.6709 0.7415 -174.754 571.4724)" class="st5" width="75.7" height="75.7"/>
<rect x="595.2" y="291.8" class="st5" width="75.7" height="75.7"/>
<rect x="492.1" y="425.4" class="st7" width="75.7" height="75.7"/>
<path class="st15" d="M848.3,714.6c4.4,0.6,9,1,13.2-0.4c0.7-0.2,1.4-0.7,1.3-1.3c0-0.2-0.2-0.5-0.3-0.6c-1.6-2.4-2.9-4.9-4-7.6
	c0-0.1-0.1-0.3-0.2-0.3c-0.1-0.1-0.3-0.1-0.4,0c-1.9,0.5-3.6,1.8-5.6,2.3c-1,0.3-2,0.4-3,0.2c-0.9-0.1-2.1-0.8-2.9-0.7
	C846.9,708.9,848,711.6,848.3,714.6z"/>
<path class="st15" d="M931.7,707.2c2.9-1.9,5.9-4.1,7.6-7.2c0.1-0.2,0.2-0.4,0.2-0.6c0-0.2-0.1-0.4-0.2-0.6
	c-1.6-2.6-3.7-4.9-6.2-6.7c-1.3,0.9-2.5,2-3.5,3.2c-0.7,0.8-2.7,2-2.8,3.2c0,0.7,0.8,1.4,1.1,1.9c0.5,0.7,1,1.5,1.4,2.2
	C929.6,703,931.9,707.1,931.7,707.2z"/>
<path class="st16" d="M865.6,723.5c0.1,0.7-0.1,1.4-0.5,1.9c-0.3,0.3-0.7,0.5-1.1,0.7c-6.2,2.2-13.3-0.6-19.4,1.6
	c-1.3,0.4-2.5,1.1-3.7,1.5c-1.5,0.5-3.1,0.7-4.6,0.8c-2.2,0.2-4.4,0.3-6.5,0.4c-1.7,0.1-3.3,0-4.9-0.4c-1.6-0.4-3-1.5-3.8-3
	c-0.3-0.7-0.4-1.4-0.2-2.1c0.1-0.3,0.2-0.5,0.4-0.7c0.4-0.5,0.9-0.9,1.5-1.2l2.3-1.5c1.1-0.8,2.2-1.4,3.4-1.8
	c0.9-0.3,1.9-0.4,2.8-0.7c3.2-1,5.6-3.5,7.9-5.9l3.1-3.3c0.3-0.4,0.7-0.7,1.1-0.9c0.4-0.1,0.9-0.2,1.3-0.1c3,0.2,5.9,1.2,8.4,2.8
	c0.6,0.5,1.3,0.9,2.1,1.2c2,0.6,4.1,0.3,5.8-0.7c0.8-0.4,0.6-0.7,1-1.4c0.3-0.7,1.1-1.2,1.8-0.5c0.2,0.2,0.4,0.5,0.4,0.8
	c0.7,2.2,0.4,4.6,0.4,6.9c0,0.4,0,0.7,0.1,1.1c0.2,0.3,0.4,0.7,0.6,1c0,0.1,0.1,0.2,0.1,0.3C865.6,721.2,865.7,722.4,865.6,723.5z"
	/>
<path class="st17" d="M865.6,723.5c0.1,0.7-0.1,1.4-0.5,1.9c-0.3,0.3-0.7,0.5-1.1,0.7c-6.2,2.2-13.3-0.6-19.4,1.6
	c-1.3,0.4-2.5,1.1-3.7,1.5c-1.5,0.5-3.1,0.7-4.6,0.8c-2.2,0.2-4.4,0.3-6.5,0.4c-1.7,0.1-3.3,0-4.9-0.4c-1.6-0.4-3-1.5-3.8-3
	c-0.3-0.7-0.4-1.4-0.2-2.1c0.1-0.3,0.2-0.5,0.4-0.7c0.4,0.8,0.6,1.7,0.9,2.1c0.6,1.1,1.7,1.8,2.9,2.1c0.9,0,1.8-0.1,2.6-0.3
	c5.6-1.4,11.5-1.4,16.9-3.5c1.8-0.8,3.6-1.6,5.5-2.1c2-0.3,4-0.5,6-0.5c3.2-0.3,6.2-1.2,9.3-1.7
	C865.6,721.3,865.7,722.4,865.6,723.5z"/>
<path class="st16" d="M945.8,706.8c-0.3,2.3-1.8,4.4-3.4,6.1c-1.7,1.6-3.3,3.3-4.8,5.2c-1.6,2.4-2.3,5.5-4.4,7.5
	c-0.8,0.8-1.7,1.4-2.6,1.9c-1.1,0.6-2.2,1.2-3.4,1.6c-3.1,1-6.4,0.8-9.7,0.5c-1.1,0-2.1-0.2-3.1-0.6c-0.5-0.2-0.9-0.5-1.3-0.8
	c-0.8-0.5-1.5-1.2-1.9-2c-0.2-0.4-0.3-1-0.2-1.4c0.2-0.5,0.5-1,1-1.4c0.7-0.8,1.5-1.5,2.3-2.1c1.1-0.7,2.2-1.6,3-2.7
	c0.5-0.8,0.9-1.7,1.2-2.7c0.5-1.7,0.8-3.4,0.9-5.1c0-1.1,0.1-2.3,0.4-3.4c0.5-1.7,1.8-3.3,1.6-5.1c-0.1-0.3,0-0.5,0.1-0.8
	c0.2-0.2,0.4-0.3,0.6-0.4c1-0.4,2.1-0.6,3.2-0.7c1.1-0.1,2.2,0.4,2.9,1.2c0.5,0.5,0.7,1.3,1.4,1.5c0.3,0.1,0.7,0.1,1,0
	c1.6-0.2,3.4-0.4,4.6-1.4c1.2-1.1,1.9-2.6,1.9-4.2c0-0.6-0.3-1.2,0.7-1.4c0.7-0.1,1.3,0.6,1.6,1.1c1.4,1.7,2.5,3.6,3.1,5.7
	c0.2-0.1,0.4-0.1,0.6-0.1c0.8,0,1.6,0.4,2.1,1.1C945.7,704.7,945.9,705.8,945.8,706.8z"/>
<path class="st17" d="M945.8,706.8c-0.3,2.3-1.8,4.4-3.4,6.1c-1.7,1.6-3.3,3.3-4.8,5.2c-1.6,2.4-2.3,5.5-4.4,7.5
	c-0.8,0.8-1.7,1.4-2.6,1.9c-1.1,0.6-2.2,1.2-3.4,1.6c-3.1,1-6.4,0.8-9.7,0.5c-1.1,0-2.1-0.2-3.1-0.6c-0.5-0.2-0.9-0.5-1.3-0.8
	c-0.8-0.5-1.5-1.2-1.9-2c0.6-0.3,1.3-0.5,2-0.5c1.4,0.1,2.5,1.4,3.9,1.9c1.9,0.6,3.9-0.8,5.9-1.3c1.3-0.3,2.7-0.2,3.9-0.6
	c1.1-0.4,2.1-1,2.9-1.8c1.2-0.8,2.2-1.9,3.1-3c0.7-1.1,1.4-2.4,1.8-3.6c1-2.4,2.3-4.8,3.7-7.1c0.2-0.4,0.5-0.7,0.8-1
	c0.3-0.3,0.7-0.5,1-0.7c1.3-1,1.9-2.7,2.3-4.3c0.1-0.5,0.3-1,0.5-1.4c0.8,0,1.6,0.4,2.1,1.1C945.7,704.8,945.9,705.8,945.8,706.8z"
	/>
<path class="st18" d="M806.4,499.5c1.6,1.2,3,2.8,4,4.6c1,1.8,6.3,16,6,18c1.7-1.8,8.7-2.1,10.4-3.8c0.7-0.7,4.7-4.4,5.3-5.3
	s5-2.7,5.5-3.6c1.8-3.3-12.9-15.5-11-18.8c0.1-0.1,0.2-0.3,0.2-0.5c0-0.2-0.1-0.3-0.2-0.4c-1.3-1.1-2.7-2.1-4.2-2.9
	c-1.5-0.8-2.7-2.2-3.2-3.9c-1.4,0.6-2.7,1.5-3.8,2.5c-2.7,2.3-5.3,4.7-7.9,7.1c-1,1-3,2.2-3.5,3.6
	C803.4,497.6,805.4,498.7,806.4,499.5z"/>
<path class="st16" d="M830.1,494.3c-2.3,1.5-4.4,3.2-6.3,5.1c-1.8,1.8-3.6,3.9-4,6.4c-0.2,1-0.2,2-0.3,3c-0.7,4.3-4.4,7.5-6.1,11.6
	c-0.5,1.3-0.8,2.6-1.1,3.9c-0.5,2.5-0.7,5.1-0.8,7.6c0,2.5,2.4,4.2,3.3,6.5c0.7,2.3,1.3,4.7,1.6,7.1c1,4.5,2.3,8.8,4,13.1
	c3.3,9.1,13.9,34.1,17.2,43.1c10-2.5,36.8-8.3,45.7-13.6c3-1.8-20.6-21.7-17.4-23.1c0.4-0.1,0.7-0.3,0.9-0.7c0.1-0.3,0.1-0.7,0-1
	c-3.2-13.9-13.1-25.2-17.6-38.8c-1.6-4.7-4.4-8.7-6.5-13.1c-1.9-4-3-8.5-5.3-12.3c-0.4-0.8-1-1.5-1.7-2.1c-0.6-0.4-1.2-0.8-1.9-1.1
	C832.7,495.3,831.4,494.9,830.1,494.3z"/>
<circle class="st18" cx="806.9" cy="482.2" r="15.7"/>
<path class="st17" d="M822.9,489.6c1.6-1.5,4-1.8,5.9-0.8c1.1,0.5,1.8,1.6,1.8,2.8l7.8,0.1c1.2,0,2.5,0.1,3.7,0.3
	c1.2,0.3,2.3,1,3.1,1.9c0.1,0.1,0.2,0.3,0.4,0.3c0.1,0,0.3,0,0.4-0.1c1.2-0.6,2.5-0.9,3.9-0.7c4.2,0.3,8.1,2.4,11.4,5
	c0.6,0.4,1.1,1,1.4,1.7c0.3,0.9,0,2,0.6,2.6c0,7.3,2.5,14.1,4.2,21.3c0.3,1.3,1.5,2.4,2.4,3.4c1,1.1,1.9,2.4,2.5,3.8
	c1.4,3.7-0.5,8,0.8,11.8c0.7,1.5,1.6,2.9,2.7,4.2c1.2,1.6,2,3.5,2.3,5.5c0.1,0.9-0.1,1.8,0,2.7c0.1,1.2,0.3,2.4,0.6,3.5
	c0.6,2.1,1.2,4.3,1.8,6.4c1,3.5,2.3,7.2,5.4,9c-7.5,1.3-15.4,2.5-22.5-0.1c-1-0.3-1.9-0.8-2.8-1.4c-2.6-1.8-3.8-5-4.9-7.9
	c-1.2-3.3-2.5-6.7-2.8-10.2c0-1.1-0.1-2.3-0.5-3.3c-0.7-1.9-2.6-3.1-4.4-4.2c-2-1.1-3.8-2.5-5.3-4.1c-1.5-1.7-2.3-3.9-2.2-6.2
	c0.1-1.1,0.6-2.2,0.6-3.3c0.1-1.1-0.5-2.2-1.5-2.7c-5.4-1.6-8-8.1-9.3-13.7c-0.5-2.9-0.8-5.8-0.7-8.7l-0.1-5.6
	c-1.5-1.4-2.4-3.3-2.4-5.4c0.1-0.6,0.1-1.2,0-1.8c-0.3-0.7-0.7-1.4-1.2-1.9C824.7,492.5,823.7,491.1,822.9,489.6z"/>
<path class="st17" d="M806.2,507.6c-0.2,1.8,0.2,3.6-0.2,5.3c-0.2,0.7-0.4,1.3-0.6,1.9c-0.6,2.5-0.3,5.1,0.7,7.4
	c1.1,2.3,2.3,4.5,3.8,6.5c0.5,0.7,0.9,1.5,1.2,2.3c0.3,0.8,0.4,1.7,0.5,2.6c0.4,3.5,1,7,1.9,10.4c0.7,3,1.7,6,3.7,8.4
	c0.4,0.5,0.9,0.9,1.5,1c0.4,0,0.9-0.1,1.3-0.3l4-1.5c0.4-0.1,0.7-0.3,1-0.5c0.4-0.4,0.6-1,0.6-1.6c0.3-3.2-0.7-6.5-1.8-9.5
	c-3.3-9.3-7.6-18.2-9.7-27.8c-0.6-2.7-0.9-6.8-2.9-8.9c-0.8-0.9-0.5-0.5-1.5,0c-0.5,0.2-1,0.5-1.4,0.7
	C807,504.9,806.3,506.2,806.2,507.6z"/>
<path class="st17" d="M882.9,565.2"/>
<path class="st15" d="M818.3,525.2c1.1,5.6,2.2,11.3,3.3,17l15.6-4.1c0.1-1.6-0.7-3.1-1.3-4.7c-1.4-3.6-1.5-7.5-2.6-11.2
	c-0.9-2.8-2.4-5.4-3.2-8.2c-0.5-1.6-0.7-3.3-1.2-5c-0.5-1.6-1.1-3.2-1.8-4.7c-0.9-2.2-2-4.4-3.4-6.3c-2,0.7-4.1,1.6-5.3,3.4
	c-0.6,1-0.9,2.2-1,3.4c-0.3,3.5,1,7,0.6,10.5C817.5,518.5,817.6,521.9,818.3,525.2z"/>
<path class="st17" d="M837.4,600.4c0.9,3.3-0.4,6.8-1.4,10.1c-1.6,5-2.6,10.1-3.2,15.2c-0.1,1.3-0.3,2.6-0.8,3.9
	c-0.6,1.1-1.2,2.1-1.9,3.1c-1.6,2.8-1.5,6.2-1.2,9.3c0.2,2.1,0.6,4.2,1,6.2c0.5,2.5,1.1,5.2,0.4,7.6c1.2-0.3,2.1,1.3,2,2.6
	c0,1.3-0.5,2.6,0.1,3.7c1.5,0.6,1.6,2.7,1.5,4.3c0,2.8,0.4,5.6,1.1,8.4c2.3,11.1,4.8,22.2,7.4,33.3c5.6,1.7,12.2,3.6,17.5,1.1
	c1.1-0.3,1.9-1.2,2.2-2.2c0.1-0.6,0-1.2-0.2-1.7l-2.5-9.2c-0.8-2.2-1.1-4.5-0.9-6.8c0.3-1.7,1-3.6,0.2-5.1c-0.3-0.5-0.7-1-1.1-1.4
	c-1.3-1.9-0.6-4.6-0.5-6.9c0-0.5,0-1.1-0.1-1.6c-0.2-0.6-0.4-1.2-0.7-1.7c-2.1-4.1-3.1-8.6-2.9-13.2c0.1-0.6,0-1.2-0.2-1.7
	c-0.2-0.2-0.3-0.5-0.4-0.7c-0.1-0.4-0.1-0.9,0.1-1.3c-0.8-0.6-1.5-1.2-2-1.9c1.3-0.9,1.7-2.7,0.9-4c-0.1-0.2-0.2-0.3-0.4-0.5
	c0.8-0.2,1.3-0.9,1.2-1.8c-0.1-0.3-0.2-0.6-0.5-0.8c-0.3-0.2-0.8-0.3-1-0.7c-0.4-0.5-0.1-1.2,0.2-1.7l1.6-2.8
	c1.2-2.1,1.4-4.6,2.7-6.7c1.7-3,3.1-6.1,4.1-9.3l4.4-12.3l3,2.6c1,0.8,1.8,1.7,2.5,2.8c0.4,1.1,0.7,2.2,0.8,3.4
	c1.1,6.7,5.3,12.5,6.9,19.1c0.2,1.5,0.7,2.9,1.4,4.3c0.3,0.4,0.6,0.8,0.8,1.2c0.2,0.7,0.3,1.3,0.3,2c0.3,2.7,1.7,5.2,4,6.8
	c1.5,1,3.3,1.7,4.1,3.3c0.2,0.5,0.4,1,0.7,1.4c0.7,0.9,2.3,1,2.6,2c0.2,0.6-0.2,1.3,0.2,1.9c0.2,0.2,0.4,0.4,0.7,0.5l4.3,2.2
	c4.9,2.4,7.3,8,10.9,12c1.2,1.3,2.3,2.8,3.3,4.3c1.5,2.8,2.3,6.2,4.9,8c0.7,0.4,1.3,0.8,1.9,1.4c0.8,1.1,0.5,2.6,0.6,3.9
	s1.1,3,2.4,2.6c-0.5,1.6-0.5,3.4,0,5c5.7-0.3,11.1-2.5,15.3-6.2c1.3-1.1,2.5-2.5,2.5-4.2c0-0.3,0-0.6-0.2-0.8
	c-0.3-0.3-0.6-0.6-1-0.7c-4-2.2-5.3-7.3-7.3-11.4c-1.8-3.6-4.4-6.8-6.7-10.2c-4.9-7.3-8.1-16.1-15.4-20.9c-1.6-1.1-3.5-2-4.3-3.7
	c-0.3-1-0.6-2.1-0.9-3.1c-0.3-1.1-1.2-1.8-2.3-1.9c0.5-1.6,0.6-3.2,0.5-4.9c0-0.7,0-1.4-0.2-2.1c-0.3-0.7-0.6-1.4-1.1-2.1
	c-1.9-3.2-2.9-6.9-2.7-10.7c0.1-1.9,0.4-3.9-0.2-5.7c-0.3-1-0.8-1.8-1.2-2.7c-0.5-1.6-0.8-3.3-0.8-5l-0.4-6.4
	c-0.1-2.1-0.3-4.2-0.8-6.3c-1.3-5-2.6-25.7-7.2-28.1s-12.4,13.6-17.5,14c-2.3,0.1-4.5,0.5-6.7,1.3c-3.4,1.3-6.3,3.7-9.1,6l-9.4,7.9
	C841.5,597.8,839.5,599.2,837.4,600.4z"/>
<path class="st17" d="M792.2,464.8c2.2-2.8,5.6-4.4,9.1-4.5c3.5,0,7,0.9,10.1,2.5c0.9,0.5,1.9,0.9,2.9,1.2c1.7,0.3,3.5-0.1,5,0.7
	c2,1.1,2.4,3.8,2.2,6c-0.2,2.3-0.6,4.7,0.6,6.6c0.4,0.6,0.8,1.1,1.2,1.7c0.4,1.2,0.3,2.5-0.1,3.7c-0.7-0.8-1.3-1.6-1.9-2.4
	c-0.7-0.8-1.9-1.3-2.7-0.7s-0.9,1.6-0.9,2.6c0,0.9-0.3,2.1-1.2,2.4c-0.7,0.1-1.5-0.2-1.9-0.8c-1.5-1.9-0.9-4.9-2.4-6.7
	c-0.9-1.1-2.3-1.6-3.1-2.7c-0.6-0.9-0.8-2-1.3-2.9c-0.5-0.9-1.8-1.6-2.7-1c-0.3,0.3-0.5,0.6-0.7,1c-1.1,1.6-3.1,2.2-4.9,1.5
	c-0.7-0.4-1.4-0.7-2.1-0.9c-1-0.1-1.9,0.4-2.4,1.3c-0.5,0.8-0.7,1.8-0.6,2.8c0,1.3,0.2,2.7-0.5,3.8c-0.3,0.4-0.7,0.7-1.1,1
	c-1.1,0.7-2.6,1.2-3.7,0.4c-0.7-0.7-1-1.6-0.8-2.6c0.2-0.9,0.5-1.8,0.8-2.7c0.6-2.1-0.2-4.4,0.5-6.3
	C790.1,467.9,791,466.3,792.2,464.8z"/>
<path class="st15" d="M800.6,511.7c-0.1,0.5,0,1,0.1,1.4c0.2,0.3,0.5,0.6,0.8,0.8c2.2,1.4,4.8,2.2,7.4,2.4c0.3,0,0.7,0.1,1,0.3
	c0.6,0.5,0.7,1.4,0.4,2.1c-0.3,0.7-0.5,1.4-0.5,2.2c0.2,1.4,1.8,2,3.2,2.2c1.9,0.4,4,0,5.6-1.1c1-1,1.8-2.2,2.3-3.5
	c3.8-8.7,5.2-18.4,9-27.2c0.3-0.6,0.5-1.2,0.6-1.8c0.1-0.6-0.2-1.3-0.7-1.7c-0.7-0.4-1.8-0.2-2.3-0.9c-0.2-0.4-0.2-0.8-0.4-1.2
	c-0.4-0.8-1.6-0.7-2.4-1.1c-0.6-0.3-1.1-1-1.7-1.2c-0.7,0-1.4,0.3-1.8,0.8c-2.3,2.1-3.5,5.1-4.7,7.9c-1.9,4.3-4.2,8.5-6.8,12.5
	c0.3-0.5-1.4-4-2.1-4.1c-1.2-0.2-2.7,1.8-3.4,2.6C802.2,505.6,801,508.5,800.6,511.7z"/>
<rect x="808.5" y="524.1" class="st5" width="75.7" height="75.7"/>
<path class="st18" d="M883.6,565.8c-1.3,1.2-2.5,2.4-3.6,3.8c-1.1,1.4-1.7,3.1-1.6,4.9c0,0.5,0.2,1,0.5,1.4c0.3,0.4,0.9,0.6,1.3,0.4
	c0.3-0.1,0.5-0.3,0.7-0.6c0.7-0.8,1.4-1.7,2.2-2.4c0.3-0.3,0.7-0.6,1-0.5c0.2,0.1,0.3,0.2,0.5,0.3c0.5,0.4,0.8,0.9,1,1.5
	c0.1,1-0.3,2.1-1,2.8c-0.8,0.7-1.3,1.6-1.7,2.6c-0.1,0.3-0.1,0.6,0,0.8c0.1,0.2,0.3,0.3,0.5,0.4c1.9,1.1,4.2,1.2,6.3,0.4
	c1.3-0.5,2.5-1.5,3.9-1.9c0.6-0.2,1.2-0.4,1.7-0.6c0.8-0.5,1.3-1.3,1.5-2.3c0.2-0.9,0.2-1.9,0.1-2.8c-0.2-3.6-1-7.2-2.3-10.6
	c-0.1-0.2-0.2-0.4-0.4-0.6c-0.2-0.1-0.4-0.2-0.6-0.2c-1.7-0.2-4.5-1-6.1-0.4c-0.6,0.3-1.1,0.8-1.4,1.3
	C885.5,563.8,883.6,565.3,883.6,565.8z"/>
<path class="st17" d="M883,564.3c0-1.6-2-5.5,1.2-5.8c0-1.7-2.5-2.8-2-4.6c0.2-0.6,0.7-1.1,0.7-1.7c0.2-1.8-3-2.7-2.5-4.4
	c0.2-0.7,0.9-1,1.1-1.7c0.4-1.5-2.4-2.2-2.4-3.8c0-0.5,0.3-1,0.3-1.6c0-0.7-0.6-1.2-0.9-1.7c-0.8-1.5-0.4-3.8-1.9-4.5
	c1,0.1,1.3-1.4,0.9-2.3s-1.3-1.7-1.3-2.7c0-0.4,0-0.7,0-1.1c-0.3-1-1.9-1-2.1-2c0-0.4,0-0.7,0-1.1c-0.1-0.8-0.9-1.2-1.6-1.4
	c-0.8-0.1-1.5-0.4-2.1-0.8c-0.5-0.4-1-1-1.5-0.6c-0.2,0.1-0.3,0.3-0.4,0.5c-0.6,0.7-1.7,0.4-2.5-0.1c-2.2-1.5-3.3-4.2-3.8-6.9
	c-0.5-2.6-0.5-5.4-1-8c-0.2-0.8-0.4-1.6-0.7-2.4c-0.5-0.8-0.8-1.6-1.1-2.4c-0.1-1.5,3-0.5,4.2-0.3c1.2,0.1,2.3,0.3,3.5,0.7
	c1.2,0.5,2.4,1,3.5,1.5c4.9,2.1,10.6,2.4,14.5,5.9c1.3,1.2,2.3,2.7,4,3.2c0.8,0.2,1.5,0.3,2.2,0.6c1.8,0.9,2.1,3.3,3.1,5
	c0.3,0.5,0.6,0.9,0.8,1.5c0.2,0.6,0.3,1.2,0.3,1.9l0.1,4.6c0.2,7.8,0.5,15.5-0.4,23.1c-0.3,2.5-0.7,5.1,0.1,7.6
	c0.2,0.7,0.5,1.3,0.6,1.9c0.2,0.8,0.2,1.6,0.3,2.4l0.1,3c0,0.2,0,0.5-0.1,0.7c-0.2,0.2-0.5,0.3-0.8,0.2c-4.2-0.4-8.4-2.7-12.3-1.3"
	/>
<path class="st18" d="M805.7,552.1c-0.2,0.1-0.3,0.2-0.5,0.4c-0.9,1.2-0.9,2.8,0,3.9c0.1,0.1,0.2,0.2,0.2,0.4c0,0.2,0,0.5-0.1,0.7
	c-0.4,0.8-0.3,1.8,0.3,2.4c0.3,0.3,0.7,0.4,0.9,0.7c0.3,0.6-0.1,1.3-0.1,1.9c0.1,0.9,1.1,1.3,1.9,1.4c0.7,0.2,1.4,0,1.9-0.5
	c0.3-0.5,0.3-1.2,0-1.7c-0.3-0.5-0.8-0.9-1.3-1.3c1,0,1.8-0.8,1.8-1.8c0.1-0.9-0.3-1.9-1.1-2.4c-0.2-0.1-0.4-0.3-0.4-0.5
	c0-0.2,0.2-0.6,0.4-0.8c1-1,1.7-3.3-0.1-3.9c-0.6-0.1-1.3-0.1-1.9,0.1c-0.5,0.1-0.5,0.4-0.8,0.6S806.1,551.9,805.7,552.1z"/>
<path class="st19" d="M824.7,485.1c-1,0-1.9,0.5-2.5,1.2c-0.6,1-1,2.1-1,3.3c-0.6,3.7-1.9,7.3-3.9,10.5"/>
<path class="st19" d="M828.1,487.8c-1.3,0-2.6,0.8-3.2,1.9c-0.4,1-0.7,2.2-0.8,3.3c-0.6,2.5-1.7,4.9-3.2,6.9"/>
<path class="st20" d="M326.1,558.8c0.6,6.1-4.1,12.1-2.7,18.1c0.3,1.3,0.8,2.5,1,3.8c0.6,3.6-1.6,6.9-3.6,9.9l-17.4,25.6
	c-0.7,1.1-1.5,2.2-2.5,3.1c-3.3,2.9-8.3,2.6-12.7,3.5c-3.1,0.6-6,1.9-8.5,3.8c-0.2,0.2-0.3,0.5-0.1,0.8c1.5,2,3.9,3.1,6.3,3
	c0.5,0.6,0,1.5-0.6,1.9c-1,0.7-2.2,0.8-2.4,2.4c-0.1,0.6,0,1.1,0.3,1.6c0.7,1.1,1.8,1.8,3,2.1c6,1.8,12.5-1.4,17-5.8
	c4.5-4.4,7.8-10,12.2-14.5c2.5-2.5,5.2-4.6,7.8-7c5-4.8,9-10.7,12.7-16.5c1.2-1.7,2.2-3.6,2.8-5.6c0.5-2,0.3-4.1,0.8-6.1
	c0.7-2.6,2.6-4.6,4.2-6.8c3.1-4.2,5.2-9.5,4.7-14.7c-0.4-5.2-3.6-10.4-8.6-12.2c-1.5-0.6-3.2-0.7-4.9-0.3c-2,0.6-3.5,2.3-4.9,3.9
	l-3.3,3.8c-0.8,0.8-1.5,1.8-1.9,2.9c-0.4,1.1-0.2,2.4,0.7,3.3"/>
<path class="st21" d="M326.1,558.8c0.6,6.1-4.1,12.1-2.7,18.1c0.3,1.3,0.8,2.5,1,3.8c0.6,3.6-1.6,6.9-3.6,9.9l-17.4,25.6
	c-0.7,1.1-1.5,2.2-2.5,3.1c-3.3,2.9-8.3,2.6-12.7,3.5c-3.1,0.6-6,1.9-8.5,3.8c-0.2,0.2-0.3,0.5-0.1,0.8c1.5,2,3.9,3.1,6.3,3
	c0.5,0.6,0,1.5-0.6,1.9c-1,0.7-2.2,0.8-2.4,2.4c-0.1,0.6,0,1.1,0.3,1.6c0.7,1.1,1.8,1.8,3,2.1c6,1.8,12.5-1.4,17-5.8
	c4.5-4.4,7.8-10,12.2-14.5c2.5-2.5,5.2-4.6,7.8-7c5-4.8,9-10.7,12.7-16.5c1.2-1.7,2.2-3.6,2.8-5.6c0.5-2,0.3-4.1,0.8-6.1
	c0.7-2.6,2.6-4.6,4.2-6.8c3.1-4.2,5.2-9.5,4.7-14.7c-0.4-5.2-3.6-10.4-8.6-12.2c-1.5-0.6-3.2-0.7-4.9-0.3c-2,0.6-3.5,2.3-4.9,3.9
	l-3.3,3.8c-0.8,0.8-1.5,1.8-1.9,2.9c-0.4,1.1-0.2,2.4,0.7,3.3"/>
<path class="st18" d="M193.4,584.9c1,3.1,1.9,6.1,3.1,9.1c2.1,5.2,4.8,10.1,8.1,14.7c2.1,3,4.3,5.9,6.7,8.7c3,3.5,6.3,7,7.3,11.5
	c0.6,2.6,0.4,5.3,0.7,7.9c0.3,2.6,1.1,5.4,3.3,7c1.6,1,3.5,1.6,5.4,1.8c1.3,0.2,3,0.3,3.7-0.9c0.2-0.5,0.4-1,0.4-1.5l0.3-3.9
	c0.1-0.8,0.4-1.9,1.2-1.9s1.3,1.1,1.9,1.6c1,0.6,2.3,0.2,2.9-0.9c0,0,0-0.1,0.1-0.1c0.4-1.1,0.5-2.3,0.1-3.4
	c-1.2-4.4-4.2-8.2-8.3-10.3c-1.4-0.6-2.8-1.3-4-2.1c-1.3-1.1-2.4-2.5-3.2-4c-7.3-12.1-14.7-24.3-19.9-37.4c-1-2.3-1.7-4.8-2-7.4
	c-0.1-2.6,0-5.2,0.3-7.8c0.3-4.7-0.1-9.3-1.3-13.9c-0.3-1.2-0.7-2.3-1.3-3.4c-2.1-3.2-7.1-3.7-10.3-1.5c-2.4,1.8-3.8,4.5-4.1,7.5
	c-0.2,2.6,1.3,5.3,2,7.8C188.7,569.9,191.1,577.4,193.4,584.9z"/>
<path class="st21" d="M193.4,584.9c1,3.1,1.9,6.1,3.1,9.1c2.1,5.2,4.8,10.1,8.1,14.7c2.1,3,4.3,5.9,6.7,8.7c3,3.5,6.3,7,7.3,11.5
	c0.6,2.6,0.4,5.3,0.7,7.9c0.3,2.6,1.1,5.4,3.3,7c1.6,1,3.5,1.6,5.4,1.8c1.3,0.2,3,0.3,3.7-0.9c0.2-0.5,0.4-1,0.4-1.5l0.3-3.9
	c0.1-0.8,0.4-1.9,1.2-1.9s1.3,1.1,1.9,1.6c1,0.6,2.3,0.2,2.9-0.9c0,0,0-0.1,0.1-0.1c0.4-1.1,0.5-2.3,0.1-3.4
	c-1.2-4.4-4.2-8.2-8.3-10.3c-1.4-0.6-2.8-1.3-4-2.1c-1.3-1.1-2.4-2.5-3.2-4c-7.3-12.1-14.7-24.3-19.9-37.4c-1-2.3-1.7-4.8-2-7.4
	c-0.1-2.6,0-5.2,0.3-7.8c0.3-4.7-0.1-9.3-1.3-13.9c-0.3-1.2-0.7-2.3-1.3-3.4c-2.1-3.2-7.1-3.7-10.3-1.5c-2.4,1.8-3.8,4.5-4.1,7.5
	c-0.2,2.6,1.3,5.3,2,7.8C188.7,569.9,191.1,577.4,193.4,584.9z"/>
<path class="st22" d="M340.7,700.1c-3.8,2.3-8.5,2.5-13,1.9c-0.7-0.1-1.6-0.1-2,0.4c-0.7,0.8,0.1,1.9,0.9,2.6c2.6,2,5.7,3.2,8.9,3.7
	c2.9,0.4,5.8,0.6,8.7,0.6c7.9,0.1,15.9,0.3,23.8-0.9c0.5,0,0.9-0.2,1.3-0.4c0.5-0.4,0.8-0.9,1-1.5c0.4-2.1-0.4-4.3-2.1-5.7
	c-1.7-1.3-3.5-2.3-5.6-3l-6.9-2.7c-1.6-0.6-4.2-2.3-6-2.2C346.6,693.3,343.4,698.5,340.7,700.1z"/>
<path class="st22" d="M358.1,716.3c-3.2,2.9-7.3,4.4-11.6,4.3c-1.1,0-2.6,0.2-2.6,1.3c0,0.3,0.1,0.6,0.3,0.9c1.4,2.2,3.5,3.9,6,4.7
	c2.4,0.6,4.8,0.7,7.2,0.5l7.1-0.4c1.3-0.1,2.7-0.1,4-0.3s2.8-0.4,4.2-0.7c3.4-0.5,6.9-0.6,10.3-0.5c0.9,0.2,1.8-0.1,2.5-0.7
	c0.6-0.8,0.3-1.9,0.1-2.9c-0.4-2,0-4.2-0.4-6.3c-0.7-3.6-3.8-6.4-7.2-7.7c-3.2-1.2-8.8-2.6-11.8-0.6
	C362.9,710.2,360.9,713.7,358.1,716.3z"/>
<path class="st17" d="M344.1,624.7c-2.9,3.8-5.8,8.3-5.1,13c0.4,2.6,1.8,4.8,2.9,7.2c1.3,3.2,2.3,6.6,2.9,10.1
	c1.1,5,2.2,10,2.8,15.1c0.7,5.8,1,11.6,0.6,17.4c-0.1,1.4-0.2,2.9-1.2,3.9c-0.4,0.4-0.9,0.7-1.1,1.2c-0.1,0.5,0,1,0.2,1.5
	c1.8,3.6,4.9,6.5,8.6,7.9c3.7,1.4,7.7,2.2,11.7,2.2c0.5,0.1,1.1,0,1.6-0.2c0.5-0.3,1-0.8,1.2-1.4c2.9-5.5,1.3-12.2,1.3-18.4
	c0-5.2,1.3-10.4,1-15.6c-0.2-4.2-1.3-8.2-1.7-12.4c-0.7-6.8,0.6-13.7,1.8-20.4c1-5.2,1.9-10.3,3.2-15.4c0.6-3.2,1.7-6.2,3.3-9
	c1.4-2.1,3.2-3.9,4.8-6c4.3-5.6,6.2-12.7,5.3-19.8c-0.1-0.7-10,2.5-10.8,2.9c-3.6,1.5-6.9,3.6-9.7,6.2c-2.3,2.2-4.1,5.1-6.1,7.5
	c-2.8,3.4-5.6,6.9-8.4,10.4C350.2,616.6,347.1,620.6,344.1,624.7z"/>
<path class="st21" d="M344.1,624.7c-2.9,3.8-5.8,8.3-5.1,13c0.4,2.6,1.8,4.8,2.9,7.2c1.3,3.2,2.3,6.6,2.9,10.1
	c1.1,5,2.2,10,2.8,15.1c0.7,5.8,1,11.6,0.6,17.4c-0.1,1.4-0.2,2.9-1.2,3.9c-0.4,0.4-0.9,0.7-1.1,1.2c-0.1,0.5,0,1,0.2,1.5
	c1.8,3.6,4.9,6.5,8.6,7.9c3.7,1.4,7.7,2.2,11.7,2.2c0.5,0.1,1.1,0,1.6-0.2c0.5-0.3,1-0.8,1.2-1.4c2.9-5.5,1.3-12.2,1.3-18.4
	c0-5.2,1.3-10.4,1-15.6c-0.2-4.2-1.3-8.2-1.7-12.4c-0.7-6.8,0.6-13.7,1.8-20.4c1-5.2,1.9-10.3,3.2-15.4c0.6-3.2,1.7-6.2,3.3-9
	c1.4-2.1,3.2-3.9,4.8-6c4.3-5.6,6.2-12.7,5.3-19.8c-0.1-0.7-10,2.5-10.8,2.9c-3.6,1.5-6.9,3.6-9.7,6.2c-2.3,2.2-4.1,5.1-6.1,7.5
	c-2.8,3.4-5.6,6.9-8.4,10.4C350.2,616.6,347.1,620.6,344.1,624.7z"/>
<path class="st17" d="M365.1,595.2c0.6,3,3.5,5.2,3.6,8.3c0.1,2.4-1.7,4.5-2.9,6.5c-1.2,2.2-2.2,4.4-3,6.7c-2.4,6-5.3,11.8-8.7,17.3
	c-1.7,2.6-3.5,5.5-3.1,8.6c0.3,1.4,0.8,2.8,1.5,4.1l5,9.9c1.1,2,1.9,4.1,2.5,6.3c0.4,1.9,0.5,3.9,0.7,5.7c0.8,6.1,3.6,12.2,1.9,18.1
	c-0.1,0.5-0.7,1.1-1.1,0.8c1.6,3.1,3,6.2,2.8,9.7c-0.1,1.8-0.6,3.7,0.1,5.4c0.4,0.6,0.6,1.3,0.8,2.1c0,0.5-0.2,1-0.3,1.5
	c-0.1,1.4,1.1,2.6,2.5,3c1.3,0.4,2.8,0.4,4.1,0.8c2.6,0.8,4.4,3,6.7,4.6c2.3,1.6,4.9,2.4,7.7,2.5c0.4,0,0.8,0,1.1-0.2
	c0.4-0.3,0.6-0.8,0.6-1.4c0.2-2.5-0.8-5-2.7-6.6c-0.4-0.3-0.7-0.6-1-1.1c-0.1-0.4-0.2-0.8-0.1-1.2c0.4-5.4,0.3-10.9-0.3-16.3
	c-0.3-1.7-0.3-3.5-0.3-5.2c0.3-1.4,0.4-2.9,0.4-4.3c-0.3-1.4-0.8-2.8-1.3-4.1c-0.8-2.5-0.6-5.1-0.6-7.8c-0.3-4.5-1-8.9-2.2-13.3
	c-0.3-1.8-1-3.4-2.1-4.8c-1-1.1-2.7-2.1-2.3-3.6c0.2-0.5,0.6-1,1-1.4c1-1.2,1.4-2.8,1.2-4.3c0.9,0.2,1.8-0.2,2.2-1
	c8.2-4.1,14.6-11.2,17.5-19.9c0.2-0.6,0.4-1.2,0.8-1.8c0.7-1,2.1-1.5,3.2-2.1c3.6-1.8,6.1-5.2,8.4-8.6c1.4-1.9,2.6-4,3.3-6.2
	c0.3-1.5,0.5-3,0.4-4.5l0.2-7.8c0-0.5,0-1-0.1-1.5c-0.2-0.5-0.5-0.9-0.8-1.2c-2.2-2.3-5.1-3.9-8.3-4.5c-2.1-0.4-4.3-0.3-6.5-0.5
	c-4.2-0.3-8.3-1.6-12.5-1.3c-6.6,0.5-12.4,5-15.5,10.8C368.6,593.4,367.4,595.1,365.1,595.2z"/>
<path class="st16" d="M147.4,714c1.4,0.5,3,0.7,4.5,0.5c0.1-1.2,1.8-1.5,3-1.4c0.6,0,1.2,0.1,1.8,0.4c0.3,0.2,0.5,0.5,0.8,0.7
	c0.5,0.3,1.1,0.4,1.7,0.4l6.4,0.5c2.9,0.2,5.8,0.5,8.5-0.6c0.5-0.2,1-0.5,1.4-0.9c0.7-1,0-2.5-1-3.3c-1-0.8-2.3-1.1-3.3-1.9
	c-2.2-1.7-2.5-4.9-3.7-7.4c-0.8-1.6-1.9-3.1-3.1-4.5c-0.9-1.2-1.9-2.2-3-3.1c-2.6-1.9-5.5-1.8-8.6-2.1c-2.1-0.2-4.1-0.3-5.7,1.6
	c-1.9,2.3-1.1,7.1-1,9.9C146.2,706.7,146.7,710.4,147.4,714z"/>
<path class="st21" d="M147.4,714c1.4,0.5,3,0.7,4.5,0.5c0.1-1.2,1.8-1.5,3-1.4c0.6,0,1.2,0.1,1.8,0.4c0.3,0.2,0.5,0.5,0.8,0.7
	c0.5,0.3,1.1,0.4,1.7,0.4l6.4,0.5c2.9,0.2,5.8,0.5,8.5-0.6c0.5-0.2,1-0.5,1.4-0.9c0.7-1,0-2.5-1-3.3c-1-0.8-2.3-1.1-3.3-1.9
	c-2.2-1.7-2.5-4.9-3.7-7.4c-0.8-1.6-1.9-3.1-3.1-4.5c-0.9-1.2-1.9-2.2-3-3.1c-2.6-1.9-5.5-1.8-8.6-2.1c-2.1-0.2-4.1-0.3-5.7,1.6
	c-1.9,2.3-1.1,7.1-1,9.9C146.2,706.7,146.7,710.4,147.4,714z"/>
<path class="st17" d="M150,589.2c-1.9,0.6-2.8,3.1-2.5,5.1s1.6,3.8,2.6,5.6c2.9,5.1,4.1,11,6.5,16.3c1.8,4,4.2,7.7,6,11.6
	c1.8,4,2.9,8.5,1.8,12.7c-0.5,2.1-1.5,4-2.2,6c-0.7,2.2-1.1,4.5-1.3,6.8c-0.9,7.8-1,15.6-0.5,23.4c0,1,0.2,1.9,0.6,2.8
	c0.4,0.8,1.1,1.6,0.8,2.4c-0.1,0.3-0.4,0.6-0.6,0.9c-0.4,0.9,0.4,1.8,1.2,2.5c-0.3,0.5-0.7,0.8-1.3,1c1.1,0.7,1.6,2.1,1.3,3.3
	c-0.7,0.1-0.7,1.1-0.3,1.6c0.4,0.5,1.1,0.9,1.4,1.5c0.4,1-0.1,2.2-1.1,2.6c-1,0.4-2.1,0.5-3.1,0.2c-1.8-0.2-3.5-0.6-5.2-1.1
	c-0.6-0.1-1.1-0.4-1.6-0.7c-0.9-0.8-1.4-2-1.4-3.1c-0.4-3.2-0.5-6.5-0.4-9.7c0.3-15.7,0-31.4-0.7-47c-0.3-6.3-2.2-12.5-4.6-18.3
	c-1.3-3-2.8-5.9-4.5-8.7c-3.5-6.5-6.6-13.6-5.8-20.9c0.1-0.8,0.4-1.7,1.2-1.9c0.3,0,0.6,0,0.9,0.1c1.6,0.8,3.2,1.6,4.7,2.6
	C144.3,588.2,147.1,589,150,589.2z"/>
<path class="st21" d="M150,589.2c-1.9,0.6-2.8,3.1-2.5,5.1s1.6,3.8,2.6,5.6c2.9,5.1,4.1,11,6.5,16.3c1.8,4,4.2,7.7,6,11.6
	c1.8,4,2.9,8.5,1.8,12.7c-0.5,2.1-1.5,4-2.2,6c-0.7,2.2-1.1,4.5-1.3,6.8c-0.9,7.8-1,15.6-0.5,23.4c0,1,0.2,1.9,0.6,2.8
	c0.4,0.8,1.1,1.6,0.8,2.4c-0.1,0.3-0.4,0.6-0.6,0.9c-0.4,0.9,0.4,1.8,1.2,2.5c-0.3,0.5-0.7,0.8-1.3,1c1.1,0.7,1.6,2.1,1.3,3.3
	c-0.7,0.1-0.7,1.1-0.3,1.6c0.4,0.5,1.1,0.9,1.4,1.5c0.4,1-0.1,2.2-1.1,2.6c-1,0.4-2.1,0.5-3.1,0.2c-1.8-0.2-3.5-0.6-5.2-1.1
	c-0.6-0.1-1.1-0.4-1.6-0.7c-0.9-0.8-1.4-2-1.4-3.1c-0.4-3.2-0.5-6.5-0.4-9.7c0.3-15.7,0-31.4-0.7-47c-0.3-6.3-2.2-12.5-4.6-18.3
	c-1.3-3-2.8-5.9-4.5-8.7c-3.5-6.5-6.6-13.6-5.8-20.9c0.1-0.8,0.4-1.7,1.2-1.9c0.3,0,0.6,0,0.9,0.1c1.6,0.8,3.2,1.6,4.7,2.6
	C144.3,588.2,147.1,589,150,589.2z"/>
<path class="st17" d="M123.4,570.1c-1-0.7-2.2-1-3.4-1.1c-1.4,0.2-2.7,0.9-3.7,1.8c-1.3,1-2.5,2.1-3.7,3.2
	c-4.9,5.2-6.6,12.7-4.4,19.5c1.2,3.5,3.3,6.6,5.4,9.6l4.3,6.1c6.5,9.4,13,18.7,19.9,27.8c0,0.4,0.3,0.8,0.7,1
	c0.3,0.1,0.6,0.1,0.7,0.3c0.1,0.1,0.1,0.3,0.1,0.4c0,0.7-0.2,1.3-0.4,1.9c-0.1,0.2-0.1,0.4-0.1,0.7c0.2,0.5,1.2,0.2,1.4,0.7
	c0.2,0.3,0,0.7-0.3,1c-0.3,0.2-0.6,0.6-0.5,1c0,0.4,0.7,0.8,0.7,1.3c0,0.3-0.2,0.5-0.4,0.7c-0.5,0.7-0.4,1.6,0.2,2.2
	c0.4,4.5-1.9,8.7-2.5,13.1c-0.8,7,2.4,13.9,2.8,20.9c0,0.8,0.1,1.6,0.4,2.3c0.7,1.2,2.3,1.9,2.3,3.3c-0.1,0.6-0.3,1.1-0.5,1.7
	c0,0.8,0.1,1.6,0.3,2.4c0,0.8-0.7,1.8-1.4,1.5c0.6,1.9,1.1,3.7,1.5,5.6l14.9,1.2c0.2-1.3,0.1-2.7-0.1-4c-0.3-1.4-1-2.8-1.3-4.2
	c-0.4-1.4-0.2-3,0.6-4.2c-0.8,0-1.5-0.6-1.6-1.4c-0.1-0.8-0.1-1.6,0-2.3c0.4-3.9-1.2-7.8-1.2-11.6c0-3.1,1.1-6,1.7-9.1
	c1.2-6.5,0-13.5,2.8-19.4c1.7-3.6,4.2-7.5,2.2-11c-1-1.7-2.7-2.9-3.8-4.5c-0.9-1.5-1.6-3.1-2-4.9c-2.3-7.1-6-13.7-9.3-20.5
	c-0.9-1.7-1.6-3.5-2-5.4c-0.2-1.6-0.3-3.3-0.2-5c0-3-0.2-6-0.6-8.9c-0.1-1.3-0.4-2.6-1.1-3.7c-0.6-0.9-1.4-1.6-2.3-2.1
	C134.6,574.8,128.7,572.9,123.4,570.1z"/>
<path class="st16" d="M141.3,719.5c1.4,0.5,3,0.7,4.5,0.5c0.1-1.2,1.8-1.5,3-1.4c0.6,0,1.2,0.1,1.7,0.4c0.3,0.2,0.5,0.5,0.9,0.7
	c0.5,0.3,1.1,0.4,1.7,0.4l6.4,0.5c2.9,0.2,5.8,0.5,8.5-0.6c0.5-0.2,1-0.5,1.4-0.9c0.7-1,0-2.5-1-3.3c-1-0.8-2.3-1.1-3.3-1.9
	c-2.2-1.7-2.5-4.9-3.7-7.4c-0.8-1.6-1.9-3.1-3.1-4.5c-0.9-1.2-1.9-2.2-3-3.1c-2.6-1.9-5.5-1.8-8.6-2.1c-2.1-0.2-4.2-0.3-5.7,1.6
	c-1.9,2.3-1.1,7.1-1,9.9C140.2,712.2,140.6,715.9,141.3,719.5z"/>
<rect x="222.4" y="607" class="st23" width="75.7" height="75.7"/>
<path class="st3" d="M273.6,636.8l-10.2,15.5c0.8,1,1.3,2.2,1.3,3.5c-0.1,3.1-2.7,5.5-5.8,5.4c-2.9-0.1-5.2-2.5-5.4-5.4
	c0-0.3,0-0.7,0.1-1l-6.7-3.9c-1.8,1.7-4.5,2-6.6,0.8l-7.1,6.7v6.7c0,2.7,2.2,5,5,5h42.2c2.7,0,5-2.2,5-5v-24.8l-6.8-4.5
	c-1,0.8-2.2,1.2-3.4,1.2C274.6,637,274.1,636.9,273.6,636.8L273.6,636.8z"/>
<path class="st3" d="M243,641.3c3.1,0,5.6,2.5,5.6,5.6c0,0,0,0,0,0c0,0.2,0,0.5,0,0.7l7,3.9c1-0.8,2.2-1.3,3.5-1.3
	c0.4,0,0.8,0,1.2,0.1l10.2-15.8c-1.8-2.5-1.2-6,1.3-7.8c2.5-1.8,6-1.2,7.8,1.3c0.7,0.9,1,2.1,1,3.2c0,0.4-0.1,0.9-0.2,1.3l4.9,3.2
	v-9.3c0-2.7-2.2-5-5-5h-42.3c-2.7,0-5,2.2-5,5v26.7l4.7-4.5c-0.2-0.6-0.3-1.3-0.3-1.9C237.4,643.8,239.9,641.3,243,641.3z"/>
<circle class="st18" cx="207.6" cy="529.5" r="14.8"/>
<path class="st18" d="M193.6,533.8c-2.1,1.8-5.2,1.9-7.9,2.3c-6,0.6-11.7,2.3-17.1,4.9c-0.7,0.3-1.4,0.8-1.9,1.4
	c-0.5,0.6-0.8,1.3-1,2.1c-0.5,1.7-0.7,3.4-0.6,5.1c0.2,1.7,0.7,3.3,1.4,4.9c2.1,4.3,5.2,7.9,9.2,10.5c0.7,0.5,1.4,0.9,2.2,1.1
	c1.9,0.4,3.8-0.7,5.7-1.2c1.7-0.5,3.6-0.4,5.3,0.2c1.6,0.5,3.3,1.5,4.9,0.9c1-0.6,1.8-1.4,2.2-2.5c1.5-2.9,2.9-5.8,4-8.8
	c0.4-1.2,0.9-2.3,1.5-3.4c1.7-3.3,4.7-5.8,6.2-9.2c0.3-0.5,0.4-1.2,0.1-1.7c-0.3-0.4-0.7-0.7-1.1-0.8c-2.2-1.3-4.2-2.8-5.9-4.6
	c-1-1-2.8-3.5-4.2-3.7C195.1,530.8,194.7,532.9,193.6,533.8z"/>
<path class="st16" d="M194,563.9c-1.7,0.8-3.7,0.5-5.6,0.1c-4.8-1-9.6-2-14.1-4.1c-1.4-0.5-2.6-1.4-3.5-2.6c-0.5-1-0.9-2.2-1-3.3
	l-0.8-5.5c-0.3-1.9,0.2-3.7,0.3-5.6c0.1-0.4-0.1-0.9-0.3-1.2c-0.3-0.2-0.6-0.3-1-0.3c-2.2,0-3.6,2.4-5.1,3.9c-0.9,0.9-2,1.6-3.1,2.1
	c-1.4,0.6-3.2,1-3.8,2.4c-0.2,0.6-0.2,1.3-0.5,1.9c-1,2.4-5.2,1.6-6.3,3.9c-0.3,0.7-0.3,1.5-0.8,2c-0.5,0.5-1.5,0.5-2.2,0.6
	c-3.1,0.5-4.6,4.1-7.2,5.8c-2.2,1.4-5.1,1.4-7.5,2.5c-1.2,0.7-2.5,1.4-3.9,1.9c-1.5,0.3-3,0.3-4.5,0.2c-0.3,0-0.7,0.1-0.9,0.3
	c-0.2,0.3-0.2,0.6-0.1,1c1.5,9.5,7.9,17.5,16.8,21.1c0.5,0.2,1,0.4,1.4,0.7c1.3,1,1.6,3.2,3.1,3.9c1.1,0.4,2.4,0.1,3.2-0.7
	c0.8-0.8,1.6-1.7,2.3-2.6c1.4-1.5,3.2-2.4,5.2-2.7c1.8-0.3,3.9-0.1,5.4-1.2c0.6-0.6,1.2-1.2,1.7-1.8c1.1-1,2.4-1.8,3.9-2.3
	c3.9-1.5,8-2.4,12.1-2.6c3.9-0.2,7.9,0.1,11.6-1.1c1-0.3,1.8-0.8,2.6-1.5c0.8-0.9,1.4-1.9,1.7-3C194.5,572.1,194.8,567.9,194,563.9z
	"/>
<path class="st16" d="M174.9,542.1c1.1-0.1,2.2,0,3.3,0c1.3,0,2.6-0.3,3.9-0.3c4.2,0.1,7.8,2.9,9,6.9c0.1,0.3,0.1,0.6,0.1,1
	c-0.1,0.3-0.4,0.5-0.7,0.5c-0.4-1.2-1-2.3-1.7-3.3c-1.2-1.7-3-2.9-5-3.5c-2-0.6-4.1-0.6-6.1-0.2c-0.8,0.2-1.7,0.4-2.5,0.6l-4,1.1
	c-0.7,0.2-1.5,0.4-2.2,0.7c-0.5,0.2-1.5,1-2,1c-0.7,0-0.1-0.6,0.2-1.1c0.6-0.9,1.5-1.5,2.6-1.9C171.4,542.8,173.1,542.4,174.9,542.1
	z"/>
<path class="st18" d="M184.9,586.6c1,3.1,1.9,6.1,3.1,9.1c2.1,5.2,4.9,10.1,8.1,14.7c2.1,3,4.3,5.9,6.7,8.7c3,3.5,6.3,7,7.3,11.5
	c0.6,2.6,0.4,5.3,0.7,7.9c0.3,2.6,1.1,5.4,3.3,7c1.6,1,3.5,1.6,5.4,1.8c1.3,0.2,3,0.3,3.7-0.9c0.2-0.5,0.4-1,0.4-1.5l0.3-3.9
	c0.1-0.8,0.4-1.9,1.2-1.9s1.3,1.1,1.9,1.6c1,0.6,2.3,0.2,2.9-0.9c0,0,0-0.1,0.1-0.1c0.4-1.1,0.5-2.3,0.1-3.4
	c-1.2-4.4-4.2-8.2-8.3-10.3c-1.4-0.6-2.8-1.3-4-2.1c-1.3-1.1-2.4-2.5-3.2-4c-7.3-12.1-14.7-24.3-19.9-37.4c-1-2.3-1.7-4.8-2-7.4
	c-0.1-2.6,0-5.2,0.3-7.8c0.3-4.7-0.1-9.3-1.3-13.9c-0.3-1.2-0.7-2.3-1.3-3.4c-2.1-3.2-7.1-3.7-10.3-1.5c-2.4,1.8-3.8,4.5-4.1,7.5
	c-0.2,2.6,1.3,5.3,2,7.8C180.2,571.5,182.5,579,184.9,586.6z"/>
<path class="st17" d="M229.1,519c0.1-1.2-1-2.3-2.2-3.1c-1.3-0.7-2.6-1.5-3.8-2.3c-1.1-1-1.7-2.2-2.9-3.2c-1.3-1-2.7-1.7-4.3-2.1
	c-3.3-1.2-6.7-1.8-10.2-1.8c-3.4-0.1-6.8,0.8-9.8,2.6c-0.6,0.4-1.2,0.9-1.7,1.5c-0.4,0.8-0.7,1.6-0.8,2.5c-0.6,2.7-1.5,5.3-2.6,7.8
	c-1.1,2.8-2.3,5.7-4.9,7.8c-2.8,2.3-7,3.6-8.8,6.4c-0.4,0.5-0.6,1.2-0.4,1.8c0.3,0.7,1.1,1.2,1.9,1.6c4.5,2.6,8.4,5.9,10.4,9.9
	c2.1,3.9,1.8,8.8-0.9,12.4c-1,1.4-2.5,3-1.5,4.3c1.5,2.1,6.9,0.9,8.1,3.1c0.3,0.7,0.3,1.5,0.2,2.3c0,2.3,2.2,4.4,4.9,5.4
	c2.8,1,5.8,1.5,8.8,1.5c0.8-1.8,0.9-3.9,0.2-5.7c-0.2-0.4-0.3-0.9-0.2-1.3c0.2-0.5,0.5-0.9,1-1.3c3.3-3.1,2.6-7.6,0.6-11.2
	c-2-3.6-5-7-6.1-10.8c-0.6-1.9-0.6-4,1-5.6c0.9-0.8,1.8-1.4,2.8-2c1.7-1.2,3.1-2.9,3.9-4.9c0.9-2.5,0.8-5.6,3.4-7.2s6.1-1.1,8.9-2.2
	C226.4,524.1,228.9,520.8,229.1,519z"/>
<circle class="st20" cx="312.1" cy="524.2" r="16.1"/>
<path class="st20" d="M326.6,523.5c3,4.8,7.8,8.2,13.4,9.4l-1.2,4.4c-2.1,7.6-4.5,15.6-10.3,20.9c0.5-2.6-0.1-5.4-1.6-7.5
	c-1.5-2.2-3.4-4.1-5.5-5.7l-9.3-8.1c-0.3-0.2-0.5-0.5-0.7-0.8c-0.2-0.6-0.2-1.2,0-1.8c1.2-3.7,4.6-6,7.3-8.5
	c1.4-1.3,2.6-2.7,3.7-4.3C324.2,518.9,325.4,521.6,326.6,523.5z"/>
<path class="st22" d="M328.6,544.4c0.1,1.2-0.1,2.4-0.5,3.6c-0.5,1.2-1.7,1.8-2.9,1.5c0.3-0.8-0.6-1.6-1.4-1.5
	c-0.8,0.2-1.5,0.8-1.8,1.6c-0.6,1.1-0.7,2.4-0.5,3.6c0.3,1.5,1.1,3,0.9,4.5c-0.2,1.3-1.1,2.5-0.6,3.7c0.3,0.5,0.7,1,1.2,1.4
	c1.4,1.7,1.2,4.1-0.4,5.6l12.6,0.2c-0.5,2.1,0.5,4.3,1.6,6.1c6.1,10.4,16.8,17.4,28.7,18.8c-1.2,0.7-1.6,2.2-0.9,3.4
	c0.1,0.1,0.2,0.3,0.3,0.4c1,1,2.8,0.9,4,0.2c1.2-0.8,2.4-1.6,3.5-2.6c2.1-1.5,4.6-2.2,7.1-1.9c1.6,0.1,3.1,0.7,4.7,0.7
	c4.7,0.3,8.7-3.1,13.1-4.5c3.3-1,7-1,9.7-3c1.2-0.9,2.2-2.3,1.8-3.7c-0.3-0.8-0.8-1.6-1.4-2.2c-1.6-2-2.5-4.5-3.6-6.8
	c-2.2-4.6-5.3-8.7-9.1-12.2c-2.8-2.5-5.8-4.8-9-6.8c-0.8-0.6-1.6-1.1-2.4-1.5c-1.1-0.4-2.3-0.8-3.3-1.4c-1.5-1-2.3-2.6-3.5-3.9
	c-2.5-2.9-6.3-4.2-9.4-6.5c-2.1-1.5-3.9-3.6-6.3-4.3c-1.2-0.4-2.5-0.4-3.7-0.7c-2.7-0.8-4.7-3.2-7.4-4.2c-2.1-0.8-4.4-0.6-6.7-0.9
	c-2.5-0.3-4.8-1.2-6.9-2.6c-0.7-0.5-1.4-1-2.2-1.3c-3.4-1-3.6,5.3-4,7.4C329.5,537.9,328.6,541.1,328.6,544.4z"/>
<path class="st20" d="M331.9,565.5c0.6,6.1-4.1,12.1-2.7,18.1c0.3,1.3,0.8,2.5,1,3.8c0.6,3.6-1.6,6.9-3.6,9.9l-17.5,25.6
	c-0.7,1.1-1.5,2.2-2.5,3.1c-3.3,3-8.3,2.6-12.7,3.5c-3.1,0.6-6,1.9-8.5,3.8c-0.2,0.2-0.3,0.5-0.1,0.8c1.5,2,3.8,3.1,6.3,3
	c0.5,0.6,0,1.5-0.6,1.9c-1,0.7-2.2,0.8-2.4,2.4c-0.1,0.6,0,1.1,0.3,1.6c0.7,1.1,1.8,1.8,3.1,2.1c6,1.8,12.5-1.4,17-5.8
	c4.5-4.4,7.8-10,12.2-14.5c2.5-2.5,5.2-4.6,7.8-7c5-4.9,9-10.7,12.7-16.5c1.2-1.7,2.2-3.6,2.8-5.6c0.5-2,0.3-4.1,0.8-6.1
	c0.7-2.6,2.6-4.7,4.2-6.8c3.1-4.3,5.2-9.5,4.7-14.7c-0.4-5.2-3.7-10.4-8.6-12.2c-1.5-0.6-3.2-0.7-4.9-0.3c-2,0.6-3.5,2.3-4.9,3.9
	l-3.3,3.8c-0.8,0.8-1.5,1.8-1.9,2.9c-0.4,1.1-0.2,2.4,0.7,3.3"/>
<path class="st22" d="M340.7,540.3c-2.3,0.1-4.9,0.4-6.4,1.9c-0.7,0.8-1.2,1.6-1.6,2.5c-1.6,3.2-3.1,6.5-3.2,10.1
	c-0.1,2.8,0.7,5.6,1.2,8.4c0.4,2.3-0.6,4.7-0.7,7.1c3.2-0.9,6.2-2,9.2-3.5c1.7-1.1,3.5-2,5.4-2.8c2.7-0.9,7.3,0.7,9.9,1.9
	c0.1-1.8-1.2-5-1.1-6.8c0-0.8,0.2-1.5,0.4-2.3c0.4-0.8,0.8-1.5,1.4-2.2c2-3.3,1.7-7.5-0.8-10.5c-2.3-2.6-5.9-3.6-9.4-4
	c-2.2-0.2-4.4-0.3-6.5-0.2"/>
<path class="st17" d="M290.8,508l-0.4-3c2.6,0.7,5-1.5,6.6-3.7s3.1-4.9,5.6-5.8c3-1.1,6.2,0.7,9.1,2.2c3.2,1.8,6.8,3,10.4,3.5
	c0.6,0,1.2,0.1,1.7,0.3c1.9,0.7,2.8,3,3,5.2c0.3,2.1,0.2,4.4,1.1,6.3c0.7,1.4,1.9,2.5,2.6,3.9c1.9,3.8,0.1,9,2.2,12.8l-5.2-4.7
	c-0.5-0.4-1.1-0.9-1.7-0.5s-0.4,1-0.6,1.4c-0.6,1.4-2.2,2-3.6,1.4c0,0-0.1,0-0.1-0.1c-1.3-0.7-2.4-1.8-3.3-3c-2.1-2.8-5-4.9-8.2-6.2
	c-2.8-1.1-6-0.9-8.7,0.5c-2.4,1.4-4.2,4.5-7.1,4.6c-4.1,0.2-5.7-7.4-7.6-10.4c1.4-1.1,1.9-3,1.1-4.6
	C288.1,507.8,290.7,507.5,290.8,508z"/>
<linearGradient id="SVGID_1_" gradientUnits="userSpaceOnUse" x1="709.3851" y1="-27.9559" x2="709.3851" y2="263.6143" gradientTransform="matrix(1 0 0 -1 -51.77 760.98)">
	<stop  offset="0" style="stop-color:#808080;stop-opacity:0.25"/>
	<stop  offset="0.54" style="stop-color:#808080;stop-opacity:0.12"/>
	<stop  offset="1" style="stop-color:#808080;stop-opacity:0.1"/>
</linearGradient>
<path class="st24" d="M726.4,782.9c-0.8-3.3-1.3-6.2-1.3-6.2c0.1-2.2-0.4-4.4-1.4-6.3v-0.9l0,0v-6.7c0.5-1.2,1-2.4,1.7-3.5
	c1.2-2.1,0-9.8,0-9.8s-4.5-10.9-3.4-17.7s-9.2-30.6-9.2-30.6c0.1-2.3,0.4-4.6,1-6.8c0.1-0.5,0.2-0.9,0.1-1.4c0-0.1,0-0.1,0-0.2v0.1
	c-0.2-4.5-3.7-13.1-3.7-13.1l0.5-16.2c0,0,2.3-9.6-1.4-22.4c-1.3-4.5-2.1-8.1-2.7-10.8c-0.1-0.3-0.1-0.6-0.2-0.9
	c7.7-1.2,13.6-2.2,13.6-2.2s-4.5-18.7-7.5-21.9s-5.4-13.5-5.4-13.5s-1.6-13.2,1-17c2.5-3.9,2.9-10.5,2.9-10.5s5.8-4.2,6.5-6.1
	c1-2.7,1.7-5.4,1.9-8.3c0-2.2-0.7-4.2-0.5-5.4c0.2-1.2-1.7-5.6-0.7-7.7c0.2-0.6,0.4-1.3,0.4-2c0,0,0,0,0-0.1l0,0
	c0-1.8-0.2-3.7-0.5-5.5c-1.7-1.4-3.6-2.5-5.7-3.1l-0.1-0.5l-0.3-1.3c-0.2-0.1-0.4-0.2-0.6-0.3v-0.5v-1.9l0.9-4.3
	c1.8-7.4-8.1-8.5-8.1-8.5c-0.6-1.1-1.6-2-2.8-2.5c-1.9-0.7-0.3,11.2,0.6,11.9c0.7,0.6,2.9,4.3,3.9,6.1l0,0l0.2,0.3
	c-0.2,0.1-0.3,0.3-0.5,0.5l0.4,2.6l0.1,0.4c-0.7,0.8-1.2,1.7-1.6,2.7c0,0,1.8,2,1.4,4.2c-0.1,1.7,0.1,3.5,0.6,5.1
	c-0.1-0.1-1.4-1.5-2.6-1.2c-1.3,0.3-4.9,1.4-4.9,1.4s-2.7,0.5-2.4,1s-1.8,3.2-1.8,3.2l-7.1-6.8c-0.1-0.2-0.1-0.4-0.2-0.6
	c-0.3-0.9-0.5-1.9-0.6-2.9c0.8-0.2,1.5-0.4,2.3-0.7c0.7-0.3,1.4-0.7,1.9-1.3c0.6-0.9,1-2,1.1-3.1c0.6-2.1,1.8-3.9,2.6-5.9
	c1.4-3.3,1.9-7,1.4-10.5c-0.1-1.1-0.5-2.2-1.1-3.1c-1.2-1.6-3.3-2.3-4.9-3.5s-2.5-3.2-4.3-4.2c-1.7-0.7-3.6-0.9-5.4-0.5
	c-3.6,0.6-7,1.8-10.1,3.7c-1,0.6-2.2,1.3-3.4,1.1c-1-0.3-1.8-0.9-2.4-1.8c0,0,0-0.1,0-0.1l-0.1-0.1c-0.7,1.7-1.1,3.5-1.1,5.3
	c0,0.3,0,0.6,0,0.9c0,0.1,0,0.2,0,0.3c0,0.1,0,0.2,0,0.3l0,0c0,0.1,0,0.3-0.1,0.4c-0.1,0.4-0.4,0.7-0.7,1c-0.2,0.2-0.4,0.5-0.6,0.8
	c0-0.1,0.1-0.2,0.1-0.3c-0.5,0.7-0.7,1.4-0.7,2.2c0,0.6,0.2,1.2,0.5,1.6c0.4,0.4,0.7,0.7,1.2,1c-0.1,0.8-0.2,1.6-0.2,2.4
	c0,4.8,2.6,9.3,6.7,11.8l0.2,0.6c1,2.5,1.5,5.1,1.3,7.8c0,0.2,0,0.4-0.1,0.6l-0.3,0.3l0,0c0,0-11.8,0.1-14.6-2.4
	c-2.8-2.5-7,6.1-7,6.1s-4.2,0.8-5.1,0c-0.8-0.8-5.8-0.1-5.8-0.1c-2-1.8-4.7-2.7-7.4-2.7c-1.6-1.3-3.5-2.3-5.4-3l0,0l-0.1,0l0,0
	c-0.9-0.3-1.8-0.4-2.7-0.3c0,0-5.8-4.8-7.5-7.4s-9.7-12.1-9.8-12.1v-0.5l-0.1-1.4c-0.2,0-0.5,0.1-0.7,0.1c0-0.1-0.1-0.3-0.2-0.5
	c-0.5-1.3-1-2.6-1.7-3.9c0,0,0-1.7,0.5-2.2s-0.2-6.9-0.2-6.9s-5.2-12.2-9.9-3.1c0,0-8.8,5.9-1.4,12.8c0,0,2.9,1.4,3.4,2.6
	c0.3,0.7,1.3,2.8,1.9,4.2l0.3,0.6l-0.1,0.1l0.1,1.1v0.4c-1.4,0.8-2.3,1.6-2.1,2.2c0.4,1,0.7,2.1,0.8,3.2c0,0,10.3,12.8,11.6,18.3
	c0,0,27.5,16.3,36.5,17.5l-1.6,8.2c-0.2,2.2-0.4,4.4-0.4,6.7c0.1,1.7-1.1,9.7-1.1,9.7s-1.6,11.6-2.9,13.3c-1.3,1.7-1.1,8.6-1.1,8.6
	c-0.3,3.4-0.9,6.7-1.8,9.9c-1.3,4.4-0.4,9.9-0.4,9.9s-4.6,10.5,6.4,3.4c0,0,5.4-0.3,11.6-0.5c0,0.2,0,0.4,0,0.6c0,0.8,0,1.7,0,2.6
	c-0.1,6-0.1,14.3,0.2,20.6c0.5,11.1,3.9,33,3.9,33v11c-0.2,1-0.3,2.1-0.3,3.2c-0.1,3.9,0.9,7.7,3,11l0.8,7.4c0,0,1.9,4.9,2,7.8
	c0,0.2,0,0.5-0.1,0.7c-0.1,0.4-0.1,0.7-0.1,1.1c-0.1,3.3,1.9,11.3,1.9,11.3s0.1,8.1,1.3,8.5c1,0.4-1.4,4.6-2.1,5.8
	c0-0.1,0-0.2,0-0.2c-0.1,0.2-0.1,0.2-0.1,0.2c-0.3,0.7-0.4,1.3-0.4,2c-0.1,1.1,0.4,2.2,1.3,2.8c2.3,1.4,3.5,2.6,1.6,3
	c-0.7,0.1-1.4,0.3-2.1,0.4c0-0.1-0.1-0.2-0.1-0.3c-0.5,0.2-0.8,0.8-0.8,1.3c0,1,0.3,1.9,0.7,2.7c0.9,2.1,1.9,4.1,3.3,6l1-0.1
	c-0.1,0.3-0.3,0.7-0.5,1c-0.3,0.5-0.8,0.9-1.4,1.2c-0.5,0.3-1.1,0.5-1.6,0.6c-1.3,0-2.6,0.6-3.4,1.7c-1.2,1.6-1.9,3.7,0.4,5.5l8.6,3
	c0,0,14.8,1.9,14-1.4c-0.8-3.3-1.3-6.2-1.3-6.2c0.1-2-0.4-4.1-1.2-5.9c-0.1-0.3-0.3-0.6-0.5-0.9l0.5-0.1c0,0,1.1-7.4,2.5-8.7
	c0.3-0.3,0.4-0.6,0.3-0.8c0.2-0.4-0.2-0.6-0.7-0.8l-0.1,0.3c-0.5-0.1-1-0.2-1.4-0.2c0,0-0.5-3.9,1.1-5.3c0.3-0.3,0.4-0.7,0.3-1.1
	c0-0.5,0-1.1-0.2-1.6l-0.1,0.1c-0.9-3.1-2-6.1-3.5-9.1c0,0-0.1-3.5,0.8-4.9c1-1.4-0.1-19-0.1-19s0.4-8.5-0.7-12.5
	c-1.1-4,1.3-8.6,1.3-8.6v-0.3v-0.1c0,0-0.1-0.5-0.1-1.3v0.1c-0.2-2.3-0.7-6.3-1-8.2c-0.5-2.7,0.1-15.5,0.1-15.5l2.2-5.5l3.9,9.5
	l4.1,12.6c1.2,1.6,1.9,3.4,2.1,5.4c0,0.1,0,0.3,0,0.4c0,0.3,0,0.6,0,0.8c-0.1,1.6,0.4,3.2,1.3,4.5c0,0,1.1,6,2.8,7.5
	c1.7,1.5,1.7,4.4,1.7,4.4s2,8.6,3,10.2c0.8,1.3,0.9,4.8,0.8,5.8l0,0v0.3c0,0,0.3,3.1,0.3,5.7c0,0.3,0,0.6,0,1v-0.1
	c0,0.7-0.1,1.4-0.3,2.1v0.1c0-0.1,0-0.3,0-0.4c-0.4,1.8-0.6,3.6-0.6,5.4c-0.1,3.1,0.4,6.8,2.3,8.9c3.3,3.7,5.3,3.3,5.3,3.3
	s-1.6,4.7-3.5,5.6c-0.1,0-0.1,0.1-0.2,0.1c0-0.1,0-0.2,0-0.3c-0.4,0.5-0.6,1.1-0.6,1.7c0.1,2.5,0.9,4.9,2.4,6.9c0.5,0.5,1,0.8,1.6,1
	l-0.3,0.2c-0.2,0.1-0.4,0.2-0.7,0.3c-0.3,0.1-0.6,0.2-1,0.3c-1.3,0-2.6,0.6-3.4,1.7c-1.2,1.6-1.9,3.7,0.4,5.5l8.6,3
	C712.5,784.3,727.1,786.3,726.4,782.9z"/>
<path class="st25" d="M669.7,788.4l-8.4-3c-2.3-1.9-1.6-4-0.4-5.5c0.8-1,2-1.6,3.3-1.7c0.6-0.1,1.1-0.3,1.6-0.6
	c0.5-0.3,1-0.7,1.3-1.2c0.6-1,1-2.1,1-3.2c0,0,9.2-2.7,11.6,0c0.4,0.5,0.8,1,1.1,1.6c0.8,1.9,1.2,3.9,1.2,5.9c0,0,0.5,2.9,1.2,6.2
	C684,790.4,669.7,788.4,669.7,788.4z"/>
<path class="st25" d="M710.6,784.3l-8.3-3c-2.3-1.9-1.6-4-0.4-5.5c0.8-1,2-1.6,3.3-1.7c0.3,0,0.7-0.1,1-0.3c0.2-0.1,0.4-0.2,0.6-0.3
	c2.3-1.3,2.3-4.4,2.3-4.4s9.2-2.7,11.6,0c0.3,0.4,0.6,0.8,0.9,1.2c1,2,1.5,4.1,1.4,6.3c0,0,0.5,2.9,1.2,6.2
	C724.9,786.3,710.6,784.3,710.6,784.3z"/>
<path class="st19" d="M679.8,773.2c0.4,0.5,0.8,1,1.1,1.6l0,0l-13.7,1.6c0.6-1,1-2.1,1-3.2C668.1,773.2,677.3,770.6,679.8,773.2z"/>
<path class="st19" d="M721.5,770.3v2.6c-2.1,3.5-12.5,2.8-15.5,1c0.2-0.1,0.4-0.2,0.6-0.3c2.3-1.3,2.3-4.4,2.3-4.4s9.2-2.7,11.6,0
	C721,769.5,721.3,769.9,721.5,770.3z"/>
<path class="st17" d="M723.2,759.2c-0.6,1.1-1.2,2.3-1.6,3.5v9.2c-2.3,3.9-14.5,2.6-16.1,0.5c-1.6-2.1-3.4-7.6-1.5-8.5
	s3.4-5.6,3.4-5.6s-1.9,0.5-5.1-3.3c-3.2-3.7-2.2-12-1.6-14c0.6-2,0-8.6,0-8.6s0.1-4.7-0.8-6.2s-2.9-10.2-2.9-10.2s0-2.9-1.6-4.4
	c-1.6-1.5-2.7-7.5-2.7-7.5c-1-1.5-1.4-3.3-1.2-5c0.3-2.9-2-6.1-2-6.1l-4-12.6l-3.7-9.5l-2.1,5.5c0,0-0.6,12.8-0.1,15.5
	s1.2,9.8,1.2,9.8s-2.3,4.7-1.3,8.6c1.1,4,0.7,12.5,0.7,12.5s1,17.6,0.1,19c-0.9,1.4-0.8,4.9-0.8,4.9s4.8,10.3,3.3,11.6s-1,5.3-1,5.3
	s3.3,0,1.9,1.4s-2.5,8.7-2.5,8.7l-14.1,1.8c-1.3-1.9-2.3-3.9-3.2-6c-1.9-4.3,0.3-3.9,2.2-4.3s0.7-1.6-1.5-3c-2.2-1.4-1-4.6-1-4.6
	s3.4-5.7,2.2-6.2c-1.2-0.5-1.3-8.5-1.3-8.5s-2.3-9.6-1.7-12.1c0.6-2.6-1.9-8.7-1.9-8.7l-0.8-7.4c-2.5-4.2-3.4-9.1-2.5-13.9v-11.4
	c0,0-3.3-21.9-3.7-33c-0.3-7.1-0.2-16.8-0.1-22.9c0.1-3.4,0.1-5.6,0.1-5.6l50.5-5.2c0.1,2.5,0.4,5,0.9,7.5c0.5,2.8,1.3,6.4,2.6,10.8
	c3.6,12.8,1.4,22.4,1.4,22.4l-0.5,16.2c0,0,4.4,10.9,3.5,14.6c-0.6,2.2-0.9,4.5-1,6.8c0,0,9.9,23.7,8.9,30.6
	c-1,6.9,3.3,17.7,3.3,17.7S724.3,757.2,723.2,759.2z"/>
<path class="st21" d="M694.3,698.4l15.3-2C709.6,696.4,701,705.2,694.3,698.4z"/>
<path class="st19" d="M707.5,681.4c0,0,0.5,5.4-2.8,7.5C704.7,688.8,710.6,687.9,707.5,681.4z"/>
<path class="st19" d="M706.5,664.1c0,0-12.8,10.6-17.5,9.7S706.5,664.1,706.5,664.1z"/>
<path class="st19" d="M675.3,703.4c0,0-9.7,2.2-10,6.1C664.9,713.4,675.3,703.4,675.3,703.4z"/>
<path class="st21" d="M677.4,752.1c0,0-13.8,2.6-9.9,4.3c3.4,1.3,6.8,2.4,10.3,3.1C677.9,759.5,682.4,759.8,677.4,752.1z"/>
<g class="st26">
	<path d="M664.8,759.1c-0.7-0.4-1.2-1.2-1.3-2l-0.1,0.3c0,0-1.3,3.1,1,4.6c0.3,0.2,0.5,0.3,0.7,0.5c0.4-0.1,0.9-0.1,1.3-0.2
		C668.2,761.7,667,760.6,664.8,759.1z"/>
	<path d="M682.5,758.2c0.4-0.3,0.4-1.3,0.1-2.4c-0.6,1-0.8,2.2-0.8,3.4C682,758.8,682.3,758.5,682.5,758.2z"/>
	<path d="M680.4,700.1c-0.5,1.4-0.8,2.8-1,4.3c0.3-1,0.6-2,1.1-2.9C680.5,701.5,680.5,701,680.4,700.1z"/>
	<path d="M712,694c0.1-0.4,0.1-0.9,0.1-1.3c-0.2,0.9-0.3,1.7-0.4,2.4C711.8,694.8,711.9,694.4,712,694z"/>
	<path d="M680.1,741.7c0.3-0.8,0.4-1.7,0.3-2.6c-0.4,1-0.7,2.1-0.7,3.3C679.9,742.1,680,741.9,680.1,741.7z"/>
	<path d="M683,763.7c-0.7,2.3-1.3,4.7-1.6,7.2l-14.1,1.6c-1.3-1.9-2.3-3.9-3.2-6c-0.2-0.3-0.3-0.7-0.4-1c-0.8,0.4-1.2,1.3-0.1,3.9
		c0.8,2.1,1.9,4.1,3.2,5.9l14.1-1.6c0,0,1.1-7.4,2.5-8.7C684.1,764.2,683.6,763.8,683,763.7z"/>
	<path d="M664.3,742.7c0,0,0.1,8.1,1.3,8.5l0,0c0.6-1.3,1-2.6,0.5-2.8c-1.2-0.5-1.3-8.5-1.3-8.5s-2.3-9.6-1.7-12.1
		c0.6-2.6-1.9-8.7-1.9-8.7l-0.8-7.4c-2.5-4.2-3.4-9.1-2.6-13.9v-11.3c0,0-3.3-21.9-3.7-33c-0.3-7.1-0.2-16.8-0.1-22.9
		c0-1.1,0-2.1,0-2.9h-0.4c0,0-0.1,2.2-0.1,5.6c-0.1,6-0.2,15.7,0.1,22.9c0.5,11.1,3.7,33,3.7,33v11.3c-0.9,4.8,0.1,9.8,2.6,14
		l0.8,7.4c0,0,2.5,6.2,1.9,8.7C662,733.1,664.3,742.7,664.3,742.7z"/>
	<path d="M705.9,769.3c-1.1-1.7-1.9-3.6-2.2-5.6c-1.4,1.3,0.2,6.4,1.8,8.4s13.8,3.4,16.1-0.5v-2.2
		C718.4,772.6,707.4,771.3,705.9,769.3z"/>
	<path d="M723.6,756.1c-0.6,1.1-1.2,2.3-1.6,3.5v1.6c0.3-0.6,0.6-1.4,1.2-2.3c0.4-0.9,0.5-1.9,0.5-2.9L723.6,756.1z"/>
	<path d="M706.6,758c0.4-0.9,0.8-1.8,1.2-2.8c0,0-1.9,0.5-5.1-3.3c-2.3-2.7-2.4-7.8-2.1-11.2c-0.6,2-1.5,10.3,1.6,14
		C704.2,757.2,705.8,757.8,706.6,758z"/>
	<path d="M700.5,732.1c0.2,2.3,0.3,4.6,0.2,6.9c0.1-0.5,0.2-0.8,0.2-1.1c0.6-1.9,0-8.6,0-8.6s0.1-4.7-0.8-6.2
		c-0.9-1.5-2.9-10.2-2.9-10.2s0-2.9-1.6-4.4C694,707,693,701,693,701c-1-1.5-1.4-3.3-1.2-5c0.4-2.9-1.9-6.1-1.9-6.1l-4-12.6
		l-3.8-9.4l-2.1,5.5c0,0,0,0.7-0.1,1.8l1.7-4.5l3.7,9.5l4,12.6c0,0,2.3,3.2,1.9,6.1c-0.2,1.7,0.3,3.5,1.2,5c0,0,1,5.9,2.7,7.5
		c1.6,1.5,1.6,4.4,1.6,4.4s1.9,8.6,2.9,10.2S700.5,732.1,700.5,732.1z"/>
</g>
<path class="st27" d="M710.3,517.3l-0.9,4.3l0,1.9v1.4l-4.9,0.5l-0.5-1l0,0c-1-1.8-3.1-5.5-3.8-6.1c-0.9-0.8-2.5-12.6-0.6-11.9
	c1.2,0.5,2.1,1.3,2.7,2.5C702.5,508.9,712.1,509.9,710.3,517.3z"/>
<path class="st19" d="M709.5,524.8l-4.9,0.5l-0.5-1l0,0c1.4-1.5,3.6-1.9,5.4-0.9L709.5,524.8z"/>
<path class="st28" d="M710.8,527.1l-6.4,1.5l-0.1-1l-0.4-2.6c1.5-2,4.2-2.3,6.2-0.9c0,0,0,0,0,0l0.3,1.3L710.8,527.1z"/>
<path class="st27" d="M606.7,517.7l-6.9,3.7l-0.6-1.3c-0.7-1.4-1.6-3.4-1.9-4.2c-0.4-1.1-3.3-2.6-3.3-2.6
	c-7.2-6.9,1.4-12.7,1.4-12.7c4.5-9.1,9.6,3.1,9.6,3.1s0.7,6.4,0.2,6.9c-0.5,0.4-0.5,2.2-0.5,2.2c0.7,1.2,1.2,2.5,1.7,3.9
	C606.6,517.3,606.7,517.7,606.7,517.7z"/>
<path class="st19" d="M606.7,517.7l-6.9,3.7l-0.6-1.3c1-0.8,4.4-3.6,5.5-3.5c0.5,0.1,1.1,0.1,1.6,0
	C606.6,517.3,606.7,517.7,606.7,517.7z"/>
<path class="st28" d="M607.4,519.8l-7.7,3.8l-0.2-1.7l-0.1-1.1c0,0,4.5-3.8,5.8-3.7c0.7,0.1,1.3,0.1,2,0l0.1,1.4L607.4,519.8z"/>
<path class="st27" d="M691.7,545.6c0,0-33.6,3.8-27.3,1.8c4.4-1.4,6.1-4.2,6.5-7.3c0.2-2.6-0.3-5.3-1.3-7.8c-0.8-2.1-1.8-4.2-3-6.1
	c0,0,25.7-14.1,20.6-1.3c-0.8,1.9-1.3,4-1.5,6.1c-0.2,2.1,0.1,4.2,0.7,6.2C687.3,540.4,689.1,543.3,691.7,545.6z"/>
<path class="st19" d="M687.1,524.9c-0.8,1.9-1.3,4-1.5,6.1c-2.4,2-5.1,1.9-8.5,1.9c-2.6,0-5.5,0.6-7.6-0.6c-0.8-2.1-1.8-4.2-3-6.1
	C666.5,526.3,692.2,512.1,687.1,524.9z"/>
<circle class="st27" cx="676.7" cy="519.9" r="13.9"/>
<path class="st19" d="M691.7,545.6c0,0-33.6,3.8-27.3,1.8c4.4-1.4,6.1-4.2,6.5-7.3c1.7-1.8,5-3.1,7.2-3.8c2-0.7,4.1-0.7,6.1-0.1
	c0.8,0.2,1.5,0.5,2.2,1C687.3,540.4,689.1,543.3,691.7,545.6z"/>
<path class="st19" d="M710.8,527.1l-6.4,1.5l-0.1-1c1.4-1.9,3.9-2.8,6.2-2.1L710.8,527.1z"/>
<path class="st19" d="M607.4,519.8l-7.7,3.8l-0.2-1.7c2.5-1.3,5.1-2.5,7.8-3.4L607.4,519.8z"/>
<path class="st19" d="M704.9,630.3c-13,2-31.5,4.7-34.5,3.8c-2.4-0.7-10.2-0.7-17-0.4c0.1-3.4,0.1-5.6,0.1-5.6l50.5-5.2
	C704.1,625.3,704.4,627.8,704.9,630.3z"/>
<path class="st22" d="M717.9,627.2c0,0-42.8,7.4-47.4,5.9c-4.6-1.4-28.2,0.1-28.2,0.1c-10.6,7.1-6.2-3.4-6.2-3.4s-1-5.5,0.3-9.9
	c0.9-3.3,1.4-6.6,1.7-9.9c0,0-0.2-7,1-8.6c1.3-1.6,2.8-13.3,2.8-13.3s1.2-7.9,1.1-9.7c-0.1-1.8,0.3-6.6,0.3-6.6l1.5-8.2
	c-8.7-1.2-35.4-17.5-35.4-17.5c-1.3-5.5-11.2-18.3-11.2-18.3c-0.1-1.1-0.4-2.1-0.8-3.2c-0.7-1.9,9.8-5.6,9.8-5.6s7.8,9.6,9.5,12.1
	c1.6,2.6,7.2,7.4,7.2,7.4c0.9-0.1,1.8,0,2.6,0.3h0.1l0,0c1.9,0.7,3.6,1.7,5.2,3c2.6-0.1,5.2,0.9,7.1,2.7c0,0,4.8-0.7,5.6,0.1
	c0.8,0.8,4.9,0,4.9,0s4.1-8.6,6.8-6.1c2.7,2.5,14.1,2.4,14.1,2.4c1.5-2,5.2-3.5,7.5-4.2c2-0.7,4.1-0.7,6.1-0.1
	c0.9,0.2,1.7,0.6,2.4,1.2l6.9,6.8c0,0,1.9-2.6,1.8-3.2c-0.2-0.6,2.3-1,2.3-1s3.4-1,4.7-1.4c1.3-0.4,2.5,1,2.6,1.2
	c-0.5-1.7-0.7-3.4-0.6-5.1c0.1-1.5-0.4-3-1.4-4.2c4.1-10,13.4-1.5,13.4-1.5s1,5.5,0.1,7.6s1,6.5,0.7,7.7s0.5,3.2,0.5,5.4
	c-0.2,2.8-0.9,5.6-1.9,8.3c-0.7,1.9-6.3,6.1-6.3,6.1s-0.3,6.7-2.8,10.5c-2.5,3.9-1,17-1,17s2.3,10.3,5.2,13.6
	S717.9,627.2,717.9,627.2z"/>
<path class="st19" d="M655.5,550.4c0,0-1.3-3.9-2.5-4.2c-1.2-0.4-2.3-0.9-3.4-1.5l0.8-1.4c0,0,4.4,1.2,5.1,2.5
	C656.2,547,655.5,550.4,655.5,550.4z"/>
<path class="st19" d="M632,541.9c-0.2,1.2-10.6,2.2-10.6,2.2l5.2-5.3l0,0l0.1,0l0,0C628.7,539.6,630.4,540.6,632,541.9z"/>
<circle class="st29" cx="601.9" cy="525.8" r="0.9"/>
<circle class="st29" cx="603.1" cy="527.7" r="0.9"/>
<circle class="st29" cx="604.3" cy="529.4" r="0.9"/>
<circle class="st29" cx="605.5" cy="531.3" r="0.9"/>
<circle class="st29" cx="715.6" cy="531.2" r="0.8"/>
<circle class="st29" cx="715.7" cy="532.9" r="0.8"/>
<circle class="st29" cx="715.8" cy="534.6" r="0.8"/>
<path class="st19" d="M655.5,582c-0.1-0.1,26.2,33.1,46.6,13.9C702.2,595.9,669.9,600.3,655.5,582z"/>
<path class="st19" d="M640.4,599.3c0,0,15.7,0.4,17.4,5v4.7c-0.9,0.5-2,0.5-2.9,0c-1.6-0.9-11.1-5.7-14.5-3.4L640.4,599.3z"/>
<path class="st22" d="M640.7,599.3c0,0,15.1,0.4,16.6,4.7v4.5c-0.9,0.5-1.9,0.5-2.8,0c-1.5-0.8-10.7-5.4-13.8-3.2V599.3z"/>
<path class="st19" d="M649,565.1c1.6,3.7,3.7,7.2,6.1,10.5c2.7,3.6,5.9,6.7,9.6,9.2C664.7,584.8,649.3,567.3,649,565.1z"/>
<path class="st19" d="M643.8,546.8c0,0,2.6,11.3,9.4,15.2L643.8,546.8z"/>
<path class="st19" d="M639.8,547.9c-0.1-0.2-2.3,9,8.7,14C648.5,562,643.8,560.4,639.8,547.9z"/>
<path class="st19" d="M708.6,540.3c-0.2,0,5.5,3.6,7,5.2C715.6,545.6,711.9,540.1,708.6,540.3z"/>
<path class="st25" d="M673,532.5c0.1,0.7,0.5,1.4,1.1,1.9c0.4,0.2,0.9,0.3,1.3,0.3c4.2,0.3,8.6,0.4,12.6-1.2
	c0.7-0.3,1.4-0.7,1.9-1.3c0.6-0.9,0.9-2,1-3.1c0.6-2.1,1.7-3.9,2.6-5.9c1.4-3.3,1.9-7,1.4-10.6c-0.1-1.1-0.5-2.2-1.1-3.1
	c-1.1-1.6-3.2-2.3-4.7-3.5c-1.5-1.3-2.4-3.2-4.2-4.2c-1.6-0.7-3.5-0.9-5.2-0.5c-3.5,0.6-6.8,1.8-9.8,3.7c-1,0.6-2.1,1.3-3.3,1.1
	c-1-0.3-1.8-1-2.4-1.8c-0.8,1.9-1.2,4-1,6c0,0.3,0,0.6,0,0.9c-0.1,0.4-0.4,0.7-0.7,1c-1,1.2-1.7,3.1-0.7,4.4
	c0.5,0.5,1.1,0.8,1.6,1.4c0.8,1,0.5,2.4,0.5,3.6c0,0.4,0.1,0.9,0.3,1.2c0.5,0.4,1.1,0.6,1.7,0.4c0.6-0.2,1.2-0.2,1.8-0.2
	c0.7,0.2,1.2,0.6,1.6,1.2C671.4,526.8,672.1,529.5,673,532.5z"/>
<g class="st30">
	<path d="M690.2,531.1c-0.5,0.6-1.2,1-1.9,1.3c-3.9,1.6-8.3,1.4-12.6,1.2c-0.5,0-0.9-0.1-1.3-0.3c-0.6-0.5-1-1.1-1.1-1.9
		c-0.8-3-1.6-5.7-3.5-8.2c-0.4-0.6-0.9-1-1.6-1.2c-0.6-0.1-1.2,0-1.8,0.2c-0.6,0.2-1.3,0-1.7-0.4c-0.2-0.4-0.3-0.8-0.3-1.2
		c0-1.3,0.3-2.7-0.5-3.6c-0.4-0.5-1.1-0.8-1.6-1.4c-0.6-0.8-0.7-1.9-0.3-2.8c-0.7,1.2-1.1,2.7-0.2,3.7c0.5,0.5,1.1,0.8,1.6,1.4
		c0.8,1,0.5,2.4,0.5,3.6c0,0.4,0.1,0.9,0.3,1.2c0.5,0.4,1.1,0.6,1.7,0.4c0.6-0.2,1.2-0.2,1.8-0.2c0.7,0.2,1.2,0.6,1.6,1.2
		c1.9,2.5,2.7,5.2,3.5,8.2c0.1,0.7,0.5,1.4,1.1,1.9c0.4,0.2,0.9,0.3,1.3,0.3c4.2,0.3,8.6,0.4,12.6-1.2c0.7-0.3,1.4-0.7,1.9-1.3
		c0.3-0.3,0.5-0.7,0.6-1.1C690.4,531,690.3,531.1,690.2,531.1z"/>
	<path d="M663.2,510.9c0.2-0.2,0.3-0.4,0.4-0.7c0-0.3,0-0.6,0-0.9c-0.1-1.7,0.1-3.4,0.7-5l-0.1-0.1c-0.8,1.9-1.2,4-1,6
		C663.2,510.4,663.3,510.7,663.2,510.9z"/>
</g>
<path class="st19" d="M670.5,540.9c0,0,17.4,2.3,18.9-0.3"/>
<path class="st19" d="M704.2,533.7c0,0,9.6,0,11.8,3.6"/>
<path class="st3" d="M485.5,219.5c0,0,21.4-0.6,27.6,10.4c0,11.2,0,33.8,0,33.8s-12.1-10.5-27.6-9.9
	C485.5,232.2,485.5,219.5,485.5,219.5z"/>
<path class="st3" d="M540.7,219.5c0,0-21.4-0.6-27.6,10.4c0,11.2,0,33.8,0,33.8s12.1-10.5,27.6-9.9
	C540.7,232.2,540.7,219.5,540.7,219.5z"/>
<path class="st31" d="M490.1,230.6c0,0,12.4-0.2,17.7,6.5c0,6.5,0,3.7,0,3.7s-13.1-8.5-17.7-6.4
	C490.1,230.6,490.1,230.6,490.1,230.6z"/>
<path class="st31" d="M490.1,238.4c0,0,12.4-0.2,17.7,6.5c0,6.5,0,3.7,0,3.7s-13.1-8.5-17.7-6.4
	C490.1,238.4,490.1,238.4,490.1,238.4z"/>
<path class="st31" d="M517.2,233.2v10.6c0,0,4.6-5.2,10.8-4.4c0-9.6,0-9.6,0-9.6S523,228.6,517.2,233.2z"/>
<rect x="591.5" y="311.1" class="st3" width="67.2" height="67.2"/>
<path class="st32" d="M589.5,307.2c0,0,0.3,46.1-21.7,64.8c66.9,0,65.4,0,65.4,0s21.4-26.2,17.5-64.8
	C589.5,307.2,589.5,307.2,589.5,307.2z"/>
<rect x="604" y="303.3" class="st3" width="1.2" height="8.1"/>
<rect x="630.5" y="303.3" class="st3" width="1.2" height="8.1"/>
<text transform="matrix(1 0 0 1 594.9385 337.6309)" class="st3 st33 st34">A</text>
<text transform="matrix(1 0 0 1 616.3975 355.1128)" class="st3 st33 st34">P</text>
<path class="st3" d="M553.2,644.5h-48.9c-1.7,0-3-1.4-3-3v-33.7c0-1.7,1.4-3,3-3h48.9c1.7,0,3,1.4,3,3v33.7
	C556.2,643.2,554.9,644.5,553.2,644.5z"/>
<polygon class="st5" points="539.4,624.6 518.1,637 518.1,612.3 "/>
<path class="st3" d="M546.8,478.5H506c-2,0-3.5-1.6-3.5-3.5v-29c0-2,1.6-3.5,3.5-3.5h40.8c2,0,3.5,1.6,3.5,3.5v29
	C550.3,476.9,548.7,478.5,546.8,478.5z"/>
<text transform="matrix(1 0 0 1 506.3047 454.5889)" class="st5 st33 st35">Q</text>
<text transform="matrix(1 0 0 1 506.2349 463.0088)" class="st5 st33 st35">Q</text>
<text transform="matrix(1 0 0 1 506.3047 470.8037)" class="st5 st33 st35">Q</text>
<path class="st5" d="M530.2,453.8h-14.7c-0.7,0-1.3-0.6-1.3-1.3l0,0c0-0.7,0.6-1.3,1.3-1.3h14.7c0.7,0,1.3,0.6,1.3,1.3l0,0
	C531.5,453.3,530.9,453.8,530.2,453.8z"/>
<path class="st5" d="M530.2,462.2h-14.7c-0.7,0-1.3-0.6-1.3-1.3l0,0c0-0.7,0.6-1.3,1.3-1.3h14.7c0.7,0,1.3,0.6,1.3,1.3l0,0
	C531.5,461.6,530.9,462.2,530.2,462.2z"/>
<path class="st5" d="M530.2,469.8h-14.7c-0.7,0-1.3-0.6-1.3-1.3l0,0c0-0.7,0.6-1.3,1.3-1.3h14.7c0.7,0,1.3,0.6,1.3,1.3l0,0
	C531.5,469.2,530.9,469.8,530.2,469.8z"/>
<circle class="st36" cx="547.6" cy="475.7" r="11.6"/>
<circle class="st32" cx="546.4" cy="475.1" r="11.6"/>
<text transform="matrix(1 0 0 1 538.6782 478.6494)" class="st3 st33 st37">A+</text>
<path class="st3" d="M872.7,546.1h-52.2c-2,0-3.6-1.6-3.6-3.6v-2.8c0-2,1.6-3.6,3.6-3.6h52.2c2,0,3.6,1.6,3.6,3.6v2.8
	C876.3,544.5,874.7,546.1,872.7,546.1z"/>
<path class="st3" d="M870.1,560h-47c-1.9,0-3.4-1.5-3.4-3.4v-3.2c0-1.9,1.5-3.4,3.4-3.4h47c1.9,0,3.4,1.5,3.4,3.4v3.2
	C873.5,558.5,872,560,870.1,560z"/>
<path class="st3" d="M847,541.1c0.4,7.7-0.1,24.6-11.3,29.2c-2.3,0.9-3,3.9-1.5,5.8l13.3,16.3c1.4,1.7,3.8,1.8,5.4,0.4l0.4-0.4
	c1.4-1.3,1.6-3.6,0.3-5.1l-7.4-8.9c-1.2-1.5-1.1-3.7,0.3-5c4.1-4,11.2-13.8,8.9-32.9c-0.2-1.9-1.8-3.3-3.7-3.3h-1.1
	C848.5,537.2,846.9,539,847,541.1z"/>
</svg>
