<svg width="101" height="53" viewBox="0 0 101 53" fill="none" xmlns="http://www.w3.org/2000/svg">
<path fill-rule="evenodd" clip-rule="evenodd" d="M31.532 23.8617C31.2539 23.5262 30.9123 23.2686 30.5072 23.0889C30.1022 22.9092 29.6336 22.8193 29.1016 22.8193C28.5696 22.8193 28.0769 22.9212 27.6234 23.1249C27.17 23.3285 26.777 23.6131 26.4445 23.9786C26.112 24.344 25.8521 24.7783 25.6646 25.2816C25.4772 25.7848 25.3835 26.33 25.3835 26.9171C25.3835 27.5161 25.4772 28.0643 25.6646 28.5615C25.8521 29.0588 26.109 29.4901 26.4355 29.8556C26.7619 30.221 27.1458 30.5056 27.5872 30.7093C28.0285 30.913 28.5031 31.0148 29.0109 31.0148C29.5913 31.0148 30.1052 30.895 30.5526 30.6553C30.9999 30.4157 31.3687 30.0802 31.6589 29.6489L34.0167 31.3922C33.4726 32.1471 32.7834 32.7042 31.9491 33.0637C31.1148 33.4231 30.2563 33.6028 29.3737 33.6028C28.3701 33.6028 27.4451 33.4471 26.5987 33.1356C25.7523 32.824 25.0208 32.3777 24.4041 31.7966C23.7874 31.2155 23.3068 30.5116 22.9622 29.6848C22.6176 28.8581 22.4453 27.9355 22.4453 26.9171C22.4453 25.8986 22.6176 24.976 22.9622 24.1493C23.3068 23.3225 23.7874 22.6186 24.4041 22.0375C25.0208 21.4564 25.7523 21.0101 26.5987 20.6986C27.4451 20.387 28.3701 20.2313 29.3737 20.2313C29.7364 20.2313 30.1142 20.2642 30.5072 20.3301C30.9002 20.396 31.2871 20.5009 31.668 20.6446C32.0489 20.7884 32.4146 20.9801 32.7653 21.2198C33.1159 21.4594 33.4303 21.753 33.7084 22.1004L31.532 23.8617ZM35.2523 19.6926H37.9728V33.2799H35.2523V19.6926ZM45.4621 32.1831H45.4258C45.1235 32.6504 44.7215 32.9858 44.2197 33.1895C43.7179 33.3932 43.1889 33.4951 42.6327 33.4951C42.2216 33.4951 41.8256 33.4382 41.4447 33.3243C41.0639 33.2105 40.7283 33.0398 40.4381 32.8121C40.1479 32.5845 39.9182 32.3029 39.7489 31.9674C39.5797 31.6319 39.495 31.2425 39.495 30.7992C39.495 30.296 39.5887 29.8706 39.7761 29.5231C39.9636 29.1757 40.2175 28.8881 40.5379 28.6605C40.8583 28.4328 41.2241 28.2561 41.6352 28.1303C42.0463 28.0045 42.4725 27.9116 42.9138 27.8517C43.3552 27.7918 43.7965 27.7558 44.2378 27.7439C44.6792 27.7319 45.0873 27.7259 45.4621 27.7259C45.4621 27.2466 45.2898 26.8662 44.9452 26.5846C44.6006 26.3031 44.1925 26.1623 43.7209 26.1623C43.2736 26.1623 42.8655 26.2551 42.4967 26.4409C42.1279 26.6266 41.7984 26.8812 41.5082 27.2047L40.0573 25.7309C40.5651 25.2637 41.1576 24.9132 41.8347 24.6796C42.5118 24.4459 43.2131 24.3291 43.9386 24.3291C44.7366 24.3291 45.3926 24.4279 45.9064 24.6256C46.4203 24.8233 46.8314 25.1139 47.1398 25.4973C47.4481 25.8807 47.6627 26.351 47.7836 26.9081C47.9045 27.4653 47.965 28.1093 47.965 28.8402V33.2794H45.4621V32.1831ZM44.7865 29.4515C44.581 29.4515 44.324 29.4605 44.0157 29.4784C43.7074 29.4964 43.4111 29.5473 43.127 29.6312C42.8428 29.7151 42.601 29.8409 42.4015 30.0086C42.202 30.1764 42.1022 30.41 42.1022 30.7095C42.1022 31.0331 42.2413 31.2727 42.5194 31.4284C42.7975 31.5842 43.0877 31.6621 43.39 31.6621C43.656 31.6621 43.9129 31.6261 44.1608 31.5543C44.4087 31.4824 44.6293 31.3805 44.8228 31.2487C45.0163 31.1169 45.1704 30.9492 45.2853 30.7455C45.4002 30.5418 45.4576 30.3022 45.4576 30.0266V29.4515H44.7865ZM54.6539 27.1148C54.2549 26.6236 53.7289 26.378 53.076 26.378C52.8463 26.378 52.6226 26.4319 52.4049 26.5397C52.1873 26.6475 52.0785 26.8333 52.0785 27.0969C52.0785 27.3125 52.1903 27.4713 52.414 27.5731C52.6377 27.675 52.9218 27.7648 53.2664 27.8427C53.611 27.9206 53.9798 28.0045 54.3728 28.0943C54.7658 28.1842 55.1345 28.325 55.4791 28.5167C55.8238 28.7084 56.1079 28.969 56.3316 29.2985C56.5553 29.628 56.6671 30.0683 56.6671 30.6195C56.6671 31.1826 56.5432 31.6469 56.2953 32.0123C56.0474 32.3778 55.73 32.6713 55.3431 32.893C54.9562 33.1147 54.5209 33.2704 54.0373 33.3603C53.5536 33.4501 53.076 33.4951 52.6044 33.4951C51.9878 33.4951 51.3651 33.4082 50.7363 33.2345C50.1076 33.0607 49.5755 32.7522 49.1403 32.3089L50.7907 30.4937C51.0446 30.8052 51.3258 31.0418 51.6341 31.2036C51.9424 31.3653 52.3021 31.4462 52.7132 31.4462C53.0276 31.4462 53.3118 31.4013 53.5657 31.3114C53.8196 31.2215 53.9466 31.0568 53.9466 30.8172C53.9466 30.5895 53.8347 30.4188 53.611 30.3049C53.3873 30.1911 53.1032 30.0953 52.7586 30.0174C52.414 29.9395 52.0452 29.8556 51.6522 29.7658C51.2593 29.6759 50.8905 29.5411 50.5459 29.3614C50.2013 29.1817 49.9171 28.9271 49.6934 28.5976C49.4697 28.2681 49.3579 27.8277 49.3579 27.2766C49.3579 26.7614 49.4637 26.318 49.6753 25.9466C49.8869 25.5752 50.165 25.2696 50.5096 25.03C50.8542 24.7904 51.2502 24.6137 51.6976 24.4998C52.145 24.386 52.5984 24.3291 53.0579 24.3291C53.6382 24.3291 54.2247 24.413 54.8171 24.5807C55.4096 24.7484 55.9114 25.048 56.3225 25.4793L54.6539 27.1148ZM63.0514 27.1148C62.6524 26.6236 62.1264 26.378 61.4734 26.378C61.2437 26.378 61.02 26.4319 60.8024 26.5397C60.5847 26.6475 60.4759 26.8333 60.4759 27.0969C60.4759 27.3125 60.5878 27.4713 60.8115 27.5731C61.0351 27.675 61.3193 27.7648 61.6639 27.8427C62.0085 27.9206 62.3773 28.0045 62.7702 28.0943C63.1632 28.1842 63.532 28.325 63.8766 28.5167C64.2212 28.7084 64.5054 28.969 64.729 29.2985C64.9527 29.628 65.0646 30.0683 65.0646 30.6195C65.0646 31.1826 64.9406 31.6469 64.6928 32.0123C64.4449 32.3778 64.1275 32.6713 63.7406 32.893C63.3537 33.1147 62.9184 33.2704 62.4347 33.3603C61.9511 33.4501 61.4735 33.4951 61.0019 33.4951C60.3852 33.4951 59.7625 33.4082 59.1338 33.2345C58.505 33.0607 57.973 32.7522 57.5377 32.3089L59.1882 30.4937C59.4421 30.8052 59.7232 31.0418 60.0316 31.2036C60.3399 31.3653 60.6996 31.4462 61.1107 31.4462C61.4251 31.4462 61.7092 31.4013 61.9632 31.3114C62.2171 31.2215 62.344 31.0568 62.344 30.8172C62.344 30.5895 62.2322 30.4188 62.0085 30.3049C61.7848 30.1911 61.5007 30.0953 61.1561 30.0174C60.8114 29.9395 60.4427 29.8556 60.0497 29.7658C59.6567 29.6759 59.2879 29.5411 58.9433 29.3614C58.5987 29.1817 58.3146 28.9271 58.0909 28.5976C57.8672 28.2681 57.7554 27.8277 57.7554 27.2766C57.7554 26.7614 57.8612 26.318 58.0728 25.9466C58.2844 25.5752 58.5625 25.2696 58.9071 25.03C59.2517 24.7904 59.6477 24.6137 60.095 24.4998C60.5424 24.386 60.9958 24.3291 61.4553 24.3291C62.0357 24.3291 62.6221 24.413 63.2146 24.5807C63.8071 24.7484 64.3089 25.048 64.72 25.4793L63.0514 27.1148ZM66.7159 24.5448H69.2189V25.695H69.2551C69.364 25.5392 69.506 25.3805 69.6814 25.2187C69.8567 25.057 70.0622 24.9102 70.298 24.7784C70.5338 24.6466 70.7907 24.5388 71.0688 24.4549C71.3469 24.371 71.6432 24.3291 71.9575 24.3291C72.6105 24.3291 73.2029 24.4399 73.735 24.6616C74.267 24.8832 74.7234 25.1948 75.1043 25.5961C75.4852 25.9975 75.7784 26.4738 75.984 27.025C76.1895 27.5761 76.2923 28.1812 76.2923 28.8402C76.2923 29.4513 76.1986 30.0354 76.0112 30.5925C75.8238 31.1497 75.5577 31.6439 75.2131 32.0752C74.8685 32.5066 74.4484 32.8511 73.9526 33.1087C73.4569 33.3663 72.8946 33.4951 72.2659 33.4951C71.6976 33.4951 71.1686 33.4082 70.6789 33.2345C70.1892 33.0607 69.7872 32.7642 69.4728 32.3448H69.4365V37.3771H66.7159V24.5448ZM69.2183 28.9119C69.2183 29.5709 69.4087 30.1041 69.7896 30.5114C70.1705 30.9188 70.7055 31.1225 71.3947 31.1225C72.0839 31.1225 72.6189 30.9188 72.9998 30.5114C73.3807 30.1041 73.5711 29.5709 73.5711 28.9119C73.5711 28.2529 73.3807 27.7197 72.9998 27.3123C72.6189 26.905 72.0839 26.7013 71.3947 26.7013C70.7055 26.7013 70.1705 26.905 69.7896 27.3123C69.4087 27.7197 69.2183 28.2529 69.2183 28.9119ZM77.9266 19.6926H80.6471V33.2799H77.9266V19.6926ZM91.0916 33.2798H88.4798V32.0936H88.4436C88.3468 32.2613 88.2229 32.4291 88.0717 32.5968C87.9206 32.7645 87.7362 32.9143 87.5186 33.0461C87.3009 33.1779 87.0531 33.2857 86.775 33.3696C86.4968 33.4535 86.1946 33.4954 85.8681 33.4954C85.1789 33.4954 84.6197 33.3906 84.1904 33.1809C83.7612 32.9712 83.4287 32.6807 83.1929 32.3092C82.9571 31.9378 82.7999 31.5005 82.7213 30.9972C82.6427 30.494 82.6034 29.9488 82.6034 29.3617V24.5451H85.324V28.8226C85.324 29.0742 85.3331 29.3348 85.3512 29.6044C85.3693 29.874 85.4237 30.1226 85.5144 30.3502C85.6051 30.5779 85.7442 30.7636 85.9316 30.9074C86.119 31.0512 86.388 31.123 86.7387 31.123C87.0893 31.123 87.3735 31.0601 87.5911 30.9343C87.8088 30.8085 87.975 30.6408 88.0899 30.4311C88.2048 30.2214 88.2803 29.9848 88.3166 29.7212C88.3529 29.4576 88.371 29.182 88.371 28.8945V24.5451H91.0916V33.2798ZM98.0045 27.1148C97.6055 26.6236 97.0796 26.378 96.4266 26.378C96.1969 26.378 95.9732 26.4319 95.7556 26.5397C95.5379 26.6475 95.4291 26.8333 95.4291 27.0969C95.4291 27.3125 95.5409 27.4713 95.7646 27.5731C95.9883 27.675 96.2725 27.7648 96.6171 27.8427C96.9617 27.9206 97.3305 28.0045 97.7234 28.0943C98.1164 28.1842 98.4852 28.325 98.8298 28.5167C99.1744 28.7084 99.4585 28.969 99.6822 29.2985C99.9059 29.628 100.018 30.0683 100.018 30.6195C100.018 31.1826 99.8938 31.6469 99.646 32.0123C99.3981 32.3778 99.0807 32.6713 98.6938 32.893C98.3068 33.1147 97.8715 33.2704 97.3879 33.3603C96.9042 33.4501 96.4266 33.4951 95.9551 33.4951C95.3384 33.4951 94.7157 33.4082 94.087 33.2345C93.4582 33.0607 92.9262 32.7522 92.4909 32.3089L94.1414 30.4937C94.3953 30.8052 94.6764 31.0418 94.9847 31.2036C95.2931 31.3653 95.6528 31.4462 96.0639 31.4462C96.3783 31.4462 96.6624 31.4013 96.9163 31.3114C97.1702 31.2215 97.2972 31.0568 97.2972 30.8172C97.2972 30.5895 97.1854 30.4188 96.9617 30.3049C96.738 30.1911 96.4538 30.0953 96.1092 30.0174C95.7646 29.9395 95.3958 29.8556 95.0029 29.7658C94.6099 29.6759 94.2411 29.5411 93.8965 29.3614C93.5519 29.1817 93.2678 28.9271 93.0441 28.5976C92.8204 28.2681 92.7085 27.8277 92.7085 27.2766C92.7085 26.7614 92.8143 26.318 93.0259 25.9466C93.2375 25.5752 93.5156 25.2696 93.8602 25.03C94.2048 24.7904 94.6008 24.6137 95.0482 24.4998C95.4956 24.386 95.949 24.3291 96.4085 24.3291C96.9889 24.3291 97.5753 24.413 98.1678 24.5807C98.7603 24.7484 99.262 25.048 99.6732 25.4793L98.0045 27.1148Z" fill="black"/>
<path fill-rule="evenodd" clip-rule="evenodd" d="M31.532 23.8617C31.2539 23.5262 30.9123 23.2686 30.5072 23.0889C30.1022 22.9092 29.6336 22.8193 29.1016 22.8193C28.5696 22.8193 28.0769 22.9212 27.6234 23.1249C27.17 23.3285 26.777 23.6131 26.4445 23.9786C26.112 24.344 25.8521 24.7783 25.6646 25.2816C25.4772 25.7848 25.3835 26.33 25.3835 26.9171C25.3835 27.5161 25.4772 28.0643 25.6646 28.5615C25.8521 29.0588 26.109 29.4901 26.4355 29.8556C26.7619 30.221 27.1458 30.5056 27.5872 30.7093C28.0285 30.913 28.5031 31.0148 29.0109 31.0148C29.5913 31.0148 30.1052 30.895 30.5526 30.6553C30.9999 30.4157 31.3687 30.0802 31.6589 29.6489L34.0167 31.3922C33.4726 32.1471 32.7834 32.7042 31.9491 33.0637C31.1148 33.4231 30.2563 33.6028 29.3737 33.6028C28.3701 33.6028 27.4451 33.4471 26.5987 33.1356C25.7523 32.824 25.0208 32.3777 24.4041 31.7966C23.7874 31.2155 23.3068 30.5116 22.9622 29.6848C22.6176 28.8581 22.4453 27.9355 22.4453 26.9171C22.4453 25.8986 22.6176 24.976 22.9622 24.1493C23.3068 23.3225 23.7874 22.6186 24.4041 22.0375C25.0208 21.4564 25.7523 21.0101 26.5987 20.6986C27.4451 20.387 28.3701 20.2313 29.3737 20.2313C29.7364 20.2313 30.1142 20.2642 30.5072 20.3301C30.9002 20.396 31.2871 20.5009 31.668 20.6446C32.0489 20.7884 32.4146 20.9801 32.7653 21.2198C33.1159 21.4594 33.4303 21.753 33.7084 22.1004L31.532 23.8617ZM35.2523 19.6926H37.9728V33.2799H35.2523V19.6926ZM45.4621 32.1831H45.4258C45.1235 32.6504 44.7215 32.9858 44.2197 33.1895C43.7179 33.3932 43.1889 33.4951 42.6327 33.4951C42.2216 33.4951 41.8256 33.4382 41.4447 33.3243C41.0639 33.2105 40.7283 33.0398 40.4381 32.8121C40.1479 32.5845 39.9182 32.3029 39.7489 31.9674C39.5797 31.6319 39.495 31.2425 39.495 30.7992C39.495 30.296 39.5887 29.8706 39.7761 29.5231C39.9636 29.1757 40.2175 28.8881 40.5379 28.6605C40.8583 28.4328 41.2241 28.2561 41.6352 28.1303C42.0463 28.0045 42.4725 27.9116 42.9138 27.8517C43.3552 27.7918 43.7965 27.7558 44.2378 27.7439C44.6792 27.7319 45.0873 27.7259 45.4621 27.7259C45.4621 27.2466 45.2898 26.8662 44.9452 26.5846C44.6006 26.3031 44.1925 26.1623 43.7209 26.1623C43.2736 26.1623 42.8655 26.2551 42.4967 26.4409C42.1279 26.6266 41.7984 26.8812 41.5082 27.2047L40.0573 25.7309C40.5651 25.2637 41.1576 24.9132 41.8347 24.6796C42.5118 24.4459 43.2131 24.3291 43.9386 24.3291C44.7366 24.3291 45.3926 24.4279 45.9064 24.6256C46.4203 24.8233 46.8314 25.1139 47.1398 25.4973C47.4481 25.8807 47.6627 26.351 47.7836 26.9081C47.9045 27.4653 47.965 28.1093 47.965 28.8402V33.2794H45.4621V32.1831ZM44.7865 29.4515C44.581 29.4515 44.324 29.4605 44.0157 29.4784C43.7074 29.4964 43.4111 29.5473 43.127 29.6312C42.8428 29.7151 42.601 29.8409 42.4015 30.0086C42.202 30.1764 42.1022 30.41 42.1022 30.7095C42.1022 31.0331 42.2413 31.2727 42.5194 31.4284C42.7975 31.5842 43.0877 31.6621 43.39 31.6621C43.656 31.6621 43.9129 31.6261 44.1608 31.5543C44.4087 31.4824 44.6293 31.3805 44.8228 31.2487C45.0163 31.1169 45.1704 30.9492 45.2853 30.7455C45.4002 30.5418 45.4576 30.3022 45.4576 30.0266V29.4515H44.7865ZM54.6539 27.1148C54.2549 26.6236 53.7289 26.378 53.076 26.378C52.8463 26.378 52.6226 26.4319 52.4049 26.5397C52.1873 26.6475 52.0785 26.8333 52.0785 27.0969C52.0785 27.3125 52.1903 27.4713 52.414 27.5731C52.6377 27.675 52.9218 27.7648 53.2664 27.8427C53.611 27.9206 53.9798 28.0045 54.3728 28.0943C54.7658 28.1842 55.1345 28.325 55.4791 28.5167C55.8238 28.7084 56.1079 28.969 56.3316 29.2985C56.5553 29.628 56.6671 30.0683 56.6671 30.6195C56.6671 31.1826 56.5432 31.6469 56.2953 32.0123C56.0474 32.3778 55.73 32.6713 55.3431 32.893C54.9562 33.1147 54.5209 33.2704 54.0373 33.3603C53.5536 33.4501 53.076 33.4951 52.6044 33.4951C51.9878 33.4951 51.3651 33.4082 50.7363 33.2345C50.1076 33.0607 49.5755 32.7522 49.1403 32.3089L50.7907 30.4937C51.0446 30.8052 51.3258 31.0418 51.6341 31.2036C51.9424 31.3653 52.3021 31.4462 52.7132 31.4462C53.0276 31.4462 53.3118 31.4013 53.5657 31.3114C53.8196 31.2215 53.9466 31.0568 53.9466 30.8172C53.9466 30.5895 53.8347 30.4188 53.611 30.3049C53.3873 30.1911 53.1032 30.0953 52.7586 30.0174C52.414 29.9395 52.0452 29.8556 51.6522 29.7658C51.2593 29.6759 50.8905 29.5411 50.5459 29.3614C50.2013 29.1817 49.9171 28.9271 49.6934 28.5976C49.4697 28.2681 49.3579 27.8277 49.3579 27.2766C49.3579 26.7614 49.4637 26.318 49.6753 25.9466C49.8869 25.5752 50.165 25.2696 50.5096 25.03C50.8542 24.7904 51.2502 24.6137 51.6976 24.4998C52.145 24.386 52.5984 24.3291 53.0579 24.3291C53.6382 24.3291 54.2247 24.413 54.8171 24.5807C55.4096 24.7484 55.9114 25.048 56.3225 25.4793L54.6539 27.1148ZM63.0514 27.1148C62.6524 26.6236 62.1264 26.378 61.4734 26.378C61.2437 26.378 61.02 26.4319 60.8024 26.5397C60.5847 26.6475 60.4759 26.8333 60.4759 27.0969C60.4759 27.3125 60.5878 27.4713 60.8115 27.5731C61.0351 27.675 61.3193 27.7648 61.6639 27.8427C62.0085 27.9206 62.3773 28.0045 62.7702 28.0943C63.1632 28.1842 63.532 28.325 63.8766 28.5167C64.2212 28.7084 64.5054 28.969 64.729 29.2985C64.9527 29.628 65.0646 30.0683 65.0646 30.6195C65.0646 31.1826 64.9406 31.6469 64.6928 32.0123C64.4449 32.3778 64.1275 32.6713 63.7406 32.893C63.3537 33.1147 62.9184 33.2704 62.4347 33.3603C61.9511 33.4501 61.4735 33.4951 61.0019 33.4951C60.3852 33.4951 59.7625 33.4082 59.1338 33.2345C58.505 33.0607 57.973 32.7522 57.5377 32.3089L59.1882 30.4937C59.4421 30.8052 59.7232 31.0418 60.0316 31.2036C60.3399 31.3653 60.6996 31.4462 61.1107 31.4462C61.4251 31.4462 61.7092 31.4013 61.9632 31.3114C62.2171 31.2215 62.344 31.0568 62.344 30.8172C62.344 30.5895 62.2322 30.4188 62.0085 30.3049C61.7848 30.1911 61.5007 30.0953 61.1561 30.0174C60.8114 29.9395 60.4427 29.8556 60.0497 29.7658C59.6567 29.6759 59.2879 29.5411 58.9433 29.3614C58.5987 29.1817 58.3146 28.9271 58.0909 28.5976C57.8672 28.2681 57.7554 27.8277 57.7554 27.2766C57.7554 26.7614 57.8612 26.318 58.0728 25.9466C58.2844 25.5752 58.5625 25.2696 58.9071 25.03C59.2517 24.7904 59.6477 24.6137 60.095 24.4998C60.5424 24.386 60.9958 24.3291 61.4553 24.3291C62.0357 24.3291 62.6221 24.413 63.2146 24.5807C63.8071 24.7484 64.3089 25.048 64.72 25.4793L63.0514 27.1148ZM66.7159 24.5448H69.2189V25.695H69.2551C69.364 25.5392 69.506 25.3805 69.6814 25.2187C69.8567 25.057 70.0622 24.9102 70.298 24.7784C70.5338 24.6466 70.7907 24.5388 71.0688 24.4549C71.3469 24.371 71.6432 24.3291 71.9575 24.3291C72.6105 24.3291 73.2029 24.4399 73.735 24.6616C74.267 24.8832 74.7234 25.1948 75.1043 25.5961C75.4852 25.9975 75.7784 26.4738 75.984 27.025C76.1895 27.5761 76.2923 28.1812 76.2923 28.8402C76.2923 29.4513 76.1986 30.0354 76.0112 30.5925C75.8238 31.1497 75.5577 31.6439 75.2131 32.0752C74.8685 32.5066 74.4484 32.8511 73.9526 33.1087C73.4569 33.3663 72.8946 33.4951 72.2659 33.4951C71.6976 33.4951 71.1686 33.4082 70.6789 33.2345C70.1892 33.0607 69.7872 32.7642 69.4728 32.3448H69.4365V37.3771H66.7159V24.5448ZM69.2183 28.9119C69.2183 29.5709 69.4087 30.1041 69.7896 30.5114C70.1705 30.9188 70.7055 31.1225 71.3947 31.1225C72.0839 31.1225 72.6189 30.9188 72.9998 30.5114C73.3807 30.1041 73.5711 29.5709 73.5711 28.9119C73.5711 28.2529 73.3807 27.7197 72.9998 27.3123C72.6189 26.905 72.0839 26.7013 71.3947 26.7013C70.7055 26.7013 70.1705 26.905 69.7896 27.3123C69.4087 27.7197 69.2183 28.2529 69.2183 28.9119ZM77.9266 19.6926H80.6471V33.2799H77.9266V19.6926ZM91.0916 33.2798H88.4798V32.0936H88.4436C88.3468 32.2613 88.2229 32.4291 88.0717 32.5968C87.9206 32.7645 87.7362 32.9143 87.5186 33.0461C87.3009 33.1779 87.0531 33.2857 86.775 33.3696C86.4968 33.4535 86.1946 33.4954 85.8681 33.4954C85.1789 33.4954 84.6197 33.3906 84.1904 33.1809C83.7612 32.9712 83.4287 32.6807 83.1929 32.3092C82.9571 31.9378 82.7999 31.5005 82.7213 30.9972C82.6427 30.494 82.6034 29.9488 82.6034 29.3617V24.5451H85.324V28.8226C85.324 29.0742 85.3331 29.3348 85.3512 29.6044C85.3693 29.874 85.4237 30.1226 85.5144 30.3502C85.6051 30.5779 85.7442 30.7636 85.9316 30.9074C86.119 31.0512 86.388 31.123 86.7387 31.123C87.0893 31.123 87.3735 31.0601 87.5911 30.9343C87.8088 30.8085 87.975 30.6408 88.0899 30.4311C88.2048 30.2214 88.2803 29.9848 88.3166 29.7212C88.3529 29.4576 88.371 29.182 88.371 28.8945V24.5451H91.0916V33.2798ZM98.0045 27.1148C97.6055 26.6236 97.0796 26.378 96.4266 26.378C96.1969 26.378 95.9732 26.4319 95.7556 26.5397C95.5379 26.6475 95.4291 26.8333 95.4291 27.0969C95.4291 27.3125 95.5409 27.4713 95.7646 27.5731C95.9883 27.675 96.2725 27.7648 96.6171 27.8427C96.9617 27.9206 97.3305 28.0045 97.7234 28.0943C98.1164 28.1842 98.4852 28.325 98.8298 28.5167C99.1744 28.7084 99.4585 28.969 99.6822 29.2985C99.9059 29.628 100.018 30.0683 100.018 30.6195C100.018 31.1826 99.8938 31.6469 99.646 32.0123C99.3981 32.3778 99.0807 32.6713 98.6938 32.893C98.3068 33.1147 97.8715 33.2704 97.3879 33.3603C96.9042 33.4501 96.4266 33.4951 95.9551 33.4951C95.3384 33.4951 94.7157 33.4082 94.087 33.2345C93.4582 33.0607 92.9262 32.7522 92.4909 32.3089L94.1414 30.4937C94.3953 30.8052 94.6764 31.0418 94.9847 31.2036C95.2931 31.3653 95.6528 31.4462 96.0639 31.4462C96.3783 31.4462 96.6624 31.4013 96.9163 31.3114C97.1702 31.2215 97.2972 31.0568 97.2972 30.8172C97.2972 30.5895 97.1854 30.4188 96.9617 30.3049C96.738 30.1911 96.4538 30.0953 96.1092 30.0174C95.7646 29.9395 95.3958 29.8556 95.0029 29.7658C94.6099 29.6759 94.2411 29.5411 93.8965 29.3614C93.5519 29.1817 93.2678 28.9271 93.0441 28.5976C92.8204 28.2681 92.7085 27.8277 92.7085 27.2766C92.7085 26.7614 92.8143 26.318 93.0259 25.9466C93.2375 25.5752 93.5156 25.2696 93.8602 25.03C94.2048 24.7904 94.6008 24.6137 95.0482 24.4998C95.4956 24.386 95.949 24.3291 96.4085 24.3291C96.9889 24.3291 97.5753 24.413 98.1678 24.5807C98.7603 24.7484 99.262 25.048 99.6732 25.4793L98.0045 27.1148Z" fill="#2D2D45"/>
<path fill-rule="evenodd" clip-rule="evenodd" d="M3.55871 31.0749L13.554 21.2283C13.7511 21.0341 14.0718 21.0351 14.2703 21.2306L18.5824 25.4786C19.1778 26.0651 19.181 27.0129 18.5895 27.5956L8.59427 37.4422C8.39712 37.6364 8.07641 37.6354 7.87795 37.4399L3.56582 33.1919C2.97044 32.6054 2.96726 31.6575 3.55871 31.0749Z" fill="url(#paint0_linear)"/>
<path fill-rule="evenodd" clip-rule="evenodd" d="M12.509 30.7513L3.52542 21.9013C2.93004 21.3148 2.92686 20.367 3.51831 19.7843L7.802 15.5643C7.99916 15.3701 8.31986 15.3712 8.51832 15.5667L18.58 25.4787C19.1754 26.0652 19.1786 27.013 18.5871 27.5956L14.3034 31.8156L12.8755 33.2223C13.467 32.6396 13.4638 31.6918 12.8684 31.1053L12.509 30.7513Z" fill="url(#paint1_linear)"/>
<defs>
<linearGradient id="paint0_linear" x1="7.48864" y1="37.0564" x2="15.8104" y2="28.609" gradientUnits="userSpaceOnUse">
<stop stop-color="#00749B"/>
<stop offset="1" stop-color="#005077"/>
</linearGradient>
<linearGradient id="paint1_linear" x1="1.37646" y1="21.8943" x2="12.7032" y2="33.392" gradientUnits="userSpaceOnUse">
<stop stop-color="#00CAF2"/>
<stop offset="1" stop-color="#009AE0"/>
</linearGradient>
</defs>
</svg>
