<svg width="80" height="80" viewBox="0 0 80 80" fill="none" xmlns="http://www.w3.org/2000/svg">
<rect x="23.5" y="17.8785" width="52.8239" height="38.1025" rx="4" transform="rotate(6.35061 23.5 17.8785)" fill="#9AD9F5"/>
<path d="M38.1663 50.3014H55.2493C55.8899 50.3014 56.3169 49.8744 56.3169 49.2337V39.6245C56.3169 38.9839 55.8899 38.5569 55.2493 38.5569H38.1663C37.5257 38.5569 37.0986 38.9839 37.0986 39.6245V49.2337C37.0985 49.8742 37.5257 50.3014 38.1663 50.3014ZM39.2339 40.6922H54.1816V48.166H39.2339V40.6922Z" fill="black"/>
<path d="M9.33816 36.4213H17.8797C18.5203 36.4213 18.9474 35.9943 18.9474 35.3537C18.9474 34.713 18.5203 34.286 17.8797 34.286H9.33816C8.69754 34.286 8.27051 34.713 8.27051 35.3537C8.27051 35.9943 8.69754 36.4213 9.33816 36.4213Z" fill="black"/>
<path d="M22.1507 36.4213H30.6922C31.3328 36.4213 31.7599 35.9943 31.7599 35.3537C31.7599 34.713 31.3328 34.286 30.6922 34.286H22.1507C21.51 34.286 21.083 34.713 21.083 35.3537C21.083 35.9943 21.51 36.4213 22.1507 36.4213Z" fill="black"/>
<path d="M9.33816 40.6922H23.2181C23.8587 40.6922 24.2857 40.2651 24.2857 39.6245C24.2857 38.9839 23.8587 38.5569 23.2181 38.5569H9.33816C8.69754 38.5569 8.27051 38.9839 8.27051 39.6245C8.27051 40.2651 8.69754 40.6922 9.33816 40.6922Z" fill="black"/>
<path d="M30.6916 38.5568H27.4885C26.8479 38.5568 26.4209 38.9838 26.4209 39.6244C26.4209 40.265 26.8479 40.6921 27.4885 40.6921H30.6916C31.3322 40.6921 31.7593 40.265 31.7593 39.6244C31.7593 38.9838 31.3322 38.5568 30.6916 38.5568Z" fill="black"/>
<path d="M67.1005 25.3175C66.3531 24.3566 65.3922 23.8227 64.2177 23.7159L61.6553 23.4054V20.406V18.2707C61.6553 15.9218 59.7334 14 57.3845 14H8.27072C5.92184 13.9999 4 15.9217 4 18.2707V20.4061V28.9477V52.4368C4 54.3653 5.29587 56.005 7.05956 56.5305C7.00576 58.6903 8.63995 60.5654 10.8333 60.7648L60.1606 66.3168C60.2673 66.3168 60.4809 66.3168 60.5876 66.3168C62.723 66.3168 64.6449 64.7152 64.8583 62.6867L68.0614 28.4138C68.1681 27.346 67.8478 26.1715 67.1005 25.3175ZM6.13542 21.4738H59.52V24.2498V27.8799H6.13542V21.4738ZM8.27072 16.1353H57.3844C58.5589 16.1353 59.5198 17.0962 59.5198 18.2707V19.3384H6.13542V18.2707C6.13542 17.0962 7.09634 16.1353 8.27072 16.1353ZM6.13542 52.4367V30.0152H59.52V52.4367C59.52 53.6112 58.559 54.5721 57.3845 54.5721H8.37757H8.27084C7.09634 54.5721 6.13542 53.6112 6.13542 52.4367ZM65.926 27.9867L62.7229 62.2595C62.6162 63.434 61.5484 64.2881 60.374 64.1813L11.1535 58.6294C10.0858 58.5227 9.33837 57.6685 9.23164 56.7076H57.3844C59.7333 56.7076 61.6551 54.7857 61.6551 52.4368V28.9476V25.4242L64.1109 25.6378C64.6447 25.6378 65.1785 25.9581 65.4988 26.3851C65.8192 26.8122 66.0328 27.4528 65.926 27.9867Z" fill="black"/>
</svg>
