<svg width="80" height="80" viewBox="0 0 80 80" fill="none" xmlns="http://www.w3.org/2000/svg">
<path fill-rule="evenodd" clip-rule="evenodd" d="M24.8126 28.3997C27.3995 28.7469 30.0068 28.9186 32.6169 28.9136C34.7017 28.9155 36.7852 28.8074 38.8587 28.5895C39.1714 28.5612 39.4446 28.3665 39.5735 28.08C39.7023 27.7936 39.6668 27.46 39.4805 27.2072C39.2942 26.9543 38.9861 26.8216 38.6744 26.8597C36.6621 27.0709 34.6402 27.1757 32.6169 27.1738C30.0858 27.1788 27.5574 27.0125 25.0488 26.676C24.7397 26.6314 24.4304 26.756 24.2384 27.0023C24.0465 27.2487 24.0013 27.579 24.1201 27.8679C24.2388 28.1567 24.5033 28.3597 24.8131 28.3997H24.8126Z" fill="#2D2D45"/>
<path fill-rule="evenodd" clip-rule="evenodd" d="M47.6347 27.3097C47.2324 28.2806 46.2849 28.9137 45.234 28.9136C43.7997 28.9119 42.6374 27.7495 42.6357 26.3152C42.6357 25.2643 43.2688 24.3168 44.2398 23.9146C45.2108 23.5125 46.3284 23.7348 47.0715 24.478C47.8146 25.2211 48.0369 26.3387 47.6347 27.3097ZM46.0278 25.9867C45.8949 25.6659 45.5818 25.4567 45.2345 25.4568C44.7606 25.4573 44.3766 25.8414 44.376 26.3152C44.376 26.6625 44.5851 26.9756 44.906 27.1086C45.2268 27.2415 45.5962 27.1681 45.8417 26.9225C46.0873 26.6769 46.1608 26.3076 46.0278 25.9867Z" fill="#2D2D45"/>
<path fill-rule="evenodd" clip-rule="evenodd" d="M24.8126 43.0916C27.3995 43.4388 30.0068 43.6105 32.6169 43.6055C34.7017 43.6074 36.7852 43.4993 38.8587 43.2814C39.1699 43.2511 39.4409 43.0562 39.5685 42.7707C39.6961 42.4853 39.6608 42.1533 39.4759 41.9012C39.291 41.649 38.985 41.5155 38.6744 41.5515C36.6622 41.7628 34.6402 41.8677 32.6169 41.8657C30.0858 41.8707 27.5574 41.7044 25.0488 41.3679C24.7397 41.3233 24.4304 41.4479 24.2384 41.6942C24.0465 41.9406 24.0013 42.2709 24.1201 42.5597C24.2388 42.8486 24.5033 43.0516 24.8131 43.0916H24.8126Z" fill="#2D2D45"/>
<path fill-rule="evenodd" clip-rule="evenodd" d="M47.6347 42.0015C47.2324 42.9724 46.2849 43.6054 45.234 43.6054C43.7997 43.6036 42.6374 42.4413 42.6357 41.007C42.6357 39.9561 43.2688 39.0086 44.2398 38.6064C45.2108 38.2043 46.3284 38.4266 47.0715 39.1697C47.8146 39.9129 48.0369 41.0305 47.6347 42.0015ZM46.0278 40.6783C45.8949 40.3575 45.5818 40.1484 45.2345 40.1484C44.7606 40.1491 44.3766 40.5331 44.376 41.007C44.376 41.3543 44.5852 41.6674 44.9061 41.8003C45.2269 41.9331 45.5962 41.8597 45.8418 41.6141C46.0873 41.3685 46.1607 40.9992 46.0278 40.6783Z" fill="#2D2D45"/>
<path fill-rule="evenodd" clip-rule="evenodd" d="M38.6744 56.243C36.6622 56.4543 34.6402 56.5592 32.6169 56.5572C30.0859 56.5622 27.5574 56.396 25.0488 56.0596C24.7397 56.015 24.4304 56.1395 24.2384 56.3859C24.0465 56.6322 24.0013 56.9626 24.1201 57.2514C24.2388 57.5402 24.5033 57.7432 24.8131 57.7833C27.3999 58.1304 30.0073 58.302 32.6173 58.297C34.7022 58.299 36.7857 58.1909 38.8591 57.9729C39.1703 57.9426 39.4413 57.7477 39.5689 57.4622C39.6966 57.1768 39.6612 56.8448 39.4763 56.5927C39.2914 56.3406 38.9854 56.207 38.6748 56.243H38.6744Z" fill="#2D2D45"/>
<path fill-rule="evenodd" clip-rule="evenodd" d="M55.2343 41.0601L67.5673 47.6318C67.8509 47.783 68.0281 48.0781 68.0282 48.3995V56.129C68.0278 63.6704 63.5045 70.4761 56.5514 73.3964L54.5967 74.2404C54.3757 74.3359 54.125 74.3355 53.9043 74.2393L52.1685 73.4828C48.3794 71.8234 45.2436 68.9604 43.2471 65.3377C39.7436 66.007 36.1838 66.3367 32.6171 66.3222C26.7083 66.3222 21.1416 65.4855 16.9428 63.9661C12.4656 62.3461 10 60.0789 10 57.5818V12.7404C10 10.2451 12.4659 7.97818 16.9435 6.35754C21.1435 4.83755 26.7096 4 32.6171 4C38.5245 4 44.0909 4.83698 48.2908 6.35696C52.7685 7.9776 55.2343 10.2445 55.2343 12.7404V41.0601ZM16.9429 19.1246C14.6696 18.3014 12.9159 17.3123 11.7392 16.2104V27.6535C11.7392 29.3384 13.8516 31.0692 17.5341 32.4018C21.548 33.8542 26.9042 34.6539 32.6165 34.6539C38.3288 34.6539 43.6852 33.8542 47.6992 32.4018C51.3819 31.0692 53.494 29.3384 53.494 27.6535V16.2104C52.3173 17.3123 50.5637 18.3018 48.2902 19.1246C44.0903 20.6446 38.5238 21.4817 32.6165 21.4817C26.7092 21.4817 21.1429 20.6446 16.9429 19.1246ZM17.5349 7.99368C21.55 6.54053 26.9061 5.74036 32.6165 5.74036C38.3269 5.74036 43.6831 6.54053 47.6979 7.99368C51.3804 9.32663 53.4935 11.0569 53.4935 12.741C53.4935 14.4251 51.3811 16.1553 47.6979 17.4883C43.6827 18.9411 38.3268 19.7415 32.6161 19.7415C26.9054 19.7415 21.5494 18.9411 17.5344 17.4883C13.8516 16.1553 11.7392 14.4249 11.7392 12.7404C11.7392 11.0558 13.8516 9.32663 17.5349 7.99368ZM16.9422 34.0383C14.6691 33.2152 12.9157 32.226 11.7392 31.1241V42.5666C11.7392 44.2516 13.8516 45.9822 17.5341 47.3149C21.548 48.7672 26.9042 49.5672 32.6165 49.5672C35.3956 49.5746 38.1713 49.372 40.9199 48.9613V48.4002C40.9199 48.0825 41.0932 47.79 41.3718 47.6373L53.494 40.994V31.1249C52.3174 32.226 50.564 33.2159 48.291 34.0383C44.0921 35.5577 38.5254 36.3944 32.6165 36.3944C26.7076 36.3944 21.141 35.5577 16.9422 34.0383ZM32.6165 64.5825C26.9042 64.5825 21.548 63.7825 17.5341 62.3302C13.8516 60.9975 11.7392 59.2668 11.7392 57.5818V46.0366C12.9157 47.1385 14.6691 48.1277 16.9422 48.9508C21.141 50.47 26.7078 51.3069 32.6165 51.3069C35.3948 51.3141 38.17 51.1187 40.9199 50.7224V56.3076C40.9199 58.8564 41.4416 61.3783 42.453 63.7179C39.2073 64.305 35.9147 64.5943 32.6165 64.5825ZM55.8716 71.7954C62.1814 69.1473 66.2873 62.9729 66.2887 56.1299L66.2889 48.9216L54.3026 42.5347L42.6605 48.9148V56.3076C42.6678 63.0667 46.6726 69.1814 52.8657 71.8891L54.2537 72.4941L55.8655 71.7982L55.8716 71.7954Z" fill="#2D2D45"/>
<path d="M69.7678 59.0296C69.7664 65.8726 65.6605 72.047 59.3507 74.6951L59.3446 74.6978L57.7329 75.3938L56.3448 74.7887C50.1518 72.081 46.1469 65.9663 46.1396 59.2072V51.8144L57.7817 45.4343L69.768 51.8212L69.7678 59.0296Z" fill="#009AE0" fill-opacity="0.3"/>
<path fill-rule="evenodd" clip-rule="evenodd" d="M50.2208 52.4194V55.0212C49.2217 55.3031 48.5311 56.214 48.5293 57.2521V64.5012C48.5307 65.7818 49.5684 66.8195 50.849 66.8209H58.0981C59.3787 66.8195 60.4164 65.7817 60.4178 64.5012V57.2521C60.416 56.214 59.7254 55.3032 58.7263 55.0212V52.4194C58.7263 50.0706 56.8223 48.1666 54.4736 48.1666C52.1248 48.1666 50.2208 50.0706 50.2208 52.4194ZM58.6787 64.5013C58.6787 64.8216 58.4191 65.0812 58.0988 65.0812H50.8497C50.5294 65.0812 50.2698 64.8216 50.2698 64.5013V57.2522C50.2698 56.9319 50.5294 56.6722 50.8497 56.6722H58.0988C58.4191 56.6722 58.6787 56.9319 58.6787 57.2522V64.5013ZM56.9868 52.4194C56.9852 51.0322 55.8611 49.908 54.474 49.9062C54.4741 49.9062 54.4741 49.9062 54.4742 49.9062H54.4738C54.4739 49.9062 54.4739 49.9062 54.474 49.9062C53.0867 49.9077 51.9623 51.032 51.9608 52.4194V54.9323H56.9868V52.4194Z" fill="#2D2D45"/>
<path d="M58.6785 64.5013C58.6785 64.8216 58.4189 65.0812 58.0986 65.0812H50.8495C50.5292 65.0812 50.2695 64.8216 50.2695 64.5013V57.2522C50.2695 56.9319 50.5292 56.6722 50.8495 56.6722H58.0986C58.4189 56.6722 58.6785 56.9319 58.6785 57.2522V64.5013Z" fill="white"/>
<path d="M54.4739 49.9064C55.8612 49.908 56.9853 51.0323 56.9869 52.4195V54.9325H51.9609V52.4195C51.9625 51.0321 53.0869 49.9077 54.4744 49.9064H54.4739Z" fill="white"/>
</svg>
