<svg width="80" height="80" viewBox="0 0 80 80" fill="none" xmlns="http://www.w3.org/2000/svg">
<path d="M68 57V7.50002C73.2 3.10002 77.5 5.66669 79 7.50002V57L74 64L68 57Z" fill="#9AD9F5" stroke="#9AD9F5"/>
<g clip-path="url(#clip0)">
<path d="M33.6993 9.05846C33.6993 10.187 32.7847 11.1022 31.6561 11.1022C30.5275 11.1022 29.6123 10.187 29.6123 9.05846C29.6123 7.92987 30.5275 7.01526 31.6561 7.01526C32.7847 7.01526 33.6993 7.92987 33.6993 9.05846Z" fill="black"/>
<path d="M52.6741 13.0726H38.2977V9.49658C38.2977 5.83474 35.3185 2.85547 31.6566 2.85547C27.9948 2.85547 25.0155 5.83474 25.0155 9.49658V13.0726H10.6386C8.42543 13.0726 6.625 14.873 6.625 17.0862V72.8415C6.625 75.0546 8.42543 76.8556 10.6386 76.8556H52.6741C54.8872 76.8556 56.6882 75.0546 56.6882 72.8415V50.5836C56.6882 49.979 56.1982 49.4889 55.5935 49.4889C54.9889 49.4889 54.4988 49.979 54.4988 50.5836V72.842C54.4988 73.8481 53.6802 74.6662 52.6741 74.6662H10.6386C9.6325 74.6662 8.81443 73.8475 8.81443 72.842V17.0862C8.81443 16.0801 9.6325 15.262 10.6386 15.262H52.6741C53.6802 15.262 54.4988 16.0807 54.4988 17.0862V45.4934C54.4988 46.0975 54.9889 46.5875 55.5935 46.5875C56.1982 46.5875 56.6882 46.0975 56.6882 45.4934V17.0862C56.6882 14.873 54.8872 13.0726 52.6741 13.0726ZM27.2049 9.49658C27.2049 7.0418 29.2018 5.0449 31.6566 5.0449C34.1114 5.0449 36.1083 7.0418 36.1083 9.49658V13.0726H27.2049V9.49658Z" fill="black"/>
<path d="M41.5819 23.8735H21.7314C21.1268 23.8735 20.6367 24.3635 20.6367 24.9676C20.6367 25.5723 21.1268 26.0623 21.7314 26.0623H41.5814C42.186 26.0623 42.6761 25.5723 42.6761 24.9676C42.6761 24.3635 42.186 23.8735 41.5819 23.8735Z" fill="black"/>
<path d="M12.39 36.3709C11.786 36.3709 11.2959 36.861 11.2959 37.4656V71.0901C11.2959 71.6948 11.786 72.1848 12.39 72.1848H50.9229C51.5276 72.1848 52.0177 71.6948 52.0177 71.0901V18.8374C52.0177 18.2333 51.5276 17.7433 50.9229 17.7433H12.39C11.786 17.7433 11.2959 18.2333 11.2959 18.8374V32.3523C11.2959 32.9569 11.786 33.447 12.39 33.447C12.9947 33.447 13.4848 32.9569 13.4848 32.3523V19.9321H49.8282V69.9954H13.4848V37.4656C13.4848 36.861 12.9947 36.3709 12.39 36.3709Z" fill="black"/>
<path d="M16.6963 32.5578V38.3961C16.6963 39.0008 17.1863 39.4908 17.791 39.4908H23.7749C24.3796 39.4908 24.8697 39.0008 24.8697 38.3961V32.5578C24.8697 31.9532 24.3796 31.4631 23.7749 31.4631H17.791C17.1863 31.4631 16.6963 31.9532 16.6963 32.5578ZM18.8857 33.6526H22.6802V37.3014H18.8857V33.6526Z" fill="black"/>
<path d="M45.5226 31.6088H27.7158C27.1111 31.6088 26.6211 32.0994 26.6211 32.7035C26.6211 33.3081 27.1111 33.7982 27.7158 33.7982H45.5226C46.1267 33.7982 46.6173 33.3081 46.6173 32.7035C46.6173 32.0988 46.1267 31.6088 45.5226 31.6088Z" fill="black"/>
<path d="M27.7158 39.4908H38.2243C38.8289 39.4908 39.319 39.0008 39.319 38.3961C39.319 37.7914 38.8289 37.3014 38.2243 37.3014H27.7158C27.1111 37.3014 26.6211 37.7914 26.6211 38.3961C26.6211 39.0008 27.1111 39.4908 27.7158 39.4908Z" fill="black"/>
<path d="M16.6963 51.3859C16.6963 51.9905 17.1863 52.4806 17.791 52.4806H23.7749C24.3796 52.4806 24.8697 51.9905 24.8697 51.3859V45.5481C24.8697 44.9435 24.3796 44.4534 23.7749 44.4534H17.791C17.1863 44.4534 16.6963 44.9435 16.6963 45.5481V51.3859ZM18.8857 46.6429H22.6802V50.2917H18.8857V46.6429Z" fill="black"/>
<path d="M45.5226 44.5991H27.7158C27.1111 44.5991 26.6211 45.0892 26.6211 45.6938C26.6211 46.2985 27.1111 46.7885 27.7158 46.7885H45.5226C46.1267 46.7885 46.6173 46.2985 46.6173 45.6938C46.6173 45.0892 46.1267 44.5991 45.5226 44.5991Z" fill="black"/>
<path d="M27.7158 52.4806H38.2243C38.8289 52.4806 39.319 51.9905 39.319 51.3859C39.319 50.7818 38.8289 50.2911 38.2243 50.2911H27.7158C27.1111 50.2911 26.6211 50.7818 26.6211 51.3859C26.6211 51.9911 27.1111 52.4806 27.7158 52.4806Z" fill="black"/>
<path d="M16.6963 64.3762C16.6963 64.9809 17.1863 65.4709 17.791 65.4709H23.7749C24.3796 65.4709 24.8697 64.9809 24.8697 64.3762V58.538C24.8697 57.9333 24.3796 57.4432 23.7749 57.4432H17.791C17.1863 57.4432 16.6963 57.9333 16.6963 58.538V64.3762ZM18.8857 59.6327H22.6802V63.2815H18.8857V59.6327Z" fill="black"/>
<path d="M46.6173 58.6841C46.6173 58.0795 46.1267 57.5894 45.5226 57.5894H27.7158C27.1111 57.5894 26.6211 58.0795 26.6211 58.6841C26.6211 59.2882 27.1111 59.7788 27.7158 59.7788H45.5226C46.1267 59.7788 46.6173 59.2888 46.6173 58.6841Z" fill="black"/>
<path d="M27.7158 63.2816C27.1111 63.2816 26.6211 63.7716 26.6211 64.3763C26.6211 64.9809 27.1111 65.471 27.7158 65.471H38.2243C38.8289 65.471 39.319 64.9809 39.319 64.3763C39.319 63.7716 38.8289 63.2816 38.2243 63.2816H27.7158Z" fill="black"/>
<path d="M68.2913 13.0726H63.913C62.1019 13.0726 60.6289 14.5456 60.6289 16.3562V65.1062C60.6289 65.3569 60.7153 65.6008 60.8734 65.7956L65.2517 71.1958C65.46 71.4521 65.7722 71.6011 66.1019 71.6011C66.4322 71.6011 66.7444 71.4521 66.9527 71.1958L71.331 65.7956C71.4897 65.6008 71.5755 65.3569 71.5755 65.1062V33.0682C71.5755 32.4641 71.0854 31.9741 70.4808 31.9741C69.8761 31.9741 69.386 32.4641 69.386 33.0682V64.7178L66.1019 68.7686L62.8183 64.7178V23.5811H65.0078V65.1062C65.0078 65.7109 65.4978 66.201 66.1019 66.201C66.7066 66.201 67.1966 65.7109 67.1966 65.1062V23.5811H69.386V27.9724C69.386 28.577 69.8761 29.0671 70.4808 29.0671C71.0854 29.0671 71.5755 28.577 71.5755 27.9724V16.3562C71.5755 14.5456 70.1025 13.0726 68.2913 13.0726ZM62.8183 21.3922V16.3562C62.8183 15.7527 63.3095 15.2621 63.913 15.2621H68.2919C68.8954 15.2621 69.3866 15.7527 69.3866 16.3562V21.3922H62.8183Z" fill="black"/>
</g>
<defs>
<clipPath id="clip0">
<rect width="74" height="74" fill="white" transform="translate(2 3)"/>
</clipPath>
</defs>
</svg>
