<svg width="80" height="80" viewBox="0 0 80 80" fill="none" xmlns="http://www.w3.org/2000/svg">
<path d="M21.2748 33.2C22.2948 25.72 27.3664 23.85 29.7748 23.85C31.1348 23.649 33.7414 24.6163 34.8748 25.125C36.4331 22.15 41.5898 16.455 49.7498 17.475C61.9898 18.155 62.4998 29.0917 61.2248 34.475H66.3248C67.5998 34.475 75.6748 38.725 74.8248 47.225C74.1448 54.025 68.8748 56.575 66.3248 57C53.5748 57.1417 27.1398 57.34 23.3998 57C19.6598 56.66 16.7414 52.8917 15.7498 51.05C14.0498 46.9417 12.7748 37.62 21.2748 33.2Z" fill="#009AE0" fill-opacity="0.3"/>
<g clip-path="url(#clip0)">
<path d="M56.4398 38.56C55.8853 29.125 48.1077 21.5833 38.7324 21.5833C33.04 21.5833 27.5279 24.375 24.1124 28.93C24.0338 28.8891 23.9509 28.8608 23.8713 28.8231C23.6637 28.7225 23.453 28.6271 23.2381 28.5411C23.1186 28.4939 22.9991 28.4509 22.8785 28.409C22.6657 28.3346 22.4497 28.2685 22.2296 28.2088C22.109 28.1763 21.9895 28.1427 21.8679 28.1155C21.632 28.062 21.3909 28.0211 21.1477 27.9844C21.0418 27.9687 20.938 27.9477 20.8311 27.9362C20.4831 27.8974 20.1308 27.8733 19.7733 27.8733C14.5705 27.8733 10.3383 32.1054 10.3383 37.3083C10.3383 37.4415 10.3467 37.5725 10.3551 37.7035V37.7077C5.99509 40.0854 3 45.0649 3 50.0498C3 57.4751 9.0405 63.5166 16.4658 63.5166H42.1584C42.2674 63.5166 42.3754 63.5104 42.4844 63.502L42.5494 63.4936L42.6899 63.502C42.7968 63.5104 42.9038 63.5166 43.0138 63.5166H53.2906C60.2432 63.5166 65.9 57.8598 65.9 50.9073C65.9 45.153 61.888 39.992 56.4398 38.56ZM53.2906 61.42H43.0138C42.952 61.42 42.8922 61.4147 42.8314 61.4105L42.5473 61.399L42.3398 61.4105C42.28 61.4147 42.2192 61.42 42.1584 61.42H16.4658C10.1968 61.42 5.09667 56.3198 5.09667 50.0498C5.09667 45.695 7.93241 41.1746 11.8406 39.3012L12.435 39.0171V38.3566C12.435 38.2235 12.4434 38.0883 12.4507 37.952L12.4602 37.7843L12.4476 37.5641C12.4413 37.4792 12.435 37.3943 12.435 37.3083C12.435 33.2628 15.7278 29.97 19.7733 29.97C20.0973 29.97 20.417 29.9983 20.7347 30.0402C20.8164 30.0507 20.8982 30.0643 20.9789 30.078C21.2588 30.1241 21.5345 30.1849 21.8061 30.2635C21.8427 30.274 21.8805 30.2813 21.9172 30.2918C22.216 30.383 22.5074 30.4983 22.7925 30.6283C22.867 30.6619 22.9393 30.6986 23.0127 30.7342C23.2643 30.859 23.5106 30.9953 23.7486 31.1494C25.7688 32.4577 27.1117 34.7273 27.1117 37.3083C27.1117 37.888 27.5803 38.3566 28.16 38.3566C28.7397 38.3566 29.2083 37.888 29.2083 37.3083C29.2083 34.4212 27.9021 31.8371 25.8537 30.1052C28.8592 26.174 33.8084 23.68 38.7324 23.68C46.8518 23.68 53.5947 30.1115 54.2981 38.2392C53.2267 38.1638 51.6227 38.125 50.0177 38.3692C49.4454 38.4562 49.0522 38.9909 49.1393 39.5633C49.2179 40.0822 49.6645 40.4544 50.174 40.4544C50.2264 40.4544 50.2798 40.4502 50.3323 40.4418C52.6669 40.0885 55.1001 40.4198 55.2426 40.4397C60.1237 41.3675 63.8033 45.8638 63.8033 50.9073C63.8033 56.7035 59.0869 61.42 53.2906 61.42Z" fill="black"/>
</g>
<defs>
<clipPath id="clip0">
<rect width="62.9" height="62.9" fill="white" transform="translate(3 11.1)"/>
</clipPath>
</defs>
</svg>
