<svg width="451" height="402" viewBox="0 0 451 402" fill="none" xmlns="http://www.w3.org/2000/svg">
<g clip-path="url(#clip0)">
<path d="M463.027 339.4H-38.0845V339.65H463.027V339.4Z" fill="#EBEBEB"/>
<path d="M406.792 348.92H373.598V349.17H406.792V348.92Z" fill="#EBEBEB"/>
<path d="M143.649 352.31H93.6777V352.56H143.649V352.31Z" fill="#EBEBEB"/>
<path d="M372.596 358.21H343V358.46H372.596V358.21Z" fill="#EBEBEB"/>
<path d="M36.1402 356.53H14.4922V356.78H36.1402V356.53Z" fill="#EBEBEB"/>
<path d="M83.5151 356.53H45.0598V356.78H83.5151V356.53Z" fill="#EBEBEB"/>
<path d="M293.872 346.21H199.983V346.46H293.872V346.21Z" fill="#EBEBEB"/>
<path d="M199.442 294.8H5.92312C4.4071 294.797 2.95409 294.195 1.88304 293.124C0.811996 292.053 0.210447 290.603 0.210449 289.09V17.66C0.223646 16.156 0.831019 14.718 1.90064 13.6582C2.97026 12.5985 4.41574 12.0026 5.92312 12H199.442C200.96 12 202.416 12.6016 203.489 13.6724C204.562 14.7433 205.165 16.1956 205.165 17.71V289.09C205.165 290.604 204.562 292.057 203.489 293.128C202.416 294.198 200.96 294.8 199.442 294.8ZM5.92312 12.2C4.47355 12.2026 3.08427 12.7791 2.06021 13.8027C1.03615 14.8264 0.461002 16.2136 0.461005 17.66V289.09C0.461002 290.536 1.03615 291.924 2.06021 292.947C3.08427 293.971 4.47355 294.547 5.92312 294.55H199.442C200.893 294.547 202.283 293.971 203.309 292.948C204.334 291.924 204.912 290.537 204.914 289.09V17.66C204.912 16.2127 204.334 14.8255 203.309 13.8021C202.283 12.7787 200.893 12.2026 199.442 12.2H5.92312Z" fill="#EBEBEB"/>
<path d="M416.233 294.8H222.704C221.187 294.797 219.733 294.195 218.66 293.125C217.587 292.054 216.984 290.604 216.981 289.09V17.66C216.997 16.1551 217.606 14.7171 218.678 13.6576C219.749 12.5981 221.195 12.0025 222.704 12H416.233C417.738 12.0052 419.181 12.6022 420.249 13.6617C421.316 14.7212 421.922 16.1578 421.935 17.66V289.09C421.935 290.601 421.335 292.05 420.266 293.121C419.197 294.191 417.747 294.795 416.233 294.8ZM222.704 12.2C221.253 12.2026 219.863 12.7787 218.837 13.8021C217.812 14.8255 217.234 16.2127 217.232 17.66V289.09C217.234 290.537 217.812 291.924 218.837 292.948C219.863 293.971 221.253 294.547 222.704 294.55H416.233C417.683 294.547 419.074 293.971 420.099 292.948C421.125 291.924 421.702 290.537 421.705 289.09V17.66C421.702 16.2127 421.125 14.8255 420.099 13.8021C419.074 12.7787 417.683 12.2026 416.233 12.2H222.704Z" fill="#EBEBEB"/>
<path d="M95.161 333.74H108.2L108.2 170.11H95.161L95.161 333.74Z" fill="#F0F0F0"/>
<path d="M32.512 339.38H104.762V333.73H32.512V339.38Z" fill="#F0F0F0"/>
<path d="M95.161 170.1H29.0745V333.73H95.161V170.1Z" fill="#FAFAFA"/>
<path d="M88.1154 255.31H36.1201V284.53H88.1154V255.31Z" fill="#F0F0F0"/>
<path d="M88.1154 293.55H36.1201V322.77H88.1154V293.55Z" fill="#F0F0F0"/>
<path d="M54.8415 258.56H69.3738C70.2483 258.56 70.9573 257.853 70.9573 256.98V256.13C70.9573 255.257 70.2483 254.55 69.3738 254.55H54.8415C53.967 254.55 53.258 255.257 53.258 256.13V256.98C53.258 257.853 53.967 258.56 54.8415 258.56Z" fill="#FAFAFA"/>
<path d="M54.8415 296.81H69.3738C70.2483 296.81 70.9573 296.103 70.9573 295.23V294.38C70.9573 293.507 70.2483 292.8 69.3738 292.8H54.8415C53.967 292.8 53.258 293.507 53.258 294.38V295.23C53.258 296.103 53.967 296.81 54.8415 296.81Z" fill="#FAFAFA"/>
<path d="M88.1154 179.13H36.1201V208.35H88.1154V179.13Z" fill="#F0F0F0"/>
<path d="M88.1154 217.07H36.1201V246.29H88.1154V217.07Z" fill="#F0F0F0"/>
<path d="M54.8415 182.37H69.3738C70.2483 182.37 70.9573 181.663 70.9573 180.79V179.94C70.9573 179.067 70.2483 178.36 69.3738 178.36H54.8415C53.967 178.36 53.258 179.067 53.258 179.94V180.79C53.258 181.663 53.967 182.37 54.8415 182.37Z" fill="#FAFAFA"/>
<path d="M54.8415 220.32H69.3738C70.2483 220.32 70.9573 219.613 70.9573 218.74V217.89C70.9573 217.017 70.2483 216.31 69.3738 216.31H54.8415C53.967 216.31 53.258 217.017 53.258 217.89V218.74C53.258 219.613 53.967 220.32 54.8415 220.32Z" fill="#FAFAFA"/>
<path d="M167.481 333.74H189.059L189.059 170.11H167.481L167.481 333.74Z" fill="#F0F0F0"/>
<path d="M104.832 339.38H185.05V333.73H104.832V339.38Z" fill="#F0F0F0"/>
<path d="M167.481 170.1H101.395V333.73H167.481V170.1Z" fill="#FAFAFA"/>
<path d="M160.436 255.31H108.44V284.53H160.436V255.31Z" fill="#F0F0F0"/>
<path d="M160.436 293.55H108.44V322.77H160.436V293.55Z" fill="#F0F0F0"/>
<path d="M127.172 258.56H141.704C142.579 258.56 143.288 257.853 143.288 256.98V256.13C143.288 255.257 142.579 254.55 141.704 254.55H127.172C126.297 254.55 125.588 255.257 125.588 256.13V256.98C125.588 257.853 126.297 258.56 127.172 258.56Z" fill="#FAFAFA"/>
<path d="M127.172 296.81H141.704C142.579 296.81 143.288 296.103 143.288 295.23V294.38C143.288 293.507 142.579 292.8 141.704 292.8H127.172C126.297 292.8 125.588 293.507 125.588 294.38V295.23C125.588 296.103 126.297 296.81 127.172 296.81Z" fill="#FAFAFA"/>
<path d="M160.436 179.13H108.44V208.35H160.436V179.13Z" fill="#F0F0F0"/>
<path d="M160.436 217.07H108.44V246.29H160.436V217.07Z" fill="#F0F0F0"/>
<path d="M127.172 182.37H141.704C142.579 182.37 143.288 181.663 143.288 180.79V179.94C143.288 179.067 142.579 178.36 141.704 178.36H127.172C126.297 178.36 125.588 179.067 125.588 179.94V180.79C125.588 181.663 126.297 182.37 127.172 182.37Z" fill="#FAFAFA"/>
<path d="M127.172 220.32H141.704C142.579 220.32 143.288 219.613 143.288 218.74V217.89C143.288 217.017 142.579 216.31 141.704 216.31H127.172C126.297 216.31 125.588 217.017 125.588 217.89V218.74C125.588 219.613 126.297 220.32 127.172 220.32Z" fill="#FAFAFA"/>
<path d="M27.0801 117.78L196.626 117.78V47.12L27.0801 47.12V117.78Z" fill="#E6E6E6"/>
<path d="M19.7839 117.78L194.682 117.78V47.12L19.7839 47.12V117.78Z" fill="#F0F0F0"/>
<path d="M185.441 108.55V56.3301L29.0244 56.3301V108.55H185.441Z" fill="#FAFAFA"/>
<path d="M108.831 108.56L93.2968 56.3301H72.3403L87.8748 108.56H108.831Z" fill="white"/>
<path d="M166.228 108.56L150.694 56.3301H129.738L145.272 108.56H166.228Z" fill="white"/>
<path d="M83.916 108.56L68.3815 56.3301H47.425L62.9595 108.56H83.916Z" fill="white"/>
<path d="M345.466 27.8799H252.039V174.65H345.466V27.8799Z" fill="#EBEBEB"/>
<path d="M338.851 168.06V34.48L258.654 34.48V168.06H338.851Z" fill="#FAFAFA"/>
<path d="M296.267 168.06H293.571L301.238 34.3501H303.934L296.267 168.06Z" fill="#E0E0E0"/>
<path d="M301.288 64.3199V68.1799L338.851 58.2999V56.9399L301.288 64.3199Z" fill="#E0E0E0"/>
<path d="M298.752 108.14V112L338.851 96.16V94.8L298.752 108.14Z" fill="#E0E0E0"/>
<path d="M295.285 153.38V158.7L338.851 134.65V133.29L295.285 153.38Z" fill="#E0E0E0"/>
<path d="M299.755 84.07V87.93L259.656 72.09V70.73L299.755 84.07Z" fill="#E0E0E0"/>
<path d="M296.508 130.63V135.95L259.656 116.32V114.96L296.508 130.63Z" fill="#E0E0E0"/>
<path d="M259.656 168.06V34.48H258.664V168.06H259.656Z" fill="#E0E0E0"/>
<path d="M345.466 174.66H348.543V27.8899H345.466V174.66Z" fill="#E0E0E0"/>
<path d="M382.198 163.88C382.198 157.79 384.563 148.67 384.563 148.67H365.811C365.811 148.67 368.186 157.79 368.186 163.88C368.186 169.97 360.77 180.88 360.77 189.6C360.77 198.32 368.247 209.17 368.247 209.17H382.117C382.117 209.17 389.594 198.31 389.594 189.6C389.594 180.89 382.198 170 382.198 163.88Z" fill="#E0E0E0"/>
<path d="M394.214 172.42C394.214 167.48 395.116 160.07 395.116 160.07H388.01C388.01 160.07 388.912 167.48 388.912 172.42C388.912 177.36 386.106 186.22 386.106 193.29C386.106 200.36 388.932 209.17 388.932 209.17H394.194C394.194 209.17 397.02 200.36 397.02 193.29C397.02 186.22 394.214 177.35 394.214 172.42Z" fill="#F0F0F0"/>
<path d="M220.85 339.39H231.503L231.503 209.16H220.85L220.85 339.39Z" fill="#E6E6E6"/>
<path d="M217.993 339.39H224.267L224.267 209.16H217.993L217.993 339.39Z" fill="#F0F0F0"/>
<path d="M367.345 209.17H216.049V215.84H367.345V209.17Z" fill="#F0F0F0"/>
<path d="M418.708 339.39H429.362V209.16H418.708V339.39Z" fill="#E6E6E6"/>
<path d="M416.704 339.39H422.978V209.16H416.704V339.39Z" fill="#F0F0F0"/>
<path d="M431.266 209.17H371.905V215.84H431.266V209.17Z" fill="#E6E6E6"/>
<path d="M368.246 339.39H378.9V209.16H368.246V339.39Z" fill="#E6E6E6"/>
<path d="M365.4 339.39H371.674V209.16H365.4V339.39Z" fill="#F0F0F0"/>
<path d="M219.847 209.17L291.697 252.22L363.546 209.17H219.847Z" fill="#FAFAFA"/>
<path d="M226.552 209.17L291.697 248.2L356.841 209.17H226.552Z" fill="#EBEBEB"/>
<path d="M377.026 209.17L402.853 248.2L428.69 209.17H377.026Z" fill="#FAFAFA"/>
<path d="M380.103 209.17L403.525 244.19L426.947 209.17H380.103Z" fill="#EBEBEB"/>
<path d="M212.471 384.56C319.792 384.56 406.792 379.492 406.792 373.24C406.792 366.988 319.792 361.92 212.471 361.92C105.151 361.92 18.1504 366.988 18.1504 373.24C18.1504 379.492 105.151 384.56 212.471 384.56Z" fill="#F5F5F5"/>
<path d="M206.144 364.02L198.086 361.38L202.065 342.06L210.123 344.7L206.144 364.02Z" fill="#FFB573"/>
<path d="M276.229 364.12H267.741L265.636 344.53H274.115L276.229 364.12Z" fill="#FFB573"/>
<path d="M267.049 363.14H277.382C277.552 363.14 277.716 363.198 277.849 363.303C277.982 363.408 278.075 363.555 278.114 363.72L279.787 371.24C279.827 371.424 279.824 371.614 279.779 371.796C279.735 371.978 279.65 372.148 279.53 372.294C279.411 372.439 279.26 372.555 279.09 372.634C278.919 372.713 278.733 372.753 278.545 372.75C275.217 372.69 272.792 372.5 268.603 372.5C266.017 372.5 258.25 372.76 254.692 372.76C251.134 372.76 250.683 369.25 252.116 368.93C258.651 367.51 263.582 365.54 265.666 363.66C266.049 363.326 266.54 363.142 267.049 363.14Z" fill="#263238"/>
<path d="M198.227 360.11L207.156 362.56C207.318 362.607 207.458 362.706 207.556 362.842C207.655 362.978 207.704 363.143 207.698 363.31L207.307 371.01C207.299 371.196 207.249 371.378 207.16 371.542C207.071 371.706 206.947 371.848 206.795 371.956C206.644 372.065 206.469 372.138 206.285 372.17C206.101 372.202 205.913 372.192 205.733 372.14C202.526 371.2 197.926 369.73 193.877 368.61C189.146 367.31 188.264 366.86 182.712 365.34C179.355 364.41 179.355 360.77 180.848 360.85C187.633 361.21 189.617 362.08 196.082 360.2C196.774 359.971 197.517 359.94 198.227 360.11Z" fill="#263238"/>
<path d="M239.999 107C239.458 107.7 239.047 108.22 238.566 108.81C238.085 109.4 237.624 109.92 237.143 110.47C236.141 111.56 235.138 112.62 234.136 113.66C232.114 115.78 229.972 117.783 227.722 119.66C223.071 123.675 217.743 126.837 211.987 129C210.4 129.558 208.767 129.976 207.106 130.25C206.685 130.31 206.254 130.39 205.823 130.44L204.511 130.56C203.956 130.593 203.401 130.593 202.847 130.56C202.3 130.528 201.754 130.468 201.213 130.38C199.449 130.062 197.732 129.524 196.102 128.78C194.686 128.163 193.313 127.451 191.993 126.65C189.502 125.153 187.121 123.482 184.867 121.65C182.639 119.887 180.527 117.983 178.543 115.95L182.381 110.89C187.092 113.22 191.913 115.68 196.523 117.45C197.675 117.88 198.808 118.27 199.87 118.57C200.767 118.837 201.692 118.995 202.626 119.04C202.757 119.046 202.887 119.046 203.017 119.04C203.087 119.04 203.077 119.04 203.388 118.96L204.09 118.84L204.811 118.67C205.282 118.57 205.813 118.37 206.264 118.24C206.715 118.11 207.267 117.89 207.748 117.66C209.843 116.767 211.836 115.651 213.691 114.33C215.702 112.957 217.62 111.454 219.434 109.83C221.308 108.21 223.102 106.44 224.866 104.64C225.748 103.74 226.61 102.81 227.441 101.87L228.684 100.46L229.827 99.1199L239.999 107Z" fill="#FFB573"/>
<path d="M244.66 102.84C245.281 110.9 227.081 127.36 227.081 127.36L210.985 113.44C210.985 113.44 217.76 106.28 225.377 99.07C230.608 94.12 243.978 94.11 244.66 102.84Z" fill="white"/>
<path opacity="0.4" d="M244.66 102.84C245.281 110.9 227.081 127.36 227.081 127.36L210.985 113.44C210.985 113.44 217.76 106.28 225.377 99.07C230.608 94.12 243.978 94.11 244.66 102.84Z" fill="#407BFF"/>
<path opacity="0.2" d="M236.431 107C228.955 107.68 224.174 113.68 222.079 120.31C221.849 121.05 221.648 121.81 221.488 122.56L227.06 127.38C227.06 127.38 235.349 119.89 240.54 112.54C240.821 109.05 239.829 106.68 236.431 107Z" fill="black"/>
<path d="M184.316 114.54L181.56 107.54L172.159 110.42C174.204 112.588 176.46 114.547 178.894 116.27L184.316 114.54Z" fill="#FFB573"/>
<path d="M176.849 102.11L169.092 105.21L172.189 110.44L181.59 107.56L176.849 102.11Z" fill="#FFB573"/>
<path opacity="0.2" d="M202.065 342.07L199.67 353.67L207.848 355.75L210.123 344.71L202.065 342.07Z" fill="black"/>
<path opacity="0.2" d="M274.115 344.53H265.636L266.728 354.63H275.207L274.115 344.53Z" fill="black"/>
<path d="M279.126 98.9299C276.637 108.063 274.835 117.369 273.734 126.77C272.932 133.32 272.451 139.58 272.151 145.26C271.449 158.56 271.74 168.7 271.339 172.13L226.088 169C219.935 120.86 231.701 96.0599 231.701 96.0599C235.278 95.3967 238.893 94.9525 242.525 94.7299C243.293 94.6766 244.075 94.6466 244.87 94.6399C251.302 94.7262 257.723 95.1802 264.103 95.9999C265.315 96.1499 266.538 96.3199 267.731 96.5099C273.794 97.4599 279.126 98.9299 279.126 98.9299Z" fill="white"/>
<path opacity="0.4" d="M279.126 98.9299C276.637 108.063 274.835 117.369 273.734 126.77C272.932 133.32 272.451 139.58 272.151 145.26C271.449 158.56 271.74 168.7 271.339 172.13L226.088 169C219.935 120.86 231.701 96.0599 231.701 96.0599C235.278 95.3967 238.893 94.9525 242.525 94.7299C243.293 94.6766 244.075 94.6466 244.87 94.6399C251.302 94.7262 257.723 95.1802 264.103 95.9999C265.315 96.1499 266.538 96.3199 267.731 96.5099C273.794 97.4599 279.126 98.9299 279.126 98.9299Z" fill="#407BFF"/>
<path opacity="0.2" d="M267.691 111.11C267.616 118.034 269.562 124.831 273.293 130.67C273.423 129.39 273.574 128.08 273.734 126.77C274.335 121.84 275.117 116.77 276.149 111.59L267.691 111.11Z" fill="black"/>
<path d="M263.712 74.22C262.058 80.31 260.064 91.54 264.103 95.96C262.058 97.8106 259.639 99.2021 257.009 100.04C254.38 100.879 251.6 101.145 248.859 100.82C243.547 100.33 243.537 96.6 244.85 94.62C251.865 93.46 252.046 88.34 251.174 83.46L263.712 74.22Z" fill="#FFB573"/>
<path opacity="0.2" d="M258.611 78L251.204 83.46C251.423 84.5973 251.541 85.7519 251.555 86.91C254.221 86.71 258.039 84.08 258.52 81.34C258.751 80.2411 258.782 79.1097 258.611 78Z" fill="black"/>
<path d="M250.262 65.1099C248.257 67.9399 242.996 62.7299 243.196 58.1099C250.813 57.1099 247.205 51.5399 254.12 52.9699C259.873 54.0999 252.467 61.9999 250.262 65.1099Z" fill="#263238"/>
<path d="M269.244 66.94C266.698 74.94 265.616 79.76 260.445 82.94C252.667 87.66 243.557 81.41 243.657 72.81C243.748 65.07 247.907 53.28 256.686 52.05C258.619 51.7697 260.591 51.9861 262.417 52.6789C264.242 53.3716 265.86 54.5177 267.117 56.0086C268.375 57.4996 269.23 59.2861 269.602 61.199C269.974 63.1119 269.851 65.0879 269.244 66.94Z" fill="#FFB573"/>
<path d="M264.433 74.22C264.043 72.2452 263.932 70.2256 264.103 68.22C264.391 66.6515 264.886 65.1282 265.576 63.69C265.576 63.69 260.775 60.86 260.665 57.45C260.665 57.45 252.086 59.97 247.506 56.12C242.926 52.27 247.015 47.82 244.67 46.12C250.282 45.58 251.986 48.98 255.534 48.24C259.082 47.5 255.945 45.01 256.416 42.24C267.109 51.43 271.76 47.12 276.951 52.38C280.269 55.74 276.781 62.04 276.781 62.04C276.781 62.04 282.073 71 264.433 74.22Z" fill="#263238"/>
<path d="M275.077 61.8499C275.077 61.8499 280.329 62.9299 280.469 57.4399C283.175 62.9999 279.787 63.8699 275.077 61.8499Z" fill="#263238"/>
<path d="M251.384 74.5701C252.338 74.8335 253.342 74.8638 254.31 74.6584C255.278 74.453 256.183 74.0179 256.947 73.3901C256.988 73.3488 257.011 73.2931 257.011 73.2351C257.011 73.177 256.988 73.1213 256.947 73.0801C256.906 73.0421 256.852 73.021 256.796 73.021C256.741 73.021 256.687 73.0421 256.646 73.0801C255.931 73.6519 255.091 74.0477 254.195 74.2353C253.298 74.423 252.37 74.3972 251.485 74.1601C251.428 74.1499 251.369 74.1604 251.32 74.1898C251.27 74.2192 251.232 74.2654 251.214 74.3201C251.207 74.3752 251.221 74.431 251.252 74.4769C251.284 74.5229 251.331 74.556 251.384 74.5701Z" fill="#263238"/>
<path d="M270.667 75.7799C269.91 76.5024 269.018 77.0687 268.041 77.4462C267.064 77.8238 266.022 78.0051 264.974 77.9799C262.168 77.8999 261.597 75.1999 263.07 72.9799C264.403 70.9799 267.46 68.6499 269.946 69.8099C272.431 70.9699 272.511 73.9999 270.667 75.7799Z" fill="#FFB573"/>
<path d="M197.425 349.5L211.265 353.3C211.265 353.3 228.604 298.77 232.863 268.82C233.996 260.87 235.74 249.71 238.396 237.82C241.763 222.82 245.972 206.61 249.42 193.91C253.068 180.53 255.834 171.07 255.834 171.07L226.088 169C226.088 169 213.911 235.49 211.055 261.16C208.108 287.84 197.425 349.5 197.425 349.5Z" fill="#407BFF"/>
<path opacity="0.3" d="M197.425 349.5L211.265 353.3C211.265 353.3 228.604 298.77 232.863 268.82C233.996 260.87 235.74 249.71 238.396 237.82C241.763 222.82 245.972 206.61 249.42 193.91C253.068 180.53 255.834 171.07 255.834 171.07L226.088 169C226.088 169 213.911 235.49 211.055 261.16C208.108 287.84 197.425 349.5 197.425 349.5Z" fill="black"/>
<path opacity="0.2" d="M238.436 237.81C241.803 222.81 246.012 206.6 249.46 193.9L246.373 187.26C238.957 196 236.972 223.09 238.436 237.81Z" fill="black"/>
<path d="M242.134 170.11C242.134 170.11 245.351 242.55 248.929 267.11C252.848 293.98 262.81 352.7 262.81 352.7H278.334C278.334 352.7 273.203 290.91 270.928 264.53C268.342 234.53 271.339 172.16 271.339 172.16L242.134 170.11Z" fill="#407BFF"/>
<path opacity="0.3" d="M242.134 170.11C242.134 170.11 245.351 242.55 248.929 267.11C252.848 293.98 262.81 352.7 262.81 352.7H278.334C278.334 352.7 273.203 290.91 270.928 264.53C268.342 234.53 271.339 172.16 271.339 172.16L242.134 170.11Z" fill="black"/>
<path d="M260.946 353.01H279.236V347.56L258.791 347.21L260.946 353.01Z" fill="#407BFF"/>
<path d="M196.463 349.58L212.097 353.88L214.342 348.51L196.533 343.58L196.463 349.58Z" fill="#407BFF"/>
<path d="M256.315 66.1099C256.155 66.7699 255.664 67.2199 255.233 67.1099C254.802 66.9999 254.581 66.3799 254.752 65.7199C254.922 65.0599 255.403 64.6099 255.834 64.7199C256.265 64.8299 256.476 65.4499 256.315 66.1099Z" fill="#263238"/>
<path d="M248.819 64.2301C248.648 64.8901 248.167 65.3401 247.736 65.2301C247.305 65.1201 247.085 64.5001 247.245 63.8301C247.406 63.1601 247.907 62.7201 248.338 62.8301C248.769 62.9401 248.989 63.5701 248.819 64.2301Z" fill="#263238"/>
<path d="M251.124 65.1599C249.821 66.983 248.273 68.6183 246.524 70.0199C247.426 71.4099 249.671 71.2699 249.671 71.2699L251.124 65.1599Z" fill="#ED893E"/>
<path d="M259.252 64.2799C259.177 64.2741 259.106 64.2476 259.046 64.2034C258.986 64.1592 258.939 64.0991 258.911 64.0299C258.727 63.5629 258.434 63.1457 258.058 62.8122C257.682 62.4786 257.233 62.2381 256.746 62.1099C256.641 62.0904 256.547 62.0302 256.485 61.9423C256.423 61.8545 256.398 61.7459 256.416 61.6399C256.425 61.5879 256.445 61.5383 256.474 61.494C256.503 61.4497 256.54 61.4116 256.584 61.3819C256.628 61.3521 256.677 61.3313 256.729 61.3207C256.781 61.31 256.835 61.3098 256.887 61.3199C257.506 61.4717 258.08 61.7686 258.561 62.186C259.042 62.6034 259.416 63.1292 259.653 63.7199C259.693 63.8182 259.694 63.9285 259.655 64.0274C259.616 64.1263 259.539 64.2061 259.442 64.2499C259.381 64.2696 259.317 64.2797 259.252 64.2799Z" fill="#263238"/>
<path d="M246.253 60.85C246.168 60.8403 246.088 60.8054 246.023 60.75C245.949 60.6752 245.908 60.5747 245.908 60.47C245.908 60.3653 245.949 60.2648 246.023 60.19C246.423 59.6925 246.936 59.2978 247.52 59.0386C248.104 58.7794 248.742 58.6633 249.38 58.7C249.486 58.7149 249.581 58.7702 249.647 58.8542C249.712 58.9382 249.742 59.0442 249.731 59.15C249.713 59.2542 249.657 59.3482 249.574 59.413C249.49 59.4779 249.385 59.509 249.28 59.5C248.776 59.4764 248.275 59.5729 247.816 59.7816C247.358 59.9903 246.956 60.3052 246.644 60.7C246.596 60.7547 246.535 60.7969 246.467 60.823C246.399 60.8491 246.326 60.8584 246.253 60.85Z" fill="#263238"/>
<path d="M264.243 364.62C263.666 364.663 263.09 364.512 262.609 364.19C262.458 364.061 262.342 363.897 262.27 363.712C262.198 363.527 262.174 363.327 262.198 363.13C262.198 363.013 262.229 362.898 262.289 362.797C262.349 362.697 262.436 362.615 262.539 362.56C263.481 362.08 266.217 363.76 266.548 363.95C266.583 363.972 266.61 364.003 266.626 364.041C266.642 364.078 266.647 364.12 266.638 364.16C266.633 364.199 266.616 364.235 266.589 364.264C266.562 364.292 266.527 364.312 266.488 364.32C265.753 364.504 265 364.605 264.243 364.62ZM262.98 362.87C262.891 362.869 262.802 362.886 262.72 362.92C262.67 362.92 262.609 363 262.599 363.16C262.581 363.293 262.596 363.428 262.644 363.554C262.691 363.68 262.769 363.792 262.87 363.88C263.331 364.27 264.443 364.33 265.877 364.04C264.998 363.463 264.014 363.065 262.98 362.87Z" fill="#407BFF"/>
<path d="M266.418 364.32C266.385 364.331 266.35 364.331 266.318 364.32C265.446 363.84 263.742 361.99 263.922 361.05C263.952 360.902 264.032 360.768 264.149 360.672C264.266 360.575 264.412 360.522 264.564 360.52C264.716 360.5 264.871 360.513 265.018 360.558C265.165 360.602 265.301 360.678 265.416 360.78C266.418 361.58 266.608 364.02 266.618 364.13C266.619 364.165 266.612 364.2 266.596 364.231C266.58 364.263 266.557 364.29 266.528 364.31C266.493 364.322 266.455 364.326 266.418 364.32ZM264.704 360.89H264.614C264.353 360.89 264.333 361.04 264.323 361.09C264.213 361.65 265.325 363.09 266.167 363.71C266.106 362.747 265.757 361.824 265.165 361.06C265.037 360.95 264.873 360.889 264.704 360.89Z" fill="#407BFF"/>
<path d="M197.114 361C195.721 360.89 193.286 360.57 192.614 359.53C192.52 359.383 192.463 359.216 192.445 359.042C192.428 358.868 192.451 358.693 192.514 358.53C192.548 358.426 192.608 358.333 192.689 358.259C192.77 358.186 192.868 358.134 192.975 358.11C194.107 357.84 196.984 360.39 197.264 360.69C197.293 360.718 197.313 360.754 197.322 360.793C197.33 360.832 197.328 360.872 197.315 360.91C197.295 360.944 197.265 360.971 197.229 360.987C197.193 361.003 197.153 361.008 197.114 361ZM193.105 358.46H193.045C193.002 358.469 192.963 358.49 192.931 358.52C192.899 358.55 192.876 358.588 192.865 358.63C192.819 358.74 192.801 358.859 192.811 358.977C192.822 359.096 192.861 359.21 192.925 359.31C193.306 359.9 194.629 360.31 196.523 360.54C195.34 359.58 193.757 358.4 193.095 358.47L193.105 358.46Z" fill="#407BFF"/>
<path d="M195.39 356.55C194.959 357.71 196.202 359.84 196.964 361C196.981 361.041 197.013 361.075 197.054 361.095C197.094 361.116 197.14 361.121 197.184 361.11C197.224 361.1 197.259 361.079 197.286 361.048C197.313 361.018 197.33 360.98 197.335 360.94C197.375 360.48 197.675 356.68 196.773 355.94C196.688 355.871 196.586 355.824 196.477 355.805C196.368 355.786 196.256 355.794 196.152 355.83C195.976 355.879 195.814 355.97 195.682 356.096C195.549 356.221 195.449 356.377 195.39 356.55Z" fill="#407BFF"/>
<path d="M280.379 103.8C282.333 106.55 283.997 109.21 285.7 111.98C287.404 114.75 288.958 117.55 290.481 120.42C293.635 126.273 296.199 132.423 298.138 138.78C298.369 139.62 298.589 140.46 298.789 141.33C298.89 141.76 298.98 142.2 299.07 142.65L299.2 143.31L299.261 143.65L299.341 144.19C299.596 146.465 299.388 148.767 298.729 150.96C297.737 154.348 296.333 157.602 294.55 160.65C292.939 163.505 291.163 166.263 289.228 168.91C287.341 171.542 285.31 174.069 283.145 176.48L277.933 172.83C280.649 167.4 283.415 161.83 285.54 156.37C286.071 155.01 286.542 153.65 286.953 152.32C287.361 151.08 287.67 149.809 287.875 148.52C288.046 147.689 288.046 146.831 287.875 146L287.805 145.77L287.675 145.3C287.595 144.98 287.504 144.66 287.394 144.3C287.204 143.66 286.983 143 286.753 142.35C284.669 136.874 282.141 131.577 279.196 126.51C277.733 123.88 276.189 121.3 274.606 118.7C273.022 116.1 271.359 113.52 269.785 111.11L280.379 103.8Z" fill="#FFB573"/>
<path d="M279.126 98.9299C287.074 100.53 294.039 119.93 294.039 119.93L277.452 133.41C277.452 133.41 272.02 123.55 267.671 114.04C262.93 103.68 269.505 96.9999 279.126 98.9299Z" fill="white"/>
<path opacity="0.4" d="M279.126 98.9299C287.074 100.53 294.039 119.93 294.039 119.93L277.452 133.41C277.452 133.41 272.02 123.55 267.671 114.04C262.93 103.68 269.505 96.9999 279.126 98.9299Z" fill="#407BFF"/>
<path d="M168.18 126.408L164.174 140.824L165.13 141.089L169.136 126.673L168.18 126.408Z" fill="#407BFF"/>
<path d="M162.699 146.136L160.966 152.371L161.922 152.635L163.655 146.401L162.699 146.136Z" fill="#407BFF"/>
<path d="M274.262 119.949L191.268 96.6585C184.961 94.8885 178.409 98.5554 176.635 104.849L153.293 187.658C151.519 193.952 155.195 200.488 161.502 202.259L244.496 225.549C250.803 227.319 257.354 223.652 259.128 217.358L282.47 134.549C284.244 128.255 280.569 121.719 274.262 119.949Z" fill="#407BFF"/>
<path d="M225.958 142.21C225.511 142.213 225.065 142.153 224.635 142.03C223.377 141.668 222.311 140.829 221.664 139.693C221.018 138.557 220.843 137.213 221.178 135.95L225.186 121.54C225.555 120.295 226.399 119.244 227.536 118.614C228.674 117.984 230.014 117.825 231.267 118.171C232.521 118.517 233.589 119.341 234.24 120.465C234.891 121.589 235.073 122.923 234.748 124.18L230.739 138.59C230.44 139.627 229.813 140.54 228.952 141.193C228.09 141.845 227.04 142.202 225.958 142.21Z" fill="white"/>
<path d="M208.69 202.48C208.419 202.483 208.148 202.446 207.888 202.37C207.133 202.153 206.492 201.649 206.105 200.967C205.717 200.285 205.612 199.478 205.813 198.72L209.822 184.32C209.875 183.892 210.019 183.48 210.245 183.112C210.472 182.745 210.775 182.43 211.134 182.19C211.493 181.95 211.9 181.79 212.327 181.721C212.754 181.652 213.191 181.676 213.607 181.791C214.024 181.906 214.411 182.109 214.742 182.387C215.073 182.665 215.34 183.01 215.525 183.4C215.71 183.79 215.808 184.215 215.813 184.647C215.818 185.078 215.73 185.506 215.555 185.9L211.546 200.3C211.369 200.922 210.995 201.47 210.481 201.863C209.966 202.256 209.338 202.472 208.69 202.48Z" fill="white"/>
<path d="M240.971 150.44C240.642 150.443 240.321 150.337 240.059 150.138C239.797 149.94 239.609 149.659 239.524 149.342C239.439 149.025 239.462 148.688 239.59 148.385C239.718 148.083 239.943 147.831 240.23 147.67L253.259 140.3C253.6 140.115 254 140.07 254.375 140.174C254.749 140.279 255.068 140.525 255.263 140.86C255.454 141.2 255.502 141.601 255.397 141.976C255.292 142.351 255.042 142.669 254.702 142.86L241.673 150.23C241.46 150.355 241.219 150.428 240.971 150.44Z" fill="white"/>
<path d="M184.647 184.25C183.877 184.255 183.128 184.004 182.517 183.538C181.906 183.071 181.468 182.415 181.272 181.673C181.076 180.931 181.132 180.144 181.433 179.438C181.734 178.731 182.261 178.144 182.933 177.77L195.962 170.4C196.75 170.049 197.641 170.003 198.461 170.272C199.281 170.54 199.972 171.103 200.399 171.851C200.827 172.599 200.96 173.479 200.773 174.32C200.587 175.16 200.093 175.902 199.389 176.4L186.36 183.77C185.84 184.073 185.25 184.239 184.647 184.25Z" fill="white"/>
<path d="M257.729 173.78C257.549 173.781 257.37 173.757 257.197 173.71L242.765 169.71C242.321 169.519 241.961 169.174 241.752 168.739C241.542 168.304 241.497 167.809 241.626 167.343C241.754 166.878 242.046 166.474 242.449 166.207C242.852 165.94 243.338 165.828 243.818 165.89L258.26 169.89C258.7 170.04 259.074 170.337 259.319 170.732C259.563 171.126 259.663 171.594 259.6 172.053C259.537 172.513 259.316 172.937 258.975 173.252C258.633 173.567 258.193 173.754 257.729 173.78Z" fill="white"/>
<path d="M195.34 158.52C194.981 158.522 194.624 158.475 194.278 158.38L179.846 154.38C178.964 153.993 178.252 153.302 177.839 152.434C177.426 151.566 177.34 150.579 177.596 149.653C177.853 148.726 178.435 147.923 179.237 147.39C180.038 146.857 181.005 146.63 181.96 146.75L196.392 150.75C197.266 151.053 198.008 151.648 198.493 152.434C198.977 153.22 199.174 154.15 199.05 155.064C198.926 155.979 198.489 156.823 197.813 157.453C197.137 158.082 196.263 158.459 195.34 158.52Z" fill="white"/>
<path d="M238.957 198.26C238.519 198.259 238.089 198.143 237.711 197.924C237.333 197.705 237.019 197.389 236.802 197.01L229.416 184C229.248 183.717 229.139 183.404 229.095 183.079C229.05 182.754 229.071 182.423 229.156 182.106C229.241 181.789 229.389 181.492 229.59 181.232C229.792 180.972 230.043 180.756 230.33 180.594C230.616 180.433 230.932 180.33 231.259 180.291C231.585 180.253 231.917 180.28 232.233 180.371C232.549 180.462 232.844 180.615 233.1 180.821C233.356 181.026 233.569 181.281 233.725 181.57L241.102 194.57C241.264 194.852 241.368 195.163 241.409 195.486C241.45 195.808 241.427 196.136 241.34 196.449C241.253 196.762 241.105 197.055 240.904 197.311C240.703 197.567 240.454 197.781 240.17 197.94C239.8 198.151 239.382 198.261 238.957 198.26Z" fill="white"/>
<path d="M207.066 144C206.275 144.001 205.499 143.792 204.815 143.395C204.132 142.998 203.567 142.427 203.178 141.74L195.801 128.74C195.512 128.231 195.327 127.671 195.255 127.09C195.183 126.51 195.227 125.921 195.383 125.357C195.54 124.793 195.806 124.266 196.166 123.805C196.527 123.344 196.975 122.958 197.485 122.67C197.995 122.382 198.557 122.197 199.139 122.125C199.72 122.053 200.311 122.097 200.875 122.253C201.44 122.409 201.969 122.674 202.431 123.034C202.893 123.394 203.28 123.841 203.568 124.35L210.945 137.35C211.234 137.858 211.42 138.418 211.492 138.998C211.563 139.578 211.52 140.166 211.363 140.729C211.207 141.292 210.941 141.818 210.58 142.278C210.219 142.739 209.771 143.123 209.261 143.41C208.594 143.796 207.837 144 207.066 144Z" fill="white"/>
<path d="M280.94 170.89L272.341 170.58L276.5 180.58C276.5 180.58 283.886 179.22 283.606 175.24L280.94 170.89Z" fill="#FFB573"/>
<path d="M266.578 174.7L268.653 182.33L276.51 180.56L272.341 170.58L266.578 174.7Z" fill="#FFB573"/>
</g>
<defs>
<clipPath id="clip0">
<rect width="451" height="402" fill="white"/>
</clipPath>
</defs>
</svg>
