<svg width="250" height="250" viewBox="0 0 250 250" fill="none" xmlns="http://www.w3.org/2000/svg">
<path d="M250 191.2H0V191.325H250V191.2Z" fill="#EBEBEB"/>
<path d="M221.945 195.96H205.385V196.085H221.945V195.96Z" fill="#EBEBEB"/>
<path d="M90.6649 197.655H65.7349V197.78H90.6649V197.655Z" fill="#EBEBEB"/>
<path d="M204.885 200.605H190.12V200.73H204.885V200.605Z" fill="#EBEBEB"/>
<path d="M37.03 199.765H26.23V199.89H37.03V199.765Z" fill="#EBEBEB"/>
<path d="M60.665 199.765H41.48V199.89H60.665V199.765Z" fill="#EBEBEB"/>
<path d="M165.61 194.605H118.77V194.73H165.61V194.605Z" fill="#EBEBEB"/>
<path d="M118.5 168.9H21.955C21.1987 168.899 20.4738 168.597 19.9394 168.062C19.4051 167.527 19.105 166.801 19.105 166.045V30.33C19.1116 29.578 19.4146 28.859 19.9482 28.3291C20.4818 27.7992 21.203 27.5013 21.955 27.5H118.5C119.257 27.5 119.983 27.8008 120.519 28.3362C121.054 28.8716 121.355 29.5978 121.355 30.355V166.045C121.355 166.802 121.054 167.528 120.519 168.064C119.983 168.599 119.257 168.9 118.5 168.9ZM21.955 27.6C21.2318 27.6013 20.5387 27.8895 20.0278 28.4014C19.5169 28.9132 19.23 29.6068 19.23 30.33V166.045C19.23 166.768 19.5169 167.462 20.0278 167.974C20.5387 168.485 21.2318 168.774 21.955 168.775H118.5C119.224 168.774 119.917 168.486 120.429 167.974C120.941 167.462 121.229 166.769 121.23 166.045V30.33C121.229 29.6064 120.941 28.9127 120.429 28.4011C119.917 27.8894 119.224 27.6013 118.5 27.6H21.955Z" fill="#EBEBEB"/>
<path d="M226.655 168.9H130.105C129.348 168.899 128.623 168.597 128.088 168.062C127.553 167.527 127.251 166.802 127.25 166.045V30.33C127.258 29.5776 127.562 28.8585 128.096 28.3288C128.631 27.7991 129.353 27.5013 130.105 27.5H226.655C227.406 27.5026 228.126 27.8011 228.659 28.3309C229.191 28.8606 229.493 29.5789 229.5 30.33V166.045C229.5 166.8 229.201 167.525 228.667 168.06C228.134 168.595 227.41 168.897 226.655 168.9ZM130.105 27.6C129.381 27.6013 128.688 27.8894 128.176 28.4011C127.664 28.9127 127.376 29.6064 127.375 30.33V166.045C127.376 166.769 127.664 167.462 128.176 167.974C128.688 168.486 129.381 168.774 130.105 168.775H226.655C227.379 168.774 228.072 168.486 228.584 167.974C229.096 167.462 229.384 166.769 229.385 166.045V30.33C229.384 29.6064 229.096 28.9127 228.584 28.4011C228.072 27.8894 227.379 27.6013 226.655 27.6H130.105Z" fill="#EBEBEB"/>
<path d="M66.475 188.37H72.98L72.98 106.555H66.475L66.475 188.37Z" fill="#F0F0F0"/>
<path d="M35.2201 191.19H71.2651V188.365H35.2201V191.19Z" fill="#F0F0F0"/>
<path d="M66.4749 106.55H33.5049V188.365H66.4749V106.55Z" fill="#FAFAFA"/>
<path d="M62.96 149.155H37.02V163.765H62.96V149.155Z" fill="#F0F0F0"/>
<path d="M62.96 168.275H37.02V182.885H62.96V168.275Z" fill="#F0F0F0"/>
<path d="M46.3599 150.78H53.6099C54.0462 150.78 54.3999 150.426 54.3999 149.99V149.565C54.3999 149.129 54.0462 148.775 53.6099 148.775H46.3599C45.9236 148.775 45.5699 149.129 45.5699 149.565V149.99C45.5699 150.426 45.9236 150.78 46.3599 150.78Z" fill="#FAFAFA"/>
<path d="M46.3599 169.905H53.6099C54.0462 169.905 54.3999 169.551 54.3999 169.115V168.69C54.3999 168.254 54.0462 167.9 53.6099 167.9H46.3599C45.9236 167.9 45.5699 168.254 45.5699 168.69V169.115C45.5699 169.551 45.9236 169.905 46.3599 169.905Z" fill="#FAFAFA"/>
<path d="M62.96 111.065H37.02V125.675H62.96V111.065Z" fill="#F0F0F0"/>
<path d="M62.96 130.035H37.02V144.645H62.96V130.035Z" fill="#F0F0F0"/>
<path d="M46.3599 112.685H53.6099C54.0462 112.685 54.3999 112.331 54.3999 111.895V111.47C54.3999 111.034 54.0462 110.68 53.6099 110.68H46.3599C45.9236 110.68 45.5699 111.034 45.5699 111.47V111.895C45.5699 112.331 45.9236 112.685 46.3599 112.685Z" fill="#FAFAFA"/>
<path d="M46.3599 131.66H53.6099C54.0462 131.66 54.3999 131.306 54.3999 130.87V130.445C54.3999 130.009 54.0462 129.655 53.6099 129.655H46.3599C45.9236 129.655 45.5699 130.009 45.5699 130.445V130.87C45.5699 131.306 45.9236 131.66 46.3599 131.66Z" fill="#FAFAFA"/>
<path d="M102.555 188.37H113.32L113.32 106.555H102.555L102.555 188.37Z" fill="#F0F0F0"/>
<path d="M71.2998 191.19H111.32V188.365H71.2998V191.19Z" fill="#F0F0F0"/>
<path d="M102.555 106.55H69.585V188.365H102.555V106.55Z" fill="#FAFAFA"/>
<path d="M99.0401 149.155H73.1001V163.765H99.0401V149.155Z" fill="#F0F0F0"/>
<path d="M99.0401 168.275H73.1001V182.885H99.0401V168.275Z" fill="#F0F0F0"/>
<path d="M82.4449 150.78H89.6949C90.1312 150.78 90.4849 150.426 90.4849 149.99V149.565C90.4849 149.129 90.1312 148.775 89.6949 148.775H82.4449C82.0086 148.775 81.6549 149.129 81.6549 149.565V149.99C81.6549 150.426 82.0086 150.78 82.4449 150.78Z" fill="#FAFAFA"/>
<path d="M82.4449 169.905H89.6949C90.1312 169.905 90.4849 169.551 90.4849 169.115V168.69C90.4849 168.254 90.1312 167.9 89.6949 167.9H82.4449C82.0086 167.9 81.6549 168.254 81.6549 168.69V169.115C81.6549 169.551 82.0086 169.905 82.4449 169.905Z" fill="#FAFAFA"/>
<path d="M99.0401 111.065H73.1001V125.675H99.0401V111.065Z" fill="#F0F0F0"/>
<path d="M99.0401 130.035H73.1001V144.645H99.0401V130.035Z" fill="#F0F0F0"/>
<path d="M82.4449 112.685H89.6949C90.1312 112.685 90.4849 112.331 90.4849 111.895V111.47C90.4849 111.034 90.1312 110.68 89.6949 110.68H82.4449C82.0086 110.68 81.6549 111.034 81.6549 111.47V111.895C81.6549 112.331 82.0086 112.685 82.4449 112.685Z" fill="#FAFAFA"/>
<path d="M82.4449 131.66H89.6949C90.1312 131.66 90.4849 131.306 90.4849 130.87V130.445C90.4849 130.009 90.1312 129.655 89.6949 129.655H82.4449C82.0086 129.655 81.6549 130.009 81.6549 130.445V130.87C81.6549 131.306 82.0086 131.66 82.4449 131.66Z" fill="#FAFAFA"/>
<path d="M32.5102 80.3899L117.095 80.3899V45.0599L32.5102 45.0599V80.3899Z" fill="#E6E6E6"/>
<path d="M28.87 80.3899L116.125 80.3899V45.0599L28.87 45.0599V80.3899Z" fill="#F0F0F0"/>
<path d="M111.515 75.7751V49.665L33.4801 49.665V75.7751H111.515Z" fill="#FAFAFA"/>
<path d="M73.2948 75.78L65.5448 49.665H55.0898L62.8398 75.78H73.2948Z" fill="white"/>
<path d="M101.93 75.78L94.1801 49.665H83.7251L91.4751 75.78H101.93Z" fill="white"/>
<path d="M60.8652 75.78L53.1152 49.665H42.6602L50.4102 75.78H60.8652Z" fill="white"/>
<path d="M191.35 35.4399H144.74V108.825H191.35V35.4399Z" fill="#EBEBEB"/>
<path d="M188.05 105.53V38.74H148.04V105.53H188.05Z" fill="#FAFAFA"/>
<path d="M166.805 105.53H165.46L169.285 38.675H170.63L166.805 105.53Z" fill="#E0E0E0"/>
<path d="M169.31 53.66V55.59L188.05 50.65V49.97L169.31 53.66Z" fill="#E0E0E0"/>
<path d="M168.045 75.5699V77.4999L188.05 69.5799V68.8999L168.045 75.5699Z" fill="#E0E0E0"/>
<path d="M166.315 98.19V100.85L188.05 88.825V88.145L166.315 98.19Z" fill="#E0E0E0"/>
<path d="M168.545 63.535V65.465L148.54 57.545V56.865L168.545 63.535Z" fill="#E0E0E0"/>
<path d="M166.925 86.815V89.475L148.54 79.66V78.98L166.925 86.815Z" fill="#E0E0E0"/>
<path d="M148.54 105.53V38.74H148.045V105.53H148.54Z" fill="#E0E0E0"/>
<path d="M191.35 108.83H192.885V35.4451H191.35V108.83Z" fill="#E0E0E0"/>
<path d="M209.675 103.44C209.675 100.395 210.855 95.835 210.855 95.835H201.5C201.5 95.835 202.685 100.395 202.685 103.44C202.685 106.485 198.985 111.94 198.985 116.3C198.985 120.66 202.715 126.085 202.715 126.085H209.635C209.635 126.085 213.365 120.655 213.365 116.3C213.365 111.945 209.675 106.5 209.675 103.44Z" fill="#E0E0E0"/>
<path d="M215.67 107.71C215.67 105.24 216.12 101.535 216.12 101.535H212.575C212.575 101.535 213.025 105.24 213.025 107.71C213.025 110.18 211.625 114.61 211.625 118.145C211.625 121.68 213.035 126.085 213.035 126.085H215.66C215.66 126.085 217.07 121.68 217.07 118.145C217.07 114.61 215.67 110.175 215.67 107.71Z" fill="#F0F0F0"/>
<path d="M129.18 191.195H134.495V126.08H129.18V191.195Z" fill="#E6E6E6"/>
<path d="M127.755 191.195H130.885V126.08H127.755L127.755 191.195Z" fill="#F0F0F0"/>
<path d="M202.265 126.085H126.785V129.42H202.265V126.085Z" fill="#F0F0F0"/>
<path d="M227.89 191.195H233.205V126.08H227.89V191.195Z" fill="#E6E6E6"/>
<path d="M226.89 191.195H230.02V126.08H226.89V191.195Z" fill="#F0F0F0"/>
<path d="M234.155 126.085H204.54V129.42H234.155V126.085Z" fill="#E6E6E6"/>
<path d="M202.715 191.195H208.03V126.08H202.715V191.195Z" fill="#E6E6E6"/>
<path d="M201.295 191.195H204.425V126.08H201.295V191.195Z" fill="#F0F0F0"/>
<path d="M128.68 126.085L164.525 147.61L200.37 126.085H128.68Z" fill="#FAFAFA"/>
<path d="M132.025 126.085L164.525 145.6L197.025 126.085H132.025Z" fill="#EBEBEB"/>
<path d="M207.095 126.085L219.98 145.6L232.87 126.085H207.095Z" fill="#FAFAFA"/>
<path d="M208.63 126.085L220.315 143.595L232 126.085H208.63Z" fill="#EBEBEB"/>
<path d="M125 213.78C178.541 213.78 221.945 211.246 221.945 208.12C221.945 204.994 178.541 202.46 125 202.46C71.4589 202.46 28.0552 204.994 28.0552 208.12C28.0552 211.246 71.4589 213.78 125 213.78Z" fill="#F5F5F5"/>
<path d="M100.89 203.51L96.8701 202.19L98.8551 192.53L102.875 193.85L100.89 203.51Z" fill="#FFB573"/>
<path d="M135.855 203.56H131.62L130.57 193.765H134.8L135.855 203.56Z" fill="#FFB573"/>
<path d="M131.275 203.07H136.43C136.515 203.07 136.597 203.099 136.663 203.151C136.729 203.204 136.776 203.278 136.795 203.36L137.63 207.12C137.65 207.212 137.648 207.307 137.626 207.398C137.604 207.489 137.561 207.574 137.502 207.647C137.442 207.719 137.367 207.777 137.282 207.817C137.197 207.857 137.104 207.876 137.01 207.875C135.35 207.845 134.14 207.75 132.05 207.75C130.76 207.75 126.885 207.88 125.11 207.88C123.335 207.88 123.11 206.125 123.825 205.965C127.085 205.255 129.545 204.27 130.585 203.33C130.776 203.163 131.021 203.071 131.275 203.07Z" fill="#263238"/>
<path d="M96.9403 201.555L101.395 202.78C101.476 202.803 101.546 202.853 101.595 202.921C101.644 202.989 101.669 203.071 101.665 203.155L101.47 207.005C101.466 207.098 101.441 207.189 101.397 207.271C101.353 207.353 101.291 207.424 101.215 207.478C101.14 207.533 101.053 207.569 100.961 207.585C100.869 207.601 100.775 207.596 100.685 207.57C99.0853 207.1 96.7903 206.365 94.7703 205.805C92.4103 205.155 91.9703 204.93 89.2003 204.17C87.5253 203.705 87.5253 201.885 88.2703 201.925C91.6553 202.105 92.6453 202.54 95.8703 201.6C96.2158 201.486 96.5865 201.47 96.9403 201.555Z" fill="#263238"/>
<path d="M117.78 75.0001C117.51 75.3501 117.305 75.6101 117.065 75.9051C116.825 76.2001 116.595 76.4601 116.355 76.7351C115.855 77.2801 115.355 77.8101 114.855 78.3301C113.846 79.39 112.778 80.3916 111.655 81.3301C109.335 83.3378 106.677 84.9188 103.805 86.0001C103.013 86.2792 102.199 86.4884 101.37 86.6251C101.16 86.6551 100.945 86.6951 100.73 86.7201L100.075 86.7801C99.7987 86.7968 99.5215 86.7968 99.2451 86.7801C98.9721 86.7643 98.7 86.7343 98.4301 86.6901C97.55 86.5309 96.6934 86.2621 95.8801 85.8901C95.1736 85.5815 94.4887 85.2257 93.8301 84.8251C92.5877 84.0765 91.3997 83.2411 90.2751 82.3251C89.1636 81.4434 88.1098 80.4915 87.1201 79.4751L89.0351 76.9451C91.3851 78.1101 93.7901 79.3401 96.0901 80.2251C96.6651 80.4401 97.2301 80.6351 97.7601 80.7851C98.2073 80.9185 98.669 80.9974 99.1351 81.0201C99.2001 81.0234 99.2652 81.0234 99.3301 81.0201C99.3651 81.0201 99.3601 81.0201 99.5151 80.9801L99.8651 80.9201L100.225 80.8351C100.46 80.7851 100.725 80.6851 100.95 80.6201C101.175 80.5551 101.45 80.4451 101.69 80.3301C102.736 79.8837 103.73 79.3254 104.655 78.6651C105.658 77.9787 106.615 77.2271 107.52 76.4151C108.455 75.6051 109.35 74.7201 110.23 73.8201C110.67 73.3701 111.1 72.9051 111.515 72.4351L112.135 71.7301L112.705 71.0601L117.78 75.0001Z" fill="#FFB573"/>
<path d="M120.105 72.9201C120.415 76.9501 111.335 85.1801 111.335 85.1801L103.305 78.2201C103.305 78.2201 106.685 74.6401 110.485 71.0351C113.095 68.5601 119.765 68.5551 120.105 72.9201Z" fill="white"/>
<path opacity="0.4" d="M120.105 72.9201C120.415 76.9501 111.335 85.1801 111.335 85.1801L103.305 78.2201C103.305 78.2201 106.685 74.6401 110.485 71.0351C113.095 68.5601 119.765 68.5551 120.105 72.9201Z" fill="#407BFF"/>
<path opacity="0.2" d="M116 75C112.27 75.34 109.885 78.34 108.84 81.655C108.725 82.025 108.625 82.405 108.545 82.78L111.325 85.19C111.325 85.19 115.46 81.445 118.05 77.77C118.19 76.025 117.695 74.84 116 75Z" fill="black"/>
<path d="M90.0001 78.77L88.6251 75.27L83.9351 76.71C84.9555 77.7938 86.0811 78.7736 87.2951 79.635L90.0001 78.77Z" fill="#FFB573"/>
<path d="M86.2753 72.5552L82.4053 74.1052L83.9503 76.7202L88.6403 75.2802L86.2753 72.5552Z" fill="#FFB573"/>
<path opacity="0.2" d="M98.8552 192.535L97.6602 198.335L101.74 199.375L102.875 193.855L98.8552 192.535Z" fill="black"/>
<path opacity="0.2" d="M134.8 193.765H130.57L131.115 198.815H135.345L134.8 193.765Z" fill="black"/>
<path d="M137.3 70.9651C136.059 75.5317 135.159 80.1846 134.61 84.8851C134.21 88.1601 133.97 91.2901 133.82 94.1301C133.47 100.78 133.615 105.85 133.415 107.565L110.84 106C107.77 81.9301 113.64 69.5301 113.64 69.5301C115.425 69.1985 117.228 68.9764 119.04 68.8651C119.424 68.8384 119.814 68.8234 120.21 68.8201C123.419 68.8632 126.623 69.0902 129.805 69.5001C130.41 69.5751 131.02 69.6601 131.615 69.7551C134.64 70.2301 137.3 70.9651 137.3 70.9651Z" fill="white"/>
<path opacity="0.4" d="M137.3 70.9651C136.059 75.5317 135.159 80.1846 134.61 84.8851C134.21 88.1601 133.97 91.2901 133.82 94.1301C133.47 100.78 133.615 105.85 133.415 107.565L110.84 106C107.77 81.9301 113.64 69.5301 113.64 69.5301C115.425 69.1985 117.228 68.9764 119.04 68.8651C119.424 68.8384 119.814 68.8234 120.21 68.8201C123.419 68.8632 126.623 69.0902 129.805 69.5001C130.41 69.5751 131.02 69.6601 131.615 69.7551C134.64 70.2301 137.3 70.9651 137.3 70.9651Z" fill="#407BFF"/>
<path opacity="0.2" d="M131.595 77.0552C131.558 80.5174 132.529 83.9156 134.39 86.8352C134.455 86.1952 134.53 85.5402 134.61 84.8852C134.91 82.4202 135.3 79.8852 135.815 77.2952L131.595 77.0552Z" fill="black"/>
<path d="M129.61 58.6101C128.785 61.6551 127.79 67.2701 129.805 69.4801C128.785 70.4054 127.578 71.1011 126.267 71.5203C124.955 71.9395 123.568 72.0724 122.2 71.9101C119.55 71.6651 119.545 69.8001 120.2 68.8101C123.7 68.2301 123.79 65.6701 123.355 63.2301L129.61 58.6101Z" fill="#FFB573"/>
<path opacity="0.2" d="M127.065 60.5L123.37 63.23C123.48 63.7987 123.538 64.3759 123.545 64.955C124.875 64.855 126.78 63.54 127.02 62.17C127.135 61.6205 127.151 61.0549 127.065 60.5Z" fill="black"/>
<path d="M122.9 54.0551C121.9 55.4701 119.275 52.8651 119.375 50.5551C123.175 50.0551 121.375 47.2701 124.825 47.9851C127.695 48.5501 124 52.5001 122.9 54.0551Z" fill="#263238"/>
<path d="M132.37 54.9701C131.1 58.9701 130.56 61.3801 127.98 62.9701C124.1 65.3301 119.555 62.2051 119.605 57.9051C119.65 54.0351 121.725 48.1401 126.105 47.5251C127.07 47.385 128.054 47.4932 128.964 47.8396C129.875 48.1859 130.682 48.759 131.309 49.5044C131.937 50.2499 132.363 51.1432 132.549 52.0996C132.735 53.0561 132.673 54.0441 132.37 54.9701Z" fill="#FFB573"/>
<path d="M129.97 58.6101C129.776 57.6227 129.72 56.6129 129.805 55.6101C129.949 54.8259 130.196 54.0642 130.54 53.3451C130.54 53.3451 128.145 51.9301 128.09 50.2251C128.09 50.2251 123.81 51.4851 121.525 49.5601C119.24 47.6351 121.28 45.4101 120.11 44.5601C122.91 44.2901 123.76 45.9901 125.53 45.6201C127.3 45.2501 125.735 44.0051 125.97 42.6201C131.305 47.2151 133.625 45.0601 136.215 47.6901C137.87 49.3701 136.13 52.5201 136.13 52.5201C136.13 52.5201 138.77 57.0001 129.97 58.6101Z" fill="#263238"/>
<path d="M135.28 52.4252C135.28 52.4252 137.9 52.9652 137.97 50.2202C139.32 53.0002 137.63 53.4352 135.28 52.4252Z" fill="#263238"/>
<path d="M123.46 58.785C123.936 58.9167 124.437 58.9319 124.92 58.8292C125.403 58.7265 125.854 58.509 126.235 58.195C126.256 58.1744 126.267 58.1466 126.267 58.1175C126.267 58.0885 126.256 58.0606 126.235 58.04C126.215 58.0211 126.188 58.0105 126.16 58.0105C126.133 58.0105 126.106 58.0211 126.085 58.04C125.729 58.326 125.31 58.5238 124.862 58.6177C124.415 58.7115 123.952 58.6986 123.51 58.58C123.482 58.5749 123.453 58.5802 123.428 58.5949C123.403 58.6096 123.384 58.6327 123.375 58.66C123.372 58.6876 123.379 58.7155 123.394 58.7385C123.41 58.7614 123.433 58.778 123.46 58.785Z" fill="#263238"/>
<path d="M133.08 59.3901C132.703 59.7513 132.257 60.0345 131.77 60.2232C131.283 60.412 130.763 60.5027 130.24 60.4901C128.84 60.4501 128.555 59.1001 129.29 57.9901C129.955 56.9901 131.48 55.8251 132.72 56.4051C133.96 56.9851 134 58.5001 133.08 59.3901Z" fill="#FFB573"/>
<path d="M96.54 196.25L103.445 198.15C103.445 198.15 112.095 170.885 114.22 155.91C114.785 151.935 115.655 146.355 116.98 140.41C118.66 132.91 120.76 124.805 122.48 118.455C124.3 111.765 125.68 107.035 125.68 107.035L110.84 106C110.84 106 104.765 139.245 103.34 152.08C101.87 165.42 96.54 196.25 96.54 196.25Z" fill="#407BFF"/>
<path opacity="0.3" d="M96.54 196.25L103.445 198.15C103.445 198.15 112.095 170.885 114.22 155.91C114.785 151.935 115.655 146.355 116.98 140.41C118.66 132.91 120.76 124.805 122.48 118.455C124.3 111.765 125.68 107.035 125.68 107.035L110.84 106C110.84 106 104.765 139.245 103.34 152.08C101.87 165.42 96.54 196.25 96.54 196.25Z" fill="black"/>
<path opacity="0.2" d="M117 140.405C118.68 132.905 120.78 124.8 122.5 118.45L120.96 115.13C117.26 119.5 116.27 133.045 117 140.405Z" fill="black"/>
<path d="M118.845 106.555C118.845 106.555 120.45 142.775 122.235 155.055C124.19 168.49 129.16 197.85 129.16 197.85H136.905C136.905 197.85 134.345 166.955 133.21 153.765C131.92 138.765 133.415 107.58 133.415 107.58L118.845 106.555Z" fill="#407BFF"/>
<path opacity="0.3" d="M118.845 106.555C118.845 106.555 120.45 142.775 122.235 155.055C124.19 168.49 129.16 197.85 129.16 197.85H136.905C136.905 197.85 134.345 166.955 133.21 153.765C131.92 138.765 133.415 107.58 133.415 107.58L118.845 106.555Z" fill="black"/>
<path d="M128.23 198.005H137.355V195.28L127.155 195.105L128.23 198.005Z" fill="#407BFF"/>
<path d="M96.0601 196.29L103.86 198.44L104.98 195.755L96.0951 193.29L96.0601 196.29Z" fill="#407BFF"/>
<path d="M125.92 54.5551C125.84 54.8851 125.595 55.1101 125.38 55.0551C125.165 55.0001 125.055 54.6901 125.14 54.3601C125.225 54.0301 125.465 53.8051 125.68 53.8601C125.895 53.9151 126 54.2251 125.92 54.5551Z" fill="#263238"/>
<path d="M122.18 53.6152C122.095 53.9452 121.855 54.1702 121.64 54.1152C121.425 54.0602 121.315 53.7502 121.395 53.4152C121.475 53.0802 121.725 52.8602 121.94 52.9152C122.155 52.9702 122.265 53.2852 122.18 53.6152Z" fill="#263238"/>
<path d="M123.33 54.0801C122.68 54.9916 121.908 55.8093 121.035 56.5101C121.485 57.2051 122.605 57.1351 122.605 57.1351L123.33 54.0801Z" fill="#ED893E"/>
<path d="M127.385 53.6402C127.348 53.6373 127.312 53.624 127.282 53.6019C127.252 53.5799 127.229 53.5498 127.215 53.5152C127.123 53.2817 126.977 53.0731 126.79 52.9063C126.602 52.7396 126.378 52.6193 126.135 52.5552C126.082 52.5454 126.035 52.5154 126.005 52.4714C125.974 52.4275 125.961 52.3732 125.97 52.3202C125.975 52.2942 125.985 52.2694 125.999 52.2473C126.014 52.2251 126.032 52.2061 126.054 52.1912C126.076 52.1763 126.101 52.1659 126.126 52.1606C126.152 52.1553 126.179 52.1551 126.205 52.1602C126.514 52.2361 126.8 52.3845 127.04 52.5932C127.28 52.8019 127.467 53.0649 127.585 53.3602C127.605 53.4094 127.606 53.4645 127.586 53.5139C127.567 53.5634 127.528 53.6033 127.48 53.6252C127.449 53.635 127.417 53.6401 127.385 53.6402Z" fill="#263238"/>
<path d="M120.9 51.925C120.858 51.9201 120.818 51.9027 120.785 51.875C120.749 51.8376 120.728 51.7873 120.728 51.735C120.728 51.6826 120.749 51.6324 120.785 51.595C120.985 51.3463 121.241 51.1489 121.532 51.0193C121.824 50.8897 122.142 50.8316 122.46 50.85C122.513 50.8575 122.561 50.8851 122.593 50.9271C122.626 50.9691 122.641 51.0221 122.635 51.075C122.627 51.1271 122.599 51.1741 122.557 51.2065C122.515 51.2389 122.463 51.2545 122.41 51.25C122.159 51.2382 121.909 51.2865 121.68 51.3908C121.451 51.4952 121.251 51.6526 121.095 51.85C121.071 51.8773 121.041 51.8984 121.007 51.9115C120.973 51.9246 120.936 51.9292 120.9 51.925Z" fill="#263238"/>
<path d="M129.875 203.81C129.587 203.832 129.3 203.756 129.06 203.595C128.985 203.531 128.927 203.449 128.891 203.356C128.855 203.264 128.843 203.164 128.855 203.065C128.855 203.007 128.87 202.949 128.9 202.899C128.93 202.849 128.974 202.808 129.025 202.78C129.495 202.54 130.86 203.38 131.025 203.475C131.043 203.486 131.056 203.502 131.064 203.521C131.072 203.539 131.074 203.56 131.07 203.58C131.067 203.6 131.059 203.618 131.045 203.632C131.032 203.646 131.014 203.656 130.995 203.66C130.629 203.752 130.253 203.803 129.875 203.81ZM129.245 202.935C129.201 202.935 129.156 202.943 129.115 202.96C129.09 202.96 129.06 203 129.055 203.08C129.046 203.147 129.054 203.214 129.077 203.277C129.101 203.34 129.14 203.396 129.19 203.44C129.42 203.635 129.975 203.665 130.69 203.52C130.252 203.232 129.761 203.033 129.245 202.935Z" fill="#407BFF"/>
<path d="M130.96 203.66C130.944 203.665 130.926 203.665 130.91 203.66C130.475 203.42 129.625 202.495 129.715 202.025C129.73 201.951 129.77 201.884 129.828 201.836C129.886 201.788 129.959 201.761 130.035 201.76C130.111 201.75 130.188 201.756 130.262 201.779C130.335 201.801 130.403 201.839 130.46 201.89C130.96 202.29 131.055 203.51 131.06 203.565C131.061 203.583 131.057 203.6 131.049 203.616C131.041 203.631 131.03 203.645 131.015 203.655C130.997 203.661 130.979 203.663 130.96 203.66ZM130.105 201.945H130.06C129.93 201.945 129.92 202.02 129.915 202.045C129.86 202.325 130.415 203.045 130.835 203.355C130.805 202.873 130.63 202.412 130.335 202.03C130.271 201.975 130.19 201.945 130.105 201.945Z" fill="#407BFF"/>
<path d="M96.3852 202C95.6902 201.945 94.4752 201.785 94.1402 201.265C94.0935 201.191 94.0647 201.108 94.056 201.021C94.0473 200.934 94.059 200.847 94.0902 200.765C94.1071 200.713 94.1371 200.667 94.1775 200.63C94.2178 200.593 94.267 200.567 94.3202 200.555C94.8852 200.42 96.3202 201.695 96.4602 201.845C96.4744 201.859 96.4843 201.877 96.4888 201.897C96.4932 201.916 96.492 201.936 96.4852 201.955C96.4753 201.972 96.4603 201.985 96.4424 201.994C96.4245 202.002 96.4045 202.004 96.3852 202ZM94.3852 200.73H94.3552C94.3339 200.735 94.3143 200.745 94.2984 200.76C94.2826 200.775 94.2711 200.794 94.2652 200.815C94.2426 200.87 94.2335 200.93 94.2387 200.989C94.2439 201.048 94.2633 201.105 94.2952 201.155C94.4852 201.45 95.1452 201.655 96.0902 201.77C95.5002 201.29 94.7102 200.7 94.3802 200.735L94.3852 200.73Z" fill="#407BFF"/>
<path d="M95.5251 199.775C95.3101 200.355 95.9301 201.42 96.3101 202C96.3189 202.021 96.3349 202.038 96.355 202.048C96.3752 202.058 96.3982 202.06 96.4201 202.055C96.4397 202.05 96.4574 202.039 96.4708 202.024C96.4842 202.009 96.4927 201.99 96.4951 201.97C96.5151 201.74 96.6651 199.84 96.2151 199.47C96.1723 199.435 96.1214 199.412 96.0672 199.402C96.013 199.393 95.9572 199.397 95.9051 199.415C95.8172 199.44 95.7367 199.485 95.6705 199.548C95.6042 199.611 95.5543 199.689 95.5251 199.775Z" fill="#407BFF"/>
<path d="M137.925 73.4001C138.9 74.7751 139.73 76.1051 140.58 77.4901C141.43 78.8751 142.205 80.2751 142.965 81.7101C144.538 84.6365 145.818 87.7115 146.785 90.8901C146.9 91.3101 147.01 91.7301 147.11 92.1651C147.16 92.3801 147.205 92.6001 147.25 92.8251L147.315 93.1551L147.345 93.3251L147.385 93.5951C147.512 94.7325 147.409 95.8839 147.08 96.9801C146.585 98.674 145.885 100.301 144.995 101.825C144.192 103.253 143.305 104.632 142.34 105.955C141.398 107.271 140.385 108.535 139.305 109.74L136.705 107.915C138.06 105.2 139.44 102.415 140.5 99.6851C140.765 99.0051 141 98.3251 141.205 97.6601C141.409 97.0401 141.563 96.4047 141.665 95.7601C141.751 95.3445 141.751 94.9158 141.665 94.5001L141.63 94.3851L141.565 94.1501C141.525 93.9901 141.48 93.8301 141.425 93.6501C141.33 93.3301 141.22 93.0001 141.105 92.6751C140.065 89.9373 138.804 87.2885 137.335 84.7551C136.605 83.4401 135.835 82.1501 135.045 80.8501C134.255 79.5501 133.425 78.2601 132.64 77.0551L137.925 73.4001Z" fill="#FFB573"/>
<path d="M137.3 70.9652C141.265 71.7652 144.74 81.4652 144.74 81.4652L136.465 88.2052C136.465 88.2052 133.755 83.2752 131.585 78.5202C129.22 73.3402 132.5 70.0002 137.3 70.9652Z" fill="white"/>
<path opacity="0.4" d="M137.3 70.9652C141.265 71.7652 144.74 81.4652 144.74 81.4652L136.465 88.2052C136.465 88.2052 133.755 83.2752 131.585 78.5202C129.22 73.3402 132.5 70.0002 137.3 70.9652Z" fill="#407BFF"/>
<path d="M81.9501 84.7042L79.9512 91.9121L80.4282 92.0444L82.4271 84.8364L81.9501 84.7042Z" fill="#407BFF"/>
<path d="M79.2156 94.5682L78.3511 97.6855L78.8281 97.8178L79.6926 94.7005L79.2156 94.5682Z" fill="#407BFF"/>
<path d="M134.873 81.4744L93.4686 69.8293C90.3219 68.9442 87.0536 70.7777 86.1685 73.9244L74.5234 115.329C73.6384 118.476 75.4719 121.744 78.6186 122.629L120.023 134.274C123.17 135.159 126.438 133.326 127.323 130.179L138.969 88.7744C139.854 85.6277 138.02 82.3594 134.873 81.4744Z" fill="#407BFF"/>
<path d="M110.775 92.6052C110.552 92.607 110.33 92.5767 110.115 92.5152C109.488 92.3343 108.956 91.9149 108.633 91.3468C108.311 90.7786 108.224 90.1068 108.39 89.4752L110.39 82.2702C110.574 81.6477 110.995 81.1223 111.563 80.8073C112.13 80.4922 112.799 80.4126 113.424 80.5857C114.05 80.7589 114.582 81.1708 114.907 81.7327C115.232 82.2947 115.323 82.9618 115.16 83.5902L113.16 90.7952C113.011 91.3139 112.699 91.7705 112.269 92.0967C111.839 92.423 111.315 92.6013 110.775 92.6052Z" fill="white"/>
<path d="M102.16 122.74C102.025 122.741 101.89 122.723 101.76 122.685C101.383 122.577 101.064 122.325 100.871 121.984C100.677 121.643 100.625 121.239 100.725 120.86L102.725 113.66C102.751 113.446 102.823 113.24 102.936 113.056C103.049 112.872 103.2 112.715 103.38 112.595C103.559 112.475 103.762 112.395 103.975 112.361C104.188 112.326 104.406 112.338 104.614 112.396C104.821 112.453 105.015 112.555 105.18 112.694C105.345 112.832 105.478 113.005 105.57 113.2C105.662 113.395 105.711 113.608 105.714 113.824C105.717 114.039 105.673 114.253 105.585 114.45L103.585 121.65C103.497 121.961 103.31 122.235 103.054 122.432C102.797 122.628 102.483 122.736 102.16 122.74Z" fill="white"/>
<path d="M118.265 96.7201C118.101 96.7217 117.941 96.6687 117.81 96.5693C117.68 96.4699 117.586 96.3298 117.543 96.1711C117.501 96.0124 117.512 95.8442 117.576 95.6928C117.64 95.5414 117.752 95.4156 117.895 95.3351L124.395 91.6501C124.566 91.5575 124.765 91.5349 124.952 91.5872C125.139 91.6394 125.298 91.7625 125.395 91.9301C125.491 92.0999 125.515 92.3005 125.462 92.488C125.41 92.6755 125.285 92.8345 125.115 92.9301L118.615 96.6151C118.509 96.6779 118.389 96.7139 118.265 96.7201Z" fill="white"/>
<path d="M90.1651 113.625C89.7813 113.628 89.4076 113.502 89.1028 113.269C88.7981 113.036 88.5795 112.708 88.4816 112.337C88.3836 111.966 88.4119 111.572 88.5619 111.219C88.7119 110.866 88.9751 110.572 89.3101 110.385L95.8101 106.7C96.2033 106.525 96.6477 106.502 97.0569 106.636C97.4661 106.77 97.8108 107.052 98.024 107.426C98.2372 107.8 98.3037 108.24 98.2106 108.66C98.1175 109.08 97.8713 109.451 97.5201 109.7L91.0201 113.385C90.7603 113.537 90.4659 113.62 90.1651 113.625Z" fill="white"/>
<path d="M126.625 108.39C126.536 108.39 126.446 108.379 126.36 108.355L119.16 106.355C118.938 106.26 118.759 106.087 118.654 105.87C118.55 105.652 118.527 105.404 118.591 105.172C118.655 104.939 118.801 104.737 119.002 104.604C119.203 104.47 119.446 104.414 119.685 104.445L126.89 106.445C127.11 106.52 127.296 106.669 127.418 106.866C127.54 107.063 127.59 107.297 127.559 107.527C127.527 107.757 127.417 107.968 127.247 108.126C127.076 108.283 126.857 108.377 126.625 108.39Z" fill="white"/>
<path d="M95.5002 100.76C95.3212 100.761 95.1428 100.737 94.9702 100.69L87.7702 98.69C87.3304 98.4965 86.975 98.1512 86.769 97.7171C86.5629 97.2831 86.52 96.7894 86.648 96.3263C86.7761 95.8632 87.0666 95.4617 87.4664 95.1952C87.8661 94.9287 88.3485 94.8151 88.8252 94.875L96.0252 96.875C96.4611 97.0264 96.8313 97.3239 97.0729 97.7171C97.3146 98.1102 97.4128 98.5748 97.351 99.0321C97.2892 99.4895 97.0712 99.9113 96.7339 100.226C96.3965 100.541 95.9607 100.73 95.5002 100.76Z" fill="white"/>
<path d="M117.26 120.63C117.042 120.63 116.827 120.572 116.639 120.462C116.45 120.352 116.293 120.195 116.185 120.005L112.5 113.5C112.417 113.359 112.362 113.202 112.34 113.039C112.318 112.877 112.328 112.711 112.371 112.553C112.413 112.394 112.487 112.246 112.587 112.116C112.688 111.986 112.813 111.878 112.956 111.797C113.099 111.716 113.256 111.665 113.42 111.646C113.583 111.626 113.748 111.64 113.905 111.685C114.063 111.731 114.21 111.807 114.338 111.91C114.466 112.013 114.572 112.141 114.65 112.285L118.33 118.785C118.411 118.926 118.463 119.082 118.484 119.243C118.504 119.404 118.492 119.568 118.449 119.724C118.406 119.881 118.332 120.028 118.232 120.156C118.131 120.284 118.007 120.39 117.865 120.47C117.681 120.575 117.472 120.631 117.26 120.63Z" fill="white"/>
<path d="M101.35 93.5002C100.956 93.5007 100.568 93.3964 100.227 93.1978C99.8863 92.9992 99.6043 92.7136 99.4102 92.3702L95.7302 85.8702C95.586 85.6157 95.4934 85.3354 95.4577 85.0452C95.4219 84.7549 95.4436 84.4605 95.5216 84.1787C95.5996 83.8969 95.7323 83.6332 95.9123 83.4026C96.0922 83.1721 96.3157 82.9793 96.5702 82.8351C96.8246 82.691 97.1049 82.5984 97.3952 82.5626C97.6854 82.5268 97.9798 82.5486 98.2616 82.6266C98.5435 82.7046 98.8072 82.8373 99.0377 83.0172C99.2682 83.1972 99.461 83.4207 99.6052 83.6752L103.285 90.1752C103.429 90.4292 103.522 90.7091 103.558 90.999C103.594 91.2889 103.572 91.583 103.494 91.8645C103.416 92.146 103.283 92.4093 103.103 92.6393C102.923 92.8694 102.7 93.0617 102.445 93.2052C102.113 93.3984 101.735 93.5001 101.35 93.5002Z" fill="white"/>
<path d="M138.205 106.945L133.915 106.79L135.99 111.79C135.99 111.79 139.675 111.11 139.535 109.12L138.205 106.945Z" fill="#FFB573"/>
<path d="M131.04 108.85L132.075 112.665L135.995 111.78L133.915 106.79L131.04 108.85Z" fill="#FFB573"/>
</svg>
