<svg width="16" height="16" viewBox="0 0 16 16" fill="none" xmlns="http://www.w3.org/2000/svg">
<mask id="path-1-inside-1" fill="white">
<path d="M11.3586 0H4.64131C3.99384 0 3.46664 0.5272 3.46664 1.17467V14.8251C3.46664 15.4728 3.99384 16 4.64131 16H11.3584C12.0061 16 12.5333 15.4728 12.5333 14.8253V1.17467C12.5333 0.5272 12.0061 0 11.3586 0ZM3.99998 2.13333H12V12.2667H3.99998V2.13333ZM4.64131 0.533333H11.3584C11.7122 0.533333 12 0.821067 12 1.17467V1.6H3.99998V1.17467C3.99998 0.821067 4.28771 0.533333 4.64131 0.533333ZM11.3586 15.4667H4.64131C4.28771 15.4667 3.99998 15.1789 3.99998 14.8253V12.8H12V14.8253C12 15.1789 11.7122 15.4667 11.3586 15.4667Z"/>
</mask>
<path d="M11.3586 0H4.64131C3.99384 0 3.46664 0.5272 3.46664 1.17467V14.8251C3.46664 15.4728 3.99384 16 4.64131 16H11.3584C12.0061 16 12.5333 15.4728 12.5333 14.8253V1.17467C12.5333 0.5272 12.0061 0 11.3586 0ZM3.99998 2.13333H12V12.2667H3.99998V2.13333ZM4.64131 0.533333H11.3584C11.7122 0.533333 12 0.821067 12 1.17467V1.6H3.99998V1.17467C3.99998 0.821067 4.28771 0.533333 4.64131 0.533333ZM11.3586 15.4667H4.64131C4.28771 15.4667 3.99998 15.1789 3.99998 14.8253V12.8H12V14.8253C12 15.1789 11.7122 15.4667 11.3586 15.4667Z" fill="white"/>
<path d="M3.99998 2.13333V1.13333H2.99998V2.13333H3.99998ZM12 2.13333H13V1.13333H12V2.13333ZM12 12.2667V13.2667H13V12.2667H12ZM3.99998 12.2667H2.99998V13.2667H3.99998V12.2667ZM12 1.6V2.6H13V1.6H12ZM3.99998 1.6H2.99998V2.6H3.99998V1.6ZM3.99998 12.8V11.8H2.99998V12.8H3.99998ZM12 12.8H13V11.8H12V12.8ZM11.3586 -1H4.64131V1H11.3586V-1ZM4.64131 -1C3.44156 -1 2.46664 -0.0250846 2.46664 1.17467H4.46664C4.46664 1.07948 4.54613 1 4.64131 1V-1ZM2.46664 1.17467V14.8251H4.46664V1.17467H2.46664ZM2.46664 14.8251C2.46664 16.0249 3.44141 17 4.64131 17V15C4.54628 15 4.46664 14.9207 4.46664 14.8251H2.46664ZM4.64131 17H11.3584V15H4.64131V17ZM11.3584 17C12.5582 17 13.5333 16.0252 13.5333 14.8253H11.5333C11.5333 14.9204 11.454 15 11.3584 15V17ZM13.5333 14.8253V1.17467H11.5333V14.8253H13.5333ZM13.5333 1.17467C13.5333 -0.025084 12.5584 -1 11.3586 -1V1C11.4538 1 11.5333 1.07948 11.5333 1.17467H13.5333ZM3.99998 3.13333H12V1.13333H3.99998V3.13333ZM11 2.13333V12.2667H13V2.13333H11ZM12 11.2667H3.99998V13.2667H12V11.2667ZM4.99998 12.2667V2.13333H2.99998V12.2667H4.99998ZM4.64131 1.53333H11.3584V-0.466667H4.64131V1.53333ZM11.3584 1.53333C11.1602 1.53333 11 1.37362 11 1.17467H13C13 0.268513 12.2643 -0.466667 11.3584 -0.466667V1.53333ZM11 1.17467V1.6H13V1.17467H11ZM12 0.6H3.99998V2.6H12V0.6ZM4.99998 1.6V1.17467H2.99998V1.6H4.99998ZM4.99998 1.17467C4.99998 1.37335 4.84 1.53333 4.64131 1.53333V-0.466667C3.73543 -0.466667 2.99998 0.268782 2.99998 1.17467H4.99998ZM11.3586 14.4667H4.64131V16.4667H11.3586V14.4667ZM4.64131 14.4667C4.83999 14.4667 4.99998 14.6266 4.99998 14.8253H2.99998C2.99998 15.7312 3.73543 16.4667 4.64131 16.4667V14.4667ZM4.99998 14.8253V12.8H2.99998V14.8253H4.99998ZM3.99998 13.8H12V11.8H3.99998V13.8ZM11 12.8V14.8253H13V12.8H11ZM11 14.8253C11 14.6266 11.16 14.4667 11.3586 14.4667V16.4667C12.2645 16.4667 13 15.7312 13 14.8253H11Z" fill="white" mask="url(#path-1-inside-1)"/>
<mask id="path-3-inside-2" fill="white">
<path d="M7.99998 13.0664C7.41172 13.0664 6.93332 13.5448 6.93332 14.1331C6.93332 14.7213 7.41172 15.1997 7.99998 15.1997C8.58825 15.1997 9.06665 14.7213 9.06665 14.1331C9.06665 13.5448 8.58825 13.0664 7.99998 13.0664ZM7.99998 14.6664C7.70585 14.6664 7.46665 14.4272 7.46665 14.1331C7.46665 13.8389 7.70585 13.5997 7.99998 13.5997C8.29412 13.5997 8.53332 13.8389 8.53332 14.1331C8.53332 14.4272 8.29412 14.6664 7.99998 14.6664Z"/>
</mask>
<path d="M7.99998 13.0664C7.41172 13.0664 6.93332 13.5448 6.93332 14.1331C6.93332 14.7213 7.41172 15.1997 7.99998 15.1997C8.58825 15.1997 9.06665 14.7213 9.06665 14.1331C9.06665 13.5448 8.58825 13.0664 7.99998 13.0664ZM7.99998 14.6664C7.70585 14.6664 7.46665 14.4272 7.46665 14.1331C7.46665 13.8389 7.70585 13.5997 7.99998 13.5997C8.29412 13.5997 8.53332 13.8389 8.53332 14.1331C8.53332 14.4272 8.29412 14.6664 7.99998 14.6664Z" fill="white"/>
<path d="M7.99998 12.0664C6.85943 12.0664 5.93332 12.9925 5.93332 14.1331H7.93332C7.93332 14.0971 7.964 14.0664 7.99998 14.0664V12.0664ZM5.93332 14.1331C5.93332 15.2736 6.85943 16.1997 7.99998 16.1997V14.1997C7.964 14.1997 7.93332 14.1691 7.93332 14.1331H5.93332ZM7.99998 16.1997C9.14054 16.1997 10.0667 15.2736 10.0667 14.1331H8.06665C8.06665 14.1691 8.03597 14.1997 7.99998 14.1997V16.1997ZM10.0667 14.1331C10.0667 12.9925 9.14054 12.0664 7.99998 12.0664V14.0664C8.03597 14.0664 8.06665 14.0971 8.06665 14.1331H10.0667ZM7.99998 13.6664C8.25814 13.6664 8.46665 13.8749 8.46665 14.1331H6.46665C6.46665 14.9795 7.15357 15.6664 7.99998 15.6664V13.6664ZM8.46665 14.1331C8.46665 14.3912 8.25814 14.5997 7.99998 14.5997V12.5997C7.15357 12.5997 6.46665 13.2867 6.46665 14.1331H8.46665ZM7.99998 14.5997C7.74183 14.5997 7.53332 14.3912 7.53332 14.1331H9.53332C9.53332 13.2867 8.8464 12.5997 7.99998 12.5997V14.5997ZM7.53332 14.1331C7.53332 13.8749 7.74183 13.6664 7.99998 13.6664V15.6664C8.8464 15.6664 9.53332 14.9795 9.53332 14.1331H7.53332Z" fill="white" mask="url(#path-3-inside-2)"/>
<mask id="path-5-inside-3" fill="white">
<path d="M6.93332 1.33314H7.99999C8.14746 1.33314 8.26666 1.21394 8.26666 1.06647C8.26666 0.919005 8.14746 0.799805 7.99999 0.799805H6.93332C6.78586 0.799805 6.66666 0.919005 6.66666 1.06647C6.66666 1.21394 6.78586 1.33314 6.93332 1.33314Z"/>
</mask>
<path d="M6.93332 1.33314H7.99999C8.14746 1.33314 8.26666 1.21394 8.26666 1.06647C8.26666 0.919005 8.14746 0.799805 7.99999 0.799805H6.93332C6.78586 0.799805 6.66666 0.919005 6.66666 1.06647C6.66666 1.21394 6.78586 1.33314 6.93332 1.33314Z" fill="white"/>
<path d="M6.93332 2.33314H7.99999V0.333138H6.93332V2.33314ZM7.99999 2.33314C8.69974 2.33314 9.26666 1.76622 9.26666 1.06647H7.26666C7.26666 0.661654 7.59517 0.333138 7.99999 0.333138V2.33314ZM9.26666 1.06647C9.26666 0.36672 8.69974 -0.200195 7.99999 -0.200195V1.7998C7.59517 1.7998 7.26666 1.47129 7.26666 1.06647H9.26666ZM7.99999 -0.200195H6.93332V1.7998H7.99999V-0.200195ZM6.93332 -0.200195C6.23357 -0.200195 5.66666 0.36672 5.66666 1.06647H7.66666C7.66666 1.47129 7.33814 1.7998 6.93332 1.7998V-0.200195ZM5.66666 1.06647C5.66666 1.76622 6.23357 2.33314 6.93332 2.33314V0.333138C7.33814 0.333138 7.66666 0.661654 7.66666 1.06647H5.66666Z" fill="white" mask="url(#path-5-inside-3)"/>
<path d="M8.83333 1.06647C8.83333 0.987334 8.87291 0.917281 8.93333 0.875071C8.99374 0.917281 9.03333 0.987334 9.03333 1.06647C9.03333 1.14561 8.99374 1.21566 8.93333 1.25787C8.87291 1.21566 8.83333 1.14561 8.83333 1.06647Z" fill="white" stroke="white"/>
</svg>
