<svg width="30" height="24" viewBox="0 0 30 24" fill="none" xmlns="http://www.w3.org/2000/svg">
<path fill-rule="evenodd" clip-rule="evenodd" d="M13.4483 17.7651C13.4483 21.0961 10.9216 24 7.09091 24C2.77116 24 0 20.3274 0 15.8007C0 4.35587 7.49843 0.512456 12.6332 0V5.20996C9.53605 5.72242 6.11285 8.37011 5.94984 12.2989C6.35737 12.0427 6.9279 11.8719 7.66144 11.8719C11.3292 11.8719 13.4483 14.1779 13.4483 17.7651ZM30 17.7651C30 21.0961 27.4734 24 23.6426 24C19.3229 24 16.5517 20.3274 16.5517 15.8007C16.5517 4.35587 24.0502 0.512456 29.185 0V5.20996C26.0878 5.72242 22.6646 8.37011 22.5016 12.2989C22.9091 12.0427 23.4796 11.8719 24.2132 11.8719C27.8809 11.8719 30 14.1779 30 17.7651Z" fill="#2D2D45"/>
</svg>
