<svg width="17" height="17" viewBox="0 0 17 17" fill="none" xmlns="http://www.w3.org/2000/svg">
<path fill-rule="evenodd" clip-rule="evenodd" d="M1 8.5C1 4.36433 4.36433 1 8.5 1C12.6357 1 16 4.36433 16 8.5C16 12.6357 12.6357 16 8.5 16C7.13269 16 5.79913 15.6299 4.63462 14.9284L1.66173 15.8428C1.56192 15.8734 1.45231 15.8474 1.37644 15.7744C1.30058 15.7014 1.27087 15.593 1.29856 15.4914C1.29916 15.4893 1.30555 15.4659 1.31685 15.4246C1.41361 15.0705 1.8704 13.3992 2.13567 12.4698C1.39202 11.2805 1 9.91086 1 8.5ZM4.8276 14.3699C5.92663 15.0587 7.19644 15.4231 8.5 15.4231C12.3172 15.4231 15.4231 12.3172 15.4231 8.5C15.4231 4.68279 12.3172 1.57692 8.5 1.57692C4.68279 1.57692 1.57692 4.68279 1.57692 8.5C1.57692 9.84336 1.96202 11.1461 2.69067 12.2673C2.73596 12.3374 2.74894 12.4239 2.72587 12.5041C2.52712 13.1967 2.18442 14.4417 1.99375 15.1378L4.58962 14.3387C4.61731 14.3304 4.64586 14.3261 4.67442 14.3261C4.72779 14.3261 4.78115 14.3408 4.8276 14.3699ZM12.0833 9.45895C12.4141 9.67527 12.8673 9.97163 13.3995 10.2671C13.5062 10.3263 13.5642 10.4463 13.5437 10.5666C13.27 12.2105 12.2979 13.0393 10.6508 13.0393C10.3715 13.0393 10.0733 13.0156 9.75509 12.968C6.95529 12.548 4.75923 9.96252 3.90365 7.7382C3.12423 5.71147 4.76442 4.03926 4.83452 3.96916C4.8749 3.92906 4.92625 3.90166 4.98192 3.89041C5.56086 3.77503 5.93961 3.80128 6.10779 3.96916C6.27538 4.13676 7.20192 5.79512 7.20192 6.19233C7.20192 6.57772 7.01356 6.91637 6.49058 7.45464C6.56586 7.89772 7.07875 8.5482 7.89394 9.22752C8.6924 9.89243 9.49577 10.3491 9.6674 10.3759C9.81596 10.3459 10.3234 9.78829 10.7119 9.20531C10.7223 9.18974 10.7344 9.17502 10.748 9.16147C10.8559 9.05243 11.1394 8.9206 11.5136 9.10724C11.6474 9.17445 11.83 9.29358 12.0827 9.45858L12.0833 9.45895ZM4.44221 7.53108C5.0151 9.02012 6.88 11.9535 9.84077 12.3974C12.126 12.7407 12.7242 11.6991 12.9383 10.6693C12.4669 10.399 12.0677 10.1382 11.7671 9.94175C11.5395 9.79291 11.3595 9.6755 11.2557 9.62329C11.2052 9.59791 11.1697 9.5907 11.1487 9.58983C10.7843 10.1272 10.1445 10.9519 9.65384 10.9519C9.08961 10.9519 5.90385 8.85656 5.90385 7.34618C5.90385 7.26945 5.93413 7.19618 5.98836 7.14224C6.57567 6.55464 6.625 6.34377 6.625 6.19233C6.595 5.96099 5.91481 4.67589 5.71836 4.40272C5.62433 4.38801 5.39904 4.40329 5.185 4.43964C4.92192 4.73733 3.87394 6.05416 4.44221 7.53108Z" fill="white"/>
<path d="M4.63462 14.9284L4.69912 14.8213L4.65126 14.7925L4.59787 14.8089L4.63462 14.9284ZM1.66173 15.8428L1.69835 15.9623L1.69848 15.9623L1.66173 15.8428ZM1.29856 15.4914L1.17823 15.4576L1.17796 15.4586L1.29856 15.4914ZM1.31685 15.4246L1.43743 15.4575H1.43743L1.31685 15.4246ZM2.13567 12.4698L2.25587 12.5041L2.27113 12.4507L2.24166 12.4035L2.13567 12.4698ZM4.8276 14.3699L4.76117 14.4758L4.76121 14.4758L4.8276 14.3699ZM2.69067 12.2673L2.79567 12.1995L2.79549 12.1992L2.69067 12.2673ZM2.72587 12.5041L2.60574 12.4696L2.60571 12.4697L2.72587 12.5041ZM1.99375 15.1378L1.87319 15.1048L1.81308 15.3242L2.03052 15.2573L1.99375 15.1378ZM4.58962 14.3387L4.55347 14.2191L4.55284 14.2193L4.58962 14.3387ZM13.3995 10.2671L13.3388 10.3764L13.3389 10.3765L13.3995 10.2671ZM12.0833 9.45895L12.0148 9.56353L12.0148 9.56357L12.0833 9.45895ZM13.5437 10.5666L13.4205 10.5456L13.4204 10.546L13.5437 10.5666ZM9.75509 12.968L9.73655 13.0916L9.7366 13.0916L9.75509 12.968ZM3.90365 7.7382L3.78698 7.78306L3.78699 7.78307L3.90365 7.7382ZM4.83452 3.96916L4.74645 3.88046L4.74613 3.88077L4.83452 3.96916ZM4.98192 3.89041L4.95749 3.76782L4.95716 3.76789L4.98192 3.89041ZM6.10779 3.96916L6.19618 3.88077L6.1961 3.8807L6.10779 3.96916ZM6.49058 7.45464L6.40092 7.36753L6.35671 7.41303L6.36734 7.47558L6.49058 7.45464ZM7.89394 9.22752L7.81392 9.32355L7.81395 9.32358L7.89394 9.22752ZM9.6674 10.3759L9.6481 10.4994L9.67021 10.5028L9.69215 10.4984L9.6674 10.3759ZM10.7119 9.20531L10.6079 9.13598L10.6079 9.13599L10.7119 9.20531ZM10.748 9.16147L10.8364 9.24986L10.8368 9.24938L10.748 9.16147ZM11.5136 9.10724L11.5696 8.99553L11.5694 8.99538L11.5136 9.10724ZM12.0827 9.45858L12.1512 9.35401L12.151 9.35392L12.0827 9.45858ZM9.84077 12.3974L9.85934 12.2738L9.8593 12.2738L9.84077 12.3974ZM4.44221 7.53108L4.55887 7.4862L4.55887 7.48619L4.44221 7.53108ZM12.9383 10.6693L13.0607 10.6947L13.0791 10.6059L13.0004 10.5608L12.9383 10.6693ZM11.7671 9.94175L11.6987 10.0464L11.6987 10.0464L11.7671 9.94175ZM11.2557 9.62329L11.1995 9.73497L11.1995 9.73497L11.2557 9.62329ZM11.1487 9.58983L11.1538 9.46494L11.0842 9.46208L11.0452 9.51969L11.1487 9.58983ZM5.98836 7.14224L6.07652 7.23086L6.07677 7.2306L5.98836 7.14224ZM6.625 6.19233H6.75V6.18426L6.74896 6.17626L6.625 6.19233ZM5.71836 4.40272L5.81985 4.32974L5.78933 4.2873L5.73769 4.27922L5.71836 4.40272ZM5.185 4.43964L5.16407 4.3164L5.12056 4.32379L5.09133 4.35687L5.185 4.43964ZM8.5 0.875C4.29529 0.875 0.875 4.29529 0.875 8.5H1.125C1.125 4.43336 4.43336 1.125 8.5 1.125V0.875ZM16.125 8.5C16.125 4.29529 12.7047 0.875 8.5 0.875V1.125C12.5666 1.125 15.875 4.43336 15.875 8.5H16.125ZM8.5 16.125C12.7047 16.125 16.125 12.7047 16.125 8.5H15.875C15.875 12.5666 12.5666 15.875 8.5 15.875V16.125ZM4.57011 15.0354C5.75419 15.7488 7.11006 16.125 8.5 16.125V15.875C7.15532 15.875 5.84408 15.511 4.69912 14.8213L4.57011 15.0354ZM1.69848 15.9623L4.67136 15.0478L4.59787 14.8089L1.62498 15.7233L1.69848 15.9623ZM1.28978 15.8645C1.39834 15.9689 1.55513 16.0062 1.69835 15.9623L1.62512 15.7233C1.56871 15.7405 1.50628 15.7259 1.4631 15.6843L1.28978 15.8645ZM1.17796 15.4586C1.13829 15.604 1.18082 15.7597 1.28978 15.8645L1.4631 15.6843C1.42033 15.6432 1.40344 15.5819 1.41915 15.5243L1.17796 15.4586ZM1.19627 15.3916C1.19062 15.4123 1.1862 15.4285 1.18312 15.4397C1.18158 15.4454 1.18038 15.4498 1.17953 15.4529C1.17859 15.4563 1.17824 15.4576 1.17824 15.4576L1.41888 15.5253C1.41965 15.5226 1.42628 15.4983 1.43743 15.4575L1.19627 15.3916ZM2.01547 12.4355C1.74996 13.3657 1.29297 15.0378 1.19627 15.3916L1.43743 15.4575C1.53426 15.1032 1.99083 13.4327 2.25587 12.5041L2.01547 12.4355ZM0.875 8.5C0.875 9.93417 1.27354 11.3268 2.02969 12.5361L2.24166 12.4035C1.5105 11.2342 1.125 9.88755 1.125 8.5H0.875ZM8.5 15.2981C7.21982 15.2981 5.97303 14.9403 4.89398 14.264L4.76121 14.4758C5.88024 15.1772 7.17307 15.5481 8.5 15.5481V15.2981ZM15.2981 8.5C15.2981 12.2482 12.2482 15.2981 8.5 15.2981V15.5481C12.3862 15.5481 15.5481 12.3862 15.5481 8.5H15.2981ZM8.5 1.70192C12.2482 1.70192 15.2981 4.75182 15.2981 8.5H15.5481C15.5481 4.61375 12.3862 1.45192 8.5 1.45192V1.70192ZM1.70192 8.5C1.70192 4.75182 4.75182 1.70192 8.5 1.70192V1.45192C4.61375 1.45192 1.45192 4.61375 1.45192 8.5H1.70192ZM2.79549 12.1992C2.08007 11.0983 1.70192 9.81931 1.70192 8.5H1.45192C1.45192 9.86742 1.84397 11.1938 2.58586 12.3354L2.79549 12.1992ZM2.84599 12.5387C2.87912 12.4236 2.86044 12.2997 2.79567 12.1995L2.58568 12.3351C2.61148 12.3751 2.61877 12.4243 2.60574 12.4696L2.84599 12.5387ZM2.11431 15.1708C2.30502 14.4746 2.64751 13.2304 2.84602 12.5386L2.60571 12.4697C2.40672 13.1631 2.06383 14.4088 1.87319 15.1048L2.11431 15.1708ZM4.55284 14.2193L1.95698 15.0183L2.03052 15.2573L4.62639 14.4582L4.55284 14.2193ZM4.67442 14.2011C4.63323 14.2011 4.5925 14.2073 4.55347 14.2191L4.62576 14.4584C4.64211 14.4535 4.6585 14.4511 4.67442 14.4511V14.2011ZM4.89402 14.264C4.82711 14.222 4.75061 14.2011 4.67442 14.2011V14.4511C4.70496 14.4511 4.7352 14.4595 4.76117 14.4758L4.89402 14.264ZM13.4602 10.1579C12.9324 9.86478 12.4825 9.57066 12.1517 9.35433L12.0148 9.56357C12.3456 9.77987 12.8023 10.0785 13.3388 10.3764L13.4602 10.1579ZM13.667 10.5875C13.6964 10.4147 13.6131 10.2426 13.4601 10.1578L13.3389 10.3765C13.3994 10.41 13.4321 10.4779 13.4205 10.5456L13.667 10.5875ZM10.6508 13.1643C11.4952 13.1643 12.1817 12.9515 12.6935 12.5144C13.2051 12.0774 13.5268 11.4291 13.6671 10.5871L13.4204 10.546C13.2869 11.348 12.9858 11.936 12.5311 12.3243C12.0766 12.7126 11.4535 12.9143 10.6508 12.9143V13.1643ZM9.7366 13.0916C10.06 13.14 10.3645 13.1643 10.6508 13.1643V12.9143C10.3785 12.9143 10.0865 12.8912 9.77359 12.8444L9.7366 13.0916ZM3.78699 7.78307C4.2212 8.91193 4.99412 10.1297 6.0132 11.1194C7.03228 12.1091 8.30404 12.8767 9.73655 13.0916L9.77364 12.8444C8.40634 12.6393 7.18017 11.9042 6.18737 10.9401C5.19458 9.9759 4.44169 8.78879 4.02032 7.69332L3.78699 7.78307ZM4.74613 3.88077C4.70609 3.92082 4.26751 4.36812 3.9375 5.06654C3.60691 5.76618 3.38112 6.72771 3.78698 7.78306L4.02032 7.69333C3.64676 6.72196 3.85136 5.83401 4.16353 5.17334C4.47629 4.51145 4.89286 4.0876 4.92291 4.05755L4.74613 3.88077ZM4.95716 3.76789C4.87754 3.78398 4.80418 3.82313 4.74645 3.88046L4.92259 4.05786C4.94563 4.03499 4.97496 4.01934 5.00668 4.01293L4.95716 3.76789ZM6.1961 3.8807C6.08121 3.766 5.90886 3.71291 5.7076 3.69886C5.50404 3.68466 5.25248 3.70903 4.95749 3.76782L5.00635 4.013C5.2903 3.95641 5.51759 3.93621 5.69019 3.94826C5.86508 3.96046 5.96619 4.00443 6.01948 4.05762L6.1961 3.8807ZM7.32692 6.19233C7.32692 6.12332 7.30775 6.03929 7.28129 5.95299C7.25399 5.86396 7.21548 5.76182 7.16985 5.65272C7.07853 5.43437 6.95576 5.18122 6.82858 4.93692C6.70128 4.69238 6.56858 4.45485 6.45682 4.26737C6.40098 4.1737 6.34989 4.09172 6.30698 4.02725C6.26623 3.96604 6.22713 3.91173 6.19618 3.88077L6.0194 4.05755C6.03034 4.06849 6.05686 4.10266 6.09886 4.16577C6.1387 4.22563 6.18749 4.30381 6.24208 4.39538C6.35118 4.57839 6.48155 4.81171 6.60683 5.05236C6.73223 5.29326 6.85157 5.53965 6.93921 5.74919C6.98307 5.85404 7.01825 5.94794 7.04227 6.02628C7.06713 6.10735 7.07692 6.16205 7.07692 6.19233H7.32692ZM6.58023 7.54175C7.10759 6.99896 7.32692 6.6294 7.32692 6.19233H7.07692C7.07692 6.52604 6.91952 6.83378 6.40092 7.36753L6.58023 7.54175ZM7.97396 9.1315C7.57104 8.79573 7.24564 8.46936 7.01284 8.17496C6.77767 7.87755 6.64617 7.62417 6.61381 7.4337L6.36734 7.47558C6.41027 7.72818 6.57285 8.02159 6.81674 8.33002C7.06301 8.64146 7.40165 8.97999 7.81392 9.32355L7.97396 9.1315ZM9.68671 10.2524C9.68026 10.2514 9.66002 10.246 9.62202 10.2304C9.58623 10.2158 9.54091 10.1947 9.48688 10.1672C9.37894 10.1123 9.24068 10.0338 9.08182 9.93488C8.76419 9.73705 8.36843 9.45998 7.97393 9.13147L7.81395 9.32358C8.21791 9.65997 8.62306 9.94367 8.94965 10.1471C9.11289 10.2488 9.25755 10.331 9.37347 10.39C9.43137 10.4195 9.48321 10.4437 9.52732 10.4618C9.56923 10.4789 9.61164 10.4937 9.6481 10.4994L9.68671 10.2524ZM10.6079 9.13599C10.417 9.42248 10.1967 9.70288 10.0067 9.91445C9.91153 10.0204 9.82562 10.1072 9.75605 10.1685C9.72117 10.1992 9.69221 10.2218 9.66961 10.2369C9.64411 10.2539 9.63656 10.2546 9.64266 10.2534L9.69215 10.4984C9.73539 10.4897 9.77619 10.4664 9.80839 10.4449C9.84349 10.4214 9.88158 10.391 9.92123 10.3561C10.0007 10.2862 10.0938 10.1916 10.1927 10.0815C10.3907 9.86101 10.6183 9.57113 10.8159 9.27464L10.6079 9.13599ZM10.6596 9.07308C10.6404 9.09225 10.623 9.11331 10.6079 9.13598L10.8159 9.27465C10.8216 9.26616 10.8284 9.2578 10.8364 9.24986L10.6596 9.07308ZM11.5694 8.99538C11.1448 8.78359 10.8033 8.92782 10.6591 9.07355L10.8368 9.24938C10.9084 9.17704 11.1341 9.05761 11.4578 9.21909L11.5694 8.99538ZM12.151 9.35392C11.9013 9.19087 11.7114 9.06673 11.5696 8.99553L11.4575 9.21894C11.5834 9.28217 11.7587 9.3963 12.0143 9.56324L12.151 9.35392ZM12.1517 9.35438L12.1512 9.35401L12.0142 9.56316L12.0148 9.56353L12.1517 9.35438ZM9.8593 12.2738C8.41591 12.0574 7.23348 11.2331 6.33751 10.271C5.44137 9.30868 4.84007 8.21708 4.55887 7.4862L4.32555 7.57597C4.61724 8.33413 5.23483 9.45372 6.15456 10.4414C7.07445 11.4292 8.30486 12.2935 9.82223 12.521L9.8593 12.2738ZM12.8159 10.6438C12.7113 11.1468 12.5174 11.6288 12.0912 11.9482C11.6661 12.2668 10.9838 12.4427 9.85934 12.2738L9.8222 12.521C10.9829 12.6954 11.7424 12.5221 12.2412 12.1483C12.7389 11.7752 12.9511 11.2215 13.0607 10.6947L12.8159 10.6438ZM11.6987 10.0464C11.9993 10.2428 12.4013 10.5054 12.8761 10.7777L13.0004 10.5608C12.5326 10.2925 12.1361 10.0335 11.8355 9.83712L11.6987 10.0464ZM11.1995 9.73497C11.2953 9.78312 11.4675 9.89518 11.6987 10.0464L11.8355 9.83714C11.6115 9.69064 11.4237 9.56789 11.3118 9.51161L11.1995 9.73497ZM11.1435 9.71473C11.1429 9.7147 11.161 9.71558 11.1995 9.73497L11.3118 9.51162C11.2494 9.48023 11.1965 9.46669 11.1538 9.46494L11.1435 9.71473ZM9.65384 11.0769C9.81018 11.0769 9.96597 11.012 10.1103 10.9201C10.256 10.8274 10.4009 10.7002 10.5381 10.5597C10.8125 10.2786 11.0683 9.9311 11.2521 9.65997L11.0452 9.51969C10.8647 9.78597 10.6184 10.1195 10.3592 10.3851C10.2295 10.518 10.0997 10.6306 9.97606 10.7092C9.85104 10.7888 9.74285 10.8269 9.65384 10.8269V11.0769ZM5.77885 7.34618C5.77885 7.76449 5.99748 8.20566 6.31054 8.62191C6.62598 9.04133 7.0498 9.45192 7.48788 9.81202C7.9264 10.1725 8.38301 10.4855 8.76699 10.709C8.95887 10.8207 9.13436 10.911 9.28163 10.9739C9.42335 11.0344 9.55553 11.0769 9.65384 11.0769V10.8269C9.6111 10.8269 9.52031 10.804 9.3798 10.744C9.24486 10.6864 9.07889 10.6013 8.89276 10.4929C8.52071 10.2763 8.07509 9.97108 7.64663 9.61889C7.21774 9.26635 6.80986 8.8699 6.51034 8.47164C6.20843 8.07021 6.02885 7.68306 6.02885 7.34618H5.77885ZM5.90021 7.05361C5.82222 7.13119 5.77885 7.23643 5.77885 7.34618H6.02885C6.02885 7.30246 6.04605 7.26116 6.07652 7.23086L5.90021 7.05361ZM6.5 6.19233C6.5 6.28959 6.48484 6.4687 5.89995 7.05387L6.07677 7.2306C6.6665 6.64058 6.75 6.39796 6.75 6.19233H6.5ZM5.61688 4.4757C5.7089 4.60366 5.92411 4.98511 6.12302 5.37054C6.22163 5.56161 6.31455 5.75039 6.38439 5.90499C6.41936 5.98238 6.44799 6.05 6.46856 6.10442C6.49035 6.16206 6.49935 6.19537 6.50104 6.20841L6.74896 6.17626C6.74315 6.13146 6.72433 6.07401 6.70241 6.01602C6.67927 5.95481 6.64831 5.88194 6.61222 5.80206C6.53995 5.6421 6.44492 5.44915 6.34518 5.25588C6.14738 4.87263 5.92427 4.47495 5.81985 4.32974L5.61688 4.4757ZM5.20593 4.56288C5.30899 4.54537 5.4147 4.53297 5.50526 4.52674C5.59899 4.52029 5.66685 4.52118 5.69904 4.52622L5.73769 4.27922C5.67584 4.26954 5.58404 4.27072 5.4881 4.27733C5.389 4.28415 5.27504 4.29756 5.16407 4.3164L5.20593 4.56288ZM4.55887 7.48619C4.28957 6.78628 4.40161 6.12204 4.61766 5.5902C4.83414 5.05728 5.15201 4.66573 5.27867 4.52241L5.09133 4.35687C4.95491 4.51124 4.61725 4.92695 4.38604 5.4961C4.1544 6.06633 4.02658 6.79896 4.32555 7.57597L4.55887 7.48619Z" fill="white"/>
</svg>
